<svg xmlns="http://www.w3.org/2000/svg" width="76.432" height="80.317" viewBox="0 0 76.432 80.317"><defs><style>.a{fill:#c4a2fc;}.b{fill:#151a6a;}.c,.e{fill:none;}.c{stroke:#d6d2d9;stroke-width:1.5px;}.d{stroke:none;}</style></defs><path class="a" d="M45.02,31.255,15.44,63.407A5.348,5.348,0,0,0,23,70.963l32.152-29.58Z" transform="translate(0.905 7.939)"/><path class="a" d="M68.045,16.8a1.3,1.3,0,0,0-1.26-1.26c-1.153-.032-11.357-.206-14.69,3.127a9.068,9.068,0,0,0-2.3,8.891,7.643,7.643,0,0,0-1.328-.1,7.445,7.445,0,0,0-5.371,2.422l-3.785,4.114L49.588,44.275,53.7,40.5a7.442,7.442,0,0,0,2.424-5.368A7.642,7.642,0,0,0,56.03,33.8a9.041,9.041,0,0,0,8.888-2.308c3.333-3.337,3.158-13.537,3.127-14.7Z" transform="translate(8.375 3.291)"/><g transform="translate(0 0)"><path class="b" d="M15.568,21H10.386A3.886,3.886,0,0,0,6.5,24.886v5.182a3.886,3.886,0,0,0,3.886,3.886h5.182a3.886,3.886,0,0,0,3.886-3.886V24.886A3.886,3.886,0,0,0,15.568,21Zm1.3,9.068a1.3,1.3,0,0,1-1.3,1.3H10.386a1.3,1.3,0,0,1-1.3-1.3V24.886a1.3,1.3,0,0,1,1.3-1.3h5.182a1.3,1.3,0,0,1,1.3,1.3Z" transform="translate(-1.318 4.909)"/><path class="b" d="M31.568,21H26.386A3.886,3.886,0,0,0,22.5,24.886v5.182a3.886,3.886,0,0,0,3.886,3.886h5.182a3.886,3.886,0,0,0,3.886-3.886V24.886A3.886,3.886,0,0,0,31.568,21Zm1.3,9.068a1.3,1.3,0,0,1-1.3,1.3H26.386a1.3,1.3,0,0,1-1.3-1.3V24.886a1.3,1.3,0,0,1,1.3-1.3h5.182a1.3,1.3,0,0,1,1.3,1.3Z" transform="translate(3.409 4.909)"/><path class="b" d="M47.568,21H42.386A3.886,3.886,0,0,0,38.5,24.886v5.182a3.886,3.886,0,0,0,3.886,3.886h5.182a3.886,3.886,0,0,0,3.886-3.886V24.886A3.886,3.886,0,0,0,47.568,21Zm1.3,9.068a1.3,1.3,0,0,1-1.3,1.3H42.386a1.3,1.3,0,0,1-1.3-1.3V24.886a1.3,1.3,0,0,1,1.3-1.3h5.182a1.3,1.3,0,0,1,1.3,1.3Z" transform="translate(8.136 4.909)"/><path class="b" d="M15.568,37H10.386A3.886,3.886,0,0,0,6.5,40.886v5.182a3.886,3.886,0,0,0,3.886,3.886h5.182a3.886,3.886,0,0,0,3.886-3.886V40.886A3.886,3.886,0,0,0,15.568,37Zm1.3,9.068a1.3,1.3,0,0,1-1.3,1.3H10.386a1.3,1.3,0,0,1-1.3-1.3V40.886a1.3,1.3,0,0,1,1.3-1.3h5.182a1.3,1.3,0,0,1,1.3,1.3Z" transform="translate(-1.318 9.636)"/><path class="b" d="M31.568,37H26.386A3.886,3.886,0,0,0,22.5,40.886v5.182a3.886,3.886,0,0,0,3.886,3.886h5.182a3.886,3.886,0,0,0,3.886-3.886V40.886A3.886,3.886,0,0,0,31.568,37Zm1.3,9.068a1.3,1.3,0,0,1-1.3,1.3H26.386a1.3,1.3,0,0,1-1.3-1.3V40.886a1.3,1.3,0,0,1,1.3-1.3h5.182a1.3,1.3,0,0,1,1.3,1.3Z" transform="translate(3.409 9.636)"/><path class="b" d="M42.386,49.955h5.182a3.886,3.886,0,0,0,3.886-3.886V40.886A3.886,3.886,0,0,0,47.568,37H42.386A3.886,3.886,0,0,0,38.5,40.886v5.182A3.886,3.886,0,0,0,42.386,49.955Zm-1.3-9.068a1.3,1.3,0,0,1,1.3-1.3h5.182a1.3,1.3,0,0,1,1.3,1.3v5.182a1.3,1.3,0,0,1-1.3,1.3H42.386a1.3,1.3,0,0,1-1.3-1.3Z" transform="translate(8.136 9.636)"/><path class="b" d="M63.386,1h-57A3.886,3.886,0,0,0,2.5,4.886v57a3.886,3.886,0,0,0,3.886,3.886h57a3.886,3.886,0,0,0,3.886-3.886v-57A3.886,3.886,0,0,0,63.386,1ZM23.227,24.318,5.091,42.455Zm20.727,0L25.818,42.455Zm2.591,0v0ZM5.091,4.886a1.3,1.3,0,0,1,1.3-1.3h57a1.3,1.3,0,0,1,1.3,1.3V21.727H5.091Zm0,40.159Zm20.727,0L43.955,63.182Zm20.727,0h0Z" transform="translate(-2.5 -1)"/><path class="b" d="M54.275,16.565a5.451,5.451,0,1,0,0-10.643L47.813,7.357H10.386a3.886,3.886,0,1,0,0,7.773H47.813ZM49.25,12.8v0ZM9.091,11.243a1.3,1.3,0,0,1,1.3-1.3H46.659v2.591H10.386A1.3,1.3,0,0,1,9.091,11.243Z" transform="translate(-1.318 0.416)"/><g class="c" transform="translate(2.727 26.046)"><rect class="d" width="17" height="15" rx="2"/><rect class="e" x="0.75" y="0.75" width="15.5" height="13.5" rx="1.25"/></g><g class="c" transform="translate(2.727 45.046)"><rect class="d" width="17" height="15" rx="2"/><rect class="e" x="0.75" y="0.75" width="15.5" height="13.5" rx="1.25"/></g><g class="c" transform="translate(23.727 26.046)"><rect class="d" width="17" height="15" rx="2"/><rect class="e" x="0.75" y="0.75" width="15.5" height="13.5" rx="1.25"/></g><g class="c" transform="translate(23.727 45.046)"><rect class="d" width="17" height="15" rx="2"/><rect class="e" x="0.75" y="0.75" width="15.5" height="13.5" rx="1.25"/></g><g class="c" transform="translate(44.727 26.046)"><rect class="d" width="17" height="15" rx="2"/><rect class="e" x="0.75" y="0.75" width="15.5" height="13.5" rx="1.25"/></g><g class="c" transform="translate(44.727 45.046)"><rect class="d" width="17" height="15" rx="2"/><rect class="e" x="0.75" y="0.75" width="15.5" height="13.5" rx="1.25"/></g></g></svg>