<svg id="Capa_1" data-name="Capa 1" xmlns="http://www.w3.org/2000/svg" viewBox="0 0 108 108"><defs><style>.cls-1{fill:#f38120;}</style></defs><path class="cls-1" d="M54,10.6c14.4,0,16.1.1,21.8.3s8.1,1.1,10,1.9a16.2,16.2,0,0,1,6.2,4A17.2,17.2,0,0,1,96.1,23a30.4,30.4,0,0,1,1.8,10c.3,5.7.4,7.4.4,21.9s-.1,16.1-.4,21.8a30.4,30.4,0,0,1-1.8,10A17.2,17.2,0,0,1,92,92.9a15.1,15.1,0,0,1-6.2,4,26.9,26.9,0,0,1-10,1.9c-5.7.3-7.4.3-21.8.3s-16.1,0-21.8-.3a28.1,28.1,0,0,1-10.1-1.9,15.8,15.8,0,0,1-6.2-4,18.4,18.4,0,0,1-4-6.2,32.6,32.6,0,0,1-1.9-10c-.2-5.7-.3-7.4-.3-21.8S9.8,38.7,10,33a32.6,32.6,0,0,1,1.9-10,18.4,18.4,0,0,1,4-6.2,17,17,0,0,1,6.2-4,30.5,30.5,0,0,1,10.1-1.9c5.7-.2,7.4-.3,21.8-.3M54,.9c-14.7,0-16.5,0-22.3.3A42.3,42.3,0,0,0,18.6,3.7,26.9,26.9,0,0,0,9.1,9.9a26.7,26.7,0,0,0-6.3,9.6A41.6,41.6,0,0,0,.3,32.6C.1,38.4,0,40.2,0,54.9S.1,71.4.3,77.1A41.1,41.1,0,0,0,2.8,90.2a26.7,26.7,0,0,0,6.3,9.6,26.9,26.9,0,0,0,9.5,6.2,39.5,39.5,0,0,0,13.1,2.5c5.8.3,7.6.3,22.3.3s16.5,0,22.2-.3A39.6,39.6,0,0,0,89.4,106a26.9,26.9,0,0,0,9.5-6.2,25.1,25.1,0,0,0,6.2-9.6,38.2,38.2,0,0,0,2.6-13.1c.2-5.7.3-7.6.3-22.2s-.1-16.5-.3-22.3a38.7,38.7,0,0,0-2.6-13.1,25.1,25.1,0,0,0-6.2-9.6,26.9,26.9,0,0,0-9.5-6.2A42.4,42.4,0,0,0,76.2,1.2C70.5.9,68.7.9,54,.9"/><path class="cls-1" d="M54,27.1A27.8,27.8,0,1,0,81.7,54.9,27.7,27.7,0,0,0,54,27.1m0,45.8a18,18,0,1,1,18-18,18,18,0,0,1-18,18"/><path class="cls-1" d="M89.3,26a6.5,6.5,0,1,1-6.5-6.4A6.5,6.5,0,0,1,89.3,26"/><path class="cls-1" d="M54,10.6c14.4,0,16.1.1,21.8.3s8.1,1.1,10,1.9a16.2,16.2,0,0,1,6.2,4A17.2,17.2,0,0,1,96.1,23a30.4,30.4,0,0,1,1.8,10c.3,5.7.4,7.4.4,21.9s-.1,16.1-.4,21.8a30.4,30.4,0,0,1-1.8,10A17.2,17.2,0,0,1,92,92.9a15.1,15.1,0,0,1-6.2,4,26.9,26.9,0,0,1-10,1.9c-5.7.3-7.4.3-21.8.3s-16.1,0-21.8-.3a28.1,28.1,0,0,1-10.1-1.9,15.8,15.8,0,0,1-6.2-4,18.4,18.4,0,0,1-4-6.2,32.6,32.6,0,0,1-1.9-10c-.2-5.7-.3-7.4-.3-21.8S9.8,38.7,10,33a32.6,32.6,0,0,1,1.9-10,18.4,18.4,0,0,1,4-6.2,17,17,0,0,1,6.2-4,30.5,30.5,0,0,1,10.1-1.9c5.7-.2,7.4-.3,21.8-.3M54,.9c-14.7,0-16.5,0-22.3.3A42.3,42.3,0,0,0,18.6,3.7,26.9,26.9,0,0,0,9.1,9.9a26.7,26.7,0,0,0-6.3,9.6A41.6,41.6,0,0,0,.3,32.6C.1,38.4,0,40.2,0,54.9S.1,71.4.3,77.1A41.1,41.1,0,0,0,2.8,90.2a26.7,26.7,0,0,0,6.3,9.6,26.9,26.9,0,0,0,9.5,6.2,39.5,39.5,0,0,0,13.1,2.5c5.8.3,7.6.3,22.3.3s16.5,0,22.2-.3A39.6,39.6,0,0,0,89.4,106a26.9,26.9,0,0,0,9.5-6.2,25.1,25.1,0,0,0,6.2-9.6,38.2,38.2,0,0,0,2.6-13.1c.2-5.7.3-7.6.3-22.2s-.1-16.5-.3-22.3a38.7,38.7,0,0,0-2.6-13.1,25.1,25.1,0,0,0-6.2-9.6,26.9,26.9,0,0,0-9.5-6.2A42.4,42.4,0,0,0,76.2,1.2C70.5.9,68.7.9,54,.9"/><path class="cls-1" d="M54,27.1A27.8,27.8,0,1,0,81.7,54.9,27.7,27.7,0,0,0,54,27.1m0,45.8a18,18,0,1,1,18-18,18,18,0,0,1-18,18"/><path class="cls-1" d="M89.3,26a6.5,6.5,0,1,1-6.5-6.4A6.5,6.5,0,0,1,89.3,26"/></svg>