<svg xmlns="http://www.w3.org/2000/svg" width="82.905" height="82.909" viewBox="0 0 82.905 82.909"><defs><style>.a{fill:#c4a2fc;}.b{fill:none;}.c{fill:#151a6a;}</style></defs><g transform="translate(20.072 20.234)"><path class="a" d="M56.617,37.744c-3.6-3.6-8.087-5.841-11.7-5.841a4.056,4.056,0,0,0-2.945.919c-1.309,1.31-.874,4.1-.71,4.927a20.059,20.059,0,0,0,5.63,9.72c3.6,3.6,8.088,5.842,11.7,5.842a4.056,4.056,0,0,0,2.946-.92c1.311-1.311.874-4.1.709-4.925a20.069,20.069,0,0,0-5.63-9.721Z" transform="translate(-7.946 -10.813)"/><path class="a" d="M71.847,61.024H70.105a10.816,10.816,0,0,0,.977-.858c2.942-2.941,4-7.359,2.984-12.44a28.133,28.133,0,0,0-7.9-13.97,28.134,28.134,0,0,0-13.97-7.905c-5.082-1.02-9.5.043-12.44,2.984s-4,7.359-2.984,12.44a28.134,28.134,0,0,0,7.905,13.97,30.854,30.854,0,0,0,7.945,5.778H31.247a2.594,2.594,0,0,0-2.591,2.591v9.178a2.594,2.594,0,0,0,2.591,2.591h40.6a2.593,2.593,0,0,0,2.591-2.591V63.615a2.593,2.593,0,0,0-2.591-2.591Zm-4.814-4.907A6.489,6.489,0,0,1,62.256,57.8c-4.277,0-9.463-2.529-13.535-6.6a22.682,22.682,0,0,1-6.339-11.044c-.293-1.466-.741-5.108,1.419-7.268a6.5,6.5,0,0,1,4.776-1.677c4.277,0,9.464,2.529,13.535,6.6a22.7,22.7,0,0,1,6.339,11.045C68.744,50.316,69.194,53.956,67.033,56.117Z" transform="translate(-11.61 -12.708)"/><path class="a" d="M26.678,59.312a3.652,3.652,0,0,1-3.647-3.648,1.3,1.3,0,0,0-2.591,0,3.652,3.652,0,0,1-3.647,3.648,1.3,1.3,0,1,0,0,2.591A3.652,3.652,0,0,1,20.44,65.55a1.3,1.3,0,0,0,2.591,0A3.652,3.652,0,0,1,26.678,61.9a1.3,1.3,0,1,0,0-2.591Zm-4.943,2.436a6.29,6.29,0,0,0-1.141-1.141,6.286,6.286,0,0,0,1.141-1.141,6.281,6.281,0,0,0,1.141,1.141A6.284,6.284,0,0,0,21.736,61.749Z" transform="translate(-15.497 -4.17)"/><path class="a" d="M55.6,23.152A3.652,3.652,0,0,1,59.249,26.8a1.3,1.3,0,1,0,2.591,0,3.652,3.652,0,0,1,3.647-3.647,1.3,1.3,0,1,0,0-2.591,3.652,3.652,0,0,1-3.647-3.647,1.3,1.3,0,1,0-2.591,0A3.652,3.652,0,0,1,55.6,20.562a1.3,1.3,0,1,0,0,2.591Zm4.943-2.437a6.286,6.286,0,0,0,1.141,1.141A6.29,6.29,0,0,0,60.544,23,6.289,6.289,0,0,0,59.4,21.857a6.286,6.286,0,0,0,1.141-1.141Z" transform="translate(-4.031 -15.619)"/></g><path class="b" d="M48.785,10.562A10.65,10.65,0,0,0,31.427,4.55L28.9,6.711a1.3,1.3,0,0,1-1.757-.07L25.693,5.2A10.908,10.908,0,0,0,7.284,10.769L2.324,35.562A16.89,16.89,0,0,0,13.407,54.806l2.766.942V50.78c0-.022.012-.041.013-.063A25.669,25.669,0,0,1,8.58,32.59v-2.4l-.077,0H7.973a1.3,1.3,0,1,1,0-2.591H8.5a14.047,14.047,0,0,0,12.868-8.416,5.334,5.334,0,0,1,8.794-1.494,6.314,6.314,0,0,1,9.768,1.433A7.219,7.219,0,0,0,46.15,22.7h1.984a1.3,1.3,0,1,1,0,2.591h-.312v7.3a25.681,25.681,0,0,1-7.883,18.4v4.754l2.765-.942A16.888,16.888,0,0,0,53.785,35.563Z" transform="translate(0.587 0.591)"/><path class="b" d="M23.271,35.474a1.31,1.31,0,0,1-.719,0,3.167,3.167,0,0,0-2.65.438,6.192,6.192,0,0,0,6.019,0,3.168,3.168,0,0,0-2.65-.438Z" transform="translate(5.876 10.446)"/><path class="b" d="M43.14,21.446a9.809,9.809,0,0,1-7.536-4.8,3.724,3.724,0,0,0-6.186-.374l-.311.411a1.3,1.3,0,0,1-2.021.056l-.826-.974a2.743,2.743,0,0,0-4.6.675A16.636,16.636,0,0,1,9.079,26.191v2.616A23.106,23.106,0,0,0,23.751,50.22l1.118.433a3.423,3.423,0,0,0,2.479,0l1.12-.433A23.1,23.1,0,0,0,43.14,28.808ZM24.773,34.9l1.85-.141-.876-7.148a1.3,1.3,0,0,1,2.572-.315l1.041,8.495a1.3,1.3,0,0,1-1.187,1.449l-3.2.244c-.034,0-.067,0-.1,0a1.3,1.3,0,0,1-.1-2.587Zm7.679,7.173a1.262,1.262,0,0,1-.024.246,1.324,1.324,0,0,1-.122.231,1.223,1.223,0,0,1-.116.219l0,0,0,0a7.875,7.875,0,0,1-6.074,2.575,7.875,7.875,0,0,1-6.074-2.575l0,0,0,0a1.24,1.24,0,0,1-.136-.257,1.319,1.319,0,0,1-.1-.194,1.257,1.257,0,0,1-.026-.267.671.671,0,0,1,.057-.49,1.257,1.257,0,0,1,.064-.212,1.318,1.318,0,0,1,.2-.242,1.222,1.222,0,0,1,.125-.154l0,0,0,0,1-.819a5.779,5.779,0,0,1,4.892-1.166A5.769,5.769,0,0,1,31,40.132l1,.82,0,0,0,0a1.233,1.233,0,0,1,.161.2,1.336,1.336,0,0,1,.159.2,1.271,1.271,0,0,1,.073.24.658.658,0,0,1,.046.483Z" transform="translate(2.678 4.373)"/><path class="b" d="M26.552,45.228a6.014,6.014,0,0,1-4.35,0L21.084,44.8a25.2,25.2,0,0,1-6.143-3.454v6.685H33.523v-6.47a25.173,25.173,0,0,1-5.853,3.239Z" transform="translate(4.41 12.215)"/><path class="c" d="M21.564,34.9c.033,0,.066,0,.1,0l3.2-.244A1.3,1.3,0,0,0,26.054,33.2l-1.041-8.495a1.3,1.3,0,1,0-2.572.315l.876,7.148-1.85.141a1.3,1.3,0,0,0,.1,2.587Z" transform="translate(5.984 6.964)"/><path class="c" d="M56.916,35.645l-5-25A13.242,13.242,0,0,0,30.335,3.17l-1.62,1.383-.6-.6a13.5,13.5,0,0,0-22.782,6.9L.375,35.645A19.489,19.489,0,0,0,13.163,57.85l3.6,1.226v2.459a1.3,1.3,0,0,0,1.3,1.3H39.232a1.3,1.3,0,0,0,1.3-1.3V59.077l3.6-1.226A19.486,19.486,0,0,0,56.916,35.645ZM37.937,60.239H19.354V53.555A25.194,25.194,0,0,0,25.5,57.009l1.117.433a6.014,6.014,0,0,0,4.35,0l1.12-.433a25.173,25.173,0,0,0,5.853-3.239Zm-6.788-5.647-1.12.433a3.423,3.423,0,0,1-2.479,0l-1.118-.433A23.106,23.106,0,0,1,11.762,33.18V30.564a16.636,16.636,0,0,0,12.576-9.748,2.743,2.743,0,0,1,4.6-.675l.826.974a1.3,1.3,0,0,0,2.021-.056l.311-.411a3.724,3.724,0,0,1,6.186.374,9.809,9.809,0,0,0,7.536,4.8V33.18A23.1,23.1,0,0,1,31.149,54.593Z" transform="translate(-0.003 0)"/><path class="c" d="M29.9,35.873a1.336,1.336,0,0,0-.159-.2,1.232,1.232,0,0,0-.161-.2l0,0,0,0-1-.82a5.769,5.769,0,0,0-4.893-1.166,5.778,5.778,0,0,0-4.892,1.166l-1,.819,0,0,0,0a1.222,1.222,0,0,0-.125.154,1.318,1.318,0,0,0-.2.242,1.257,1.257,0,0,0-.064.212.671.671,0,0,0-.057.49,1.257,1.257,0,0,0,.026.267,1.319,1.319,0,0,0,.1.194,1.24,1.24,0,0,0,.136.257l0,0,0,0a7.875,7.875,0,0,0,6.074,2.575A7.875,7.875,0,0,0,29.751,37.3l0,0,0,0a1.223,1.223,0,0,0,.116-.219A1.324,1.324,0,0,0,30,36.842a1.261,1.261,0,0,0,.024-.246.658.658,0,0,0-.046-.483,1.271,1.271,0,0,0-.072-.24Zm-6.223,1.412a5.958,5.958,0,0,1-3.009-.78,3.167,3.167,0,0,1,2.65-.438,1.31,1.31,0,0,0,.719,0,3.168,3.168,0,0,1,2.65.438,5.957,5.957,0,0,1-3.01.78Z" transform="translate(5.11 9.854)"/></svg>