<svg xmlns="http://www.w3.org/2000/svg" width="90.273" height="87.358" viewBox="0 0 90.273 87.358"><defs><style>.a{fill:#c4a2fc;}.b{fill:#151a6a;}.c{fill:#d7d3d9;}</style></defs><path class="a" d="M38.456,30.383A16.034,16.034,0,0,1,54.471,46.4a1.456,1.456,0,1,0,2.912,0A16.034,16.034,0,0,1,73.4,30.383a1.456,1.456,0,1,0,0-2.912A16.034,16.034,0,0,1,57.383,11.456a1.456,1.456,0,1,0-2.912,0A16.034,16.034,0,0,1,38.456,27.471a1.456,1.456,0,1,0,0,2.912Z" transform="translate(15.418 1.648)"/><path class="a" d="M70.207,55.376a10.931,10.931,0,0,1-10.92-10.92,1.456,1.456,0,1,0-2.912,0,10.931,10.931,0,0,1-10.92,10.92,1.456,1.456,0,0,0,0,2.912,10.931,10.931,0,0,1,10.92,10.92,1.456,1.456,0,0,0,2.912,0,10.931,10.931,0,0,1,10.92-10.92,1.456,1.456,0,1,0,0-2.912Z" transform="translate(18.61 16.695)"/><path class="a" d="M62.5,51.751A1.456,1.456,0,0,0,61.046,50.3,21.864,21.864,0,0,1,39.207,28.456a1.456,1.456,0,1,0-2.912,0A21.864,21.864,0,0,1,14.456,50.3a1.456,1.456,0,0,0,0,2.912A21.864,21.864,0,0,1,36.3,75.046a1.456,1.456,0,1,0,2.912,0A21.864,21.864,0,0,1,61.046,53.207,1.456,1.456,0,0,0,62.5,51.751Z" transform="translate(4.475 9.399)"/><g transform="translate(0 0)"><path class="b" d="M44.291,22.226,32.833,2.67a1.513,1.513,0,0,0-2.513,0L18.879,22.217a30.575,30.575,0,1,0,25.412.009ZM31.576,6.287l8.4,14.335a29.962,29.962,0,0,0-16.787,0Zm0,71.372A27.663,27.663,0,1,1,59.239,50,27.663,27.663,0,0,1,31.576,77.659Z" transform="translate(-0.997 -2)"/><path class="b" d="M29.751,17.965A24.751,24.751,0,1,0,54.5,42.716,24.751,24.751,0,0,0,29.751,17.965ZM7.912,42.716Z" transform="translate(0.828 5.28)"/><path class="c" d="M37.825,26.891a1.456,1.456,0,0,0-2.059,0L13.927,48.731a1.456,1.456,0,1,0,2.059,2.059L37.825,28.95A1.456,1.456,0,0,0,37.825,26.891Z" transform="translate(4.703 9.155)"/><path class="c" d="M15.707,38.967,26,28.672a1.456,1.456,0,1,0-2.059-2.059l-10.295,10.3a1.456,1.456,0,1,0,2.059,2.059Z" transform="translate(4.576 9.029)"/><path class="c" d="M32.429,35.1l-10.3,10.3a1.456,1.456,0,1,0,2.059,2.059l10.295-10.3a1.456,1.456,0,1,0-2.059-2.06Z" transform="translate(8.445 12.897)"/></g></svg>