<svg xmlns="http://www.w3.org/2000/svg" width="85.102" height="85.103" viewBox="0 0 85.102 85.103"><defs><style>.a{fill:#c4a2fc;}.b{fill:#151a6a;}</style></defs><path class="a" d="M79.4,52.963A11.627,11.627,0,0,0,71.084,41.8a9.288,9.288,0,0,0-.519-4.456,9.706,9.706,0,0,0-7.8-6.263,9.558,9.558,0,0,0-8.962,3.85,9.486,9.486,0,0,0-4.607-1.18,9.608,9.608,0,0,0-9.608,9.8,46.967,46.967,0,0,1-15.31,3.779,5.654,5.654,0,0,0,0,11.283,46.975,46.975,0,0,1,15.31,3.777A9.608,9.608,0,0,0,53.8,71a9.523,9.523,0,0,0,7.74,3.927,9.666,9.666,0,0,0,9.024-6.34,9.289,9.289,0,0,0,.519-4.456A11.627,11.627,0,0,0,79.4,52.963Zm-37.448.715a1.373,1.373,0,1,1-.576-2.685A47.93,47.93,0,0,0,60.1,42.556a1.375,1.375,0,0,1,1.654,2.2,50.686,50.686,0,0,1-19.807,8.925Zm20.921,7.057a1.373,1.373,0,0,1-1.824.666A31.851,31.851,0,0,0,47.7,58.531a1.373,1.373,0,1,1,0-2.745A34.639,34.639,0,0,1,62.2,58.911,1.373,1.373,0,0,1,62.869,60.735Z" transform="translate(5.707 10.178)"/><path class="b" d="M47.669,31.2c-5.388,0-9.608,6.029-9.608,13.726S42.282,58.65,47.669,58.65s9.608-6.03,9.608-13.726S53.057,31.2,47.669,31.2Zm0,24.707c-3.72,0-6.863-5.028-6.863-10.981s3.143-10.981,6.863-10.981,6.863,5.028,6.863,10.981S51.389,55.9,47.669,55.9ZM10.608,66.886a9.619,9.619,0,0,0,9.608-9.608V49.042a9.608,9.608,0,0,0-8.236-9.5v-.1A30.246,30.246,0,0,1,40.818,9.27v7.077a4.118,4.118,0,0,0-2.758,3.869v3.545L27.262,34.48a4.118,4.118,0,0,0-1.06,4.049l7.225,25.366a4.133,4.133,0,0,0,3.96,2.991H57.95a4.137,4.137,0,0,0,3.961-2.991l7.227-25.377A4.118,4.118,0,0,0,68.1,34.487L57.3,23.643V20.217a4.118,4.118,0,0,0-2.758-3.869V6.491a4.118,4.118,0,0,0-4.118-4.118h-5.49A4.118,4.118,0,0,0,40.82,6.491v.034A32.992,32.992,0,0,0,9.236,39.447v.1A9.608,9.608,0,0,0,1,49.042v8.236a9.619,9.619,0,0,0,9.608,9.608ZM40,25.707Zm14.559-2.745H40.806V20.217a1.373,1.373,0,0,1,1.373-1.373H53.186a1.373,1.373,0,0,1,1.373,1.373ZM43.564,6.491a1.373,1.373,0,0,1,1.373-1.373h5.49A1.373,1.373,0,0,1,51.8,6.491V16.1H43.564ZM61.4,7.863h4.118a1.373,1.373,0,1,1,0,2.745H61.4a1.373,1.373,0,1,1,0-2.745Zm-2.515,4.729a1.373,1.373,0,0,1,1.9-.38L64.9,14.957a1.373,1.373,0,1,1-1.524,2.284L59.261,14.5a1.373,1.373,0,0,1-.38-1.9Zm6.4-10.981a1.373,1.373,0,0,1-.38,1.9L60.784,6.26a1.373,1.373,0,0,1-1.524-2.284l4.118-2.745a1.373,1.373,0,0,1,1.9.38Z" transform="translate(-1 -1)"/></svg>