<svg xmlns="http://www.w3.org/2000/svg" width="80.27" height="80.262" viewBox="0 0 80.27 80.262"><defs><style>.a{fill:#c4a2fc;}.b{fill:#151a6a;}</style></defs><path class="a" d="M75.964,47.466a12.86,12.86,0,0,0-9.042-12.337,10.94,10.94,0,0,0-2.192-13.157,11.3,11.3,0,0,0-15.606.518A39.875,39.875,0,0,1,20.3,34.517h-.008A1.3,1.3,0,0,0,19,35.811v7.768h7.768a25.062,25.062,0,0,0,17.843-7.389,1.3,1.3,0,1,1,1.836,1.833,27.633,27.633,0,0,1-19.679,8.147H19v3.981h6.481a42.853,42.853,0,0,1,30.5,12.634,1.295,1.295,0,1,1-1.831,1.831A40.284,40.284,0,0,0,25.481,52.741H19v6.473a1.295,1.295,0,0,0,1.3,1.295A41.421,41.421,0,0,1,49.124,72.534a11.3,11.3,0,0,0,15.607.518A11.076,11.076,0,0,0,66.872,59.8a13.032,13.032,0,0,0,9.092-12.339Z" transform="translate(4.305 4.332)"/><path class="b" d="M62.487,8.426C16.795.815,18.044,1,17.831,1a16.823,16.823,0,0,0-1.295,33.6v9.292H14.111A10.533,10.533,0,0,1,3.59,33.366a1.295,1.295,0,1,0-2.589,0A13.126,13.126,0,0,0,14.111,46.477h2.425v7.6a3.884,3.884,0,0,0,3.884,3.884H24.3a9.041,9.041,0,0,0,8.933,7.768h13.8a10.923,10.923,0,1,0,0-21.845H32.709l1.8-11.988,27.98-4.661a3.871,3.871,0,0,0,3.246-3.833V12.263A3.871,3.871,0,0,0,62.487,8.426Zm-58.9,9.4A14.257,14.257,0,0,1,17.726,3.589L47.607,8.571v18.52l-29.882,4.98A14.258,14.258,0,0,1,3.59,17.83ZM47.042,46.477a8.333,8.333,0,1,1,0,16.667h-13.8a6.454,6.454,0,0,1-6.318-5.179h.334a3.859,3.859,0,0,0,3.84-3.307l1.227-8.181Zm-18.513,7.8a1.3,1.3,0,0,1-1.28,1.1H20.42a1.3,1.3,0,0,1-1.295-1.295V34.463l12.7-2.115ZM63.143,23.405a1.3,1.3,0,0,1-1.081,1.277L50.2,26.66V9l11.865,1.977a1.3,1.3,0,0,1,1.081,1.284ZM25.6,19.125H13.947a1.295,1.295,0,1,1,0-2.589H25.6a1.295,1.295,0,0,1,0,2.589ZM14.185,9.9a1.286,1.286,0,0,1,1.45-1.117l10.027,1.295a1.295,1.295,0,1,1-.331,2.567L15.3,11.347A1.3,1.3,0,0,1,14.185,9.9ZM25.662,25.588,15.635,26.883a1.295,1.295,0,1,1-.331-2.567l10.027-1.295a1.295,1.295,0,1,1,.331,2.567Z" transform="translate(-0.999 -1)"/></svg>