<svg xmlns="http://www.w3.org/2000/svg" width="71.581" height="80.424" viewBox="0 0 71.581 80.424"><defs><style>.a{fill:#c4a2fc;}.b{fill:#151a6a;}</style></defs><ellipse class="a" cx="10.33" cy="10.435" rx="10.33" ry="10.435" transform="translate(35.178 42.884)"/><path class="a" d="M74.645,42.249a10.927,10.927,0,0,0-8.018-8.35,10.985,10.985,0,0,0-6.28-9.757A10.773,10.773,0,0,0,48.88,25.266a10.773,10.773,0,0,0-11.466-1.125A10.984,10.984,0,0,0,31.135,33.9a10.926,10.926,0,0,0-8.018,8.354A11.039,11.039,0,0,0,26.748,53.3a11.069,11.069,0,0,0,1.466,11.544,10.821,10.821,0,0,0,10.815,4.013,11.05,11.05,0,0,0,19.7,0,10.814,10.814,0,0,0,10.814-4.013A11.067,11.067,0,0,0,71.006,53.3a11.039,11.039,0,0,0,3.64-11.047ZM48.88,60.829A13.045,13.045,0,1,1,61.792,47.786,13.045,13.045,0,0,1,48.88,60.829Z" transform="translate(-3.372 5.533)"/><path class="b" d="M55.362,30.991l-6.335-7.339a5.21,5.21,0,0,0-3.961-1.9H39.082V19.159a3.655,3.655,0,0,0-3.36-3.891V4.891A3.655,3.655,0,0,0,32.361,1h-6.72a3.655,3.655,0,0,0-3.36,3.891V15.268a3.655,3.655,0,0,0-3.36,3.891v2.594H12.95a5.207,5.207,0,0,0-3.956,1.9L2.643,30.989A7.089,7.089,0,0,0,1,35.578V52.03a6.993,6.993,0,0,0,1.641,4.585l6.335,7.339a5.21,5.21,0,0,0,3.961,1.9h32.13a5.21,5.21,0,0,0,3.961-1.9l6.335-7.339A6.993,6.993,0,0,0,57,52.03V35.576a6.993,6.993,0,0,0-1.641-4.585ZM53.179,32.13h0ZM24.521,4.891a1.218,1.218,0,0,1,1.12-1.3h6.72a1.218,1.218,0,0,1,1.12,1.3V15.268h-8.96Zm-3.36,14.268a1.218,1.218,0,0,1,1.12-1.3H35.722a1.218,1.218,0,0,1,1.12,1.3v2.594H21.161Zm-4.48,33.724ZM3.24,35.578a4.446,4.446,0,0,1,.091-.855ZM13.673,32.13h0ZM4.824,55.477h8.758L10.3,61.817Zm8.113,7.782C12.693,63.257,45.186,63.253,12.936,63.259Zm34.516-1.15-3.123-6.632h8.848Z" transform="translate(-1 -1)"/><circle class="b" cx="1.946" cy="1.946" r="1.946" transform="translate(25.522 6.485)"/></svg>