<svg xmlns="http://www.w3.org/2000/svg" width="36.79" height="34" viewBox="0 0 36.79 34"><defs><style>.a,.b{fill:#0d4673;}.a{opacity:0;}</style></defs><g transform="translate(0.126 -0.18)"><g transform="translate(-0.126 0.18)"><rect class="a" width="34" height="34" transform="translate(34) rotate(90)"/><path class="b" d="M33.478,13.567H8.483l5.182-6.225a1.429,1.429,0,0,0-2.2-1.827L4.328,14.081a1.7,1.7,0,0,0-.128.214.181.181,0,0,1-.1.186,1.372,1.372,0,0,0,0,1.028.181.181,0,0,0,.1.186,1.7,1.7,0,0,0,.128.214l7.138,8.566a1.429,1.429,0,1,0,2.2-1.827L8.483,16.422H33.478a1.428,1.428,0,0,0,0-2.855Z" transform="translate(1.885 2.006)"/></g></g></svg>