<svg xmlns="http://www.w3.org/2000/svg" width="28.332" height="32.079" viewBox="0 0 28.332 32.079"><defs><style>.a{fill:#3f3f3f;}</style></defs><g transform="translate(-29.902 0)"><path class="a" d="M34.175.409A2.783,2.783,0,0,0,31.5.281l14.4,14.433,4.709-4.731ZM30.181,1.617A2.935,2.935,0,0,0,29.9,2.87v26.4a2.822,2.822,0,0,0,.282,1.241l14.4-14.465ZM45.909,17.378,31.53,31.825a2.822,2.822,0,0,0,1.193.254,2.793,2.793,0,0,0,1.452-.392L50.619,22.1ZM56.878,13.63l-.018-.011L52.3,10.96l-5.061,5.084L52.3,21.119l4.579-2.67a2.82,2.82,0,0,0,0-4.82Z" transform="translate(0 0)"/></g></svg>