<svg xmlns="http://www.w3.org/2000/svg" width="77.99" height="81.3" viewBox="0 0 77.99 81.3"><defs><style>.a{fill:#f38120;}.b{fill:#bdc3d8;}.c{fill:#fff;}.d{fill:#21365f;}</style></defs><g transform="translate(-940.7 -1155.02)"><circle class="a" cx="14" cy="14" r="14" transform="translate(940.7 1190.14)"/><circle class="a" cx="12" cy="12" r="12" transform="translate(962.31 1155.02)"/><circle class="a" cx="20" cy="20" r="20" transform="translate(978.69 1196.32)"/><rect class="b" width="52" height="50" transform="translate(952.94 1177.32)"/><path class="c" d="M23.94,116.32h44v38a8,8,0,0,1-8,8h-36v-46Z" transform="translate(929 1061)"/><path class="d" d="M75.94,167.07h-52a.75.75,0,0,1-.75-.75v-50a.75.75,0,0,1,.75-.75h52a.75.75,0,0,1,.75.75v50A.75.75,0,0,1,75.94,167.07Zm-51.25-1.5h50.5v-48.5H24.69Z" transform="translate(929 1061)"/><path class="d" d="M81.94,167.07h-64a.75.75,0,0,1,0-1.5h64a.75.75,0,0,1,0,1.5Z" transform="translate(929 1061)"/><path class="b" d="M65.94,116.32h16V117a6,6,0,0,1-6,6h-4a6,6,0,0,1-6-6v-.68Z" transform="translate(929 1061)"/><path class="c" d="M71.94,123h0a6,6,0,0,1-6-6v-.67h12V117A6,6,0,0,1,71.94,123Z" transform="translate(929 1061)"/><path class="d" d="M75.94,123.73h-4A6.76,6.76,0,0,1,65.19,117v-.67a.75.75,0,0,1,.75-.75h16a.75.75,0,0,1,.75.75V117a6.76,6.76,0,0,1-6.75,6.73Zm-9.25-6.67a5.26,5.26,0,0,0,5.25,5.17h4a5.26,5.26,0,0,0,5.25-5.17Z" transform="translate(929 1061)"/><path class="b" d="M49.95,116.32h16V117a6,6,0,0,1-6,6h-4a6,6,0,0,1-6-6v-.68Z" transform="translate(929 1061)"/><path class="c" d="M55.94,123h0a6,6,0,0,1-6-6v-.67h12V117a6,6,0,0,1-6,6Z" transform="translate(929 1061)"/><path class="d" d="M59.94,123.73h-4A6.76,6.76,0,0,1,49.2,117v-.67a.75.75,0,0,1,.75-.75h16a.75.75,0,0,1,.75.75V117a6.76,6.76,0,0,1-6.76,6.73Zm-9.25-6.67a5.26,5.26,0,0,0,5.25,5.17h4a5.26,5.26,0,0,0,5.25-5.17Z" transform="translate(929 1061)"/><path class="b" d="M33.94,116.32h16V117a6,6,0,0,1-6,6h-4a6,6,0,0,1-6-6v-.68Z" transform="translate(929 1061)"/><path class="c" d="M39.94,123h0a6,6,0,0,1-6-6v-.67h12V117a6,6,0,0,1-6,6Z" transform="translate(929 1061)"/><path class="d" d="M43.94,123.73h-4A6.76,6.76,0,0,1,33.19,117v-.67a.75.75,0,0,1,.75-.75h16a.75.75,0,0,1,.75.75V117A6.76,6.76,0,0,1,43.94,123.73Zm-9.25-6.67a5.26,5.26,0,0,0,5.25,5.17h4a5.26,5.26,0,0,0,5.25-5.17Z" transform="translate(929 1061)"/><path class="b" d="M17.94,116.32h16V117a6,6,0,0,1-6,6h-4a6,6,0,0,1-6-6v-.68Z" transform="translate(929 1061)"/><path class="c" d="M23.94,123h0a6,6,0,0,1-6-6v-.67h12V117a6,6,0,0,1-6,6Z" transform="translate(929 1061)"/><path class="d" d="M27.94,123.73h-4A6.76,6.76,0,0,1,17.19,117v-.67a.75.75,0,0,1,.75-.75h16a.75.75,0,0,1,.75.75V117a6.76,6.76,0,0,1-6.75,6.73Zm-9.25-6.67a5.26,5.26,0,0,0,5.25,5.17h4a5.26,5.26,0,0,0,5.25-5.17Z" transform="translate(929 1061)"/><path class="b" d="M27.95,102.32l-10,14h16l5-14Z" transform="translate(929 1061)"/><path class="c" d="M27.95,102.32l-10,14h11l6-14Z" transform="translate(929 1061)"/><path class="d" d="M33.95,117.07h-16a.75.75,0,0,1-.61-1.19l10-14a.75.75,0,0,1,.61-.31h11a.75.75,0,0,1,.71,1l-5,14a.75.75,0,0,1-.71.5Zm-14.54-1.5h14l4.46-12.5H28.33Z" transform="translate(929 1061)"/><path class="b" d="M71.94,102.32h-11l5,14h16Z" transform="translate(929 1061)"/><path class="c" d="M67.94,102.32h-7l5,14h11Z" transform="translate(929 1061)"/><path class="d" d="M81.94,117.07h-16a.75.75,0,0,1-.71-.5l-5-14a.75.75,0,0,1,.71-1h11a.75.75,0,0,1,.61.31l10,14a.75.75,0,0,1-.61,1.19Zm-15.47-1.5h14l-8.93-12.5H62Z" transform="translate(929 1061)"/><path class="b" d="M38.95,102.32l-5,14h16v-14Z" transform="translate(929 1061)"/><path class="c" d="M38.95,102.32l-5,14H44.94l1.01-14Z" transform="translate(929 1061)"/><path class="d" d="M49.94,117.07h-16a.75.75,0,0,1-.71-1l5-14a.75.75,0,0,1,.71-.5h11a.75.75,0,0,1,.75.75v14a.75.75,0,0,1-.75.75ZM35,115.57H49.19v-12.5H39.47Z" transform="translate(929 1061)"/><path class="b" d="M60.94,102.32H49.95v14H65.94Z" transform="translate(929 1061)"/><path class="c" d="M56.94,102.32H49.95v14H60.94Z" transform="translate(929 1061)"/><path class="d" d="M65.94,117.07h-16a.75.75,0,0,1-.75-.75v-14a.75.75,0,0,1,.75-.75h11a.75.75,0,0,1,.71.5l5,14a.75.75,0,0,1-.71,1Zm-15.25-1.5H64.88l-4.46-12.5H50.69Z" transform="translate(929 1061)"/><path class="d" d="M19.94,148a.75.75,0,0,1-.75-.75v-11.7a.75.75,0,0,1,1.5,0v11.7A.75.75,0,0,1,19.94,148Z" transform="translate(929 1061)"/><path class="d" d="M19.94,132.28a.75.75,0,0,1-.75-.75v-2.3a.75.75,0,0,1,1.5,0v2.3A.75.75,0,0,1,19.94,132.28Z" transform="translate(929 1061)"/><path class="d" d="M79.95,158a.75.75,0,0,1-.75-.75v-13.7a.75.75,0,0,1,1.5,0v13.7A.75.75,0,0,1,79.95,158Z" transform="translate(929 1061)"/><path class="d" d="M79.95,140.28a.75.75,0,0,1-.75-.75v-2.3a.75.75,0,0,1,1.5,0v2.3A.75.75,0,0,1,79.95,140.28Z" transform="translate(929 1061)"/><path class="b" d="M36.94,136.32h26a1,1,0,0,1,1,1v17a4,4,0,0,1-4,4h-20a4,4,0,0,1-4-4v-17A1,1,0,0,1,36.94,136.32Z" transform="translate(929 1061)"/><path class="c" d="M36.94,136.32h24v16a2,2,0,0,1-2,2h-23v-17A1,1,0,0,1,36.94,136.32Z" transform="translate(929 1061)"/><path class="d" d="M59.94,159.07h-20a4.76,4.76,0,0,1-4.75-4.75v-17a1.75,1.75,0,0,1,1.75-1.75h26a1.75,1.75,0,0,1,1.75,1.75v17a4.76,4.76,0,0,1-4.75,4.75Zm-23-22a.25.25,0,0,0-.25.25v17a3.25,3.25,0,0,0,3.25,3.25h20a3.25,3.25,0,0,0,3.25-3.25v-17a.25.25,0,0,0-.25-.25Z" transform="translate(929 1061)"/><path class="d" d="M57.95,142.07a.75.75,0,0,1-.75-.75v-5a7.25,7.25,0,0,0-14.5,0v5a.75.75,0,0,1-1.5,0v-5a8.75,8.75,0,0,1,17.5,0v5a.75.75,0,0,1-.75.75Z" transform="translate(929 1061)"/><path class="a" d="M31.95,159.07h-4a.75.75,0,0,1,0-1.5h4a.75.75,0,1,1,0,1.5Z" transform="translate(929 1061)"/><path class="a" d="M29.95,161.07a.75.75,0,0,1-.75-.75v-4a.75.75,0,0,1,1.5,0v4A.75.75,0,0,1,29.95,161.07Z" transform="translate(929 1061)"/><path class="a" d="M34.95,132.06h-4a.75.75,0,0,1,0-1.5h4a.75.75,0,0,1,0,1.5Z" transform="translate(929 1061)"/><path class="a" d="M32.95,134.06a.75.75,0,0,1-.75-.75v-4a.75.75,0,0,1,1.5,0v4A.75.75,0,0,1,32.95,134.06Z" transform="translate(929 1061)"/><path class="a" d="M71.95,151.07h-4a.75.75,0,0,1,0-1.5h4a.75.75,0,0,1,0,1.5Z" transform="translate(929 1061)"/><path class="a" d="M69.95,153.07a.75.75,0,0,1-.75-.75v-4a.75.75,0,0,1,1.5,0v4A.75.75,0,0,1,69.95,153.07Z" transform="translate(929 1061)"/><path class="a" d="M67.95,128.06h-4a.75.75,0,1,1,0-1.5h4a.75.75,0,1,1,0,1.5Z" transform="translate(929 1061)"/><path class="a" d="M65.95,130.06a.75.75,0,0,1-.75-.75v-4a.75.75,0,0,1,1.5,0v4A.75.75,0,0,1,65.95,130.06Z" transform="translate(929 1061)"/></g></svg>