<svg id="Capa_1" data-name="Capa 1" xmlns="http://www.w3.org/2000/svg" viewBox="0 0 108 108"><defs><style>.cls-1{fill:#fff;}</style></defs><path class="cls-1" d="M54,9.7c14.4,0,16.1.1,21.8.3a31.9,31.9,0,0,1,10,1.9,17.4,17.4,0,0,1,6.2,4,17.2,17.2,0,0,1,4.1,6.2,31.2,31.2,0,0,1,1.8,10.1c.3,5.7.4,7.4.4,21.8s-.1,16.1-.4,21.8a29.9,29.9,0,0,1-1.8,10A18.6,18.6,0,0,1,85.8,96.1a29.9,29.9,0,0,1-10,1.8c-5.7.3-7.4.4-21.8.4s-16.1-.1-21.8-.4a31.2,31.2,0,0,1-10.1-1.8A17.2,17.2,0,0,1,15.9,92a17.4,17.4,0,0,1-4-6.2,31.9,31.9,0,0,1-1.9-10c-.2-5.7-.3-7.4-.3-21.8s.1-16.1.3-21.8a33.4,33.4,0,0,1,1.9-10.1A17.5,17.5,0,0,1,22.1,11.9,33.4,33.4,0,0,1,32.2,10c5.7-.2,7.4-.3,21.8-.3M54,0C39.3,0,37.5.1,31.7.3A42.3,42.3,0,0,0,18.6,2.8,27.2,27.2,0,0,0,9.1,9.1a27.2,27.2,0,0,0-6.3,9.5A42.3,42.3,0,0,0,.3,31.7C.1,37.5,0,39.3,0,54S.1,70.5.3,76.3A42.3,42.3,0,0,0,2.8,89.4a27.2,27.2,0,0,0,6.3,9.5,25.6,25.6,0,0,0,9.5,6.2,39.3,39.3,0,0,0,13.1,2.6c5.8.2,7.6.3,22.3.3s16.5-.1,22.2-.3a39.4,39.4,0,0,0,13.2-2.6,27.6,27.6,0,0,0,15.7-15.7,39.3,39.3,0,0,0,2.6-13.1c.2-5.8.3-7.6.3-22.3s-.1-16.5-.3-22.3a39.3,39.3,0,0,0-2.6-13.1,25.6,25.6,0,0,0-6.2-9.5,27.2,27.2,0,0,0-9.5-6.3A42.4,42.4,0,0,0,76.2.3C70.5.1,68.7,0,54,0"/><path class="cls-1" d="M54,26.3A27.7,27.7,0,1,0,81.7,54,27.7,27.7,0,0,0,54,26.3M54,72A18,18,0,1,1,72,54,18,18,0,0,1,54,72"/><path class="cls-1" d="M89.3,25.2a6.5,6.5,0,1,1-6.5-6.5,6.5,6.5,0,0,1,6.5,6.5"/></svg>