<svg xmlns="http://www.w3.org/2000/svg" width="45.166" height="42" viewBox="0 0 45.166 42"><defs><style>.a,.b{fill:#f38120;}.a{opacity:0;}</style></defs><g transform="translate(-0.25 -0.25)"><rect class="a" width="42" height="42" transform="translate(42.25 0.25) rotate(90)"/><path class="b" d="M40.562,15.626h-31l6.428-7.721a1.773,1.773,0,0,0-2.727-2.267L4.407,16.263a2.107,2.107,0,0,0-.159.266.224.224,0,0,1-.124.23,1.7,1.7,0,0,0,0,1.275.224.224,0,0,0,.124.23,2.107,2.107,0,0,0,.159.266l8.854,10.625a1.773,1.773,0,1,0,2.727-2.267L9.56,19.167h31a1.771,1.771,0,0,0,0-3.542Z" transform="translate(3.083 3.853)"/></g></svg>