<svg xmlns="http://www.w3.org/2000/svg" width="24" height="24" viewBox="0 0 24 24"><defs><style>.a{opacity:0.5;}.b,.c{fill:#575757;}.b{opacity:0;}</style></defs><g class="a"><rect class="b" width="24" height="24"/><path class="c" d="M6.64,22A15.42,15.42,0,0,0,22.04,6.6,4.6,4.6,0,0,0,17.44,2a3.94,3.94,0,0,0-.77.07,3.79,3.79,0,0,0-.72.18A1,1,0,0,0,15.3,3L13.93,9a1,1,0,0,0,.26.92c.13.14.14.15,1.37.79a9.91,9.91,0,0,1-4.87,4.89c-.65-1.24-.66-1.25-.8-1.38a1,1,0,0,0-.92-.26l-6,1.37a1,1,0,0,0-.72.65,4.34,4.34,0,0,0-.19.73,4.77,4.77,0,0,0-.06.76A4.6,4.6,0,0,0,6.64,22ZM17.44,4a2.61,2.61,0,0,1,2.6,2.6A13.41,13.41,0,0,1,6.64,20a2.61,2.61,0,0,1-2.6-2.6v-.33L8.68,16l.29.55c.45.87.78,1.5,1.62,1.16a11.85,11.85,0,0,0,7.18-7.21c.36-.78-.32-1.14-1.18-1.59l-.55-.27L17.11,4Z" transform="translate(-0.04)"/></g></svg>