<svg xmlns="http://www.w3.org/2000/svg" width="27.791" height="26.345" viewBox="0 0 27.791 26.345"><defs><style>.a{fill:#f38120;}</style></defs><g transform="translate(-468.222 -5316.37)"><path class="a" d="M2.65,0A2.65,2.65,0,0,0,0,2.65V8.532a2.65,2.65,0,0,0,5.061,0V2.65A2.65,2.65,0,0,0,2.65,0Z" transform="translate(481.17 5334.096) rotate(-34)"/><path class="a" d="M7.746,0H1.864a2.65,2.65,0,0,0,0,5.061H7.746A2.65,2.65,0,0,0,7.746,0Z" transform="translate(468.222 5335.862) rotate(-34)"/><path class="a" d="M2.65,0A2.65,2.65,0,0,0,0,2.65V8.532a2.65,2.65,0,0,0,5.061,0V2.65A2.65,2.65,0,0,0,2.65,0Z" transform="translate(471.123 5319.2) rotate(-34)"/><path class="a" d="M7.746.119H1.864a2.65,2.65,0,0,0,0,5.061H7.746a2.65,2.65,0,1,0,0-5.061Z" transform="translate(483.779 5324.712) rotate(-34)"/></g></svg>