<svg xmlns="http://www.w3.org/2000/svg" xmlns:xlink="http://www.w3.org/1999/xlink" width="95" height="95" viewBox="0 0 95 95"><defs><style>.a{fill:none;}.b{opacity:0.14;clip-path:url(#a);}.c{fill:#f38120;}</style><clipPath id="a"><rect class="a" width="95" height="95"/></clipPath></defs><g class="b"><g transform="translate(-134 -1570)"><circle class="c" cx="5" cy="5" r="5" transform="translate(134 1570)"/></g><g transform="translate(-120 -1570)"><circle class="c" cx="5" cy="5" r="5" transform="translate(134 1570)"/></g><g transform="translate(-106 -1570)"><circle class="c" cx="5" cy="5" r="5" transform="translate(134 1570)"/></g><g transform="translate(-92 -1570)"><circle class="c" cx="5" cy="5" r="5" transform="translate(134 1570)"/></g><g transform="translate(-78 -1570)"><circle class="c" cx="5" cy="5" r="5" transform="translate(134 1570)"/></g><g transform="translate(-64 -1570)"><circle class="c" cx="5" cy="5" r="5" transform="translate(134 1570)"/></g><g transform="translate(-50 -1570)"><circle class="c" cx="5" cy="5" r="5" transform="translate(134 1570)"/></g><g transform="translate(-134 -1556)"><circle class="c" cx="5" cy="5" r="5" transform="translate(134 1570)"/></g><g transform="translate(-120 -1556)"><circle class="c" cx="5" cy="5" r="5" transform="translate(134 1570)"/></g><g transform="translate(-106 -1556)"><circle class="c" cx="5" cy="5" r="5" transform="translate(134 1570)"/></g><g transform="translate(-92 -1556)"><circle class="c" cx="5" cy="5" r="5" transform="translate(134 1570)"/></g><g transform="translate(-78 -1556)"><circle class="c" cx="5" cy="5" r="5" transform="translate(134 1570)"/></g><g transform="translate(-64 -1556)"><circle class="c" cx="5" cy="5" r="5" transform="translate(134 1570)"/></g><g transform="translate(-50 -1556)"><circle class="c" cx="5" cy="5" r="5" transform="translate(134 1570)"/></g><g transform="translate(-134 -1542)"><circle class="c" cx="5" cy="5" r="5" transform="translate(134 1570)"/></g><g transform="translate(-120 -1542)"><circle class="c" cx="5" cy="5" r="5" transform="translate(134 1570)"/></g><g transform="translate(-106 -1542)"><circle class="c" cx="5" cy="5" r="5" transform="translate(134 1570)"/></g><g transform="translate(-92 -1542)"><circle class="c" cx="5" cy="5" r="5" transform="translate(134 1570)"/></g><g transform="translate(-78 -1542)"><circle class="c" cx="5" cy="5" r="5" transform="translate(134 1570)"/></g><g transform="translate(-64 -1542)"><circle class="c" cx="5" cy="5" r="5" transform="translate(134 1570)"/></g><g transform="translate(-50 -1542)"><circle class="c" cx="5" cy="5" r="5" transform="translate(134 1570)"/></g><g transform="translate(-134 -1528)"><circle class="c" cx="5" cy="5" r="5" transform="translate(134 1570)"/></g><g transform="translate(-120 -1528)"><circle class="c" cx="5" cy="5" r="5" transform="translate(134 1570)"/></g><g transform="translate(-106 -1528)"><circle class="c" cx="5" cy="5" r="5" transform="translate(134 1570)"/></g><g transform="translate(-92 -1528)"><circle class="c" cx="5" cy="5" r="5" transform="translate(134 1570)"/></g><g transform="translate(-78 -1528)"><circle class="c" cx="5" cy="5" r="5" transform="translate(134 1570)"/></g><g transform="translate(-64 -1528)"><circle class="c" cx="5" cy="5" r="5" transform="translate(134 1570)"/></g><g transform="translate(-50 -1528)"><circle class="c" cx="5" cy="5" r="5" transform="translate(134 1570)"/></g><g transform="translate(-134 -1514)"><circle class="c" cx="5" cy="5" r="5" transform="translate(134 1570)"/></g><g transform="translate(-120 -1514)"><circle class="c" cx="5" cy="5" r="5" transform="translate(134 1570)"/></g><g transform="translate(-106 -1514)"><circle class="c" cx="5" cy="5" r="5" transform="translate(134 1570)"/></g><g transform="translate(-92 -1514)"><circle class="c" cx="5" cy="5" r="5" transform="translate(134 1570)"/></g><g transform="translate(-78 -1514)"><circle class="c" cx="5" cy="5" r="5" transform="translate(134 1570)"/></g><g transform="translate(-64 -1514)"><circle class="c" cx="5" cy="5" r="5" transform="translate(134 1570)"/></g><g transform="translate(-50 -1514)"><circle class="c" cx="5" cy="5" r="5" transform="translate(134 1570)"/></g><g transform="translate(-134 -1500)"><circle class="c" cx="5" cy="5" r="5" transform="translate(134 1570)"/></g><g transform="translate(-120 -1500)"><circle class="c" cx="5" cy="5" r="5" transform="translate(134 1570)"/></g><g transform="translate(-106 -1500)"><circle class="c" cx="5" cy="5" r="5" transform="translate(134 1570)"/></g><g transform="translate(-92 -1500)"><circle class="c" cx="5" cy="5" r="5" transform="translate(134 1570)"/></g><g transform="translate(-78 -1500)"><circle class="c" cx="5" cy="5" r="5" transform="translate(134 1570)"/></g><g transform="translate(-64 -1500)"><circle class="c" cx="5" cy="5" r="5" transform="translate(134 1570)"/></g><g transform="translate(-50 -1500)"><circle class="c" cx="5" cy="5" r="5" transform="translate(134 1570)"/></g><g transform="translate(-134 -1486)"><circle class="c" cx="5" cy="5" r="5" transform="translate(134 1570)"/></g><g transform="translate(-120 -1486)"><circle class="c" cx="5" cy="5" r="5" transform="translate(134 1570)"/></g><g transform="translate(-106 -1486)"><circle class="c" cx="5" cy="5" r="5" transform="translate(134 1570)"/></g><g transform="translate(-92 -1486)"><circle class="c" cx="5" cy="5" r="5" transform="translate(134 1570)"/></g><g transform="translate(-78 -1486)"><circle class="c" cx="5" cy="5" r="5" transform="translate(134 1570)"/></g><g transform="translate(-64 -1486)"><circle class="c" cx="5" cy="5" r="5" transform="translate(134 1570)"/></g><g transform="translate(-50 -1486)"><circle class="c" cx="5" cy="5" r="5" transform="translate(134 1570)"/></g></g></svg>