<svg xmlns="http://www.w3.org/2000/svg" width="45.888" height="59.484" viewBox="0 0 45.888 59.484"><defs><style>.a{opacity:0;}.b{fill:#0c4572;}.c{fill:none;}.d{fill:#0d4673;}.e{fill:#f38120;}</style></defs><g class="a" transform="translate(-71.171 -0.323)"><g transform="translate(71.171 0.323)"><path class="b" d="M120.712,141.729c-.884-.178-1.761-.371-2.653-.527a25.485,25.485,0,0,0-14.22,1.658c-2.318.961-4.485,2.3-6.7,3.449a4.194,4.194,0,0,1,.122-.642,10.853,10.853,0,0,1,8.409-7.436c5.31-1.209,10.163.341,14.773,2.922a2,2,0,0,1,.368.33Z" transform="translate(-97.14 -86.825)"/><path class="c" d="M179.556,40.815a.817.817,0,0,1-1.474-.434,20.76,20.76,0,0,1-.147-2.351,2.27,2.27,0,1,0,2.211.089c0,.508,0,1.012-.041,1.524A2.045,2.045,0,0,1,179.556,40.815Z" transform="translate(-147.38 -24.046)"/><path class="c" d="M136.189,6.957A11.739,11.739,0,0,0,128.3,9.337a12.159,12.159,0,0,0-4.33,7.439,21.954,21.954,0,0,0-.446,3.486l.147-.033,19.9-4.491.508-.115A12.7,12.7,0,0,0,141.83,9.9,7.105,7.105,0,0,0,136.189,6.957Z" transform="translate(-113.799 -4.48)"/><path class="c" d="M117.258,55.671c-.737.145-1.271-.226-1.419-1.187-.081-.553-.14-1.113-.2-1.669a2.286,2.286,0,0,0-.751,2.637,2.266,2.266,0,1,0,3.128-2.852c.033.486.07.968.122,1.45C118.231,54.881,117.862,55.556,117.258,55.671Z" transform="translate(-108.256 -33.213)"/><path class="d" d="M206.993,57.477a3.64,3.64,0,0,0,.951-1.454c.276-1.532.369-3.089.553-4.639.188-1.747.369-3.493.564-5.236q.3-2.785.626-5.563c.206-1.8.427-3.6.626-5.4.133-1.2.236-2.4.368-3.757l-2.848.831c-.346,3.95-.715,7.81-1.046,11.667a3.167,3.167,0,0,1-.147-1.19c.052-3.163.033-6.331.181-9.486.092-1.969-1.2-3.26-1.842-4.869l-.313.078q-.2,15.787-.394,31.582l.21.13C205.328,59.276,206.186,58.4,206.993,57.477Z" transform="translate(-164.794 -17.975)"/><path class="c" d="M123.9,35.164c6.666-1.5,13.243-2.967,19.814-4.487a.224.224,0,0,0,.081-.037l-19.9,4.491A.105.105,0,0,0,123.9,35.164Z" transform="translate(-114.039 -19.397)"/><path class="e" d="M136.5,59.929c.2-11.708.391-23.256.59-34.979l-6.633,1.461h0l-.07.019a24.6,24.6,0,0,1,.21,3.46,2.268,2.268,0,1,1-2.211-.089,2.6,2.6,0,0,0-.026-.449c-.063-.812-.147-1.613-.273-2.407l-.509.115a.224.224,0,0,1-.081.037c-6.57,1.509-13.148,2.985-19.814,4.487a.1.1,0,0,1,0-.033l-.147.033a29.685,29.685,0,0,0,.044,3.62,2.272,2.272,0,1,1-2.377.215c-.077-.823-.14-1.65-.217-2.47,0-.267.018-.534.033-.8l-.317.07a1.926,1.926,0,0,1-.615.211c-1.912.4-3.814.838-5.841,1.287,1.728,9.42,3.438,18.747,5.159,28.152a14.693,14.693,0,0,1,6.327-1.087,17.611,17.611,0,0,0-6.051,2.752,12.559,12.559,0,0,0-4.245,5.37,6.1,6.1,0,0,0,.671-.4c2.727-2.362,6.021-3.108,9.477-3.186,3.033-.063,5.925.827,8.844,1.617A69.474,69.474,0,0,0,127.08,69a12.374,12.374,0,0,0,10.6-3.868c3.969-3.909,5.546-8.878,5.9-14.33a2.8,2.8,0,0,0-.092-.616C142.008,54.062,139.974,57.448,136.5,59.929Zm-27.242-4.55a3.824,3.824,0,0,1-1.522-3.03,14.785,14.785,0,0,1,.041-2.492,4.928,4.928,0,0,1,3.416-3.968,4.086,4.086,0,0,1,.947-.215c.328-.041.346,0,.346.319v5.633a4.982,4.982,0,0,0,1.529,3.709c.077.078.155.145.228.223.166.174.158.33-.059.419a4.934,4.934,0,0,1-1.124.371A4.768,4.768,0,0,1,109.26,55.379Zm8.343,1.483a9.607,9.607,0,0,1-2.509.46c-.287.019-.579,0-.866,0V57.4l-.24-.115c.063-.067.111-.163.184-.2a3.643,3.643,0,0,0,1.717-1.806c.155-.326.24-.315.494-.063.416.415.859.8,1.29,1.2a2.7,2.7,0,0,1,.214.248A1.076,1.076,0,0,1,117.6,56.862Zm-.906-3.827a4.035,4.035,0,0,1-.085-.816c0-1.6.041-3.208,0-4.821a5.028,5.028,0,0,1,3.512-4.955,12.863,12.863,0,0,1,1.253-.3v9.479a5.059,5.059,0,0,0,1.654,3.8c.321.3.31.43-.092.6-2.251.983-5.619-.067-6.242-3.011Zm13.52-1.024a4.891,4.891,0,0,1-3.445,4.747,9.526,9.526,0,0,1-2.97.556l-.932.045-.041-.1a.974.974,0,0,1,.2-.171,3.577,3.577,0,0,0,1.938-2.366,9.739,9.739,0,0,0,.442-2.392c.066-2.993.066-5.986.07-8.978a5.072,5.072,0,0,1,4.344-4.944c.368-.063.435,0,.431.371C130.249,43.189,130.286,47.591,130.216,52.011Z" transform="translate(-97.841 -15.817)"/><path class="d" d="M119.653,12.6a12.071,12.071,0,0,1,4.33-7.439A11.739,11.739,0,0,1,131.875,2.8,7.106,7.106,0,0,1,137.51,5.74a12.7,12.7,0,0,1,2.244,5.726l2.292-.515a19.947,19.947,0,0,0-.667-3.086c-1.017-3.338-2.859-5.963-6.323-7.046a12.8,12.8,0,0,0-6.762-.082,13.394,13.394,0,0,0-9.853,7.706,21.676,21.676,0,0,0-1.75,8.214l2.517-.567a21.953,21.953,0,0,1,.446-3.486Z" transform="translate(-109.486 -0.323)"/><path class="d" d="M180.09,37.578a20.761,20.761,0,0,0,.147,2.351.817.817,0,0,0,1.474.434,2.045,2.045,0,0,0,.553-1.172c.026-.512.037-1.016.041-1.524a2.248,2.248,0,0,0-1.183-.337,2.2,2.2,0,0,0-1.032.248Z" transform="translate(-149.524 -23.606)"/><path class="d" d="M117.19,52.4c.055.556.114,1.113.2,1.669.147.961.685,1.331,1.419,1.187.6-.115.973-.79.884-1.621-.052-.482-.088-.964-.122-1.45a2.24,2.24,0,0,0-2.377.215Z" transform="translate(-109.802 -32.798)"/><path class="d" d="M116.817,46.675a2.24,2.24,0,0,1,2.377-.215,29.675,29.675,0,0,1-.044-3.62l-2.517.567c0,.263-.026.53-.033.8C116.677,45.024,116.747,45.866,116.817,46.675Z" transform="translate(-109.429 -27.072)"/><path class="d" d="M179.533,31.862a2.639,2.639,0,0,0,.026.449,2.2,2.2,0,0,1,1.021-.248,2.248,2.248,0,0,1,1.183.337,24.6,24.6,0,0,0-.21-3.46l-2.292.515C179.393,30.249,179.477,31.05,179.533,31.862Z" transform="translate(-149 -18.327)"/></g></g></svg>