<svg xmlns="http://www.w3.org/2000/svg" width="89.717" height="60.73" viewBox="0 0 89.717 60.73"><defs><style>.a{fill:#f38120;}</style></defs><path class="a" d="M69.45,45.831H13.25a13.038,13.038,0,1,1-.424-26.073,20.191,20.191,0,0,1,37.1-10.6,14.626,14.626,0,0,1,16.243,10.6H69.45a13.037,13.037,0,0,1,0,26.073ZM13.25,23.6a9.194,9.194,0,1,0,0,18.362h56.2a9.194,9.194,0,1,0,0-18.362H62.959l-.265-1.616a10.784,10.784,0,0,0-13.248-8.876l-1.431.344L47.3,12.18a16.322,16.322,0,0,0-30.578,7.949c0,.477,0,.954,0,1.4l.186,2.093Z" transform="translate(8.745) rotate(11)"/></svg>