<svg xmlns="http://www.w3.org/2000/svg" width="22" height="22" viewBox="0 0 22 22"><defs><style>.a,.c{fill:#fff;}.a{opacity:0;}.b{opacity:0.85;}</style></defs><rect class="a" width="22" height="22"/><g class="b" transform="translate(0.833 2.491)"><path class="c" d="M21.167,2.5a10,10,0,0,1-2.9,1.446,4.08,4.08,0,0,0-4.6-1.177A4.233,4.233,0,0,0,11,6.781v.944a9.786,9.786,0,0,1-8.318-4.28s-3.7,8.5,4.622,12.283a10.586,10.586,0,0,1-6.47,1.889c8.318,4.724,18.485,0,18.485-10.865a4.33,4.33,0,0,0-.074-.785A7.329,7.329,0,0,0,21.167,2.5Z" transform="translate(-0.833 -2.491)"/></g></svg>