<?xml version="1.0" standalone="no"?>
<!DOCTYPE svg PUBLIC "-//W3C//DTD SVG 1.1//EN" "http://www.w3.org/Graphics/SVG/1.1/DTD/svg11.dtd" >
<svg xmlns="http://www.w3.org/2000/svg" xmlns:xlink="http://www.w3.org/1999/xlink" version="1.1">
<metadata>
Created by FontForge 20170731 at Fri Aug 12 10:02:08 2011
 By Aleksey,,,
Copyright (c) 2011 by Abdoulla Aref. All rights reserved.&#60;abdoulla_aref@hotmail.com&#62; Member of the Arabic Font Resources : http://zakdesign.net  Arab Typographers' Group : http://www.aratypo.net
</metadata>
<defs>
<font id="Aref_Menna" horiz-adv-x="0" >
  <font-face 
    font-family="Aref_Menna"
    font-weight="400"
    font-stretch="normal"
    units-per-em="2048"
    panose-1="2 0 0 0 0 0 0 0 0 0"
    ascent="1400"
    descent="-648"
    x-height="723"
    cap-height="1064"
    bbox="-245 -731 1730 1429.09"
    underline-thickness="50"
    underline-position="-650"
    unicode-range="U+0020-FEFC"
  />
<missing-glyph horiz-adv-x="902" 
d="M49 0v1400h804v-1400h-804zM97 48h708v1304h-708v-1304zM269 1122q30 26 56 42q52 28 110 28q90 0 144 -46t54 -124q0 -48 -22 -97t-84 -127t-97 -128t-35 -96q0 -38 22 -130h-30q-34 94 -34 144q0 74 79 213t79 211q0 56 -32 88t-88 32q-38 0 -68 -16q-26 -14 -54 -38
v44zM331 326l56 56q10 10 20 10q8 0 20 -10l56 -58q8 -12 8 -20q0 -12 -10 -22l-54 -60q-14 -14 -20 -14q-12 0 -20 10l-60 70q-6 8 -6 16q0 10 10 22z" />
    <glyph glyph-name="Lig.lillah" unicode="&#xfedf;&#xfee0;&#xfeea;" horiz-adv-x="1584" arabic-form="isolated" 
d="M602 157q-21 -66 -69.5 -104t-109.5 -50t-126.5 1.5t-119 50t-86.5 96t-30 138.5q2 73 31 133.5t75 103.5t104.5 66.5t118.5 23.5q97 0 156 -23t91.5 -60t44 -83.5t14.5 -93.5t3 -90t10 -73q12 -38 39.5 -60t61 -29.5t69 0.5t64 32t45.5 63t14 94q-2 34 -5.5 80.5
t-8 97.5t-9 103t-8 96.5t-6 78.5t-1.5 49q0 46 17 67.5t38 15.5t39.5 -39.5t21.5 -96.5q1 -30 2.5 -57.5t4 -61t6.5 -78t11 -108.5q8 -60 18.5 -108t22.5 -85q19 -57 47 -86.5t58 -34.5t59.5 12.5t50.5 55.5t30.5 94t0.5 127q-6 45 -15.5 93.5t-21.5 96.5t-24 94.5t-22 86.5
t-16.5 72.5t-6.5 53.5q1 61 21.5 89.5t45.5 28t47 -28t25 -77.5q4 -50 16.5 -108.5t27.5 -121.5t29 -129.5t22 -130.5q10 -92 -1.5 -171t-41 -139t-73 -98.5t-96 -49t-112 11t-120.5 80.5q-28 -34 -67 -61.5t-83.5 -42.5t-91.5 -15t-90.5 21t-80 66.5t-60.5 120.5zM580 320
q-2 69 -32.5 108.5t-75.5 53t-97 4t-96 -37t-73.5 -71t-29.5 -97.5q0 -30 20.5 -58t51 -49t67 -32t68.5 -6t54.5 29t26.5 72q2 25 15 42t30.5 27t36.5 13t34 2zM1076 1159q31 -25 45 -52t14.5 -52.5t-9.5 -46.5t-27 -32t-39 -10t-45 19q-18 -33 -51 -46t-66.5 -3.5t-59 42
t-27.5 88.5q0 15 10 25t22.5 12.5t22.5 -6t10 -31.5q0 -8 3.5 -19.5t10.5 -21t17 -15.5t23 -3q12 3 14.5 11t1 18.5t-6 22t-7.5 21.5q-10 26 -3 42t20 18q16 3 25 -5t14 -22t8.5 -30.5t9.5 -28.5t16.5 -17.5t29.5 2.5q7 4 13 9.5t6 13.5t-8 18.5t-27 24.5q-29 20 -11 47
q10 13 25 14.5t26 -7.5zM954 1258q7 -35 6 -56t-7 -30.5t-15 -10t-18 5t-16 14.5t-9 18q-5 45 -13.5 89.5t-25.5 86.5q-6 13 -2.5 25.5t12 20t20.5 8.5t24 -9q8 -26 14.5 -46.5t11.5 -39.5t9 -37t9 -39z" />
    <glyph glyph-name="lamalefmad" unicode="&#xfedf;&#xfe82;" horiz-adv-x="973" arabic-form="isolated" 
d="M406 -88q-23 -4 -41.5 10.5t-27.5 35.5t-6 42.5t23 31.5q109 53 183.5 104.5t122 111t72.5 131t35 165t10 214t-3 276.5q1 15 19.5 23.5t40 10t40 -6t20.5 -23.5q7 -66 13 -145.5t6 -166t-8.5 -175.5t-30 -174t-57.5 -162t-92.5 -139t-135 -105t-183.5 -59zM420 793
q47 -91 86 -194t71 -215q22 -74 19 -121.5t-21.5 -56t-49.5 28.5t-64 132q-35 99 -74.5 192t-80.5 183q-19 41 -23 70t3 46.5t22 22t34 -3.5t39.5 -29t38.5 -55zM468 976q-45 2 -89.5 10.5t-87 13.5t-83.5 2t-78 -22q-11 -6 -25 0.5t-25.5 20.5t-16.5 33t1 40q11 39 37 54.5
t62 17.5t80.5 -5.5t91.5 -15.5t95 -10.5t92 8.5q8 1 13 -10t5 -27.5t-4 -36t-13 -36t-22.5 -27.5t-32.5 -10z" />
    <glyph glyph-name="lamalefmadM" unicode="&#xfee0;&#xfe82;" horiz-adv-x="862" arabic-form="final" 
d="M184 -88q-23 -4 -41.5 10.5t-28 35.5t-6.5 42.5t23 31.5q109 53 183.5 104.5t122 111t72.5 131t35.5 165t10.5 214t-3 276.5q1 15 19 23.5t39.5 10t40 -6t20.5 -23.5q10 -93 15.5 -182t3 -177.5t-15 -176.5t-39.5 -178q-12 -41 10 -74t59 -56.5t81 -36.5t77 -13
q29 0 49 -21t20 -51q0 -29 -20 -50.5t-49 -21.5q-38 0 -80.5 13.5t-83 36t-75.5 50.5t-59 58q-29 -47 -66 -87t-84 -72t-104 -54.5t-126 -32.5zM197 793q47 -91 86 -194t72 -215q22 -74 19 -121.5t-22 -56t-49.5 28.5t-64.5 132q-35 99 -74.5 192t-80.5 183q-19 41 -23 70
t3 46.5t22 22t34 -3.5t39.5 -29t38.5 -55zM258 976q-45 2 -89.5 10.5t-87 13.5t-83.5 2t-78 -22q-11 -6 -25 0.5t-25.5 20.5t-16.5 33t1 40q11 39 37 54.5t62 17.5t80.5 -5.5t91.5 -15.5t95 -10.5t92 8.5q8 1 13 -10t5 -27.5t-4 -36t-13 -36t-22.5 -27.5t-32.5 -10z" />
    <glyph glyph-name="lamalefhamzaA" unicode="&#xfedf;&#xfe84;" horiz-adv-x="890" arabic-form="isolated" 
d="M323 -88q-23 -4 -41.5 10.5t-27.5 35.5t-6 42.5t23 31.5q109 53 183.5 104.5t122 111t72.5 131t35 165t10 214t-3 276.5q1 15 19.5 23.5t40 10t40 -6t20.5 -23.5q7 -66 13 -145.5t6 -166t-8.5 -175.5t-29.5 -174t-57.5 -162t-93 -139t-135 -105t-183.5 -59zM337 793
q48 -91 86.5 -194t70.5 -215q22 -74 19 -121.5t-21.5 -56t-49.5 28.5t-64 132q-35 99 -74.5 192t-80.5 183q-28 61 -24 96t26 42t53.5 -14.5t58.5 -72.5zM367 1244q-11 4 -36 9t-51 5.5t-48.5 -6.5t-28.5 -27t1.5 -30.5t22.5 -15.5t36 -6t42 -2.5t39.5 -5t29.5 -12.5
q27 -23 23.5 -55t-29.5 -62q-22 -26 -56 -45t-74 -23.5t-83 9.5t-83 55q-7 7 -9.5 18.5t-0.5 22t8 18t16 7.5q14 -13 33.5 -23t40 -16t40.5 -7t36 3q23 5 32.5 9.5t11.5 8.5q1 8 -9 11.5t-27 6.5t-38 7t-41 13t-35.5 24.5t-21.5 41.5q-5 22 -2.5 45.5t12.5 45.5t27.5 40.5
t41.5 30.5q28 14 62 20t67.5 5t64 -9.5t53.5 -23.5q8 -6 6.5 -22.5t-11.5 -33t-26 -27t-36 -4.5z" />
    <glyph glyph-name="lamalefhamzaAM" unicode="&#xfee0;&#xfe84;" horiz-adv-x="862" arabic-form="final" 
d="M184 -88q-23 -4 -41.5 10.5t-28 35.5t-6.5 42.5t23 31.5q109 53 183.5 104.5t122 111t72.5 131t35.5 165t10.5 214t-3 276.5q1 15 19 23.5t39.5 10t40 -6t20.5 -23.5q10 -93 15.5 -182t3 -177.5t-15 -176.5t-39.5 -178q-12 -41 10 -74t59 -56.5t81 -36.5t77 -13
q29 0 49 -21t20 -51q0 -29 -20 -50.5t-49 -21.5q-38 0 -80.5 13.5t-83 36t-75.5 50.5t-59 58q-29 -47 -66 -87t-84 -72t-104 -54.5t-126 -32.5zM197 793q47 -91 86 -194t72 -215q22 -74 19 -121.5t-22 -56t-49.5 28.5t-64.5 132q-35 99 -74.5 192t-80.5 183q-19 41 -23 70
t3 46.5t22 22t34 -3.5t39.5 -29t38.5 -55zM227 1244q-11 4 -36 9t-51 5.5t-48 -6.5t-28 -27t1 -30.5t22.5 -15.5t36 -6t41.5 -2.5t40 -5t30 -12.5q26 -23 22.5 -55t-29.5 -62q-22 -26 -56 -45t-74 -23.5t-83 9.5t-83 55q-8 7 -10.5 18.5t-0.5 22t8 18t17 7.5
q14 -13 33.5 -23t40 -16t41 -7t35.5 3q23 5 32.5 9.5t10.5 8.5q1 8 -9 11.5t-27 6.5t-38 7t-40.5 13t-35 24.5t-21.5 41.5q-5 22 -2.5 45.5t12.5 45.5t27.5 40.5t41.5 30.5q28 14 61.5 20t67.5 5t65 -9.5t54 -23.5q8 -6 6 -22.5t-12 -33t-26 -27t-36 -4.5z" />
    <glyph glyph-name="lamalefhamzaB" unicode="&#xfedf;&#xfe88;" horiz-adv-x="752" arabic-form="isolated" 
d="M185 -88q-23 -4 -41.5 10.5t-27.5 35.5t-6 42.5t23 31.5q109 53 183.5 104.5t122 111t72.5 131t35 165t10 214t-3 276.5q1 15 19.5 23.5t40 10t40 -6t20.5 -23.5q7 -66 13 -145.5t6 -166t-8.5 -175.5t-29.5 -174t-57.5 -162t-93 -139t-135 -105t-183.5 -59zM199 793
q48 -91 86.5 -194t70.5 -215q22 -74 19 -121.5t-21.5 -56t-49.5 28.5t-64 132q-35 99 -74.5 192t-80.5 183q-28 61 -24 96t26 42t53.5 -14.5t58.5 -72.5zM475 -283q-12 3 -37 7.5t-51 5t-48 -6.5t-28 -27t1 -30t22.5 -15t36 -6.5t41.5 -3t39.5 -5t29.5 -12.5
q28 -21 24 -53.5t-30 -62.5q-21 -26 -55 -45t-74 -23.5t-83 9.5t-83 55q-7 7 -9.5 18.5t-1 22t7.5 17.5t16 7q14 -13 33.5 -23t40.5 -15.5t41 -7t36 2.5q22 5 31.5 9.5t10.5 9.5q2 8 -8 12t-27 6.5t-38 6.5t-40.5 13t-35.5 24.5t-22 42.5q-5 21 -2.5 44.5t12.5 45t27.5 40
t41.5 30.5q28 14 62 20.5t67.5 5.5t64.5 -9.5t54 -24.5q8 -5 6 -21.5t-11.5 -32.5t-25.5 -26.5t-36 -4.5z" />
    <glyph glyph-name="lamalefhamzaBM" unicode="&#xfee0;&#xfe88;" horiz-adv-x="862" arabic-form="final" 
d="M184 -88q-23 -4 -41.5 10.5t-28 35.5t-6.5 42.5t23 31.5q109 53 183.5 104.5t122 111t72.5 131t35.5 165t10.5 214t-3 276.5q1 15 19 23.5t39.5 10t40 -6t20.5 -23.5q10 -93 15.5 -182t3 -177.5t-15 -176.5t-39.5 -178q-12 -41 10 -74t59 -56.5t81 -36.5t77 -13
q29 0 49 -21t20 -51q0 -29 -20 -50.5t-49 -21.5q-38 0 -80.5 13.5t-83 36t-75.5 50.5t-59 58q-29 -47 -66 -87t-84 -72t-104 -54.5t-126 -32.5zM197 793q47 -91 86 -194t72 -215q22 -74 19 -121.5t-22 -56t-49.5 28.5t-64.5 132q-35 99 -74.5 192t-80.5 183q-19 41 -23 70
t3 46.5t22 22t34 -3.5t39.5 -29t38.5 -55zM473 -283q-12 3 -36.5 7.5t-51 5t-49 -6.5t-28.5 -27t1.5 -30t23 -15t36 -6.5t42 -3t40 -5t29.5 -12.5q27 -21 23 -53.5t-30 -62.5q-22 -26 -56 -45t-73.5 -23.5t-82.5 9.5t-83 55q-8 7 -10.5 18.5t-0.5 22t8 17.5t17 7
q13 -13 32.5 -23t40.5 -15.5t41 -7t36 2.5q22 5 31.5 9.5t11.5 9.5q1 8 -9 12t-27 6.5t-38.5 6.5t-41 13t-35.5 24.5t-22 42.5q-5 21 -2 44.5t13 45t27.5 40t41.5 30.5q28 14 62 20.5t67.5 5.5t64.5 -9.5t54 -24.5q8 -5 6 -21.5t-11.5 -32.5t-25.5 -26.5t-36 -4.5z" />
    <glyph glyph-name="lamalef" unicode="&#xfedf;&#xfe8e;" horiz-adv-x="752" arabic-form="isolated" 
d="M185 -88q-23 -4 -41.5 10.5t-27.5 35.5t-6 42.5t23 31.5q109 53 183.5 104.5t122 111t72.5 131t35 165t10 214t-3 276.5q1 15 19.5 23.5t40 10t40 -6t20.5 -23.5q7 -66 13 -145.5t6 -166t-8.5 -175.5t-29.5 -174t-57.5 -162t-93 -139t-135 -105t-183.5 -59zM199 793
q48 -91 86.5 -194t70.5 -215q22 -74 19 -121.5t-21.5 -56t-49.5 28.5t-64 132q-35 99 -74.5 192t-80.5 183q-28 61 -24 96t26 42t53.5 -14.5t58.5 -72.5z" />
    <glyph glyph-name="lamalefM" unicode="&#xfee0;&#xfe8e;" horiz-adv-x="862" arabic-form="final" 
d="M184 -88q-23 -4 -41.5 10.5t-28 35.5t-6.5 42.5t23 31.5q109 53 183.5 104.5t122 111t72.5 131t35.5 165t10.5 214t-3 276.5q1 15 19 23.5t39.5 10t40 -6t20.5 -23.5q10 -93 15.5 -182t3 -177.5t-15 -176.5t-39.5 -178q-12 -41 10 -74t59 -56.5t81 -36.5t77 -13
q29 0 49 -21t20 -51q0 -29 -20 -50.5t-49 -21.5q-38 0 -80.5 13.5t-83 36t-75.5 50.5t-59 58q-29 -47 -66 -87t-84 -72t-104 -54.5t-126 -32.5zM197 793q47 -91 86 -194t72 -215q22 -74 19 -121.5t-22 -56t-49.5 28.5t-64.5 132q-35 99 -74.5 192t-80.5 183q-19 41 -23 70
t3 46.5t22 22t34 -3.5t39.5 -29t38.5 -55z" />
    <glyph glyph-name="hamza" unicode="&#x621;" horiz-adv-x="692" arabic-form="isolated" 
d="M521 434q-12 3 -33 8t-46.5 8.5t-52.5 4t-50.5 -4t-41 -15.5t-23.5 -31q-9 -29 2 -44.5t34 -23t54.5 -9.5l63 -4t59.5 -7t45 -19q20 -17 28.5 -38t6 -44.5t-14 -48t-30.5 -46.5q-33 -38 -84 -66.5t-111 -35.5t-124.5 14t-124.5 83q-11 11 -15 28t-1 32.5t12.5 27
t25.5 10.5q20 -20 49 -34.5t60 -23t61.5 -10.5t53.5 4q34 8 49 14.5t15 14.5q2 12 -13 17.5t-41 9.5t-57.5 9.5t-60.5 19t-53 37t-33 63.5q-8 32 -4 67t19 67.5t41 60.5t63 45q43 22 94 31.5t101.5 8t96.5 -14t81 -36.5q8 -5 9 -18.5t-3.5 -30t-14 -33.5t-23.5 -29.5
t-31.5 -18.5t-37.5 1z" />
    <glyph glyph-name="alefmad" unicode="&#x622;" horiz-adv-x="598" arabic-form="isolated" 
d="M466 987q-44 2 -88 10.5t-87 14t-83.5 3t-77.5 -22.5q-11 -6 -25.5 0t-25.5 20t-16 33.5t2 40.5q11 39 37 54.5t62 17t79.5 -6t90.5 -15t94.5 -10.5t91.5 9q8 0 13 -10.5t5 -27.5t-4 -36.5t-12.5 -36t-22.5 -27.5t-33 -10zM412 -85q-21 -4 -36.5 12.5t-27 40.5t-18.5 50
t-10 42q-7 35 -14 90t-14 120.5t-13 137t-11 138.5t-8 125.5t-3 97.5q0 60 16.5 87.5t37.5 26.5t39 -28.5t20 -78.5q2 -39 6.5 -96.5t11 -124.5t14.5 -138t16 -137t15.5 -122t13.5 -92q3 -16 6.5 -40t2.5 -47t-10.5 -41.5t-33.5 -22.5z" />
    <glyph glyph-name="alefhamzaA" unicode="&#x623;" horiz-adv-x="500" arabic-form="isolated" 
d="M369 -85q-21 -4 -36.5 12.5t-27 40.5t-18.5 50t-10 42q-7 35 -14 90t-14 120.5t-13 137t-11 138.5t-8 125.5t-3 97.5q0 60 16.5 87.5t37 26.5t39 -28.5t21.5 -78.5q1 -39 6 -96.5t11 -124.5t14 -138t16 -137t15.5 -122t13.5 -92q3 -16 7 -40t3 -47t-11 -41.5t-34 -22.5z
M365 1239q-12 4 -36.5 9t-50.5 5.5t-47.5 -6.5t-27.5 -27t1 -30.5t22 -15.5t36 -6t42 -2.5t39.5 -4.5t29.5 -12q26 -23 22.5 -55t-28.5 -62q-22 -26 -56 -45t-74 -23.5t-83 9.5t-83 55q-7 7 -9 18.5t-0.5 22t7.5 18t16 7.5q13 -13 32.5 -23t40.5 -16t41 -7t36 3
q23 5 32.5 9.5t11.5 8.5q1 8 -9 11.5t-27 6t-38 6.5t-40.5 13t-35 24.5t-21.5 41.5q-5 22 -3 45.5t12 45t27 40.5t41 31q29 13 62.5 19.5t67 5t64 -9.5t53.5 -23q8 -6 6.5 -22.5t-11.5 -33t-26 -27t-36 -4.5z" />
    <glyph glyph-name="wawhamza" unicode="&#x624;" horiz-adv-x="727" arabic-form="isolated" 
d="M84 -121q67 34 133 69.5t122 85.5q-109 -3 -174.5 33.5t-94.5 95t-23.5 132t39.5 144.5t94 132.5t140 96.5q93 43 162 34t112 -55.5t60.5 -122t8.5 -164.5t-44.5 -183.5t-98.5 -178.5q-72 -96 -148.5 -150.5t-145.5 -78t-122 -21t-78 21t-13.5 48.5t71.5 61zM239 432
q-27 -35 -42 -72.5t-15 -72.5t15.5 -64t49 -46.5t86 -20t126.5 14.5q46 65 63.5 130.5t12.5 119.5t-30 90.5t-65 43.5t-91.5 -21t-109.5 -102zM558 1082q-11 4 -35.5 9t-51 5.5t-48.5 -6.5t-29 -26q-6 -20 1.5 -30.5t22.5 -15.5t36 -6t42 -2.5t40 -5t30 -12.5q27 -23 23 -55
t-30 -62q-22 -26 -56 -44.5t-73.5 -23t-82.5 9.5t-83 55q-7 7 -9.5 18t-0.5 21.5t8 18t17 6.5q13 -13 32.5 -23t40 -15.5t41 -7t35.5 1.5q23 7 32.5 11t10.5 9q1 8 -9 11.5t-27 6.5t-38 7t-40.5 13t-35 24.5t-21.5 41.5q-5 22 -2.5 45t12.5 45t27 40.5t41 30.5q28 14 62 20
t67.5 5t64.5 -9.5t54 -23.5q8 -5 6 -21.5t-12 -33t-26 -27.5t-36 -5z" />
    <glyph glyph-name="alefhamzaB" unicode="&#x625;" horiz-adv-x="500" arabic-form="isolated" 
d="M265 -85q-20 -4 -35.5 12.5t-26.5 40.5t-18 50t-10 42q-5 26 -11 71t-12 102.5t-12 124t-12 135t-11 136t-9 127t-6 107t-2 77.5q-1 59 15.5 86t37 26t39 -28.5t21.5 -78.5q1 -39 7 -109t13.5 -155.5t17 -179t19 -178t17.5 -153t13 -104.5l7.5 -40t3 -47t-11.5 -41.5
t-34 -22.5zM365 -282q-12 3 -36.5 7.5t-51 5t-48 -6.5t-26.5 -27q-6 -19 1 -29.5t22 -15.5t36 -6.5l42 -3t39.5 -4.5t29.5 -12q26 -22 22 -54t-30 -62q-21 -26 -54.5 -45t-73.5 -23.5t-83 9.5t-83 55q-7 7 -9.5 18.5t-0.5 22t8 17.5t16 7q13 -13 32.5 -23t40.5 -15.5t41 -7
t36 2.5q23 5 32 9.5t10 9.5q2 8 -8 12t-27 6.5t-37.5 6.5t-40.5 12.5t-35.5 24t-22.5 42.5q-5 21 -2 44.5t12.5 45t27 40t41.5 30.5q28 14 61.5 20.5t67 5.5t64.5 -10t54 -25q8 -5 6 -21t-11.5 -32t-25.5 -26.5t-36 -4.5z" />
    <glyph glyph-name="yahamzaA" unicode="&#x626;" horiz-adv-x="1263" arabic-form="isolated" 
d="M701 106q53 -12 104.5 -29t92.5 -44.5t66.5 -69.5t27.5 -104q1 -52 -13.5 -92.5t-42.5 -70t-66 -48.5t-83 -26q-54 -10 -114 -4.5t-121.5 26t-120 55.5t-108 85t-87.5 114t-58 143q-5 18 -8 39t0 40t13.5 34.5t30.5 23.5q14 5 30 3.5t30 -9t24 -19.5t12 -28
q8 -91 48.5 -158t96.5 -112t120.5 -67.5t122.5 -23.5t101.5 19.5t56.5 61.5q9 27 -2 43t-35.5 26t-60 18t-75 18t-80.5 26t-77 42.5t-64.5 67t-43.5 99.5q-21 86 1.5 162t75 137t128 104.5t160 65.5t172 20.5t164.5 -30.5q33 -10 52 -27.5t26.5 -38t5 -40.5t-13.5 -35
q-35 -45 -63.5 -57t-54.5 -4q-131 34 -225.5 39.5t-158 -8.5t-99 -44.5t-48 -68t-4.5 -78.5t30.5 -77t57.5 -63t77 -36zM365 641q-12 4 -36.5 8.5t-50.5 5t-47.5 -6.5t-27.5 -26q-6 -20 1 -30.5t22 -15.5t36 -6.5l42 -3t39.5 -5t29.5 -12.5q26 -21 22.5 -53.5t-28.5 -63.5
q-22 -25 -56 -44t-74 -23.5t-83 9.5t-83 55q-7 7 -9 18.5t-0.5 22t7.5 18t16 6.5q13 -13 32.5 -22.5t40.5 -15.5t41 -7.5t36 1.5q23 6 32.5 11t11.5 9q1 8 -9 11.5t-27 6.5t-38 6.5t-40.5 12.5t-35 24.5t-21.5 42.5q-5 22 -3 45t12 45t27 40.5t41 30.5q29 14 62.5 20t67 5
t64 -9.5t53.5 -23.5q8 -6 6 -22.5t-11.5 -33t-25.5 -27t-36 -3.5z" />
    <glyph glyph-name="alef" unicode="&#x627;" horiz-adv-x="334" arabic-form="isolated" 
d="M227 -85q-20 -4 -35.5 12.5t-26.5 40.5t-17.5 50t-9.5 42q-5 26 -11 71t-12.5 102.5t-13 124t-12.5 135t-11 136t-9 127t-6 107t-2 77.5q0 59 16.5 86t37.5 26t39 -28.5t20 -78.5q1 -39 7 -109t14 -155.5t17.5 -179t18.5 -178t17.5 -153t14.5 -104.5q3 -16 7 -40t2.5 -47
t-11 -41.5t-34.5 -22.5z" />
    <glyph glyph-name="ba" unicode="&#x628;" horiz-adv-x="1057" arabic-form="isolated" 
d="M81 173q-17 47 -20 88.5t4 71t21 44.5t31 9.5t34.5 -34t31.5 -85.5q17 -73 63 -128t108 -90t133 -48.5t139 -1.5t126 50t93 105q34 63 60.5 96t45 42t30 -2t14.5 -35t-1.5 -58t-17.5 -71q-25 -70 -71.5 -119t-107 -79t-130.5 -41.5t-142 -6t-141.5 27.5t-129 59.5
t-105 89t-68.5 116.5zM522 -222q18 0 33.5 -7t27.5 -19.5t19 -29t7 -35.5t-7 -36t-19 -29.5t-27.5 -19.5t-33.5 -7t-34 7t-28 19.5t-19 29.5t-7 36q0 38 25.5 64.5t62.5 26.5z" />
    <glyph glyph-name="tamar" unicode="&#x629;" horiz-adv-x="598" arabic-form="isolated" 
d="M189 509q-13 5 -30.5 9.5t-33.5 10.5t-27.5 13.5t-12.5 19.5q-1 8 3 26.5t11.5 37t18.5 32t23 11.5q73 -14 141.5 -39t120.5 -51q50 -25 80.5 -63.5t43.5 -84t10.5 -95t-17 -97t-40 -90.5t-58.5 -75t-72.5 -50.5t-81.5 -17.5q-44 1 -83 25t-67.5 63.5t-43 90.5t-9 106.5
t35 111.5t88.5 106zM267 156q59 2 91 33t40.5 71.5t-5 79t-45.5 55.5q-43 22 -75 12.5t-53 -36t-30 -64.5t-3.5 -71.5t25 -57t55.5 -22.5zM148 970q36 0 61.5 -26.5t25.5 -65.5q0 -19 -7 -35.5t-18.5 -28.5t-27.5 -19t-34 -7q-38 0 -63 26t-25 64q0 39 25 65.5t63 26.5z
M337 916q18 0 33.5 -7t27.5 -19t19 -28.5t7 -35.5t-7 -36t-19 -29.5t-27.5 -19.5t-33.5 -7t-34 7t-28 19.5t-19 29.5t-7 36q0 38 25.5 64t62.5 26z" />
    <glyph glyph-name="ta" unicode="&#x62a;" horiz-adv-x="1057" arabic-form="isolated" 
d="M81 173q-17 47 -20 88.5t4 71t21 44.5t31 9.5t34.5 -34t31.5 -85.5q17 -73 63 -128t108 -90t133 -48.5t139 -1.5t126 50t93 105q34 63 60.5 96t45 42t30 -2t14.5 -35t-1.5 -58t-17.5 -71q-25 -70 -71.5 -119t-107 -79t-130.5 -41.5t-142 -6t-141.5 27.5t-129 59.5
t-105 89t-68.5 116.5zM440 480q37 0 62 -26.5t25 -65.5q0 -37 -25 -63.5t-62 -26.5q-38 0 -63 26.5t-25 63.5q0 39 25 65.5t63 26.5zM628 427q37 0 63 -26.5t26 -66.5q0 -37 -26 -63.5t-63 -26.5t-61.5 26.5t-24.5 63.5q0 40 24.5 66.5t61.5 26.5z" />
    <glyph glyph-name="tha" unicode="&#x62b;" horiz-adv-x="1057" arabic-form="isolated" 
d="M81 173q-17 47 -20 88.5t4 71t21 44.5t31 9.5t34.5 -34t31.5 -85.5q17 -73 63 -128t108 -90t133 -48.5t139 -1.5t126 50t93 105q34 63 60.5 96t45 42t30 -2t14.5 -35t-1.5 -58t-17.5 -71q-25 -70 -71.5 -119t-107 -79t-130.5 -41.5t-142 -6t-141.5 27.5t-129 59.5
t-105 89t-68.5 116.5zM440 480q37 0 62 -26.5t25 -65.5q0 -37 -25 -63.5t-62 -26.5q-38 0 -63 26.5t-25 63.5q0 39 25 65.5t63 26.5zM628 427q37 0 63 -26.5t26 -66.5q0 -37 -26 -63.5t-63 -26.5t-61.5 26.5t-24.5 63.5q0 40 24.5 66.5t61.5 26.5zM582 638q38 0 63.5 -26
t25.5 -64q0 -19 -7 -36t-19 -29.5t-28 -20t-35 -7.5q-18 0 -34 7.5t-27.5 20t-18.5 29.5t-7 36t7 35.5t18.5 28.5t27.5 19t34 7z" />
    <glyph glyph-name="jeem" unicode="&#x62c;" horiz-adv-x="1008" arabic-form="isolated" 
d="M60 399q2 56 31 90t71 50t91 16t91 -11q59 -14 124 -37t131 -49t131.5 -52t126.5 -47q15 -6 30 -10.5t28 -12t21.5 -19t9.5 -30.5q1 -31 -5 -47t-17.5 -23t-27.5 -7.5t-34 -0.5q-66 -2 -148 -20t-163 -48.5t-152 -73t-113 -92.5q-59 -69 -75.5 -146t10 -146.5t96.5 -124
t186 -79.5q50 -11 100.5 -8.5t96.5 16.5t84 39t63 61q22 32 40 38t28 -6.5t10.5 -39t-10.5 -59t-35 -67t-64 -63.5t-97.5 -48.5t-135.5 -20.5q-119 -2 -210.5 30t-154 87.5t-95.5 130t-34.5 156.5t28.5 167t94 162t162.5 140.5t232.5 103.5q-60 24 -119.5 48.5t-113 40.5
t-98 21t-72.5 -10q-2 -26 -20.5 -44.5t-44.5 -19.5q-14 -2 -28 3.5t-25 14.5t-18 21.5t-7 25.5zM538 -98q18 0 34.5 -7t28.5 -19.5t19 -29.5t7 -36q0 -38 -26 -64.5t-63 -26.5t-62.5 26.5t-25.5 64.5q0 19 7 36t19 29.5t28 19.5t34 7z" />
    <glyph glyph-name="ha" unicode="&#x62d;" horiz-adv-x="1008" arabic-form="isolated" 
d="M60 399q2 56 31 90t71 50t91 16t91 -11q59 -14 124 -37t131 -49t131.5 -52t126.5 -47q15 -6 30 -10.5t28 -12t21.5 -19t9.5 -30.5q1 -31 -5 -47t-17.5 -23t-27.5 -7.5t-34 -0.5q-66 -2 -148 -20t-163 -48.5t-152 -73t-113 -92.5q-59 -69 -75.5 -146t10 -146.5t96.5 -124
t186 -79.5q50 -11 100.5 -8.5t96.5 16.5t84 39t63 61q22 32 40 38t28 -6.5t10.5 -39t-10.5 -59t-35 -67t-64 -63.5t-97.5 -48.5t-135.5 -20.5q-119 -2 -210.5 30t-154 87.5t-95.5 130t-34.5 156.5t28.5 167t94 162t162.5 140.5t232.5 103.5q-60 24 -119.5 48.5t-113 40.5
t-98 21t-72.5 -10q-2 -26 -20.5 -44.5t-44.5 -19.5q-14 -2 -28 3.5t-25 14.5t-18 21.5t-7 25.5z" />
    <glyph glyph-name="kha" unicode="&#x62e;" horiz-adv-x="1008" arabic-form="isolated" 
d="M60 399q2 56 31 90t71 50t91 16t91 -11q59 -14 124 -37t131 -49t131.5 -52t126.5 -47q15 -6 30 -10.5t28 -12t21.5 -19t9.5 -30.5q1 -31 -5 -47t-17.5 -23t-27.5 -7.5t-34 -0.5q-66 -2 -148 -20t-163 -48.5t-152 -73t-113 -92.5q-59 -69 -75.5 -146t10 -146.5t96.5 -124
t186 -79.5q50 -11 100.5 -8.5t96.5 16.5t84 39t63 61q22 32 40 38t28 -6.5t10.5 -39t-10.5 -59t-35 -67t-64 -63.5t-97.5 -48.5t-135.5 -20.5q-119 -2 -210.5 30t-154 87.5t-95.5 130t-34.5 156.5t28.5 167t94 162t162.5 140.5t232.5 103.5q-60 24 -119.5 48.5t-113 40.5
t-98 21t-72.5 -10q-2 -26 -20.5 -44.5t-44.5 -19.5q-14 -2 -28 3.5t-25 14.5t-18 21.5t-7 25.5zM276 823q18 0 34 -7t28 -19t19 -28.5t7 -35.5t-7 -35.5t-19 -29t-28 -19.5t-34 -7t-34 7t-28 19.5t-19 29t-7 35.5q0 38 25.5 64t62.5 26z" />
    <glyph glyph-name="dal" unicode="&#x62f;" horiz-adv-x="962" arabic-form="isolated" 
d="M60 129q0 29 20 50.5t49 21.5q47 0 110 1.5t130 9t132.5 23.5t116.5 46t82.5 76.5t30.5 113.5q0 41 -30 61t-77.5 26.5t-107 3.5t-119.5 -7.5t-114 -6.5t-90 6q-13 2 -31.5 13t-33.5 26t-21.5 33.5t4 36.5t44 34t97.5 27q86 15 174.5 15.5t168.5 -13.5t146.5 -42.5
t107 -71.5t50.5 -101.5t-22 -132.5q-29 -68 -80 -123.5t-113.5 -97.5t-133.5 -70.5t-140 -44.5t-132.5 -18.5t-112 8.5t-77 35t-28.5 62z" />
    <glyph glyph-name="thal" unicode="&#x630;" horiz-adv-x="962" arabic-form="isolated" 
d="M60 129q0 29 20 50.5t49 21.5q47 0 110 1.5t130 9t132.5 23.5t116.5 46t82.5 76.5t30.5 113.5q0 41 -30 61t-77.5 26.5t-107 3.5t-119.5 -7.5t-114 -6.5t-90 6q-13 2 -31.5 13t-33.5 26t-21.5 33.5t4 36.5t44 34t97.5 27q86 15 174.5 15.5t168.5 -13.5t146.5 -42.5
t107 -71.5t50.5 -101.5t-22 -132.5q-29 -68 -80 -123.5t-113.5 -97.5t-133.5 -70.5t-140 -44.5t-132.5 -18.5t-112 8.5t-77 35t-28.5 62zM299 1014q18 0 34.5 -7t28.5 -19.5t19 -29.5t7 -36q0 -38 -26 -64t-63 -26t-62.5 26t-25.5 64q0 19 7 36t19 29.5t28 19.5t34 7z" />
    <glyph glyph-name="ra" unicode="&#x631;" horiz-adv-x="691" arabic-form="isolated" 
d="M606 293q-20 -43 -49 -95t-63 -106.5t-71 -107.5t-73 -97.5t-68 -77.5t-57 -46q-25 -14 -57.5 -15.5t-64.5 5.5t-60 21.5t-43 34.5q58 23 107 60t90.5 81t77.5 93.5t67.5 98t61 93.5t57.5 80q18 22 41.5 41.5t47 32t42.5 16t29.5 -6t8 -35t-23.5 -70.5z" />
    <glyph glyph-name="zai" unicode="&#x632;" horiz-adv-x="706" arabic-form="isolated" 
d="M606 293q-20 -43 -49 -95t-63 -106.5t-71 -107.5t-73 -97.5t-68 -77.5t-57 -46q-25 -14 -57.5 -15.5t-64.5 5.5t-60 21.5t-43 34.5q58 23 107 60t90.5 81t77.5 93.5t67.5 98t61 93.5t57.5 80q18 22 41.5 41.5t47 32t42.5 16t29.5 -6t8 -35t-23.5 -70.5zM557 667
q18 0 34 -7t28 -19.5t19.5 -29t7.5 -35.5t-7.5 -35.5t-19.5 -29t-28 -19.5t-34 -7q-37 0 -62 26.5t-25 64.5q0 19 6.5 35.5t18.5 29t28 19.5t34 7z" />
    <glyph glyph-name="seen" unicode="&#x633;" horiz-adv-x="1579" arabic-form="isolated" 
d="M1177 156q-31 -58 -63 -87.5t-62.5 -38.5t-58 -1.5t-51 22.5t-40.5 34t-27 34q-29 -50 -67.5 -98t-90 -85.5t-118 -60t-150.5 -20.5q-65 1 -125 24t-110.5 67t-88.5 110t-57 152q-14 64 -4 109.5t33.5 74t54.5 40t60 8t51 -21t26.5 -47.5t-13 -72t-68.5 -94
q13 -60 37.5 -103t57.5 -70.5t72.5 -40t81.5 -11.5q62 1 112.5 18.5t91 46t72.5 64.5t57 75.5t44 79t34 73.5q29 5 52.5 -0.5t34.5 -29.5q1 -3 -7.5 -14.5t-17 -27t-13 -32.5t4.5 -30q30 -45 66.5 -47.5t70.5 25t60 79.5t35 117q40 17 55 18.5t17 -6.5q8 -28 6.5 -62.5
t3 -66.5t23.5 -56t69 -31q33 -5 49 6t21 31.5t3 48t-6 56.5t-5.5 55.5t4.5 46.5q4 11 15.5 13t27.5 -1t34.5 -8t35.5 -7q0 -31 4 -70.5t6.5 -81t-1 -80.5t-19 -69.5t-46 -49t-83.5 -17.5q-59 2 -110.5 31t-80.5 79z" />
    <glyph glyph-name="sheen" unicode="&#x634;" horiz-adv-x="1579" arabic-form="isolated" 
d="M1177 156q-31 -58 -63 -87.5t-62.5 -38.5t-58 -1.5t-51 22.5t-40.5 34t-27 34q-29 -50 -67.5 -98t-90 -85.5t-118 -60t-150.5 -20.5q-65 1 -125 24t-110.5 67t-88.5 110t-57 152q-14 64 -4 109.5t33.5 74t54.5 40t60 8t51 -21t26.5 -47.5t-13 -72t-68.5 -94
q13 -60 37.5 -103t57.5 -70.5t72.5 -40t81.5 -11.5q62 1 112.5 18.5t91 46t72.5 64.5t57 75.5t44 79t34 73.5q29 5 52.5 -0.5t34.5 -29.5q1 -3 -7.5 -14.5t-17 -27t-13 -32.5t4.5 -30q30 -45 66.5 -47.5t70.5 25t60 79.5t35 117q40 17 55 18.5t17 -6.5q8 -28 6.5 -62.5
t3 -66.5t23.5 -56t69 -31q33 -5 49 6t21 31.5t3 48t-6 56.5t-5.5 55.5t4.5 46.5q4 11 15.5 13t27.5 -1t34.5 -8t35.5 -7q0 -31 4 -70.5t6.5 -81t-1 -80.5t-19 -69.5t-46 -49t-83.5 -17.5q-59 2 -110.5 31t-80.5 79zM1065 745q18 0 34.5 -7t28.5 -19.5t19 -29.5t7 -36
q0 -38 -26 -64.5t-63 -26.5t-62 26.5t-25 64.5q0 19 6.5 36t18.5 29.5t28 19.5t34 7zM1254 691q37 0 63 -26.5t26 -65.5q0 -38 -26 -64.5t-63 -26.5q-18 0 -34 7t-28 19.5t-19 29t-7 35.5q0 39 26 65.5t62 26.5zM1207 903q37 0 63 -26.5t26 -64.5q0 -19 -7 -35.5t-19 -29
t-28.5 -19.5t-34.5 -7t-33.5 7t-27.5 19.5t-19 29t-7 35.5t7 35.5t19 29t27.5 19.5t33.5 7z" />
    <glyph glyph-name="sad" unicode="&#x635;" horiz-adv-x="1644" arabic-form="isolated" 
d="M68 208q-14 64 -4 109.5t33.5 74t54.5 40t60 8t51 -21t26.5 -47.5t-13 -72t-68.5 -94q18 -81 53.5 -129.5t80.5 -71.5t96.5 -23t102 15.5t96.5 43.5t79.5 63t52 72.5t14.5 71.5q-37 44 -46.5 79.5t-1.5 60t28 38t42.5 14.5t43 -11.5t28.5 -39.5q13 -43 21 -87t16.5 -79
t20.5 -56t33 -17q-8 71 2.5 146.5t36.5 144t66.5 126t92.5 93t113.5 44t129.5 -19.5q40 -17 74 -46.5t57.5 -68t35.5 -83t8 -90.5t-31.5 -92t-70.5 -88.5t-98.5 -79t-115 -64.5t-120 -45t-114.5 -19.5t-97.5 11.5t-68.5 48q-56 -99 -130 -156.5t-155 -78t-162.5 -4.5
t-152 64.5t-123.5 128.5t-77 188zM1081 168q131 26 210.5 64.5t119.5 81.5t45.5 86t-12.5 79t-53.5 61t-78 31.5t-86.5 -10t-78.5 -63t-54 -127t-12.5 -203.5z" />
    <glyph glyph-name="dad" unicode="&#x636;" horiz-adv-x="1644" arabic-form="isolated" 
d="M1130 975q18 0 34.5 -7.5t28.5 -20t19 -29t7 -35.5t-7 -36t-19 -29.5t-28.5 -19.5t-34.5 -7t-34 7t-28 19.5t-19 29.5t-7 36t7 35.5t19 29t28 20t34 7.5zM68 208q-14 64 -4 109.5t33.5 74t54.5 40t60 8t51 -21t26.5 -47.5t-13 -72t-68.5 -94q18 -81 53.5 -129.5
t80.5 -71.5t96.5 -23t102 15.5t96.5 43.5t79.5 63t52 72.5t14.5 71.5q-37 44 -46.5 79.5t-1.5 60t28 38t42.5 14.5t43 -11.5t28.5 -39.5q13 -43 21 -87t16.5 -79t20.5 -56t33 -17q-8 71 2.5 146.5t36.5 144t66.5 126t92.5 93t113.5 44t129.5 -19.5q40 -17 74 -46.5t57.5 -68
t35.5 -83t8 -90.5t-31.5 -92t-70.5 -88.5t-98.5 -79t-115 -64.5t-120 -45t-114.5 -19.5t-97.5 11.5t-68.5 48q-56 -99 -130 -156.5t-155 -78t-162.5 -4.5t-152 64.5t-123.5 128.5t-77 188zM1081 168q131 26 210.5 64.5t119.5 81.5t45.5 86t-12.5 79t-53.5 61t-78 31.5
t-86.5 -10t-78.5 -63t-54 -127t-12.5 -203.5z" />
    <glyph glyph-name="tta" unicode="&#x637;" horiz-adv-x="881" arabic-form="isolated" 
d="M129 144q20 0 37.5 0.5t37.5 4.5q-11 96 -1 183.5t43 157t89.5 116.5t138.5 61q-24 1 -38.5 11.5t-17.5 33.5q-11 133 -18.5 262.5t-10.5 257.5q0 11 0.5 25t5 26t13.5 20t26 7q9 0 20.5 4.5t22 7.5t18.5 0t9 -19q9 -152 25.5 -303.5t24.5 -296.5q57 0 107.5 -26.5
t87 -70t56 -98.5t15.5 -113q-5 -61 -42.5 -114t-95.5 -97t-130 -78t-146 -57.5t-144 -35.5t-123 -13q-33 0 -56 18t-23 53q0 30 20 51.5t49 21.5zM318 168q131 26 210.5 64.5t119.5 81.5t45.5 86t-12.5 79t-53.5 61t-78 31.5t-86.5 -10t-78.5 -63t-54 -127t-12.5 -203.5z
" />
    <glyph glyph-name="za" unicode="&#x638;" horiz-adv-x="881" arabic-form="isolated" 
d="M129 144q20 0 37.5 0.5t37.5 4.5q-11 96 -1 183.5t43 157t89.5 116.5t138.5 61q-24 1 -38.5 11.5t-17.5 33.5q-11 133 -18.5 262.5t-10.5 257.5q0 11 0.5 25t5 26t13.5 20t26 7q9 0 20.5 4.5t22 7.5t18.5 0t9 -19q9 -152 25.5 -303.5t24.5 -296.5q57 0 107.5 -26.5
t87 -70t56 -98.5t15.5 -113q-5 -61 -42.5 -114t-95.5 -97t-130 -78t-146 -57.5t-144 -35.5t-123 -13q-33 0 -56 18t-23 53q0 30 20 51.5t49 21.5zM318 168q131 26 210.5 64.5t119.5 81.5t45.5 86t-12.5 79t-53.5 61t-78 31.5t-86.5 -10t-78.5 -63t-54 -127t-12.5 -203.5z
M696 1016q37 0 62.5 -26.5t25.5 -64.5q0 -39 -25.5 -66t-62.5 -27t-62.5 27t-25.5 66q0 38 25.5 64.5t62.5 26.5z" />
    <glyph glyph-name="ain" unicode="&#x639;" horiz-adv-x="886" arabic-form="isolated" 
d="M582 -679q-106 5 -186.5 44.5t-134 101t-79 140t-21.5 163t38 169t100 157.5q-48 14 -91.5 37.5t-76 58t-52 81t-19.5 105.5q0 61 19.5 105.5t52.5 75t76 48.5t90 25t95 4t90.5 -14t76.5 -28.5t53 -39.5q6 -12 5.5 -34t-6 -41t-17 -28t-27.5 4q-36 29 -80.5 40t-90.5 9
t-89 -16t-75.5 -35.5t-50.5 -49t-12.5 -57t37 -59t98.5 -55.5q42 -16 81 -18t75.5 5t72.5 19.5t71.5 26.5t72.5 25.5t76 16.5q25 -53 22.5 -84.5t-24.5 -51t-60 -31t-83.5 -24.5t-94 -32t-92 -53t-77.5 -88t-51 -136q-13 -63 1.5 -115t47.5 -92t81 -67.5t103.5 -42.5
t114 -16.5t112 10t98.5 37.5t73 66q24 34 42 39.5t27.5 -8.5t8 -42.5t-16.5 -63t-45 -70.5t-79 -64.5t-118 -45t-162 -11.5z" />
    <glyph glyph-name="ghain" unicode="&#x63a;" horiz-adv-x="886" arabic-form="isolated" 
d="M582 -679q-106 5 -186.5 44.5t-134 101t-79 140t-21.5 163t38 169t100 157.5q-48 14 -91.5 37.5t-76 58t-52 81t-19.5 105.5q0 61 19.5 105.5t52.5 75t76 48.5t90 25t95 4t90.5 -14t76.5 -28.5t53 -39.5q6 -12 5.5 -34t-6 -41t-17 -28t-27.5 4q-36 29 -80.5 40t-90.5 9
t-89 -16t-75.5 -35.5t-50.5 -49t-12.5 -57t37 -59t98.5 -55.5q42 -16 81 -18t75.5 5t72.5 19.5t71.5 26.5t72.5 25.5t76 16.5q25 -53 22.5 -84.5t-24.5 -51t-60 -31t-83.5 -24.5t-94 -32t-92 -53t-77.5 -88t-51 -136q-13 -63 1.5 -115t47.5 -92t81 -67.5t103.5 -42.5
t114 -16.5t112 10t98.5 37.5t73 66q24 34 42 39.5t27.5 -8.5t8 -42.5t-16.5 -63t-45 -70.5t-79 -64.5t-118 -45t-162 -11.5zM297 910q18 0 33.5 -7.5t27 -20t18.5 -29t7 -35.5t-7 -35.5t-18.5 -29t-27 -19.5t-33.5 -7q-19 0 -35 7t-28 19.5t-19 29t-7 35.5q0 38 25.5 65
t63.5 27z" />
    <glyph glyph-name="fa" unicode="&#x641;" horiz-adv-x="1298" arabic-form="isolated" 
d="M926 38q-52 -22 -127 -31.5t-159.5 -6t-172.5 20t-165.5 45t-138 69t-90.5 93.5q-12 22 -12 42.5t10 35t29 22.5t45 6q30 -2 78 -24t108.5 -51t131 -58.5t145.5 -46.5t152.5 -15t151.5 36q-112 30 -175 83t-85.5 115.5t-8 127t58.5 117.5t113.5 88t156.5 37
q59 2 106.5 -22.5t82 -67.5t54.5 -99t22 -117.5t-14 -123.5t-53.5 -116t-98 -96t-145.5 -63zM988 611q-80 -6 -129 -36t-69.5 -70t-12 -83t43 -75t95.5 -46t146 4q21 21 30.5 52t10 66t-8 69.5t-23.5 61.5t-36.5 43t-46.5 14zM880 1017q18 0 34 -7.5t28 -20t19 -29t7 -35.5
t-7 -35.5t-19 -28.5t-28 -19t-34 -7t-34 7t-27.5 19t-18.5 28.5t-7 35.5t7 35.5t18.5 29t27.5 20t34 7.5z" />
    <glyph glyph-name="qaf" unicode="&#x642;" horiz-adv-x="1231" arabic-form="isolated" 
d="M61 71q-2 14 13 24t34.5 14t37.5 2t22 -11q24 -55 69.5 -102.5t105.5 -83.5t130.5 -58.5t145.5 -26.5q43 -3 90 2.5t92.5 19t87 36t74 53.5t53 71t23.5 90q-16 -29 -41.5 -49.5t-56.5 -33t-66 -17t-69 -1.5q-64 6 -115.5 34t-89 70.5t-60 94.5t-27 105t10 104t50 90.5
t93.5 63.5t140 25q78 0 142.5 -36t111.5 -95t75 -135t33 -156q6 -99 -19 -175.5t-73.5 -132.5t-116 -92.5t-144.5 -54t-160.5 -18t-164 16t-154.5 48t-132 77.5t-96.5 105.5t-48.5 131.5zM811 458q-56 -1 -92 -23.5t-53.5 -56t-16.5 -73t19 -74t53 -59t86 -28.5
q60 -4 96.5 18t52.5 57t13 77t-22.5 78t-54 60t-81.5 24zM576 920q19 0 35 -7.5t28 -20t18.5 -29.5t6.5 -36q0 -38 -25 -64.5t-63 -26.5q-37 0 -62.5 26.5t-25.5 64.5q0 19 7 36t19 29.5t28 20t34 7.5zM765 866q18 0 34 -7t28 -19.5t19 -29t7 -35.5q0 -39 -26 -66t-62 -27
t-62 27t-26 66q0 19 7 35.5t19 29t28 19.5t34 7z" />
    <glyph glyph-name="kaf" unicode="&#x643;" horiz-adv-x="1059" arabic-form="isolated" 
d="M68 208q-14 64 -4 109.5t33.5 74t54.5 40t60 8t51 -21t26.5 -47.5t-13 -72t-68.5 -94q24 -105 80.5 -159.5t128.5 -64t149.5 22.5t143.5 98.5t111 165.5t51 223q3 58 -2.5 119t-13.5 122.5t-15.5 124t-8.5 124.5q-2 35 15 57t38.5 26t41 -12t23.5 -58q42 -202 47.5 -367
t-17.5 -294t-69.5 -224t-108.5 -158t-134.5 -95.5t-147 -35.5t-146.5 21t-133 73.5t-106.5 123.5t-66.5 170zM682 576q-11 4 -36 8.5t-51 5t-48 -6.5t-28 -27t1.5 -30t22.5 -15t36 -6.5t41.5 -2.5t39 -4.5t29.5 -12.5q27 -23 23 -55t-30 -61q-21 -26 -54.5 -45t-73.5 -23.5
t-83 9t-83 54.5q-7 7 -9.5 18t-1 21.5t8 18t17.5 7.5q13 -13 32 -22.5t40 -15t41 -7t36 2.5q41 8 41 18q2 8 -8 11.5t-26.5 6.5t-37.5 7t-40.5 13t-35.5 24.5t-22 41.5q-5 21 -2.5 44.5t12.5 45t27.5 40t41.5 30.5q29 14 62.5 20.5t66.5 5.5t64 -9.5t54 -23.5q8 -6 6 -22.5
t-11.5 -32.5t-25.5 -26.5t-36 -4.5z" />
    <glyph glyph-name="lam" unicode="&#x644;" horiz-adv-x="1059" arabic-form="isolated" 
d="M68 208q-14 64 -4 109.5t33.5 74t54.5 40t60 8t51 -21t26.5 -47.5t-13 -72t-68.5 -94q24 -105 80.5 -159.5t128.5 -64t149.5 22.5t143.5 98.5t111 165.5t51 223q3 58 -2.5 119t-13.5 122.5t-15.5 124t-8.5 124.5q-2 35 15 57t38.5 26t41 -12t23.5 -58q42 -202 47.5 -367
t-17.5 -294t-69.5 -224t-108.5 -158t-134.5 -95.5t-147 -35.5t-146.5 21t-133 73.5t-106.5 123.5t-66.5 170z" />
    <glyph glyph-name="meem" unicode="&#x645;" horiz-adv-x="757" arabic-form="isolated" 
d="M128 144q17 0 47 7t55.5 20t39 31.5t-2.5 41.5q-34 36 -45 77.5t-3 82.5t32 79.5t59.5 68.5t80 48.5t93.5 20.5q63 1 106.5 -28t68.5 -75t33 -102t0 -108t-31 -93.5t-59 -58.5q-38 -17 -90 -15t-105 19q-12 -42 -41.5 -72t-68.5 -49.5t-83 -29t-86 -9.5q-29 0 -48.5 21.5
t-19.5 49.5q0 30 19.5 51.5t48.5 21.5zM461 510q-52 -12 -81.5 -37t-39 -55t0 -60.5t36.5 -53t70 -33.5t101 -1q12 15 18 40.5t5.5 54.5t-8 57.5t-21 50t-34 33t-47.5 4.5z" />
    <glyph glyph-name="noon" unicode="&#x646;" horiz-adv-x="1057" arabic-form="isolated" 
d="M81 173q-17 47 -20 88.5t4 71t21 44.5t31 9.5t34.5 -34t31.5 -85.5q17 -73 63 -128t108 -90t133 -48.5t139 -1.5t126 50t93 105q34 63 60.5 96t45 42t30 -2t14.5 -35t-1.5 -58t-17.5 -71q-25 -70 -71.5 -119t-107 -79t-130.5 -41.5t-142 -6t-141.5 27.5t-129 59.5
t-105 89t-68.5 116.5zM542 480q18 0 33.5 -7t27 -19.5t18.5 -29.5t7 -36q0 -18 -7 -34.5t-18.5 -29t-27 -19.5t-33.5 -7q-38 0 -63.5 26.5t-25.5 63.5q0 39 25.5 65.5t63.5 26.5z" />
    <glyph glyph-name="haa" unicode="&#x647;" horiz-adv-x="596" arabic-form="isolated" 
d="M185 509q-13 5 -30.5 9.5t-33.5 10.5t-27.5 13.5t-12.5 19.5q-1 8 3 26.5t12 37t18.5 32t23.5 11.5q72 -14 140.5 -39t120.5 -51q50 -25 80.5 -63.5t43.5 -84t11 -95t-17 -97t-40.5 -90.5t-58.5 -75t-72.5 -50.5t-81.5 -17.5q-44 1 -83 25t-67.5 63.5t-43 90.5
t-8.5 106.5t35 111.5t88 106zM263 156q59 2 91 33t40.5 71.5t-5 79t-45.5 55.5q-43 22 -75.5 12.5t-53.5 -36t-29.5 -64.5t-3 -71.5t25 -57t55.5 -22.5z" />
    <glyph glyph-name="waw" unicode="&#x648;" horiz-adv-x="727" arabic-form="isolated" 
d="M84 -121q67 34 133 69.5t122 85.5q-109 -3 -174.5 33.5t-94.5 95t-23.5 132t39.5 144.5t94 132.5t140 96.5q93 43 162 34t112 -55.5t60.5 -122t8.5 -164.5t-44.5 -183.5t-98.5 -178.5q-72 -96 -148.5 -150.5t-145.5 -78t-122 -21t-78 21t-13.5 48.5t71.5 61zM239 432
q-27 -35 -42 -72.5t-15 -72.5t15.5 -64t49 -46.5t86 -20t126.5 14.5q46 65 63.5 130.5t12.5 119.5t-30 90.5t-65 43.5t-91.5 -21t-109.5 -102z" />
    <glyph glyph-name="ya" unicode="&#x64a;" horiz-adv-x="1155" arabic-form="isolated" 
d="M593 106q53 -12 104.5 -29t92.5 -44.5t66.5 -69.5t26.5 -104q1 -52 -14 -92.5t-42.5 -70t-66 -48.5t-83.5 -26q-53 -10 -113.5 -4.5t-121 26t-119.5 55.5t-108.5 85t-88 114t-58.5 143q-5 18 -7.5 39t0.5 40t13.5 34.5t30.5 23.5q14 5 30 3.5t30 -9t24 -19.5t12 -28
q8 -91 48.5 -158t96.5 -112t120.5 -67.5t122.5 -23.5t101 19.5t57 61.5q9 27 -2 43t-35.5 26t-59.5 18t-74.5 18t-80.5 26t-77 42.5t-64.5 67t-43.5 99.5q-21 86 1 162t74.5 137t128 104.5t160 65.5t172.5 20.5t164 -30.5q33 -10 52 -27.5t27 -38t5 -40.5t-14 -35
q-35 -45 -63 -57t-55 -4q-131 34 -225.5 39.5t-158 -8.5t-99 -44.5t-48 -68t-4.5 -78.5t31 -77t58 -63t77 -36zM407 -495q18 0 34 -7t28 -19.5t19 -29.5t7 -36t-7 -35.5t-19 -28.5t-28 -19t-34 -7t-34 7t-28 19t-19 28.5t-7 35.5t7 36t19 29.5t28 19.5t34 7zM597 -549
q18 0 33.5 -7t27 -19.5t18.5 -29.5t7 -36t-7 -35.5t-18.5 -28.5t-27 -19t-33.5 -7q-37 0 -63 26t-26 64q0 39 26 65.5t63 26.5z" />
    <glyph glyph-name="fathatanA" unicode="&#xfe70;" arabic-form="isolated" 
d="M222 172q-38 -37 -80 -66t-87.5 -47t-95.5 -23t-103 6q-21 5 -28.5 20.5t-3.5 31t17.5 25.5t34.5 5q41 -8 79.5 -2.5t74.5 20.5t68.5 38t61.5 50q15 15 32 13.5t28 -12.5t13.5 -27.5t-11.5 -31.5zM163 307q-38 -37 -80 -65.5t-88 -46t-95.5 -22t-102.5 6.5
q-21 4 -28.5 19.5t-3.5 30.5t18 25.5t35 6.5q41 -9 79.5 -4t74 20t68.5 38.5t63 51.5q15 15 31 13t27.5 -13t13.5 -28.5t-12 -32.5z" />
    <glyph glyph-name="kasratanB" unicode="&#xfe74;" arabic-form="isolated" 
d="M-222 -158q38 37 80 65.5t88 46t96 22t104 -6.5q20 -5 27 -20t3 -30.5t-17.5 -26t-34.5 -6.5q-41 9 -79.5 4t-74.5 -20t-68.5 -38.5t-61.5 -52.5q-15 -14 -32 -11.5t-28 14t-13.5 28.5t11.5 32zM-163 -296q38 36 80 65t88 47t95.5 23t102.5 -6q21 -5 28.5 -20.5
t3.5 -31.5t-18 -26t-35 -5q-41 8 -79.5 3t-74 -20t-68 -38t-61.5 -50q-15 -16 -32 -14.5t-28.5 13t-13.5 28.5t12 32z" />
    <glyph glyph-name="fathaA" unicode="&#xfe76;" arabic-form="isolated" 
d="M192 172q-39 -37 -81 -66t-87.5 -47t-96 -23t-105.5 6q-20 5 -26 20.5t-2 31t17 25.5t33 5q40 -8 79 -2.5t75.5 20.5t69.5 38t62 50q14 15 31 13.5t28.5 -12.5t14 -27.5t-11.5 -31.5z" />
    <glyph glyph-name="dammaA" unicode="&#xfe78;" arabic-form="isolated" 
d="M-12 118q-23 14 -38 36.5t-15 56.5q-1 38 17.5 69t46.5 47t59.5 11.5t56.5 -37.5q28 -37 33.5 -69.5t-5.5 -60t-35.5 -50t-56.5 -39t-67.5 -28t-68.5 -16.5q-30 -5 -49.5 -4.5t-31.5 3.5t-18.5 8.5t-9.5 10.5q-14 22 -2 31.5t40 13t66.5 6t77.5 11.5zM65 182
q19 18 17.5 36.5t-14.5 29.5t-31.5 10t-34.5 -22q-7 -16 -3.5 -31.5t14 -25.5t24.5 -10.5t28 13.5z" />
    <glyph glyph-name="kasraB" unicode="&#xfe7a;" arabic-form="isolated" 
d="M-193 -158q38 37 80 65.5t88 46t96 22t104 -6.5q20 -5 27 -20t3 -30.5t-18 -26t-35 -6.5q-41 9 -79.5 4t-74 -20t-68 -38.5t-61.5 -52.5q-15 -14 -32 -11.5t-28.5 14t-13.5 28.5t12 32z" />
    <glyph glyph-name="shaddaA" unicode="&#xfe7c;" arabic-form="isolated" 
d="M85 304q37 -30 53.5 -62.5t17.5 -63t-11 -55.5t-32.5 -38.5t-47 -12.5t-53.5 23q-21 -40 -61 -55t-80.5 -4t-71 49.5t-32.5 106.5q0 18 12 30.5t26.5 14.5t26.5 -8t12 -37q0 -10 4.5 -23.5t12.5 -25t20.5 -18.5t27.5 -4q14 3 17.5 13t1.5 22.5t-7.5 26.5t-8.5 26
q-11 32 -3 51t24 21q20 4 30.5 -6t16.5 -26.5t10 -36t11 -34.5t19.5 -21.5t35.5 3.5q9 4 15.5 11t6.5 16.5t-9.5 22t-32.5 29.5q-17 11 -20.5 25.5t7.5 30.5t29.5 18t32.5 -9z" />
    <glyph glyph-name="sukunA" unicode="&#xfe7e;" arabic-form="isolated" 
d="M-44 253q32 16 59 10.5t46 -24.5t29 -47t8.5 -57t-15 -54.5t-42.5 -38.5q-33 -14 -59.5 -7.5t-45 25t-28 46t-8 55.5t15 53t40.5 39zM43 150q3 21 -10.5 33t-31 13t-33 -9.5t-16.5 -34.5q-1 -20 12.5 -33t30 -15.5t31.5 8.5t17 38z" />
    <glyph glyph-name="alefmadF" unicode="&#x622;" horiz-adv-x="432" arabic-form="final" 
d="M320 991q-44 2 -88.5 10.5t-87.5 14t-84 3t-78 -22.5q-11 -6 -25 0t-25.5 20t-16.5 33.5t1 40.5q11 39 37 54.5t62 17t80.5 -6t91.5 -15t95 -10.5t92 9q8 1 13 -10t5 -27.5t-4 -36.5t-12.5 -36.5t-22.5 -27.5t-33 -10zM102 776q0 60 17 88t38 27t39 -28.5t20 -78.5
q4 -81 10 -142.5t13.5 -118.5t17.5 -118t21 -142q4 -27 12 -49t24.5 -37.5t45 -24t72.5 -8.5q29 0 49.5 -21t20.5 -51q0 -29 -20 -50.5t-50 -21.5q-91 0 -153 29.5t-93 79.5q-15 24 -27 73t-21 111.5t-15.5 133t-11 136.5t-7 122t-2.5 91z" />
    <glyph glyph-name="alefhamzaAF" unicode="&#x623;" horiz-adv-x="449" arabic-form="final" 
d="M290 1244q-12 4 -36.5 9t-51 5.5t-48.5 -6.5t-28 -27t1.5 -30.5t22.5 -15.5t36 -6t42 -2.5t40 -5t30 -12.5q27 -23 23 -55t-29 -62q-22 -26 -56 -45t-74.5 -23.5t-83.5 9.5t-83 55q-7 7 -9.5 18.5t-0.5 22t8 18t17 7.5q13 -13 32.5 -23t40.5 -16t41 -7t36 3
q23 5 32.5 9.5t10.5 8.5q1 8 -9 11.5t-27 6.5t-38 7t-41 13t-35.5 24.5t-21.5 41.5q-5 22 -2.5 45.5t12 45.5t27 40.5t41.5 30.5q29 14 62.5 20t67.5 5t65 -9.5t54 -23.5q8 -6 6 -22.5t-12 -33t-26 -27t-36 -4.5zM119 776q0 60 17 88t38 27t39 -28.5t20 -78.5
q3 -81 9 -142.5t14 -118.5t18 -118t21 -142q4 -27 12 -49t24.5 -37.5t45 -24t72.5 -8.5q29 0 49 -21t20 -51q0 -29 -20 -50.5t-49 -21.5q-91 0 -153 29.5t-93 79.5q-15 24 -27 73t-21 111.5t-15.5 133t-11 136.5t-7 122t-2.5 91z" />
    <glyph glyph-name="wawhamzaF" unicode="&#x624;" horiz-adv-x="760" arabic-form="final" 
d="M84 -122q68 35 134 70.5t122 85.5q-109 -3 -175 33.5t-95 95.5t-23.5 132.5t40 145t94.5 133.5t141 97q81 38 143.5 35.5t106 -35t68 -89.5t29 -128.5t-11 -152.5t-51.5 -161q44 -1 84.5 1.5t69.5 2.5t49 -21t20 -51q0 -29 -20 -50.5t-49 -21.5h-36.5h-56t-67.5 1t-72 3
q-72 -98 -149.5 -153.5t-147 -80t-124.5 -22.5t-80.5 20.5t-14.5 48.5t72 61zM241 434q-41 -53 -55.5 -107t7 -96t83.5 -63.5t173 -9.5q46 66 64.5 132.5t14.5 122t-27.5 94t-62 47.5t-89 -18t-108.5 -102zM558 1087q-12 4 -37 9t-51 5.5t-48 -6.5t-28 -27t1.5 -30.5
t22.5 -15.5t36 -6t42 -2.5t39.5 -5t29.5 -12.5q27 -23 23 -55t-30 -63q-22 -26 -56 -44.5t-74 -23t-83 9.5t-83 55q-7 7 -9.5 18.5t-0.5 22t8 18t17 6.5q13 -13 32.5 -23t40.5 -15.5t41 -7t36 1.5q23 6 32 10.5t10 9.5q2 8 -8.5 11.5t-27 6.5t-37.5 6.5t-40.5 12.5t-35 24.5
t-22.5 42.5q-5 22 -2.5 45.5t12.5 45.5t27.5 40.5t41.5 30.5q29 14 62.5 20t67 5t64.5 -9.5t54 -23.5q8 -6 6 -22.5t-11.5 -33t-25.5 -27t-36 -4.5z" />
    <glyph glyph-name="alefhamzaBF" unicode="&#x625;" horiz-adv-x="373" arabic-form="final" 
d="M311 -283q-12 3 -37 7.5t-51.5 5t-48.5 -6.5t-28 -27t1 -30t22.5 -15t36.5 -6.5l42 -3t40 -5t30 -12.5q27 -21 22.5 -53.5t-29.5 -62.5q-22 -26 -56 -45t-74 -23.5t-83 9.5t-82 55q-8 7 -10.5 18.5t-0.5 22t8 17.5t16 7q14 -13 33.5 -23t40.5 -15.5t41 -7t36 2.5
q22 5 31.5 9.5t10.5 9.5q2 8 -8.5 12t-27.5 6.5t-38 6.5t-40.5 13t-35.5 24.5t-22 42.5q-5 21 -2 44.5t13 45t27.5 40t41.5 30.5q28 14 62 20.5t67.5 5.5t64.5 -9.5t54 -24.5q8 -5 6 -21.5t-11.5 -32.5t-25.5 -26.5t-36 -4.5zM43 943q0 60 16.5 87.5t37.5 26.5t39.5 -29
t20.5 -79q4 -81 10 -168t14 -175.5t18 -175t21 -167.5q3 -27 11 -49t25 -37.5t45 -24t72 -8.5q29 0 49.5 -21t20.5 -51q0 -29 -20 -50.5t-50 -21.5q-91 0 -153 29.5t-93 79.5q-11 18 -20.5 57.5t-17.5 93.5t-14.5 118.5t-11.5 131.5t-8.5 133.5t-6 124.5t-4 103.5t-1.5 71.5
z" />
    <glyph glyph-name="yahamzaAF" unicode="&#x626;" horiz-adv-x="1064" arabic-form="final" 
d="M953 -8q-3 -4 -3.5 -9t3.5 -13q17 -75 6 -132t-42.5 -97.5t-80 -66t-107.5 -37t-124.5 -9.5t-131.5 16q-113 24 -194 70t-131.5 105t-71.5 127.5t-14 137.5t41 134.5t93 118t142 89t189 47.5q34 4 71 4.5t75 -2.5q8 -1 9.5 -10t-1.5 -22.5t-9.5 -29t-15 -29t-17 -22.5
t-15.5 -9q-105 -3 -190.5 -37t-142.5 -85t-80.5 -113.5t-6 -122.5t80.5 -111.5t181 -80.5q23 -6 58.5 -10.5t76 -5.5t81 4.5t73 18.5t53 36.5t21.5 59.5q1 26 -18.5 46t-50 35.5t-68 26t-72.5 18t-63.5 12t-40.5 6.5q-43 9 -67.5 23.5t-35.5 31.5t-10.5 33.5t8.5 29.5
t21.5 20t28.5 4q79 -16 133.5 -26t97 -15t78 -7t76 -2t92.5 1t126 1q31 0 49 -20t20 -45t-11.5 -48.5t-43.5 -29.5q-9 -2 -28.5 -2.5t-40 -1.5t-37 -2t-19.5 -3zM630 864q-12 4 -37 8.5t-51.5 4.5t-49 -7t-28.5 -26q-9 -29 10.5 -39t50.5 -12.5t63 -4.5t49 -16
q27 -22 23 -54.5t-30 -62.5q-22 -26 -56 -45t-74 -23.5t-83 10t-83 55.5q-8 7 -10.5 18t-0.5 21.5t8 18t17 6.5q14 -13 33 -22.5t40 -15t41 -7t36 1.5q23 5 32.5 9.5t10.5 9.5q1 8 -9 12t-27 7t-38 6.5t-40.5 12.5t-35 24.5t-21.5 42.5q-5 21 -2.5 44.5t12.5 45t27.5 40.5
t41.5 31q28 14 61.5 20.5t67.5 5t65 -10t54 -24.5q8 -5 6 -21t-11.5 -32.5t-25.5 -27t-36 -4.5z" />
    <glyph glyph-name="yahamzaAI" unicode="&#x626;" horiz-adv-x="354" arabic-form="initial" 
d="M0 144q11 0 29.5 3.5t37.5 10t37 15.5t29.5 20.5t13.5 25t-11 29.5q-37 45 -46.5 80.5t-2 60t28 38t43.5 14t44 -12t29 -39.5q7 -26 17 -45.5t18.5 -39t14 -42t5.5 -53.5q-1 -54 -28.5 -93.5t-69.5 -65t-92 -38t-97 -12.5q-30 0 -50 21.5t-20 50.5q0 30 20.5 51t49.5 21z
M234 833q-11 3 -36 8t-51.5 5t-48.5 -7t-28 -27t1.5 -30t22.5 -15t36 -6l42 -2t39.5 -4.5t29.5 -12.5q27 -23 23.5 -55.5t-29.5 -62.5q-22 -26 -56 -45t-74 -23.5t-83 9.5t-83 55q-7 7 -9.5 19t-0.5 22.5t8 17.5t16 6q14 -13 33 -23t40 -15.5t41 -7t36 2.5q23 5 32.5 9.5
t10.5 9.5q1 8 -9 12t-27 7t-38 6.5t-40.5 12.5t-35 24.5t-21.5 42.5q-6 21 -3.5 44.5t12.5 45t27.5 40t41.5 30.5q29 15 62.5 21.5t67.5 5t64.5 -10t53.5 -23.5q8 -5 6.5 -21.5t-11.5 -33t-26 -27t-36 -4.5z" />
    <glyph glyph-name="yahamzaAM" unicode="&#x626;" horiz-adv-x="584" arabic-form="medial" 
d="M584 0q-39 0 -82 14t-84 37t-76 52t-59 59q-13 -42 -44 -72.5t-70.5 -50.5t-84 -29.5t-84.5 -9.5q-29 0 -48.5 21t-19.5 51t19.5 51t48.5 21q61 -1 94.5 15t47 43t11 62.5t-12.5 73.5t-23.5 76t-22.5 70q-10 35 -6.5 57t14.5 33t28 12t34.5 -6.5t33 -22.5t23.5 -36
q16 -40 35.5 -83.5t42.5 -85.5t51 -80t63 -66.5t77.5 -45t93.5 -16.5q29 0 49.5 -21t20.5 -51q0 -29 -20.5 -50.5t-49.5 -21.5zM229 980q-12 4 -36.5 9t-51 5.5t-48.5 -6.5t-28 -27t1.5 -30.5t22.5 -15.5t36 -6t42 -2.5t39.5 -5t29.5 -12.5q27 -22 23.5 -54.5t-29.5 -61.5
q-22 -26 -56 -45.5t-74 -24t-83 10t-83 55.5q-7 7 -9.5 18t-0.5 21.5t8 18t16 7.5q13 -13 32.5 -23t40.5 -16t41 -7t36 3q23 5 32.5 9.5t11.5 9.5q1 8 -9 11.5t-27 6t-38 6.5t-41 13t-35.5 25t-21.5 42q-5 21 -2.5 44.5t12.5 45.5t27 40.5t41 30.5q29 14 62.5 20.5t67.5 5.5
t64.5 -9.5t53.5 -24.5q8 -6 6.5 -22.5t-11.5 -33t-26 -27t-36 -4.5z" />
    <glyph glyph-name="alefF" unicode="&#x627;" horiz-adv-x="391" arabic-form="final" 
d="M61 943q0 60 16.5 87.5t37.5 26.5t39.5 -29t20.5 -79q4 -81 10 -168t14 -175.5t18 -175t21 -167.5q3 -27 11 -49t25 -37.5t45 -24t72 -8.5q29 0 49.5 -21t20.5 -51q0 -29 -20 -50.5t-50 -21.5q-91 0 -153 29.5t-93 79.5q-11 18 -20.5 57.5t-17.5 93.5t-14.5 118.5
t-11.5 131.5t-8.5 133.5t-6 124.5t-4 103.5t-1.5 71.5z" />
    <glyph glyph-name="baF" unicode="&#x628;" horiz-adv-x="1205" arabic-form="final" 
d="M82 174q-17 47 -20 88.5t4 71t21 44.5t31.5 9.5t35 -34t31.5 -85.5q18 -73 64 -128.5t108 -91t133.5 -48.5t139.5 -1.5t126 50t94 105.5q35 66 62 99t46.5 41t30 -5.5t12.5 -40.5q12 -20 28.5 -39t41 -33.5t57.5 -23t77 -8.5q29 0 49 -21t20 -51q0 -29 -20 -50.5
t-49 -21.5q-28 0 -58.5 7.5t-61.5 21t-60.5 31t-54.5 38.5q-29 -64 -78 -108.5t-109.5 -71t-130 -35.5t-139.5 -2t-137.5 30t-125 60.5t-101.5 88.5t-67 114zM526 -223q18 0 34 -7t27.5 -19.5t18.5 -29t7 -35.5q0 -39 -25.5 -66t-61.5 -27q-38 0 -63.5 27t-25.5 66
q0 38 25.5 64.5t63.5 26.5z" />
    <glyph glyph-name="baI" unicode="&#x628;" horiz-adv-x="328" arabic-form="initial" 
d="M0 144q11 0 29.5 3.5t37.5 10t37 15.5t29.5 20.5t13.5 25t-11 29.5q-37 45 -46.5 80.5t-2 60t28 38t43.5 14t44 -12t29 -39.5q7 -26 17 -45.5t18.5 -39t14 -42t5.5 -53.5q-1 -54 -28.5 -93.5t-69.5 -65t-92 -38t-97 -12.5q-30 0 -50 21.5t-20 50.5q0 30 20.5 51t49.5 21z
M169 -133q37 0 63 -26.5t26 -64.5q0 -39 -26 -66t-63 -27q-36 0 -61.5 27t-25.5 66q0 19 7 35.5t18.5 29t27.5 19.5t34 7z" />
    <glyph glyph-name="baM" unicode="&#x628;" horiz-adv-x="584" arabic-form="medial" 
d="M584 0q-39 0 -82 14t-84 37t-76 52t-59 59q-13 -42 -44 -72.5t-70.5 -50.5t-84 -29.5t-84.5 -9.5q-29 0 -48.5 21t-19.5 51t19.5 51t48.5 21q61 -1 94.5 15t47 43t11 62.5t-12.5 73.5t-23.5 76t-22.5 70q-10 35 -6.5 57t14.5 33t28 12t34.5 -6.5t33 -22.5t23.5 -36
q16 -40 35.5 -83.5t42.5 -85.5t51 -80t63 -66.5t77.5 -45t93.5 -16.5q29 0 49.5 -21t20.5 -51q0 -29 -20.5 -50.5t-49.5 -21.5zM355 -133q37 0 63 -26.5t26 -64.5q0 -39 -26 -66t-63 -27q-36 0 -61.5 27t-25.5 66q0 19 7 35.5t18.5 29t27.5 19.5t34 7z" />
    <glyph glyph-name="tamarF" unicode="&#x629;" horiz-adv-x="860" arabic-form="final" 
d="M860 0q-47 0 -89 7.5t-76 25.5t-57.5 48.5t-33.5 75.5q-21 -66 -70 -104t-110 -50t-126.5 1.5t-119 50t-87 96t-30.5 138.5q3 73 32 133.5t75 103.5t104 66.5t118 23.5q73 0 124 -13.5t85 -36t53.5 -53t29.5 -64.5t12.5 -70t3.5 -70t3 -64t9 -52q8 -23 25 -33.5t38.5 -14
t44.5 -2.5t42 1q34 0 51.5 -22.5t17.5 -49.5t-17.5 -49.5t-51.5 -22.5zM581 320q-2 69 -33 108.5t-75.5 53t-96 4t-96 -37t-73.5 -71t-29 -97.5q0 -30 20 -58t50.5 -49t66.5 -32t68 -6t54.5 29t26.5 72q2 25 15 42t30.5 27t37 13t34.5 2zM292 929q37 0 62 -26.5t25 -64.5
q0 -39 -25 -66t-62 -27q-38 0 -63.5 27t-25.5 66q0 38 25.5 64.5t63.5 26.5zM481 875q37 0 63 -27t26 -66q0 -38 -26 -64.5t-63 -26.5q-18 0 -34 7t-27.5 19.5t-18.5 29t-7 35.5q0 39 25.5 66t61.5 27z" />
    <glyph glyph-name="taF" unicode="&#x62a;" horiz-adv-x="1205" arabic-form="final" 
d="M82 174q-17 47 -20 88.5t4 71t21 44.5t31.5 9.5t35 -34t31.5 -85.5q18 -73 64 -128.5t108 -91t133.5 -48.5t139.5 -1.5t126 50t94 105.5q35 66 62 99t46.5 41t30 -5.5t12.5 -40.5q12 -20 28.5 -39t41 -33.5t57.5 -23t77 -8.5q29 0 49 -21t20 -51q0 -29 -20 -50.5
t-49 -21.5q-28 0 -58.5 7.5t-61.5 21t-60.5 31t-54.5 38.5q-29 -64 -78 -108.5t-109.5 -71t-130 -35.5t-139.5 -2t-137.5 30t-125 60.5t-101.5 88.5t-67 114zM443 482q36 0 61.5 -26.5t25.5 -65.5q0 -19 -7 -35.5t-18.5 -29t-27.5 -19.5t-34 -7q-37 0 -63 26.5t-26 64.5
q0 39 26 65.5t63 26.5zM632 428q38 0 63.5 -26.5t25.5 -65.5q0 -38 -25.5 -64.5t-63.5 -26.5q-37 0 -62 26.5t-25 64.5q0 39 25 65.5t62 26.5z" />
    <glyph glyph-name="taI" unicode="&#x62a;" horiz-adv-x="331" arabic-form="initial" 
d="M0 144q11 0 29.5 3.5t37.5 10t37 15.5t29.5 20.5t13.5 25t-11 29.5q-37 45 -46.5 80.5t-2 60t28 38t43.5 14t44 -12t29 -39.5q7 -26 17 -45.5t18.5 -39t14 -42t5.5 -53.5q-1 -54 -28.5 -93.5t-69.5 -65t-92 -38t-97 -12.5q-30 0 -50 21.5t-20 50.5q0 30 20.5 51t49.5 21z
M53 740q37 0 63 -26.5t26 -65.5q0 -38 -26 -64.5t-63 -26.5q-18 0 -34 7t-28 19.5t-19 29t-7 35.5q0 39 26 65.5t62 26.5zM244 686q18 0 34 -7t27.5 -19.5t18.5 -29t7 -35.5t-7 -36t-18.5 -29.5t-27.5 -19.5t-34 -7q-19 0 -35 7t-28 19.5t-19 29.5t-7 36t7 35.5t19 29
t28 19.5t35 7z" />
    <glyph glyph-name="taM" unicode="&#x62a;" horiz-adv-x="584" arabic-form="medial" 
d="M584 0q-39 0 -82 14t-84 37t-76 52t-59 59q-13 -42 -44 -72.5t-70.5 -50.5t-84 -29.5t-84.5 -9.5q-29 0 -48.5 21t-19.5 51t19.5 51t48.5 21q61 -1 94.5 15t47 43t11 62.5t-12.5 73.5t-23.5 76t-22.5 70q-10 35 -6.5 57t14.5 33t28 12t34.5 -6.5t33 -22.5t23.5 -36
q16 -40 35.5 -83.5t42.5 -85.5t51 -80t63 -66.5t77.5 -45t93.5 -16.5q29 0 49.5 -21t20.5 -51q0 -29 -20.5 -50.5t-49.5 -21.5zM-12 881q18 0 34.5 -7.5t28.5 -20t19 -29.5t7 -36q0 -38 -26 -64.5t-63 -26.5q-18 0 -34 7t-28 19.5t-19 29t-7 35.5t7 36t19 29.5t28 20t34 7.5
zM179 827q36 0 61.5 -27t25.5 -66q0 -19 -7 -35.5t-18.5 -29t-27.5 -19.5t-34 -7q-37 0 -63 26.5t-26 64.5q0 39 26 66t63 27z" />
    <glyph glyph-name="thaF" unicode="&#x62b;" horiz-adv-x="1205" arabic-form="final" 
d="M82 174q-17 47 -20 88.5t4 71t21 44.5t31.5 9.5t35 -34t31.5 -85.5q18 -73 64 -128.5t108 -91t133.5 -48.5t139.5 -1.5t126 50t94 105.5q35 66 62 99t46.5 41t30 -5.5t12.5 -40.5q12 -20 28.5 -39t41 -33.5t57.5 -23t77 -8.5q29 0 49 -21t20 -51q0 -29 -20 -50.5
t-49 -21.5q-28 0 -58.5 7.5t-61.5 21t-60.5 31t-54.5 38.5q-29 -64 -78 -108.5t-109.5 -71t-130 -35.5t-139.5 -2t-137.5 30t-125 60.5t-101.5 88.5t-67 114zM443 482q36 0 61.5 -26.5t25.5 -65.5q0 -19 -7 -35.5t-18.5 -29t-27.5 -19.5t-34 -7q-37 0 -63 26.5t-26 64.5
q0 39 26 65.5t63 26.5zM632 428q38 0 63.5 -26.5t25.5 -65.5q0 -38 -25.5 -64.5t-63.5 -26.5q-37 0 -62 26.5t-25 64.5q0 39 25 65.5t62 26.5zM586 641q37 0 62.5 -26.5t25.5 -64.5q0 -19 -7 -36t-19 -29.5t-28 -20t-34 -7.5t-34 7.5t-28 20t-19 29.5t-7 36t7 35.5t19 29
t28 19.5t34 7z" />
    <glyph glyph-name="thaI" unicode="&#x62b;" horiz-adv-x="331" arabic-form="initial" 
d="M0 144q11 0 29.5 3.5t37.5 10t37 15.5t29.5 20.5t13.5 25t-11 29.5q-37 45 -46.5 80.5t-2 60t28 38t43.5 14t44 -12t29 -39.5q7 -26 17 -45.5t18.5 -39t14 -42t5.5 -53.5q-1 -54 -28.5 -93.5t-69.5 -65t-92 -38t-97 -12.5q-30 0 -50 21.5t-20 50.5q0 30 20.5 51t49.5 21z
M53 740q37 0 63 -26.5t26 -65.5q0 -38 -26 -64.5t-63 -26.5q-18 0 -34 7t-28 19.5t-19 29t-7 35.5q0 39 26 65.5t62 26.5zM244 686q18 0 34 -7t27.5 -19.5t18.5 -29t7 -35.5t-7 -36t-18.5 -29.5t-27.5 -19.5t-34 -7q-19 0 -35 7t-28 19.5t-19 29.5t-7 36t7 35.5t19 29
t28 19.5t35 7zM197 900q37 0 62 -27t25 -65q0 -19 -6.5 -36t-18.5 -29.5t-28 -19.5t-34 -7t-34.5 7t-28.5 19.5t-19 29.5t-7 36t7 35.5t19 29t28.5 20t34.5 7.5z" />
    <glyph glyph-name="thaM" unicode="&#x62b;" horiz-adv-x="584" arabic-form="medial" 
d="M584 0q-39 0 -82 14t-84 37t-76 52t-59 59q-13 -42 -44 -72.5t-70.5 -50.5t-84 -29.5t-84.5 -9.5q-29 0 -48.5 21t-19.5 51t19.5 51t48.5 21q61 -1 94.5 15t47 43t11 62.5t-12.5 73.5t-23.5 76t-22.5 70q-10 35 -6.5 57t14.5 33t28 12t34.5 -6.5t33 -22.5t23.5 -36
q16 -40 35.5 -83.5t42.5 -85.5t51 -80t63 -66.5t77.5 -45t93.5 -16.5q29 0 49.5 -21t20.5 -51q0 -29 -20.5 -50.5t-49.5 -21.5zM-12 881q18 0 34.5 -7.5t28.5 -20t19 -29.5t7 -36q0 -38 -26 -64.5t-63 -26.5q-18 0 -34 7t-28 19.5t-19 29t-7 35.5t7 36t19 29.5t28 20t34 7.5
zM179 827q36 0 61.5 -27t25.5 -66q0 -19 -7 -35.5t-18.5 -29t-27.5 -19.5t-34 -7q-37 0 -63 26.5t-26 64.5q0 39 26 66t63 27zM132 1039q37 0 62.5 -26.5t25.5 -64.5t-25.5 -65t-62.5 -27q-18 0 -34.5 7.5t-28.5 20t-19 29t-7 35.5q0 38 26 64.5t63 26.5z" />
    <glyph glyph-name="jeemF" unicode="&#x62c;" horiz-adv-x="973" arabic-form="final" 
d="M60 401q3 56 31.5 90t70.5 50t91 16.5t93 -10.5q59 -15 124 -38t131 -49t131.5 -52.5t127.5 -47.5q15 -6 30.5 -10.5t28 -11.5t21 -18.5t9.5 -31.5q2 -31 -4 -47t-17.5 -23t-28 -7.5t-34.5 -0.5q-16 -1 -33 -2.5t-35 -3.5q3 -2 13.5 -12t31.5 -20.5t53 -19t78 -8.5
q29 0 49.5 -21t20.5 -51t-19.5 -51t-47.5 -21q-103 -1 -185.5 46.5t-136.5 125.5q-134 -29 -228.5 -84.5t-149 -124.5t-68 -144.5t14.5 -143.5t98 -121t184 -77q50 -11 101 -9t97 16.5t84 39.5t63 61q23 32 40.5 38t27.5 -6.5t11 -38.5t-10 -59t-35.5 -67.5t-64.5 -64
t-97.5 -48.5t-135.5 -21q-120 -2 -212 30t-155 88t-96 130.5t-34.5 157t28.5 168t94.5 162.5t163 141t232.5 104q-59 24 -119 48.5t-114 41t-98 21t-72 -9.5q-3 -26 -21.5 -44.5t-45.5 -20.5q-14 -2 -27.5 3.5t-24.5 14.5t-18 21.5t-7 26.5zM540 -98q37 0 63 -27t26 -66
q0 -38 -26 -64.5t-63 -26.5t-63 26.5t-26 64.5q0 39 26 66t63 27z" />
    <glyph glyph-name="jeemI" unicode="&#x62c;" horiz-adv-x="1007" arabic-form="initial" 
d="M56 401q3 56 32 90t71 50t90.5 16.5t91.5 -10.5q59 -15 124 -38t131.5 -49t132 -52.5t127.5 -47.5q14 -6 29.5 -10.5t28.5 -11.5t21.5 -18.5t10.5 -31.5q1 -31 -5 -47t-18 -23t-28 -7.5t-35 -0.5q-61 -2 -130 -18t-143 -39t-150 -50t-151 -50t-147.5 -38t-137.5 -15
q-28 0 -48.5 21t-20.5 51t20 51t48 21q94 5 167.5 18.5t141 34t137 46.5t156.5 56q-59 24 -119 48.5t-113.5 41t-98 21t-72.5 -9.5q-2 -26 -21 -44.5t-46 -20.5q-14 -2 -27.5 3.5t-24 14.5t-17.5 21.5t-7 26.5zM449 0q37 0 63 -26.5t26 -64.5q0 -19 -7 -35.5t-19 -29
t-28.5 -19.5t-34.5 -7t-34 7t-28 19.5t-19 29t-7 35.5t7 35.5t19 29t28 19.5t34 7z" />
    <glyph glyph-name="jeemM" unicode="&#x62c;" horiz-adv-x="970" arabic-form="medial" 
d="M55 401q3 56 32.5 90t71.5 50t90.5 16.5t91.5 -10.5q59 -15 124 -38t131.5 -49t132 -52.5t127.5 -47.5q14 -6 29.5 -10.5t28.5 -11.5t21.5 -18.5t10.5 -31.5q1 -31 -5 -47t-18 -23t-28 -7.5t-35 -0.5q-17 -1 -33.5 -2.5t-33.5 -3.5q3 -2 13.5 -12t31.5 -20.5t53 -19
t79 -8.5q29 0 49 -21t20 -51t-20 -51t-48 -21q-102 -1 -185 46.5t-137 125.5q-73 -21 -155 -50.5t-167 -56.5t-168 -46t-158 -19q-29 0 -48.5 21t-19.5 51t19.5 51t47.5 21q94 5 167.5 18.5t141.5 34t138 46.5t157 56q-60 24 -120 48.5t-114 41t-98 21t-72 -9.5
q-2 -26 -21.5 -44.5t-45.5 -20.5q-14 -2 -28 3.5t-25 14.5t-18 21.5t-7 26.5zM449 0q37 0 63 -26.5t26 -64.5q0 -19 -7 -35.5t-19 -29t-28.5 -19.5t-34.5 -7t-34 7t-28 19.5t-19 29t-7 35.5t7 35.5t19 29t28 19.5t34 7z" />
    <glyph glyph-name="haF" unicode="&#x62d;" horiz-adv-x="973" arabic-form="final" 
d="M60 401q3 56 31.5 90t70.5 50t91 16.5t93 -10.5q59 -15 124 -38t131 -49t131.5 -52.5t127.5 -47.5q15 -6 30.5 -10.5t28 -11.5t21 -18.5t9.5 -31.5q2 -31 -4 -47t-17.5 -23t-28 -7.5t-34.5 -0.5q-16 -1 -33 -2.5t-35 -3.5q3 -2 13.5 -12t31.5 -20.5t53 -19t78 -8.5
q29 0 49.5 -21t20.5 -51t-19.5 -51t-47.5 -21q-103 -1 -185.5 46.5t-136.5 125.5q-134 -29 -228.5 -84.5t-149 -124.5t-68 -144.5t14.5 -143.5t98 -121t184 -77q50 -11 101 -9t97 16.5t84 39.5t63 61q23 32 40.5 38t27.5 -6.5t11 -38.5t-10 -59t-35.5 -67.5t-64.5 -64
t-97.5 -48.5t-135.5 -21q-120 -2 -212 30t-155 88t-96 130.5t-34.5 157t28.5 168t94.5 162.5t163 141t232.5 104q-59 24 -119 48.5t-114 41t-98 21t-72 -9.5q-3 -26 -21.5 -44.5t-45.5 -20.5q-14 -2 -27.5 3.5t-24.5 14.5t-18 21.5t-7 26.5z" />
    <glyph glyph-name="haI" unicode="&#x62d;" horiz-adv-x="1007" arabic-form="initial" 
d="M56 401q3 56 32 90t71 50t90.5 16.5t91.5 -10.5q59 -15 124 -38t131.5 -49t132 -52.5t127.5 -47.5q14 -6 29.5 -10.5t28.5 -11.5t21.5 -18.5t10.5 -31.5q1 -31 -5 -47t-18 -23t-28 -7.5t-35 -0.5q-61 -2 -130 -18t-143 -39t-150 -50t-151 -50t-147.5 -38t-137.5 -15
q-28 0 -48.5 21t-20.5 51t20 51t48 21q94 5 167.5 18.5t141 34t137 46.5t156.5 56q-59 24 -119 48.5t-113.5 41t-98 21t-72.5 -9.5q-2 -26 -21 -44.5t-46 -20.5q-14 -2 -27.5 3.5t-24 14.5t-17.5 21.5t-7 26.5z" />
    <glyph glyph-name="haM" unicode="&#x62d;" horiz-adv-x="970" arabic-form="medial" 
d="M55 401q3 56 32.5 90t71.5 50t90.5 16.5t91.5 -10.5q59 -15 124 -38t131.5 -49t132 -52.5t127.5 -47.5q14 -6 29.5 -10.5t28.5 -11.5t21.5 -18.5t10.5 -31.5q1 -31 -5 -47t-18 -23t-28 -7.5t-35 -0.5q-17 -1 -33.5 -2.5t-33.5 -3.5q3 -2 13.5 -12t31.5 -20.5t53 -19
t79 -8.5q29 0 49 -21t20 -51t-20 -51t-48 -21q-102 -1 -185 46.5t-137 125.5q-73 -21 -155 -50.5t-167 -56.5t-168 -46t-158 -19q-29 0 -48.5 21t-19.5 51t19.5 51t47.5 21q94 5 167.5 18.5t141.5 34t138 46.5t157 56q-60 24 -120 48.5t-114 41t-98 21t-72 -9.5
q-2 -26 -21.5 -44.5t-45.5 -20.5q-14 -2 -28 3.5t-25 14.5t-18 21.5t-7 26.5z" />
    <glyph glyph-name="khaF" unicode="&#x62e;" horiz-adv-x="973" arabic-form="final" 
d="M60 401q3 56 31.5 90t70.5 50t91 16.5t93 -10.5q59 -15 124 -38t131 -49t131.5 -52.5t127.5 -47.5q15 -6 30.5 -10.5t28 -11.5t21 -18.5t9.5 -31.5q2 -31 -4 -47t-17.5 -23t-28 -7.5t-34.5 -0.5q-16 -1 -33 -2.5t-35 -3.5q3 -2 13.5 -12t31.5 -20.5t53 -19t78 -8.5
q29 0 49.5 -21t20.5 -51t-19.5 -51t-47.5 -21q-103 -1 -185.5 46.5t-136.5 125.5q-134 -29 -228.5 -84.5t-149 -124.5t-68 -144.5t14.5 -143.5t98 -121t184 -77q50 -11 101 -9t97 16.5t84 39.5t63 61q23 32 40.5 38t27.5 -6.5t11 -38.5t-10 -59t-35.5 -67.5t-64.5 -64
t-97.5 -48.5t-135.5 -21q-120 -2 -212 30t-155 88t-96 130.5t-34.5 157t28.5 168t94.5 162.5t163 141t232.5 104q-59 24 -119 48.5t-114 41t-98 21t-72 -9.5q-3 -26 -21.5 -44.5t-45.5 -20.5q-14 -2 -27.5 3.5t-24.5 14.5t-18 21.5t-7 26.5zM276 827q37 0 63 -26.5t26 -64.5
q0 -19 -7 -36t-19 -29.5t-28.5 -19.5t-34.5 -7t-34 7t-28 19.5t-19 29.5t-7 36t7 35.5t19 29t28 19.5t34 7z" />
    <glyph glyph-name="khaI" unicode="&#x62e;" horiz-adv-x="1007" arabic-form="initial" 
d="M56 401q3 56 32 90t71 50t90.5 16.5t91.5 -10.5q59 -15 124 -38t131.5 -49t132 -52.5t127.5 -47.5q14 -6 29.5 -10.5t28.5 -11.5t21.5 -18.5t10.5 -31.5q1 -31 -5 -47t-18 -23t-28 -7.5t-35 -0.5q-61 -2 -130 -18t-143 -39t-150 -50t-151 -50t-147.5 -38t-137.5 -15
q-28 0 -48.5 21t-20.5 51t20 51t48 21q94 5 167.5 18.5t141 34t137 46.5t156.5 56q-59 24 -119 48.5t-113.5 41t-98 21t-72.5 -9.5q-2 -26 -21 -44.5t-46 -20.5q-14 -2 -27.5 3.5t-24 14.5t-17.5 21.5t-7 26.5zM272 827q38 0 63.5 -26.5t25.5 -64.5q0 -19 -7 -36t-19 -29.5
t-28 -19.5t-35 -7q-18 0 -34 7t-28 19.5t-19 29.5t-7 36q0 38 25.5 64.5t62.5 26.5z" />
    <glyph glyph-name="khaM" unicode="&#x62e;" horiz-adv-x="970" arabic-form="medial" 
d="M55 401q3 56 32.5 90t71.5 50t90.5 16.5t91.5 -10.5q59 -15 124 -38t131.5 -49t132 -52.5t127.5 -47.5q14 -6 29.5 -10.5t28.5 -11.5t21.5 -18.5t10.5 -31.5q1 -31 -5 -47t-18 -23t-28 -7.5t-35 -0.5q-17 -1 -33.5 -2.5t-33.5 -3.5q3 -2 13.5 -12t31.5 -20.5t53 -19
t79 -8.5q29 0 49 -21t20 -51t-20 -51t-48 -21q-102 -1 -185 46.5t-137 125.5q-73 -21 -155 -50.5t-167 -56.5t-168 -46t-158 -19q-29 0 -48.5 21t-19.5 51t19.5 51t47.5 21q94 5 167.5 18.5t141.5 34t138 46.5t157 56q-60 24 -120 48.5t-114 41t-98 21t-72 -9.5
q-2 -26 -21.5 -44.5t-45.5 -20.5q-14 -2 -28 3.5t-25 14.5t-18 21.5t-7 26.5zM272 827q38 0 63 -26.5t25 -64.5q0 -19 -6.5 -36t-18.5 -29.5t-28 -19.5t-35 -7q-18 0 -34 7t-28 19.5t-19 29.5t-7 36t7 35.5t19 29t28 19.5t34 7z" />
    <glyph glyph-name="dalF" unicode="&#x62f;" horiz-adv-x="1214" arabic-form="final" 
d="M60 130q0 29 19.5 50.5t48.5 21.5q47 0 111 1.5t131.5 9t133 23.5t117 46t83 76.5t30.5 114.5q-1 42 -31 62t-77.5 26.5t-107.5 3.5t-120 -8t-114 -7t-91 6q-13 2 -31.5 13t-33.5 26t-21.5 33.5t4 37t44 34.5t98.5 27q61 10 136 14t151 -3t145.5 -27t120.5 -56.5
t75.5 -92.5t10.5 -135q24 -53 53.5 -103.5t68 -90.5t88 -64.5t112.5 -24.5q29 0 49.5 -21t20.5 -51q0 -29 -20 -50.5t-50 -21.5q-80 0 -140 25t-106.5 67t-81.5 95.5t-65 110.5q-20 -51 -63 -93.5t-100.5 -75.5t-124 -55.5t-133 -34.5t-128 -12.5t-108.5 10.5t-75.5 34
t-28.5 59z" />
    <glyph glyph-name="thalF" unicode="&#x630;" horiz-adv-x="1214" arabic-form="final" 
d="M60 130q0 29 19.5 50.5t48.5 21.5q47 0 111 1.5t131.5 9t133 23.5t117 46t83 76.5t30.5 114.5q-1 42 -31 62t-77.5 26.5t-107.5 3.5t-120 -8t-114 -7t-91 6q-13 2 -31.5 13t-33.5 26t-21.5 33.5t4 37t44 34.5t98.5 27q61 10 136 14t151 -3t145.5 -27t120.5 -56.5
t75.5 -92.5t10.5 -135q24 -53 53.5 -103.5t68 -90.5t88 -64.5t112.5 -24.5q29 0 49.5 -21t20.5 -51q0 -29 -20 -50.5t-50 -21.5q-80 0 -140 25t-106.5 67t-81.5 95.5t-65 110.5q-20 -51 -63 -93.5t-100.5 -75.5t-124 -55.5t-133 -34.5t-128 -12.5t-108.5 10.5t-75.5 34
t-28.5 59zM299 1018q18 0 34.5 -7t28.5 -19.5t19 -29.5t7 -36t-7 -35.5t-19 -29t-28.5 -19.5t-34.5 -7t-34 7t-28 19.5t-19 29t-7 35.5t7 36t19 29.5t28 19.5t34 7z" />
    <glyph glyph-name="raF" unicode="&#x631;" horiz-adv-x="779" arabic-form="final" 
d="M779 144q29 0 49 -21t20 -51q0 -29 -20 -50.5t-49 -21.5q-33 0 -68.5 10t-70.5 27t-67 39t-58 46q-36 -58 -75.5 -116t-78.5 -107.5t-74 -85.5t-61 -51q-25 -14 -57.5 -15.5t-65 5.5t-60.5 21.5t-43 34.5q75 30 129 71.5t94.5 90.5t72 101.5t61 104.5t62 101t75.5 89
q19 18 28 8.5t17 -34.5t20 -58.5t37.5 -64t68.5 -52t114 -21.5z" />
    <glyph glyph-name="zaiF" unicode="&#x632;" horiz-adv-x="779" arabic-form="final" 
d="M779 144q29 0 49 -21t20 -51q0 -29 -20 -50.5t-49 -21.5q-33 0 -68.5 10t-70.5 27t-67 39t-58 46q-36 -58 -75.5 -116t-78.5 -107.5t-74 -85.5t-61 -51q-25 -14 -57.5 -15.5t-65 5.5t-60.5 21.5t-43 34.5q75 30 129 71.5t94.5 90.5t72 101.5t61 104.5t62 101t75.5 89
q19 18 28 8.5t17 -34.5t20 -58.5t37.5 -64t68.5 -52t114 -21.5zM559 670q18 0 34 -7t28.5 -19.5t19.5 -29.5t7 -36t-7 -35.5t-19.5 -29t-28.5 -19.5t-34 -7q-37 0 -63 26.5t-26 64.5q0 19 7 36t19 29.5t28.5 19.5t34.5 7z" />
    <glyph glyph-name="seenF" unicode="&#x633;" horiz-adv-x="1670" arabic-form="final" 
d="M1517 155q-16 -59 -59.5 -84.5t-95.5 -23t-102 31t-79 78.5q-31 -58 -63 -87.5t-62.5 -39t-58.5 -2t-51.5 22.5t-41 34t-27.5 34q-29 -50 -67.5 -98t-90.5 -85.5t-118 -60.5t-151 -21q-65 1 -125.5 24t-111 68t-89 110.5t-57.5 152.5q-13 65 -3 110.5t33 73.5t54.5 40
t61 8.5t51.5 -21.5t26.5 -48t-13.5 -72t-69 -94q13 -60 38 -103t57.5 -71t72 -40.5t81.5 -11.5q94 2 161.5 39t116 90.5t81 115t55.5 113.5q28 5 52 -0.5t35 -29.5q1 -3 -7.5 -14.5t-17 -27t-13 -32.5t4.5 -30q31 -45 67.5 -48t70 25t59.5 80t35 117q41 17 56.5 19t17.5 -6
q1 -3 0 -19.5t-0.5 -40t4.5 -50t15.5 -50t32.5 -40t55 -19.5q32 -3 47 8t19.5 31t1.5 46.5t-7 55t-5.5 56t5.5 50.5q4 11 16 12.5t28 -1.5t34.5 -7.5t35.5 -6.5q0 -45 3 -91.5t18 -85.5t47 -65t89 -30q26 -4 43 -24t17 -48q0 -30 -19.5 -51t-48.5 -21q-31 0 -57 13.5
t-45 35.5t-30 50t-13 56z" />
    <glyph glyph-name="seenI" unicode="&#x633;" horiz-adv-x="954" arabic-form="initial" 
d="M761 48q-29 -3 -59.5 3t-58.5 20t-52 35.5t-40 50.5q-31 -58 -63 -87.5t-63 -39t-59 -2t-51.5 22.5t-41 34t-27.5 34q-22 -27 -46.5 -49t-54 -37.5t-64.5 -24t-79 -8.5q-29 0 -49 21t-20 51t19.5 50.5t47.5 21.5q51 -1 98 19q40 17 79.5 57t62.5 118q28 5 51.5 -0.5
t34.5 -29.5q1 -3 -7 -14.5t-16.5 -27t-13 -32.5t4.5 -30q30 -45 66.5 -48t70.5 25t60 80t35 117q41 17 56 19t18 -6q1 -3 0 -19.5t-0.5 -40t4.5 -50t15.5 -50t32.5 -40t55 -19.5q32 -3 47 8t19.5 31t1.5 46.5t-7 55t-5.5 56t5.5 50.5q4 11 15.5 12.5t28 -1.5t35 -7.5
t35.5 -6.5q-1 -28 3.5 -64t7 -75t0.5 -78t-15.5 -70.5t-41 -53.5t-75.5 -27z" />
    <glyph glyph-name="seenM" unicode="&#x633;" horiz-adv-x="1039" arabic-form="medial" 
d="M886 155q-11 -39 -34.5 -63.5t-54 -35.5t-66 -9t-69 15t-63 37t-48.5 58q-31 -58 -63 -87.5t-62.5 -39t-58.5 -2t-51.5 22.5t-41 34t-27.5 34q-22 -27 -46.5 -49t-53.5 -37.5t-64.5 -24t-78.5 -8.5q-29 0 -49.5 21t-20.5 51t19 50.5t47 21.5q51 -1 98 19q40 17 80 57
t63 118q27 5 51 -0.5t34 -29.5q1 -3 -7 -14.5t-16 -27t-12.5 -32.5t4.5 -30q30 -45 66.5 -48t70.5 25t60 80t35 117q41 17 56 19t17 -6q1 -3 0 -19.5t-0.5 -40t4.5 -50t15.5 -50t32.5 -40t55 -19.5q32 -3 47 8t19.5 31t1.5 46.5t-7 55t-5 56t6 50.5q4 11 15.5 12.5
t27.5 -1.5t34.5 -7.5t35.5 -6.5q0 -45 3 -91.5t18 -85.5t47 -65t89 -30q26 -4 43.5 -24t17.5 -48q0 -30 -20 -51t-49 -21q-31 0 -56.5 13.5t-44.5 35.5t-30.5 50t-13.5 56z" />
    <glyph glyph-name="sheenF" unicode="&#x634;" horiz-adv-x="1670" arabic-form="final" 
d="M1517 155q-16 -59 -59.5 -84.5t-95.5 -23t-102 31t-79 78.5q-31 -58 -63 -87.5t-62.5 -39t-58.5 -2t-51.5 22.5t-41 34t-27.5 34q-29 -50 -67.5 -98t-90.5 -85.5t-118 -60.5t-151 -21q-65 1 -125.5 24t-111 68t-89 110.5t-57.5 152.5q-13 65 -3 110.5t33 73.5t54.5 40
t61 8.5t51.5 -21.5t26.5 -48t-13.5 -72t-69 -94q13 -60 38 -103t57.5 -71t72 -40.5t81.5 -11.5q94 2 161.5 39t116 90.5t81 115t55.5 113.5q28 5 52 -0.5t35 -29.5q1 -3 -7.5 -14.5t-17 -27t-13 -32.5t4.5 -30q31 -45 67.5 -48t70 25t59.5 80t35 117q41 17 56.5 19t17.5 -6
q1 -3 0 -19.5t-0.5 -40t4.5 -50t15.5 -50t32.5 -40t55 -19.5q32 -3 47 8t19.5 31t1.5 46.5t-7 55t-5.5 56t5.5 50.5q4 11 16 12.5t28 -1.5t34.5 -7.5t35.5 -6.5q0 -45 3 -91.5t18 -85.5t47 -65t89 -30q26 -4 43 -24t17 -48q0 -30 -19.5 -51t-48.5 -21q-31 0 -57 13.5
t-45 35.5t-30 50t-13 56zM1069 748q18 0 34 -7t28 -19.5t19 -29.5t7 -36t-7 -36t-19 -29.5t-28 -19.5t-34 -7t-34.5 7t-28.5 19.5t-19 29.5t-7 36t7 36t19 29.5t28.5 19.5t34.5 7zM1259 694q18 0 34 -7t27.5 -19.5t18.5 -29.5t7 -36t-7 -35.5t-18.5 -29t-27.5 -20t-34 -7.5
t-34.5 7.5t-28.5 20t-19 29t-7 35.5t7 36t19 29.5t28.5 19.5t34.5 7zM1212 907q18 0 34 -7t28.5 -19.5t19.5 -29.5t7 -36t-7 -35.5t-19.5 -29t-28.5 -19.5t-34 -7t-34 7t-28 19.5t-19 29t-7 35.5t7 36t19 29.5t28 19.5t34 7z" />
    <glyph glyph-name="sheenI" unicode="&#x634;" horiz-adv-x="954" arabic-form="initial" 
d="M761 48q-29 -3 -59.5 3t-58.5 20t-52 35.5t-40 50.5q-31 -58 -63 -87.5t-63 -39t-59 -2t-51.5 22.5t-41 34t-27.5 34q-22 -27 -46.5 -49t-54 -37.5t-64.5 -24t-79 -8.5q-29 0 -49 21t-20 51t19.5 50.5t47.5 21.5q51 -1 98 19q40 17 79.5 57t62.5 118q28 5 51.5 -0.5
t34.5 -29.5q1 -3 -7 -14.5t-16.5 -27t-13 -32.5t4.5 -30q30 -45 66.5 -48t70.5 25t60 80t35 117q41 17 56 19t18 -6q1 -3 0 -19.5t-0.5 -40t4.5 -50t15.5 -50t32.5 -40t55 -19.5q32 -3 47 8t19.5 31t1.5 46.5t-7 55t-5.5 56t5.5 50.5q4 11 15.5 12.5t28 -1.5t35 -7.5
t35.5 -6.5q-1 -28 3.5 -64t7 -75t0.5 -78t-15.5 -70.5t-41 -53.5t-75.5 -27zM437 748q18 0 34.5 -7t28.5 -19.5t19 -29.5t7 -36t-7 -36t-19 -29.5t-28.5 -19.5t-34.5 -7t-34 7t-28 19.5t-19 29.5t-7 36t7 36t19 29.5t28 19.5t34 7zM628 694q18 0 34 -7t27.5 -19.5
t18.5 -29.5t7 -36t-7 -35.5t-18.5 -29t-27.5 -20t-34 -7.5q-38 0 -63.5 27t-25.5 65q0 19 7 36t19 29.5t28 19.5t35 7zM581 907q18 0 34 -7t27.5 -19.5t18.5 -29.5t7 -36t-7 -35.5t-18.5 -29t-27.5 -19.5t-34 -7t-34.5 7t-28.5 19.5t-19 29t-7 35.5t7 36t19 29.5t28.5 19.5
t34.5 7z" />
    <glyph glyph-name="sheenM" unicode="&#x634;" horiz-adv-x="1039" arabic-form="medial" 
d="M886 155q-11 -39 -34.5 -63.5t-54 -35.5t-66 -9t-69 15t-63 37t-48.5 58q-31 -58 -63 -87.5t-62.5 -39t-58.5 -2t-51.5 22.5t-41 34t-27.5 34q-22 -27 -46.5 -49t-53.5 -37.5t-64.5 -24t-78.5 -8.5q-29 0 -49.5 21t-20.5 51t19 50.5t47 21.5q51 -1 98 19q40 17 80 57
t63 118q27 5 51 -0.5t34 -29.5q1 -3 -7 -14.5t-16 -27t-12.5 -32.5t4.5 -30q30 -45 66.5 -48t70.5 25t60 80t35 117q41 17 56 19t17 -6q1 -3 0 -19.5t-0.5 -40t4.5 -50t15.5 -50t32.5 -40t55 -19.5q32 -3 47 8t19.5 31t1.5 46.5t-7 55t-5 56t6 50.5q4 11 15.5 12.5
t27.5 -1.5t34.5 -7.5t35.5 -6.5q0 -45 3 -91.5t18 -85.5t47 -65t89 -30q26 -4 43.5 -24t17.5 -48q0 -30 -20 -51t-49 -21q-31 0 -56.5 13.5t-44.5 35.5t-30.5 50t-13.5 56zM438 748q18 0 34.5 -7t28.5 -19.5t19 -29.5t7 -36t-7 -36t-19 -29.5t-28.5 -19.5t-34.5 -7t-34.5 7
t-28.5 19.5t-19 29.5t-7 36t7 36t19 29.5t28.5 19.5t34.5 7zM628 694q18 0 34 -7t28 -19.5t19 -29.5t7 -36q0 -38 -25.5 -65t-62.5 -27q-18 0 -34 7.5t-28 20t-19 29t-7 35.5t7 36t19 29.5t28 19.5t34 7zM582 907q18 0 34 -7t28 -19.5t19 -29.5t7 -36t-7 -35.5t-19 -29
t-28 -19.5t-34 -7t-34.5 7t-28.5 19.5t-19 29t-7 35.5t7 36t19 29.5t28.5 19.5t34.5 7z" />
    <glyph glyph-name="sadF" unicode="&#x635;" horiz-adv-x="1615" arabic-form="final" 
d="M68 209q-14 65 -4 110.5t33.5 73.5t55 40t60.5 8.5t51 -21.5t26.5 -48t-13.5 -72t-69 -94q18 -81 54 -130t81.5 -72t97 -23.5t102 15.5t97 44.5t80.5 63t52 72.5t14 72q-37 45 -46.5 80.5t-2 60t28 38t43.5 14t43.5 -12t28.5 -39.5q13 -43 21.5 -87t16.5 -79t20 -56
t33 -17q-9 72 1.5 147.5t37 144.5t67.5 126t92.5 93t113.5 44.5t130 -19.5q41 -17 75 -46.5t58 -68t35.5 -83.5t7.5 -91q-5 -54 -40.5 -106.5t-89.5 -100.5q26 -20 63.5 -33t91.5 -13q29 0 49.5 -21t20.5 -51q0 -29 -20 -50.5t-50 -21.5q-32 0 -66 9t-68 25t-65.5 37
t-57.5 44q-67 -41 -140 -68.5t-140 -36.5t-121.5 3.5t-84.5 53.5q-56 -99 -130.5 -157t-156 -78.5t-163.5 -5t-152.5 64.5t-124 129t-77.5 189zM1086 168q131 27 211 65.5t120 81.5t45.5 86.5t-12.5 80t-53.5 61.5t-78.5 31t-87 -10.5t-78.5 -63.5t-54 -128t-12.5 -204z" />
    <glyph glyph-name="sadI" unicode="&#x635;" horiz-adv-x="1001" arabic-form="initial" 
d="M0 144q17 0 48 7.5t57 21t38 33t-7 42.5q-37 45 -46.5 80.5t-2 60t28 38t43.5 14t44 -12t29 -39.5q13 -43 20.5 -87t16 -79t20.5 -56t33 -17q-9 72 1.5 147.5t37 144.5t67 126t92.5 93t113.5 44.5t129.5 -19.5q42 -17 76 -46.5t58 -68t35.5 -83.5t7.5 -91
q-4 -49 -34 -97.5t-77.5 -93t-107 -82.5t-123.5 -65t-127 -41t-116.5 -11t-93 25.5t-56.5 68.5q-6 -14 -19 -30t-37 -31t-60.5 -26t-88.5 -14q-14 -1 -27 5t-22.5 16t-15 23.5t-5.5 27.5q0 30 21 51t49 21zM436 168q131 27 211 65.5t120 81.5t45.5 86.5t-12.5 80t-54 61.5
t-78.5 31t-86.5 -10.5t-78.5 -63.5t-54 -128t-12.5 -204z" />
    <glyph glyph-name="sadM" unicode="&#x635;" horiz-adv-x="965" arabic-form="medial" 
d="M0 144q11 0 29.5 3.5t37.5 10t37 15.5t29.5 20.5t13.5 25t-11 29.5q-37 45 -47 80.5t-2 60t28 38t43 14t43.5 -12t28.5 -39.5q13 -43 21 -87t16.5 -79t20.5 -56t34 -17q-9 72 1.5 147.5t37 144.5t67 126t92.5 93t113.5 44.5t129.5 -19.5q41 -17 75 -46.5t58 -68
t35.5 -83.5t8.5 -91q-6 -60 -41.5 -111.5t-90.5 -94.5q26 -21 64 -34t93 -13q28 0 48 -21t20 -51q0 -29 -19.5 -50.5t-48.5 -21.5q-33 0 -68.5 10t-70.5 27t-67.5 39t-58.5 46q-31 -17 -74.5 -39t-92.5 -42t-99 -32.5t-95 -9t-80.5 26.5t-54.5 75q-6 -14 -19 -30t-37 -31
t-60 -26t-88 -14q-15 -1 -28 5t-22 16t-14.5 23.5t-5.5 27.5q0 30 20.5 51t49.5 21zM434 168q131 27 211 65.5t120 81.5t45.5 86.5t-12 80t-53.5 61.5t-78.5 31t-87 -10.5t-79 -63.5t-54 -128t-12.5 -204z" />
    <glyph glyph-name="dadF" unicode="&#x636;" horiz-adv-x="1615" arabic-form="final" 
d="M1135 979q18 0 34.5 -7.5t28.5 -20t19 -29t7 -35.5t-7 -36t-19 -29.5t-28.5 -20t-34.5 -7.5t-34 7.5t-27.5 20t-18.5 29.5t-7 36t7 35.5t18.5 29t27.5 20t34 7.5zM68 209q-14 65 -4 110.5t33.5 73.5t55 40t60.5 8.5t51 -21.5t26.5 -48t-13.5 -72t-69 -94q18 -81 54 -130
t81.5 -72t97 -23.5t102 15.5t97 44.5t80.5 63t52 72.5t14 72q-37 45 -46.5 80.5t-2 60t28 38t43.5 14t43.5 -12t28.5 -39.5q13 -43 21.5 -87t16.5 -79t20 -56t33 -17q-9 72 1.5 147.5t37 144.5t67.5 126t92.5 93t113.5 44.5t130 -19.5q41 -17 75 -46.5t58 -68t35.5 -83.5
t7.5 -91q-5 -54 -40.5 -106.5t-89.5 -100.5q26 -20 63.5 -33t91.5 -13q29 0 49.5 -21t20.5 -51q0 -29 -20 -50.5t-50 -21.5q-32 0 -66 9t-68 25t-65.5 37t-57.5 44q-67 -41 -140 -68.5t-140 -36.5t-121.5 3.5t-84.5 53.5q-56 -99 -130.5 -157t-156 -78.5t-163.5 -5
t-152.5 64.5t-124 129t-77.5 189zM1086 168q131 27 211 65.5t120 81.5t45.5 86.5t-12.5 80t-53.5 61.5t-78.5 31t-87 -10.5t-78.5 -63.5t-54 -128t-12.5 -204z" />
    <glyph glyph-name="dadI" unicode="&#x636;" horiz-adv-x="1001" arabic-form="initial" 
d="M485 979q18 0 34.5 -7.5t28.5 -20t19 -29t7 -35.5t-7 -36t-19 -29.5t-28.5 -20t-34.5 -7.5t-34 7.5t-28 20t-19 29.5t-7 36t7 35.5t19 29t28 20t34 7.5zM0 144q17 0 48 7.5t57 21t38 33t-7 42.5q-37 45 -46.5 80.5t-2 60t28 38t43.5 14t44 -12t29 -39.5q13 -43 20.5 -87
t16 -79t20.5 -56t33 -17q-9 72 1.5 147.5t37 144.5t67 126t92.5 93t113.5 44.5t129.5 -19.5q42 -17 76 -46.5t58 -68t35.5 -83.5t7.5 -91q-4 -49 -34 -97.5t-77.5 -93t-107 -82.5t-123.5 -65t-127 -41t-116.5 -11t-93 25.5t-56.5 68.5q-6 -14 -19 -30t-37 -31t-60.5 -26
t-88.5 -14q-14 -1 -27 5t-22.5 16t-15 23.5t-5.5 27.5q0 30 21 51t49 21zM436 168q131 27 211 65.5t120 81.5t45.5 86.5t-12.5 80t-54 61.5t-78.5 31t-86.5 -10.5t-78.5 -63.5t-54 -128t-12.5 -204z" />
    <glyph glyph-name="dadM" unicode="&#x636;" horiz-adv-x="965" arabic-form="medial" 
d="M485 979q18 0 34 -7.5t28.5 -20t19.5 -29t7 -35.5t-7 -36t-19.5 -29.5t-28.5 -20t-34 -7.5t-34.5 7.5t-28.5 20t-19 29.5t-7 36t7 35.5t19 29t28.5 20t34.5 7.5zM0 144q11 0 29.5 3.5t37.5 10t37 15.5t29.5 20.5t13.5 25t-11 29.5q-37 45 -47 80.5t-2 60t28 38t43 14
t43.5 -12t28.5 -39.5q13 -43 21 -87t16.5 -79t20.5 -56t34 -17q-9 72 1.5 147.5t37 144.5t67 126t92.5 93t113.5 44.5t129.5 -19.5q41 -17 75 -46.5t58 -68t35.5 -83.5t8.5 -91q-6 -60 -41.5 -111.5t-90.5 -94.5q26 -21 64 -34t93 -13q28 0 48 -21t20 -51q0 -29 -19.5 -50.5
t-48.5 -21.5q-33 0 -68.5 10t-70.5 27t-67.5 39t-58.5 46q-31 -17 -74.5 -39t-92.5 -42t-99 -32.5t-95 -9t-80.5 26.5t-54.5 75q-6 -14 -19 -30t-37 -31t-60 -26t-88 -14q-15 -1 -28 5t-22 16t-14.5 23.5t-5.5 27.5q0 30 20.5 51t49.5 21zM434 168q131 27 211 65.5t120 81.5
t45.5 86.5t-12 80t-53.5 61.5t-78.5 31t-87 -10.5t-79 -63.5t-54 -128t-12.5 -204z" />
    <glyph glyph-name="ttaF" unicode="&#x637;" horiz-adv-x="848" arabic-form="final" 
d="M130 144q20 0 37.5 1t37.5 5q-11 96 -1 184t43 158t90 117t139 61q-24 1 -39 11.5t-17 33.5q-12 134 -19 263.5t-10 258.5q0 11 0.5 25t5 26t13.5 20t26 7q9 0 20.5 4.5t22 7.5t18 0t8.5 -19q9 -153 26.5 -305t24.5 -297q58 0 108.5 -26.5t87.5 -70t56.5 -99t14.5 -113.5
q-5 -60 -40 -111.5t-92 -94.5q26 -21 64 -34t93 -13q29 0 49.5 -21t20.5 -51q0 -29 -20.5 -50.5t-49.5 -21.5q-32 0 -67.5 10t-70.5 27t-67.5 39t-58.5 46q-46 -24 -101.5 -46t-114 -38.5t-117.5 -27t-112 -10.5q-32 0 -55.5 18t-23.5 54q0 30 20 51t50 21zM319 168
q131 27 211 65.5t120 81.5t45.5 86.5t-12 80t-53.5 61.5t-78.5 31t-87 -10.5t-79 -63.5t-54 -128t-12.5 -204z" />
    <glyph glyph-name="ttaI" unicode="&#x637;" horiz-adv-x="755" arabic-form="initial" 
d="M0 144q20 0 37.5 1t38.5 5q-11 96 -1 184t43 158t89.5 117t139.5 61q-25 1 -39.5 11.5t-17.5 33.5q-11 134 -18.5 263.5t-9.5 258.5q0 11 0.5 25t5 26t13 20t25.5 7q9 0 20.5 4.5t22.5 7.5t18.5 0t9.5 -19q9 -153 26 -305t23 -297q58 0 109 -26.5t88 -70t56.5 -99
t14.5 -113.5q-5 -62 -43 -115t-96 -97t-130.5 -78t-146.5 -57.5t-144 -36t-123 -13.5q-34 0 -57.5 18t-23.5 54q0 30 20 51t50 21zM190 168q131 27 211 65.5t120 81.5t45.5 86.5t-12.5 80t-54 61.5t-78.5 31t-86.5 -10.5t-78.5 -63.5t-54 -128t-12.5 -204z" />
    <glyph glyph-name="ttaM" unicode="&#x637;" horiz-adv-x="719" arabic-form="medial" 
d="M0 144q20 0 37.5 1t38.5 5q-11 96 -1 184t43 158t89.5 117t139.5 61q-25 1 -40 11.5t-17 33.5q-11 134 -18.5 263.5t-9.5 258.5q-1 11 0 25t5.5 26t13.5 20t25 7q9 0 20.5 4.5t22 7.5t18.5 0t9 -19q9 -153 26.5 -305t23.5 -297q58 0 109 -26.5t88 -70t56.5 -99
t14.5 -113.5q-6 -60 -41 -111.5t-91 -94.5q26 -21 64 -34t93 -13q29 0 49 -21t20 -51q0 -29 -20 -50.5t-49 -21.5q-33 0 -68.5 10t-70.5 27t-67 39t-58 46q-46 -24 -101.5 -46t-114.5 -38.5t-118 -27t-111 -10.5q-33 0 -56.5 18t-23.5 54q0 30 20 51t50 21zM190 168
q131 27 211 65.5t120 81.5t45.5 86.5t-12.5 80t-54 61.5t-78.5 31t-86.5 -10.5t-78.5 -63.5t-54 -128t-12.5 -204z" />
    <glyph glyph-name="zaF" unicode="&#x638;" horiz-adv-x="848" arabic-form="final" 
d="M130 144q20 0 37.5 1t37.5 5q-11 96 -1 184t43 158t90 117t139 61q-24 1 -39 11.5t-17 33.5q-12 134 -19 263.5t-10 258.5q0 11 0.5 25t5 26t13.5 20t26 7q9 0 20.5 4.5t22 7.5t18 0t8.5 -19q9 -153 26.5 -305t24.5 -297q58 0 108.5 -26.5t87.5 -70t56.5 -99t14.5 -113.5
q-5 -60 -40 -111.5t-92 -94.5q26 -21 64 -34t93 -13q29 0 49.5 -21t20.5 -51q0 -29 -20.5 -50.5t-49.5 -21.5q-32 0 -67.5 10t-70.5 27t-67.5 39t-58.5 46q-46 -24 -101.5 -46t-114 -38.5t-117.5 -27t-112 -10.5q-32 0 -55.5 18t-23.5 54q0 30 20 51t50 21zM319 168
q131 27 211 65.5t120 81.5t45.5 86.5t-12 80t-53.5 61.5t-78.5 31t-87 -10.5t-79 -63.5t-54 -128t-12.5 -204zM698 1020q19 0 35 -7t28 -19.5t18.5 -29.5t6.5 -36t-6.5 -36t-18.5 -29.5t-28 -19.5t-35 -7q-18 0 -34 7t-28 19.5t-19 29.5t-7 36t7 36t19 29.5t28 19.5t34 7z
" />
    <glyph glyph-name="zaI" unicode="&#x638;" horiz-adv-x="755" arabic-form="initial" 
d="M0 144q20 0 37.5 1t38.5 5q-11 96 -1 184t43 158t89.5 117t139.5 61q-25 1 -39.5 11.5t-17.5 33.5q-11 134 -18.5 263.5t-9.5 258.5q0 11 0.5 25t5 26t13 20t25.5 7q9 0 20.5 4.5t22.5 7.5t18.5 0t9.5 -19q9 -153 26 -305t23 -297q58 0 109 -26.5t88 -70t56.5 -99
t14.5 -113.5q-5 -62 -43 -115t-96 -97t-130.5 -78t-146.5 -57.5t-144 -36t-123 -13.5q-34 0 -57.5 18t-23.5 54q0 30 20 51t50 21zM190 168q131 27 211 65.5t120 81.5t45.5 86.5t-12.5 80t-54 61.5t-78.5 31t-86.5 -10.5t-78.5 -63.5t-54 -128t-12.5 -204zM569 1020
q18 0 34.5 -7t28.5 -19.5t19 -29.5t7 -36t-7 -36t-19 -29.5t-28.5 -19.5t-34.5 -7t-34 7t-28.5 19.5t-19.5 29.5t-7 36t7 36t19.5 29.5t28.5 19.5t34 7z" />
    <glyph glyph-name="zaM" unicode="&#x638;" horiz-adv-x="719" arabic-form="medial" 
d="M0 144q20 0 37.5 1t38.5 5q-11 96 -1 184t43 158t89.5 117t139.5 61q-25 1 -40 11.5t-17 33.5q-11 134 -18.5 263.5t-9.5 258.5q-1 11 0 25t5.5 26t13.5 20t25 7q9 0 20.5 4.5t22 7.5t18.5 0t9 -19q9 -153 26.5 -305t23.5 -297q58 0 109 -26.5t88 -70t56.5 -99
t14.5 -113.5q-6 -60 -41 -111.5t-91 -94.5q26 -21 64 -34t93 -13q29 0 49 -21t20 -51q0 -29 -20 -50.5t-49 -21.5q-33 0 -68.5 10t-70.5 27t-67 39t-58 46q-46 -24 -101.5 -46t-114.5 -38.5t-118 -27t-111 -10.5q-33 0 -56.5 18t-23.5 54q0 30 20 51t50 21zM190 168
q131 27 211 65.5t120 81.5t45.5 86.5t-12.5 80t-54 61.5t-78.5 31t-86.5 -10.5t-78.5 -63.5t-54 -128t-12.5 -204zM569 1020q18 0 34 -7t28 -19.5t18.5 -29.5t6.5 -36t-6.5 -36t-18.5 -29.5t-28 -19.5t-34 -7t-34.5 7t-28.5 19.5t-19 29.5t-7 36t7 36t19 29.5t28.5 19.5
t34.5 7z" />
    <glyph glyph-name="ainF" unicode="&#x639;" horiz-adv-x="722" arabic-form="final" 
d="M722 0q-39 0 -81.5 14t-83.5 37t-76.5 52t-59.5 59q-52 -66 -92 -136q-17 -30 -34 -63t-30.5 -67.5t-22.5 -69t-10 -67.5q-2 -62 23 -111.5t67.5 -85t99 -57.5t117.5 -29q48 -6 97 -3t93 16.5t80.5 37.5t60.5 58t42 39.5t27.5 -8.5t8.5 -43t-16 -63.5t-45.5 -70.5
t-79.5 -64.5t-118 -45t-162 -11.5q-107 6 -188.5 46t-135.5 102.5t-79.5 141.5t-20.5 164q3 48 14 93t28 86t37 78t41 69q48 74 109 136q-44 36 -88.5 70.5t-92.5 63.5q-36 5 -56 7.5t-28.5 15t-6.5 41t11 86.5q6 40 32.5 67t66 43t88.5 23t99.5 7t99.5 -6t87.5 -15
t63.5 -20t29 -21q13 -12 3 -49t-33 -85.5t-54.5 -102t-60.5 -97.5q24 -21 50.5 -42.5t55 -38t59.5 -27t65 -10.5q29 0 49.5 -21t20.5 -51q0 -29 -20 -50.5t-50 -21.5zM208 486q36 -22 64 -43t50 -40.5t40.5 -38t35.5 -34.5q7 7 21.5 30.5t29.5 50.5t29 52t22 36
q-44 12 -79 18.5t-67.5 6t-67 -9.5t-78.5 -28z" />
    <glyph glyph-name="ainI" unicode="&#x639;" horiz-adv-x="798" arabic-form="initial" 
d="M0 0q-29 0 -49.5 21t-20.5 51t20.5 51t49.5 21q19 0 67.5 5t106.5 13q-32 24 -58 53.5t-42.5 64.5t-22.5 76t3 88q15 80 58 126t100.5 65.5t122.5 16.5t124.5 -21.5t106 -48.5t66.5 -64q3 -14 -1 -35.5t-13 -38.5t-21.5 -24t-26.5 10q-30 34 -72.5 53t-88 25t-91 0
t-81 -22t-58 -40t-22.5 -54t26.5 -65.5t87.5 -72.5q58 -35 114.5 -39t113 5t113 21t115.5 9q17 -62 6.5 -95t-41 -49t-76.5 -21t-99 -9q-65 -6 -128 -18.5t-126.5 -25t-128.5 -22t-134 -10.5z" />
    <glyph glyph-name="ainM" unicode="&#x639;" horiz-adv-x="583" arabic-form="medial" 
d="M583 0q-39 0 -81.5 14t-83.5 37t-76.5 52t-59.5 59q-25 -43 -57 -73.5t-69 -50t-76.5 -29t-79.5 -9.5q-29 0 -49.5 21t-20.5 51t20.5 51t49.5 21q33 -2 61.5 5t52.5 19.5t44 30t35 35.5q-45 36 -89.5 70.5t-92.5 63.5q-35 5 -55 7.5t-28.5 15t-6.5 41t11 86.5
q6 40 32.5 67t66 43t88.5 23t99.5 7t99.5 -6t87.5 -15t63.5 -20t29 -21q13 -12 3 -49t-33 -85.5t-54.5 -102t-60.5 -97.5q24 -21 50.5 -42.5t55 -38t59.5 -27t65 -10.5q29 0 49.5 -21t20.5 -51q0 -29 -20 -50.5t-50 -21.5zM68 486q37 -22 64.5 -43t50 -40.5t40.5 -38
t35 -34.5q7 7 21.5 30.5t30 50.5t29.5 52t22 36q-45 12 -80 18.5t-67.5 6t-67 -9.5t-78.5 -28z" />
    <glyph glyph-name="ghainF" unicode="&#x63a;" horiz-adv-x="722" arabic-form="final" 
d="M350 913q19 0 35 -7t28 -19.5t19 -29.5t7 -36t-7 -35.5t-19 -29t-28 -19.5t-35 -7q-18 0 -34 7t-27.5 19.5t-18.5 29t-7 35.5t7 36t18.5 29.5t27.5 19.5t34 7zM722 0q-39 0 -81.5 14t-83.5 37t-76.5 52t-59.5 59q-52 -66 -92 -136q-17 -30 -34 -63t-30.5 -67.5t-22.5 -69
t-10 -67.5q-2 -62 23 -111.5t67.5 -85t99 -57.5t117.5 -29q48 -6 97 -3t93 16.5t80.5 37.5t60.5 58t42 39.5t27.5 -8.5t8.5 -43t-16 -63.5t-45.5 -70.5t-79.5 -64.5t-118 -45t-162 -11.5q-107 6 -188.5 46t-135.5 102.5t-79.5 141.5t-20.5 164q3 48 14 93t28 86t37 78t41 69
q48 74 109 136q-44 36 -88.5 70.5t-92.5 63.5q-36 5 -56 7.5t-28.5 15t-6.5 41t11 86.5q6 40 32.5 67t66 43t88.5 23t99.5 7t99.5 -6t87.5 -15t63.5 -20t29 -21q13 -12 3 -49t-33 -85.5t-54.5 -102t-60.5 -97.5q24 -21 50.5 -42.5t55 -38t59.5 -27t65 -10.5q29 0 49.5 -21
t20.5 -51q0 -29 -20 -50.5t-50 -21.5zM208 486q36 -22 64 -43t50 -40.5t40.5 -38t35.5 -34.5q7 7 21.5 30.5t29.5 50.5t29 52t22 36q-44 12 -79 18.5t-67.5 6t-67 -9.5t-78.5 -28z" />
    <glyph glyph-name="ghainI" unicode="&#x63a;" horiz-adv-x="798" arabic-form="initial" 
d="M0 0q-29 0 -49.5 21t-20.5 51t20.5 51t49.5 21q19 0 67.5 5t106.5 13q-32 24 -58 53.5t-42.5 64.5t-22.5 76t3 88q15 80 58 126t100.5 65.5t122.5 16.5t124.5 -21.5t106 -48.5t66.5 -64q3 -14 -1 -35.5t-13 -38.5t-21.5 -24t-26.5 10q-30 34 -72.5 53t-88 25t-91 0
t-81 -22t-58 -40t-22.5 -54t26.5 -65.5t87.5 -72.5q58 -35 114.5 -39t113 5t113 21t115.5 9q17 -62 6.5 -95t-41 -49t-76.5 -21t-99 -9q-65 -6 -128 -18.5t-126.5 -25t-128.5 -22t-134 -10.5zM289 913q18 0 34.5 -7t28.5 -19.5t19 -29.5t7 -36t-7 -35.5t-19 -29t-28.5 -19.5
t-34.5 -7t-34 7t-28 19.5t-18.5 29t-6.5 35.5t6.5 36t18.5 29.5t28 19.5t34 7z" />
    <glyph glyph-name="ghainM" unicode="&#x63a;" horiz-adv-x="583" arabic-form="medial" 
d="M206 913q18 0 34 -7t28 -19.5t19 -29.5t7 -36t-7 -35.5t-19 -29t-28 -19.5t-34 -7t-34 7t-28 19.5t-19 29t-7 35.5t7 36t19 29.5t28 19.5t34 7zM583 0q-39 0 -81.5 14t-83.5 37t-76.5 52t-59.5 59q-25 -43 -57 -73.5t-69 -50t-76.5 -29t-79.5 -9.5q-29 0 -49.5 21
t-20.5 51t20.5 51t49.5 21q33 -2 61.5 5t52.5 19.5t44 30t35 35.5q-45 36 -89.5 70.5t-92.5 63.5q-35 5 -55 7.5t-28.5 15t-6.5 41t11 86.5q6 40 32.5 67t66 43t88.5 23t99.5 7t99.5 -6t87.5 -15t63.5 -20t29 -21q13 -12 3 -49t-33 -85.5t-54.5 -102t-60.5 -97.5
q24 -21 50.5 -42.5t55 -38t59.5 -27t65 -10.5q29 0 49.5 -21t20.5 -51q0 -29 -20 -50.5t-50 -21.5zM68 486q37 -22 64.5 -43t50 -40.5t40.5 -38t35 -34.5q7 7 21.5 30.5t30 50.5t29.5 52t22 36q-45 12 -80 18.5t-67.5 6t-67 -9.5t-78.5 -28z" />
    <glyph glyph-name="faF" unicode="&#x641;" horiz-adv-x="1482" arabic-form="final" 
d="M774 149q20 2 38 4t31.5 4t20.5 3.5t5 2.5q-48 40 -71 92t-23.5 105t20 103t58.5 87.5t92.5 57t122.5 11.5q63 -7 113.5 -32t85.5 -61.5t53.5 -81.5t17.5 -91.5t-23 -92t-67 -82.5q44 -11 87 -19q36 -7 76.5 -12t70.5 -3q29 0 48.5 -21t19.5 -51t-19.5 -51t-48.5 -21
q-50 0 -99 7t-97 18.5t-94 25t-89 25.5q-69 -27 -161 -45.5t-193 -25.5t-204 0t-194.5 33t-164 72.5t-113.5 118.5q-12 22 -12 42.5t10 35.5t29.5 23t45.5 6q42 -3 84 -20t87.5 -40t94.5 -48t105 -45t119.5 -30.5t137.5 -3.5zM1042 497q-45 2 -75 -17t-45.5 -49t-15 -66
t17.5 -68t51 -55.5t86 -27.5q46 16 77.5 42.5t47.5 57t15.5 62t-17.5 58t-52.5 44t-89.5 19.5zM1081 902q37 0 63 -26.5t26 -65.5q0 -38 -26 -64.5t-63 -26.5q-18 0 -34 7t-27.5 19.5t-18.5 29t-7 35.5q0 39 25.5 65.5t61.5 26.5z" />
    <glyph glyph-name="faI" unicode="&#x641;" horiz-adv-x="637" arabic-form="initial" 
d="M-1 0q-28 1 -47.5 21.5t-19.5 50.5t19.5 51t48.5 21q38 0 70 0.5t62 3.5t59 9.5t62 18.5q-112 30 -175.5 83t-86 115.5t-8 127.5t59 118.5t114 88.5t156.5 37q67 2 120 -29t87.5 -83t48.5 -119t2.5 -137.5t-49.5 -138.5t-107.5 -121t-172.5 -85.5t-243 -32.5zM329 613
q-80 -6 -129.5 -36.5t-70 -70.5t-12 -83t43 -75t96 -46t146.5 4q21 21 30.5 52.5t10 66.5t-8 69.5t-23.5 61.5t-36.5 43t-46.5 14zM221 1021q18 0 34 -7.5t27.5 -20t18.5 -29t7 -35.5t-7 -35.5t-18.5 -29t-27.5 -19.5t-34 -7t-34.5 7t-28.5 19.5t-19 29t-7 35.5t7 35.5
t19 29t28.5 20t34.5 7.5z" />
    <glyph glyph-name="faM" unicode="&#x641;" horiz-adv-x="833" arabic-form="medial" 
d="M0 144q14 -1 36 -0.5t47 2t50.5 4t45.5 5t31.5 4.5t9.5 4q-48 40 -71 92t-23.5 105t19.5 103t58 87.5t92.5 57t122.5 11.5q63 -7 114 -32t86 -61.5t53.5 -81.5t17.5 -91.5t-23 -92t-67 -82.5q45 -11 87 -19q36 -7 76 -12t71 -3q28 0 48 -21t20 -51t-20 -51t-48 -21
q-50 0 -99 7t-97 18.5t-94 25t-89 25.5q-28 -11 -82 -25.5t-120 -27t-136 -20t-128 -3.5q-27 3 -45.5 23.5t-18.5 48.5q0 31 22 53t54 19zM391 497q-44 2 -74 -17t-45 -49t-14.5 -66t17.5 -68t51 -55.5t86 -27.5q46 16 77.5 42.5t47 57t15.5 62t-17.5 58t-53 44t-90.5 19.5z
M432 902q37 0 63 -26.5t26 -65.5q0 -38 -26 -64.5t-63 -26.5q-18 0 -34 7t-28 19.5t-19 29t-7 35.5q0 39 26 65.5t62 26.5z" />
    <glyph glyph-name="qafF" unicode="&#x642;" horiz-adv-x="1394" arabic-form="final" 
d="M688 388q5 49 27 94t59.5 78t89.5 49.5t115 9.5q64 -7 114.5 -32t86 -61.5t54 -81.5t17 -91.5t-23.5 -92t-67 -82.5q44 -11 87 -19q36 -7 76.5 -12t70.5 -3q29 0 49 -21t20 -51t-20 -51t-49 -21q-43 -1 -97 1.5t-113 10t-119.5 20.5t-116.5 33q-136 -74 -259.5 -98
t-228 -8t-186.5 67t-134 126t-70.5 170t2.5 198q4 13 22.5 16.5t39 0.5t36.5 -10.5t15 -16.5q-7 -96 14 -168t62.5 -121t100.5 -77t129.5 -36.5t149 0.5t158.5 34q-56 43 -87.5 103t-23.5 143zM954 497q-45 2 -75 -17t-45.5 -49t-15 -66t17.5 -68t51 -55.5t85 -27.5
q46 16 78 42.5t48 57t16 62t-17.5 58t-53 44t-89.5 19.5zM804 956q18 0 34 -7.5t28 -20t19 -29t7 -35.5t-7 -35.5t-19 -29t-28 -19.5t-34 -7q-37 0 -63 26.5t-26 64.5q0 19 7 35.5t19 29t28.5 20t34.5 7.5zM994 902q37 0 62.5 -26.5t25.5 -65.5q0 -38 -25.5 -64.5
t-62.5 -26.5q-38 0 -63.5 26.5t-25.5 64.5q0 39 25.5 65.5t63.5 26.5z" />
    <glyph glyph-name="qafI" unicode="&#x642;" horiz-adv-x="637" arabic-form="initial" 
d="M-1 0q-28 1 -47.5 21.5t-19.5 50.5t19.5 51t48.5 21q38 0 70 0.5t62 3.5t59 9.5t62 18.5q-112 30 -175.5 83t-86 115.5t-8 127.5t59 118.5t114 88.5t156.5 37q67 2 120 -29t87.5 -83t48.5 -119t2.5 -137.5t-49.5 -138.5t-107.5 -121t-172.5 -85.5t-243 -32.5zM329 613
q-80 -6 -129.5 -36.5t-70 -70.5t-12 -83t43 -75t96 -46t146.5 4q21 21 30.5 52.5t10 66.5t-8 69.5t-23.5 61.5t-36.5 43t-46.5 14zM30 1074q37 0 63 -26.5t26 -64.5q0 -19 -7 -36t-19 -29.5t-28.5 -20t-34.5 -7.5t-34 7.5t-28 20t-19 29.5t-7 36t7 35.5t19 29t28 19.5t34 7z
M221 1021q18 0 34 -7.5t27.5 -20t18.5 -29t7 -35.5t-7 -35.5t-18.5 -29t-27.5 -19.5t-34 -7t-34.5 7t-28.5 19.5t-19 29t-7 35.5t7 35.5t19 29t28.5 20t34.5 7.5z" />
    <glyph glyph-name="qafM" unicode="&#x642;" horiz-adv-x="833" arabic-form="medial" 
d="M0 144q14 -1 36 -0.5t47 2t50.5 4t45.5 5t31.5 4.5t9.5 4q-48 40 -71 92t-23.5 105t19.5 103t58 87.5t92.5 57t122.5 11.5q63 -7 114 -32t86 -61.5t53.5 -81.5t17.5 -91.5t-23 -92t-67 -82.5q45 -11 87 -19q36 -7 76 -12t71 -3q28 0 48 -21t20 -51t-20 -51t-48 -21
q-50 0 -99 7t-97 18.5t-94 25t-89 25.5q-28 -11 -82 -25.5t-120 -27t-136 -20t-128 -3.5q-27 3 -45.5 23.5t-18.5 48.5q0 31 22 53t54 19zM391 497q-44 2 -74 -17t-45 -49t-14.5 -66t17.5 -68t51 -55.5t86 -27.5q46 16 77.5 42.5t47 57t15.5 62t-17.5 58t-53 44t-90.5 19.5z
M242 956q38 0 63.5 -27t25.5 -65t-25.5 -64.5t-63.5 -26.5q-37 0 -62.5 26.5t-25.5 64.5t25.5 65t62.5 27zM432 902q37 0 63 -26.5t26 -65.5q0 -38 -26 -64.5t-63 -26.5q-18 0 -34 7t-28 19.5t-19 29t-7 35.5q0 39 26 65.5t62 26.5z" />
    <glyph glyph-name="kafF" unicode="&#x643;" horiz-adv-x="1235" arabic-form="final" 
d="M68 209q-14 65 -4 110.5t33.5 73.5t55 40t60.5 8.5t51 -21.5t26.5 -48t-13.5 -72t-69 -94q24 -106 81 -160.5t129.5 -64t150.5 22.5t144.5 99t111.5 166t51 224q3 58 -3 119t-14 123t-15.5 124.5t-8.5 125.5q-1 35 16 57t38.5 26t41 -12t23.5 -58q27 -125 41 -250t0 -254
q-4 -33 -7 -67t-3.5 -64.5t3 -55t13.5 -37.5q43 -55 99.5 -90.5t134.5 -35.5q28 0 48 -21t20 -51q0 -29 -19.5 -50.5t-48.5 -21.5q-39 0 -81.5 13.5t-83 36t-75.5 50.5t-59 58q-49 -126 -125.5 -203t-164 -110.5t-179 -24.5t-172 56.5t-141 131.5t-86.5 201zM684 578
q-12 4 -36.5 9t-51 5t-48.5 -7t-28 -27t1.5 -30t22.5 -15t36 -6.5t42 -2.5t39.5 -4.5t29.5 -12.5q27 -23 23.5 -55t-29.5 -62q-22 -26 -56 -45t-74 -23.5t-83 9.5t-83 55q-7 7 -9.5 18t-0.5 21.5t8 18t16 7.5q14 -13 33 -23t40 -15.5t41 -7t36 2.5q23 5 32.5 9.5t10.5 9.5
q1 8 -9 11.5t-27 6.5t-38 7t-40.5 13t-35 24.5t-21.5 41.5q-6 21 -3.5 44.5t12.5 45.5t27.5 40.5t41.5 30.5q29 14 62.5 20.5t67.5 5.5t64.5 -9.5t53.5 -23.5q8 -6 6 -22.5t-11.5 -33t-25.5 -27t-36 -4.5z" />
    <glyph glyph-name="kafI" unicode="&#x643;" horiz-adv-x="772" arabic-form="initial" 
d="M-157 968q37 13 92 19t123 14.5t146 24t160.5 47t167 84t166.5 134.5q19 19 34.5 15t25.5 -19.5t14 -36t0 -33.5q-13 -45 -50.5 -85t-92 -75.5t-120.5 -66t-137 -56t-141.5 -45.5t-133 -34t-113.5 -22t-81 -9q-47 -2 -78.5 15t-42 40.5t3 48.5t57.5 40zM-58 679
q-28 29 -29.5 52t12.5 38t38.5 21t48.5 0t42.5 -24.5t21.5 -52.5q1 -21 23 -58t50 -86t56 -107t42 -121t6.5 -128.5t-48.5 -128.5q-57 -84 -205 -84q-29 0 -49.5 21.5t-20.5 50.5q0 30 20.5 51t49.5 21q13 0 36 4.5t45.5 13t40.5 21t23 28.5q6 19 0 54.5t-20.5 79t-36 92
t-46 94t-50.5 84.5t-50 64z" />
    <glyph glyph-name="kafM" unicode="&#x643;" horiz-adv-x="1404" arabic-form="medial" 
d="M131 752q-42 -21 -69.5 -13t-37 32t0.5 58t43 66q30 28 92 73t142 94t172 94.5t180.5 75.5t167 37t133.5 -21q12 -6 24.5 -23t16.5 -35t-3.5 -32.5t-34.5 -15.5q-116 -1 -213 -25.5t-177 -62t-145.5 -82.5t-118.5 -88t-95.5 -78.5t-77.5 -53.5zM0 0q-29 0 -49.5 21
t-20.5 51t20.5 51t49.5 21q33 0 91.5 3.5t130.5 11t153 20t160 31t151 43t126 57t84.5 73t26.5 90.5q-2 33 -30.5 58t-72.5 42t-100 26.5t-113 11.5q-59 2 -119.5 -4t-122.5 -14.5t-124.5 -16t-125.5 -8.5q-34 -2 -56 15t-26 39t12 41.5t57 24.5q232 51 412 52.5t315 -36.5
q81 -21 134.5 -51.5t83 -66.5t37 -76.5t-3.5 -82.5q24 -53 54 -103.5t69 -90.5t88.5 -64.5t112.5 -24.5q29 0 48.5 -21t19.5 -51q0 -29 -19.5 -50.5t-48.5 -21.5q-80 0 -140.5 25t-106.5 67t-81.5 95.5t-65.5 110.5q-51 -62 -127 -113.5t-162 -83.5q-126 -47 -304 -74
t-417 -27z" />
    <glyph glyph-name="lamF" unicode="&#x644;" horiz-adv-x="1235" arabic-form="final" 
d="M68 209q-14 65 -4 110.5t33.5 73.5t55 40t60.5 8.5t51 -21.5t26.5 -48t-13.5 -72t-69 -94q24 -106 81 -160.5t129.5 -64t150.5 22.5t144.5 99t111.5 166t51 224q3 58 -3 119t-14 123t-15.5 124.5t-8.5 125.5q-1 35 16 57t38.5 26t41 -12t23.5 -58q27 -125 41 -250t0 -254
q-4 -33 -7 -67t-3.5 -64.5t3 -55t13.5 -37.5q43 -55 99.5 -90.5t134.5 -35.5q28 0 48 -21t20 -51q0 -29 -19.5 -50.5t-48.5 -21.5q-39 0 -81.5 13.5t-83 36t-75.5 50.5t-59 58q-49 -126 -125.5 -203t-164 -110.5t-179 -24.5t-172 56.5t-141 131.5t-86.5 201z" />
    <glyph glyph-name="lamI" unicode="&#x644;" horiz-adv-x="331" arabic-form="initial" 
d="M104 943q0 60 18 87.5t40 26.5t39.5 -29t16.5 -79t4.5 -110.5t14 -124.5t16.5 -132t13 -133q7 -90 1.5 -171t-33 -143t-83.5 -98.5t-151 -36.5q-30 0 -50 21.5t-20 50.5q0 30 20.5 51t49.5 21q13 0 36 4.5t45.5 13t40.5 21t23 28.5q6 19 5.5 71.5t-4.5 122.5t-11 150
t-14 155t-11.5 137t-5.5 96z" />
    <glyph glyph-name="lamM" unicode="&#x644;" horiz-adv-x="426" arabic-form="medial" 
d="M96 943q0 60 16.5 87.5t37.5 26.5t39 -29t21 -79q2 -51 5 -113t7 -128.5t9.5 -135t13.5 -132.5q5 -51 9 -104t19.5 -96t50.5 -70t102 -26q29 0 49.5 -21t20.5 -51q0 -29 -20 -50.5t-50 -21.5q-71 0 -123.5 18t-87.5 50q-45 -35 -103 -51.5t-112 -16.5q-30 0 -50 21.5
t-20 50.5q0 30 20.5 51t49.5 21q47 -1 76 8t44.5 27.5t20 47t2.5 66.5q-3 44 -7.5 104t-9.5 125.5t-10.5 132t-10 124t-7 101t-2.5 63.5z" />
    <glyph glyph-name="meemF" unicode="&#x645;" horiz-adv-x="817" arabic-form="final" 
d="M130 144q11 0 28.5 3t36.5 9.5t37 15t30 20t15 25t-8 28.5q-35 36 -45.5 77.5t-2.5 83t32 80t60 68.5t80.5 49t93.5 20q73 2 121 -38t70.5 -100.5t20.5 -129t-27 -123.5q-6 -20 10 -36.5t40.5 -28t51.5 -17.5t43 -6q29 0 49.5 -21t20.5 -51q0 -29 -20 -50.5t-50 -21.5
q-39 0 -80.5 8.5t-79 25.5t-67.5 44t-45 65q-32 -3 -66.5 2t-69.5 16q-12 -42 -41.5 -72.5t-68.5 -50t-83.5 -29t-85.5 -9.5q-30 0 -50 21.5t-20 50.5q0 30 20.5 51t49.5 21zM463 512q-52 -12 -81.5 -37t-39 -55.5t0 -61t36.5 -53t70.5 -33.5t101.5 -1q12 15 18 40.5t5 54.5
t-8 58t-21 50.5t-34.5 33t-47.5 4.5z" />
    <glyph glyph-name="meemI" unicode="&#x645;" horiz-adv-x="631" arabic-form="initial" 
d="M0 144q17 0 47 7t56 20.5t39 32t-3 41.5q-34 36 -45 77.5t-3 83t32.5 80t60 68.5t80.5 49t94 20q63 2 106.5 -27.5t69 -75.5t33 -102t-1 -108.5t-31.5 -94t-59 -58.5q-37 -17 -89.5 -15t-105.5 19q-12 -42 -41.5 -72.5t-68.5 -50t-83.5 -29t-86.5 -9.5q-29 0 -48.5 21.5
t-19.5 50.5q0 30 20 51t48 21zM335 512q-52 -12 -82 -37t-39.5 -55.5t0 -61t36.5 -53t70 -33.5t101 -1q13 15 19 40.5t5.5 54.5t-8 58t-21 50.5t-34 33t-47.5 4.5z" />
    <glyph glyph-name="meemM" unicode="&#x645;" horiz-adv-x="688" arabic-form="medial" 
d="M0 144q11 0 28.5 3t36.5 9.5t37 15t30 20t15 25t-8 28.5q-35 36 -45.5 77.5t-2.5 83t32.5 80t60 68.5t80.5 49t94 20q73 2 120.5 -38t70.5 -100.5t21 -129t-28 -123.5q-6 -20 10 -36.5t41 -28t52 -17.5t43 -6q29 0 49 -21t20 -51q0 -29 -20 -50.5t-49 -21.5
q-39 0 -81 8.5t-79.5 25.5t-67.5 44t-45 65q-32 -3 -66.5 2t-68.5 16q-12 -42 -42 -72.5t-69 -50t-83.5 -29t-85.5 -9.5q-30 0 -50 21.5t-20 50.5q0 30 20.5 51t49.5 21zM334 512q-52 -12 -81.5 -37t-39 -55.5t0 -61t36.5 -53t70 -33.5t101 -1q12 15 18 40.5t5.5 54.5t-8 58
t-21 50.5t-34 33t-47.5 4.5z" />
    <glyph glyph-name="noonF" unicode="&#x646;" horiz-adv-x="1205" arabic-form="final" 
d="M82 174q-17 47 -20 88.5t4 71t21 44.5t31.5 9.5t35 -34t31.5 -85.5q18 -73 64 -128.5t108 -91t133.5 -48.5t139.5 -1.5t126 50t94 105.5q35 66 62 99t46.5 41t30 -5.5t12.5 -40.5q12 -20 28.5 -39t41 -33.5t57.5 -23t77 -8.5q29 0 49 -21t20 -51q0 -29 -20 -50.5
t-49 -21.5q-28 0 -58.5 7.5t-61.5 21t-60.5 31t-54.5 38.5q-29 -64 -78 -108.5t-109.5 -71t-130 -35.5t-139.5 -2t-137.5 30t-125 60.5t-101.5 88.5t-67 114zM545 482q36 0 61.5 -26.5t25.5 -65.5q0 -19 -7 -35.5t-18.5 -29t-27.5 -19.5t-34 -7q-37 0 -63 26.5t-26 64.5
q0 39 26 65.5t63 26.5z" />
    <glyph glyph-name="noonI" unicode="&#x646;" horiz-adv-x="343" arabic-form="initial" 
d="M0 144q11 0 29.5 3.5t37.5 10t37 15.5t29.5 20.5t13.5 25t-11 29.5q-37 45 -46.5 80.5t-2 60t28 38t43.5 14t44 -12t29 -39.5q7 -26 17 -45.5t18.5 -39t14 -42t5.5 -53.5q-1 -54 -28.5 -93.5t-69.5 -65t-92 -38t-97 -12.5q-30 0 -50 21.5t-20 50.5q0 30 20.5 51t49.5 21z
M85 740q37 0 63 -26.5t26 -65.5q0 -38 -26 -64.5t-63 -26.5q-18 0 -34 7t-27.5 19.5t-18.5 29t-7 35.5q0 39 25.5 65.5t61.5 26.5z" />
    <glyph glyph-name="noonM" unicode="&#x646;" horiz-adv-x="584" arabic-form="medial" 
d="M584 0q-39 0 -82 14t-84 37t-76 52t-59 59q-13 -42 -44 -72.5t-70.5 -50.5t-84 -29.5t-84.5 -9.5q-29 0 -48.5 21t-19.5 51t19.5 51t48.5 21q61 -1 94.5 15t47 43t11 62.5t-12.5 73.5t-23.5 76t-22.5 70q-10 35 -6.5 57t14.5 33t28 12t34.5 -6.5t33 -22.5t23.5 -36
q16 -40 35.5 -83.5t42.5 -85.5t51 -80t63 -66.5t77.5 -45t93.5 -16.5q29 0 49.5 -21t20.5 -51q0 -29 -20.5 -50.5t-49.5 -21.5zM90 881q18 0 34.5 -7.5t28.5 -20t19 -29.5t7 -36q0 -38 -26 -64.5t-63 -26.5q-18 0 -34 7t-28 19.5t-19 29t-7 35.5t7 36t19 29.5t28 20t34 7.5z
" />
    <glyph glyph-name="haaF" unicode="&#x647;" horiz-adv-x="860" arabic-form="final" 
d="M860 0q-47 0 -89 7.5t-76 25.5t-57.5 48.5t-33.5 75.5q-21 -66 -70 -104t-110 -50t-126.5 1.5t-119 50t-87 96t-30.5 138.5q3 73 32 133.5t75 103.5t104 66.5t118 23.5q73 0 124 -13.5t85 -36t53.5 -53t29.5 -64.5t12.5 -70t3.5 -70t3 -64t9 -52q8 -23 25 -33.5t38.5 -14
t44.5 -2.5t42 1q34 0 51.5 -22.5t17.5 -49.5t-17.5 -49.5t-51.5 -22.5zM581 320q-2 69 -33 108.5t-75.5 53t-96 4t-96 -37t-73.5 -71t-29 -97.5q0 -30 20 -58t50.5 -49t66.5 -32t68 -6t54.5 29t26.5 72q2 25 15 42t30.5 27t37 13t34.5 2z" />
    <glyph glyph-name="haaI" unicode="&#x647;" horiz-adv-x="911" arabic-form="initial" 
d="M323 48q-28 -16 -69.5 -25.5t-87 -14.5t-89.5 -6.5t-77 -1.5q-34 0 -51 22.5t-17 49.5t17 49.5t51 22.5q38 0 74.5 -0.5t75.5 0.5q-31 39 -43.5 93t-8 109.5t24.5 105.5t55 80q-15 3 -32.5 2.5t-34 1t-29 6.5t-16.5 17q-2 9 -0.5 26t7 34t14.5 29.5t23 12.5
q120 -4 220.5 -12.5t180.5 -23t138.5 -36.5t96.5 -54q50 -43 75 -93.5t28.5 -103t-13 -103.5t-49.5 -94.5t-81 -75.5t-107.5 -47t-129.5 -9t-146 39zM286 172q46 11 77 33t49 49t23 56.5t-1 56.5t-23 47.5t-43 30.5q-38 13 -74.5 -3.5t-55 -54.5t-11 -94t58.5 -121zM553 470
q19 -50 18 -99.5t-14 -93.5t-32 -80t-34 -58q75 9 124.5 35t75 60t28.5 72t-15 72t-56.5 59t-94.5 33z" />
    <glyph glyph-name="haaM" unicode="&#x647;" horiz-adv-x="884" arabic-form="medial" 
d="M884 0q-32 0 -55.5 1.5t-40 3.5t-28.5 5.5t-22 8.5q-9 -79 -38.5 -136.5t-76 -93t-109 -48t-137.5 -1.5q-59 8 -111.5 30.5t-84 58.5t-34.5 86t38 114q2 2 4 5.5t4 6.5q-14 -4 -42 -11t-59 -13.5t-58 -11.5t-38 -5q-28 2 -47 22.5t-19 49.5q0 30 20.5 51t49.5 21
q32 2 72 4t83.5 8t89 18.5t89.5 35.5q-25 67 -27.5 120t13 93t45 67.5t67.5 43.5t82 21.5t87 1.5q83 -8 129 -34.5t62.5 -63.5t8 -80t-35 -84t-66.5 -76t-86 -55q36 -8 68.5 -12t64.5 -5.5t66 -2t72 -0.5q29 0 49 -21t20 -51t-20 -51t-49 -21zM460 71q-64 0 -104 -15
t-58 -37t-13.5 -47.5t28.5 -47.5t67 -36.5t104 -14.5q48 0 72.5 14.5t31 37t-2 48t-27 47.5t-44.5 36.5t-54 14.5zM467 252q0 -2 17.5 4t46.5 18t66 29.5t76 39.5q19 11 13 25.5t-28 27t-54.5 21t-66 8.5t-62.5 -10.5t-44 -35.5q-11 -19 -11 -40t7 -40t18 -32t22 -15z" />
    <glyph glyph-name="wawF" unicode="&#x648;" horiz-adv-x="760" arabic-form="final" 
d="M84 -122q68 35 134 70.5t122 85.5q-109 -3 -175 33.5t-95 95.5t-23.5 132.5t40 145t94.5 133.5t141 97q81 38 143.5 35.5t106 -35t68 -89.5t29 -128.5t-11 -152.5t-51.5 -161q44 -1 84.5 1.5t69.5 2.5t49 -21t20 -51q0 -29 -20 -50.5t-49 -21.5h-36.5h-56t-67.5 1t-72 3
q-72 -98 -149.5 -153.5t-147 -80t-124.5 -22.5t-80.5 20.5t-14.5 48.5t72 61zM241 434q-41 -53 -55.5 -107t7 -96t83.5 -63.5t173 -9.5q46 66 64.5 132.5t14.5 122t-27.5 94t-62 47.5t-89 -18t-108.5 -102z" />
    <glyph glyph-name="alefmaqF" unicode="&#x649;" horiz-adv-x="1064" arabic-form="final" 
d="M953 -8q-3 -4 -3.5 -9t3.5 -13q17 -75 6 -132t-42.5 -97.5t-80 -66t-107.5 -37t-124.5 -9.5t-131.5 16q-113 24 -194 70t-131.5 105t-71.5 127.5t-14 137.5t41 134.5t93 118t142 89t189 47.5q34 4 71 4.5t75 -2.5q8 -1 9.5 -10t-1.5 -22.5t-9.5 -29t-15 -29t-17 -22.5
t-15.5 -9q-105 -3 -190.5 -37t-142.5 -85t-80.5 -113.5t-6 -122.5t80.5 -111.5t181 -80.5q23 -6 58.5 -10.5t76 -5.5t81 4.5t73 18.5t53 36.5t21.5 59.5q1 26 -18.5 46t-50 35.5t-68 26t-72.5 18t-63.5 12t-40.5 6.5q-43 9 -67.5 23.5t-35.5 31.5t-10.5 33.5t8.5 29.5
t21.5 20t28.5 4q79 -16 133.5 -26t97 -15t78 -7t76 -2t92.5 1t126 1q31 0 49 -20t20 -45t-11.5 -48.5t-43.5 -29.5q-9 -2 -28.5 -2.5t-40 -1.5t-37 -2t-19.5 -3z" />
    <glyph glyph-name="yaF" unicode="&#x64a;" horiz-adv-x="1064" arabic-form="final" 
d="M953 -8q-3 -4 -3.5 -9t3.5 -13q17 -75 6 -132t-42.5 -97.5t-80 -66t-107.5 -37t-124.5 -9.5t-131.5 16q-113 24 -194 70t-131.5 105t-71.5 127.5t-14 137.5t41 134.5t93 118t142 89t189 47.5q34 4 71 4.5t75 -2.5q8 -1 9.5 -10t-1.5 -22.5t-9.5 -29t-15 -29t-17 -22.5
t-15.5 -9q-105 -3 -190.5 -37t-142.5 -85t-80.5 -113.5t-6 -122.5t80.5 -111.5t181 -80.5q23 -6 58.5 -10.5t76 -5.5t81 4.5t73 18.5t53 36.5t21.5 59.5q1 26 -18.5 46t-50 35.5t-68 26t-72.5 18t-63.5 12t-40.5 6.5q-43 9 -67.5 23.5t-35.5 31.5t-10.5 33.5t8.5 29.5
t21.5 20t28.5 4q79 -16 133.5 -26t97 -15t78 -7t76 -2t92.5 1t126 1q31 0 49 -20t20 -45t-11.5 -48.5t-43.5 -29.5q-9 -2 -28.5 -2.5t-40 -1.5t-37 -2t-19.5 -3zM336 -463q37 0 63 -26.5t26 -64.5q0 -39 -26 -66t-63 -27q-36 0 -62 27t-26 66q0 19 7 35.5t19 29t28 19.5
t34 7zM526 -517q37 0 62.5 -26.5t25.5 -64.5q0 -19 -7 -36t-19 -29.5t-28 -20t-34 -7.5t-34 7.5t-28 20t-19 29.5t-7 36t7 35.5t19 29t28 19.5t34 7z" />
    <glyph glyph-name="yaI" unicode="&#x64a;" horiz-adv-x="390" arabic-form="initial" 
d="M0 144q11 0 29.5 3.5t37.5 10t37 15.5t29.5 20.5t13.5 25t-11 29.5q-37 45 -46.5 80.5t-2 60t28 38t43.5 14t44 -12t29 -39.5q7 -26 17 -45.5t18.5 -39t14 -42t5.5 -53.5q-1 -54 -28.5 -93.5t-69.5 -65t-92 -38t-97 -12.5q-30 0 -50 21.5t-20 50.5q0 30 20.5 51t49.5 21z
M85 -79q37 0 63 -27t26 -66q0 -38 -26 -64.5t-63 -26.5t-63 26.5t-26 64.5q0 39 26 66t63 27zM275 -133q37 0 63 -26.5t26 -64.5q0 -39 -26 -66t-63 -27q-36 0 -62 27t-26 66q0 19 7 35.5t19 29t28 19.5t34 7z" />
    <glyph glyph-name="yaM" unicode="&#x64a;" horiz-adv-x="584" arabic-form="medial" 
d="M584 0q-39 0 -82 14t-84 37t-76 52t-59 59q-13 -42 -44 -72.5t-70.5 -50.5t-84 -29.5t-84.5 -9.5q-29 0 -48.5 21t-19.5 51t19.5 51t48.5 21q61 -1 94.5 15t47 43t11 62.5t-12.5 73.5t-23.5 76t-22.5 70q-10 35 -6.5 57t14.5 33t28 12t34.5 -6.5t33 -22.5t23.5 -36
q16 -40 35.5 -83.5t42.5 -85.5t51 -80t63 -66.5t77.5 -45t93.5 -16.5q29 0 49.5 -21t20.5 -51q0 -29 -20.5 -50.5t-49.5 -21.5zM166 -79q37 0 62.5 -27t25.5 -66q0 -38 -25.5 -64.5t-62.5 -26.5q-38 0 -63.5 26.5t-25.5 64.5q0 39 25.5 66t63.5 27zM355 -133q37 0 63 -26.5
t26 -64.5q0 -39 -26 -66t-63 -27q-36 0 -61.5 27t-25.5 66q0 19 7 35.5t18.5 29t27.5 19.5t34 7z" />
    <glyph glyph-name=".notdef" horiz-adv-x="902" 
d="M49 0v1400h804v-1400h-804zM97 48h708v1304h-708v-1304zM269 1122q30 26 56 42q52 28 110 28q90 0 144 -46t54 -124q0 -48 -22 -97t-84 -127t-97 -128t-35 -96q0 -38 22 -130h-30q-34 94 -34 144q0 74 79 213t79 211q0 56 -32 88t-88 32q-38 0 -68 -16q-26 -14 -54 -38
v44zM331 326l56 56q10 10 20 10q8 0 20 -10l56 -58q8 -12 8 -20q0 -12 -10 -22l-54 -60q-14 -14 -20 -14q-12 0 -20 10l-60 70q-6 8 -6 16q0 10 10 22z" />
    <glyph glyph-name=".null" 
 />
    <glyph glyph-name="nonmarkingreturn" horiz-adv-x="682" 
 />
    <glyph glyph-name="space" unicode=" " horiz-adv-x="225" 
 />
    <glyph glyph-name="space" unicode="&#xa0;" horiz-adv-x="225" 
 />
    <glyph glyph-name="exclam" unicode="!" horiz-adv-x="473" 
d="M360 2q-18 -17 -44 -17t-45 15q-23 22 -38.5 51.5t-17 56.5t14.5 47.5t56 24.5q28 3 47.5 -6t31 -25t16.5 -37t4 -41.5t-7.5 -39t-17.5 -29.5zM260 919q31 -69 46 -142t23.5 -149t14.5 -152t18 -151q5 -26 -5.5 -48.5t-29 -38t-41.5 -21.5t-44 3t-35.5 35t-16.5 74
q-3 72 -11.5 144.5t-21 143t-29.5 136.5t-36 125q-12 38 4.5 67t46 39t63 -3.5t54.5 -61.5z" />
    <glyph glyph-name="quotedbl" unicode="&#x22;" horiz-adv-x="542" 
d="M97 860q-27 30 -17 71q9 31 36.5 47t60.5 8q29 -8 53 -26q22 -21 30.5 -45.5t6.5 -53.5q-6 -38 -27 -71q-16 -26 -40.5 -50.5t-46.5 -41.5q-21 -15 -46 -15q-39 0 -63 34q-16 21 -16 45q0 20 8.5 36.5t24.5 27.5q9 6 18 15t18 19zM345 850q-15 13 -22 31t-4 38
q2 16 10.5 29t20 22t27 13.5t32.5 2.5q32 -5 55 -21q26 -17 37 -40.5t13 -52.5q-1 -18 -6 -36.5t-14 -36.5q-12 -27 -32.5 -54.5t-41.5 -47.5q-20 -18 -44 -21q-19 -2 -36.5 4.5t-29.5 21.5q-20 19 -22 44q-2 19 4 36.5t21 29.5q9 8 16.5 18t15.5 20z" />
    <glyph glyph-name="numbersign" unicode="#" horiz-adv-x="895" 
d="M565 1039q4 33 29 53.5t58 16.5q33 -3 53 -27.5t17 -57.5l-26 -250l91 3q32 2 55.5 -20.5t23.5 -54.5q1 -17 -4.5 -31.5t-16 -25.5t-25 -18t-30.5 -8l-111 -3l-19 -186l87 3q32 2 56 -20.5t25 -55.5t-21.5 -56.5t-55.5 -24.5l-108 -3l-29 -284q-4 -33 -29 -54t-58 -18
q-33 4 -53 29.5t-17 57.5l28 264l-145 -5l-29 -280q-4 -33 -28.5 -53t-56.5 -17q-33 3 -54 29t-16 58l27 259l-72 -2q-33 -1 -57 21.5t-25 54.5q-1 33 21.5 56.5t55.5 25.5l93 2l19 186l-68 -2q-33 -2 -56.5 20.5t-24.5 55.5t21.5 56.5t54.5 24.5l90 2l28 270
q4 32 29.5 52.5t57.5 16.5q33 -3 53.5 -27.5t16.5 -57.5l-26 -249l143 4zM357 421l144 5l19 186l-143 -5z" />
    <glyph glyph-name="dollar" unicode="$" horiz-adv-x="923" 
d="M334 -69q-48 9 -93.5 30t-84.5 50t-70 63.5t-49 72.5q-8 16 -8 35q0 22 12 41t33 29q17 7 33 7q23 0 42.5 -11t29.5 -33q22 -45 69.5 -79.5t105.5 -47.5l44 361q-58 19 -111.5 40t-94 50.5t-65 70.5t-24.5 100q0 29 8 63q15 77 47.5 133.5t80 93.5t107 57t129.5 26l6 42
q5 33 30 53t58 16q33 -3 53 -29t15 -59l-3 -24q69 -8 128 -36t95 -83q19 -29 28 -61t9 -65q0 -49 -18 -93q-12 -31 -42 -44t-60 0q-30 12 -42.5 42t-1.5 59q8 19 8 38q0 22 -10.5 37t-28.5 25.5t-40 17t-44 8.5l-44 -366q54 -18 102 -40t84.5 -52t58 -70t21.5 -96
q0 -38 -13 -88q-18 -70 -50.5 -120.5t-76 -85t-96 -54t-108.5 -26.5l-5 -46q-3 -33 -29.5 -53t-58.5 -16q-33 4 -53 29.5t-16 58.5zM263 741q-4 -23 6 -43t31.5 -35.5t52 -29t65.5 -24.5l38 316q-38 -6 -69 -18t-55.5 -33t-41 -53t-27.5 -80zM673 255q6 27 -1 48t-23.5 39
t-42 32.5t-55.5 25.5l-38 -311q56 13 98 51.5t62 114.5z" />
    <glyph glyph-name="Apercent" unicode="%" horiz-adv-x="815" 
d="M106 166q16 46 50 106t77 126.5t92 136t95.5 134t87 121t67.5 96.5q14 21 36 30t45 7t43 -13.5t28 -32t1 -48.5t-37 -63q-31 -35 -71 -89t-83.5 -118t-87.5 -133t-83 -133.5t-70 -119.5t-48 -91q-11 -24 -29 -36t-37.5 -13.5t-38 7t-30.5 26t-15 43t8 57.5zM670 106
q-11 -12 -25.5 -18.5t-30.5 -6.5t-31.5 5.5t-28.5 16.5q-29 30 -48.5 70t-21.5 77.5t18.5 66t72.5 34.5q36 3 61 -9.5t40 -35t21.5 -51t5 -57t-10 -53t-22.5 -39.5zM271 649q-24 -24 -58 -25t-60 24q-28 29 -47.5 69t-21 77.5t19 65.5t71.5 34q36 3 61 -9.5t40 -34.5
t21.5 -51t5 -57.5t-10 -53t-21.5 -39.5z" />
    <glyph glyph-name="Apercent" unicode="&#x66a;" horiz-adv-x="815" 
d="M106 166q16 46 50 106t77 126.5t92 136t95.5 134t87 121t67.5 96.5q14 21 36 30t45 7t43 -13.5t28 -32t1 -48.5t-37 -63q-31 -35 -71 -89t-83.5 -118t-87.5 -133t-83 -133.5t-70 -119.5t-48 -91q-11 -24 -29 -36t-37.5 -13.5t-38 7t-30.5 26t-15 43t8 57.5zM670 106
q-11 -12 -25.5 -18.5t-30.5 -6.5t-31.5 5.5t-28.5 16.5q-29 30 -48.5 70t-21.5 77.5t18.5 66t72.5 34.5q36 3 61 -9.5t40 -35t21.5 -51t5 -57t-10 -53t-22.5 -39.5zM271 649q-24 -24 -58 -25t-60 24q-28 29 -47.5 69t-21 77.5t19 65.5t71.5 34q36 3 61 -9.5t40 -34.5
t21.5 -51t5 -57.5t-10 -53t-21.5 -39.5z" />
    <glyph glyph-name="ampersand" unicode="&#x26;" horiz-adv-x="908" 
d="M813 63q23 -25 23 -54q0 -16 -6.5 -30.5t-18.5 -25.5q-24 -23 -55 -23q-34 0 -56 25q-12 11 -24 25q-12 12 -27 29t-34 38q-57 -57 -122.5 -94.5t-135.5 -37.5q-73 0 -133.5 15.5t-104 49t-67 86t-23.5 127.5q0 30 3 62q6 44 24 82.5t46 73t62.5 65.5t73.5 59
q-44 74 -70.5 139.5t-22.5 114.5q3 37 14.5 77.5t30.5 72.5q48 84 124.5 121.5t160.5 37.5q59 0 110.5 -21.5t88.5 -63.5q59 -70 59 -177q0 -59 -22 -107t-60 -88t-89.5 -77.5t-111.5 -74.5q39 -52 81 -104.5t84 -99.5q26 36 47 71t36 62q19 31 32 59q11 22 29.5 33t41.5 11
q19 0 35 -7q21 -11 32 -29.5t11 -40.5q0 -18 -8 -36l-11 -21t-30.5 -54.5t-47 -77t-62.5 -89.5q41 -48 67 -75t26 -28zM515 161q-46 55 -95 117t-96 126q-53 -40 -91 -82t-44 -85q-3 -25 -3 -47q0 -38 11 -61.5t32.5 -35.5t53.5 -16t74 -4q40 0 79.5 25t78.5 63zM303 776
q-2 -28 14 -68t45 -89q40 27 77 52t66.5 49t48 47t20.5 43q4 26 -2 55.5t-19 45.5q-12 16 -33 23t-45 7q-44 0 -84.5 -19t-62.5 -59q-13 -20 -18 -40.5t-7 -46.5z" />
    <glyph glyph-name="quotesingle" unicode="'" horiz-adv-x="296" 
d="M97 860q-27 30 -17 71q9 31 36.5 47t60.5 8q29 -8 53 -26q22 -21 30.5 -45.5t6.5 -53.5q-6 -38 -27 -71q-16 -26 -40.5 -50.5t-46.5 -41.5q-21 -15 -46 -15q-39 0 -63 34q-16 21 -16 45q0 20 8.5 36.5t24.5 27.5q9 6 18 15t18 19z" />
    <glyph glyph-name="parenleft" unicode="(" horiz-adv-x="507" 
d="M346 1173q23 20 53 20q34 0 58 -25q20 -21 20 -53q0 -34 -24 -57l-16.5 -17t-42 -49t-57 -79t-60 -107t-52 -132.5t-34.5 -158.5q-2 -23 -3.5 -45t-1.5 -43q0 -70 12 -131.5t29.5 -112t39 -90t39.5 -66.5t30.5 -41.5l12.5 -14.5q21 -24 21 -55q0 -33 -25 -57
q-24 -20 -55 -20q-33 0 -57 25l-15 18t-38 52t-50 82.5t-49.5 111t-37.5 138.5t-15 161q0 52 7 106q12 99 39.5 185t62 157t71.5 126.5t67.5 93.5t50.5 58z" />
    <glyph glyph-name="parenright" unicode=")" horiz-adv-x="499" 
d="M148 1064q-17 24 -17 50q0 17 7 33t22 28q22 18 50 18q17 0 32.5 -7.5t28.5 -21.5l15 -19.5t37 -55t48 -86t48.5 -113t37 -136t14.5 -153.5q0 -23 -1.5 -45.5t-4.5 -46.5q-10 -90 -36.5 -173.5t-60 -156t-68.5 -132.5t-65 -102t-49.5 -65.5l-19.5 -23.5q-25 -28 -60 -28
q-28 0 -51 19q-27 23 -27 59q0 30 19 52q64 77 117 168q23 40 46 85.5t43 96t35 106t22 113.5q2 19 3 37t1 37q0 66 -12.5 126t-30 111.5t-39 93t-40.5 71t-31.5 45.5z" />
    <glyph glyph-name="asterisk" unicode="*" horiz-adv-x="535" 
d="M147 685q-17 -10 -40 -10q-20 0 -38 9.5t-29 28.5q-12 18 -12 41q0 20 10 38t30 29l67 41l-66 50q-16 13 -23.5 29.5t-7.5 34.5q0 24 16 47q13 15 29 22.5t34 7.5q26 0 47 -16l51 -39l7 51q5 32 30 52t58 15q33 -4 52.5 -29.5t14.5 -58.5l-3 -25l9 5q18 11 39 11t39 -10
t29 -29q11 -18 11 -41q0 -20 -9.5 -37.5t-28.5 -28.5l-46 -28l58 -44q16 -12 23.5 -28.5t7.5 -34.5q0 -25 -16 -48q-24 -30 -62 -30q-28 0 -48 16l-46 34l-6 -51q-5 -33 -30 -52.5t-58 -15.5q-33 5 -52.5 30.5t-15.5 57.5l2 22z" />
    <glyph glyph-name="plus" unicode="+" horiz-adv-x="759" 
d="M290 259h-182q-33 -1 -56.5 22t-22.5 56q-1 33 22 56t56 24h202l26 240q4 32 29.5 53t57.5 17q33 -4 53.5 -29t16.5 -58l-26 -223h184q33 1 56 -22t24 -56q0 -33 -22.5 -56t-55.5 -24h-203l-27 -240q-3 -33 -28 -53t-59 -17q-32 4 -52.5 29t-16.5 58z" />
    <glyph glyph-name="comma" unicode="," horiz-adv-x="342" 
d="M140 21q-28 6 -42 21t-17.5 33.5t3 37t21 32t35 18.5t45.5 -4q22 -8 39.5 -26.5t20 -46.5t-15 -64.5t-65.5 -80.5q-9 -9 -15 -21t-12 -22t-15.5 -15.5t-25.5 -0.5q-19 6 -24.5 17t-2 24.5t13 28.5t21 28.5t22 24.5t14.5 16z" />
    <glyph glyph-name="hyphen" unicode="-" horiz-adv-x="367" 
d="M59 142q-18 0 -31 12.5t-12 30.5q-1 19 12 31.5t31 12.5l248 1q18 1 30.5 -11.5t13.5 -30.5q0 -18 -12.5 -31t-29.5 -13z" />
    <glyph glyph-name="hyphen" unicode="&#xad;" horiz-adv-x="367" 
d="M59 142q-18 0 -31 12.5t-12 30.5q-1 19 12 31.5t31 12.5l248 1q18 1 30.5 -11.5t13.5 -30.5q0 -18 -12.5 -31t-29.5 -13z" />
    <glyph glyph-name="period" unicode="." horiz-adv-x="303" 
d="M222 20q-21 -20 -51.5 -20t-53.5 18q-27 26 -45 60.5t-20 66.5t17 56t66 29q33 4 56 -7t36.5 -29.5t19.5 -43.5t5 -49t-9 -46t-21 -35z" />
    <glyph glyph-name="slash" unicode="/" horiz-adv-x="914" 
d="M174 -52q-11 -18 -28.5 -27.5t-36.5 -9.5q-21 0 -42 13q-19 12 -28 30t-9 37q0 23 12 40q19 20 56 73t86 127.5t106 164.5t115.5 181t114.5 178t102.5 155.5t80 112t48.5 51.5q24 24 58 24q31 0 54 -21q12 -12 18.5 -26.5t6.5 -30.5q0 -14 -5.5 -28t-16.5 -26z" />
    <glyph glyph-name="zero" unicode="0" horiz-adv-x="905" 
d="M172 829q5 25 14.5 49.5t21.5 43.5q25 44 59 74.5t73.5 49.5t83.5 27.5t88 8.5q87 0 159.5 -45.5t120.5 -122.5q40 -68 61.5 -152.5t21.5 -173.5q0 -23 -1.5 -46t-3.5 -45q-14 -126 -63 -236q-31 -72 -76 -132t-98 -103.5t-112.5 -68t-122.5 -24.5q-88 0 -161 45.5
t-122 122.5q-41 66 -64 148.5t-23 178.5q0 93 23.5 183.5t63.5 173.5q9 19 23.5 30t33.5 14zM319 750q-3 -31 -25.5 -52t-54.5 -20q-26 -59 -39.5 -122.5t-13.5 -127.5q0 -72 16 -133.5t46 -108.5q29 -44 65.5 -69.5t84.5 -25.5q38 0 76 17t72.5 48t64.5 74.5t52 95.5
q20 44 32 91t19 97q3 17 4 34t1 37q0 67 -15.5 132.5t-44.5 111.5q-27 44 -64 70t-83 26q-51 0 -96 -18.5t-71 -62.5q-13 -23 -18 -44.5t-8 -49.5z" />
    <glyph glyph-name="one" unicode="1" horiz-adv-x="549" 
d="M107 -50q-33 0 -56 23.5t-23 55.5q0 33 23 56t56 23h94l95 715l-106 -71q-20 -13 -44 -13q-19 0 -35.5 9t-29.5 26q-13 20 -13 44q0 19 9 36.5t25 28.5l253 168q9 7 19.5 9.5t20.5 2.5q18 0 33 -6.5t26.5 -19t18 -28.5t3.5 -34l-118 -867h85q32 0 55 -23t23 -56
q0 -32 -23 -55.5t-55 -23.5h-336z" />
    <glyph glyph-name="two" unicode="2" horiz-adv-x="806" 
d="M244 774q1 -33 -21 -58.5t-55 -26.5t-56.5 21.5t-24.5 55.5q2 82 30.5 138t83.5 93q94 66 254 72q98 0 158.5 -26.5t97.5 -73.5q33 -39 50 -88.5t17 -104.5q0 -64 -22 -122t-62 -118q-29 -40 -65 -81t-75.5 -80.5t-82 -76.5t-81.5 -70q-33 -29 -61.5 -54.5t-53.5 -47.5
q57 4 110 4q62 0 115 -3t92 -7q47 -4 86 -8q33 -4 52.5 -30t16.5 -58q-4 -33 -30 -52.5t-58 -15.5l-21.5 2t-57.5 6t-85.5 6t-105.5 2q-65 0 -133.5 -4t-136.5 -16q-21 -4 -40 4t-31.5 23t-17 35.5t1.5 40.5q14 40 38.5 74.5t57 69.5t73 71t86.5 77q32 27 70 61t76.5 71
t73 74t57.5 71q28 41 42 76.5t14 75.5q0 55 -31 92q-16 21 -43.5 32t-84.5 11q-113 -3 -171 -44q-22 -16 -34 -40.5t-12 -52.5z" />
    <glyph glyph-name="three" unicode="3" horiz-adv-x="776" 
d="M224 853q-11 -19 -29 -28.5t-38 -9.5q-21 0 -40 9q-19 12 -29 30t-10 38q0 23 11 41q26 39 70 71q37 27 98.5 50.5t151.5 25.5q81 3 152.5 -27.5t114.5 -86.5q31 -41 47.5 -90t16.5 -100q0 -22 -4 -46q-7 -57 -40 -110.5t-77 -94.5q57 -43 93 -103.5t36 -132.5
q-2 -38 -10 -77t-24 -73q-40 -89 -122.5 -141.5t-201.5 -55.5q-40 -2 -75.5 6t-67.5 22t-59.5 32t-50.5 36q-53 44 -94 101q-14 20 -14 45q0 19 8.5 35t25.5 29q21 13 44 13q19 0 36 -8.5t29 -24.5q26 -37 60 -66q29 -25 68 -44.5t86 -18.5q69 2 115.5 30t69.5 75
q9 23 14 43.5t5 46.5q0 24 -11 45t-29 39.5t-40.5 32.5t-44.5 24q-28 -8 -62 -8q-9 0 -17 0.5t-16 1.5q-44 4 -91 31q-19 11 -28 29t-9 37q0 26 15 48.5t43 29.5q18 5 35.5 7t35.5 2q47 0 91 -11q19 10 38.5 27t36.5 36.5t29.5 41.5t14.5 43q5 30 -3 63t-27 58
q-21 28 -57.5 41t-76.5 10q-58 -2 -94.5 -13t-59.5 -23q-25 -15 -39 -33z" />
    <glyph glyph-name="four" unicode="4" horiz-adv-x="782" 
d="M526 733q4 33 28.5 53.5t57.5 18.5q32 -3 53 -28t18 -57l-23 -241q2 1 5 1h2q33 3 58 -18t27 -54q3 -33 -18 -57.5t-54 -28.5q-2 0 -34 -3l-28 -304q-2 -33 -27.5 -53t-57.5 -18q-33 3 -53 28t-18 57l26 283h-55q-71 0 -145 4.5t-133.5 17t-95 35t-30.5 59.5
q2 17 22.5 53.5t51.5 84.5t70 103t78 111t77.5 107t68.5 90.5t48 63.5l18 24q12 16 28.5 23.5t34.5 7.5q26 0 47 -16q32 -25 32 -63q0 -27 -17 -47l-15.5 -19.5t-41.5 -52.5t-59 -75.5t-67.5 -87.5t-68 -89t-60 -81.5t-43.5 -64t-19 -35.5q-1 -4 13.5 -8.5t40.5 -8.5
t59.5 -6.5t72.5 -2.5q25 0 49.5 1.5t49.5 3.5z" />
    <glyph glyph-name="five" unicode="5" horiz-adv-x="812" 
d="M286 1090q19 -4 33 -16t23 -28l358 16q32 2 57 -20t26 -54q1 -33 -21 -57t-55 -25l-384 -19q-11 -56 -22.5 -114.5t-21.5 -110.5q40 15 84.5 25.5t88.5 10.5q68 0 129.5 -27t104.5 -81q33 -42 49.5 -103t16.5 -127q0 -18 -1.5 -36.5t-3.5 -36.5q-13 -81 -53.5 -144.5
t-98 -107.5t-127 -67.5t-139.5 -23.5q-73 0 -128 28t-90 62q-43 39 -73 89q-10 19 -10 38q0 22 11.5 40t30.5 29q19 10 38 10q20 0 39 -11t28 -30l10.5 -15.5t29.5 -33.5t47.5 -33.5t66.5 -15.5q46 0 91 13.5t81.5 40.5t61 65.5t28.5 90.5q1 11 1.5 22t0.5 23q0 38 -6.5 76
t-24.5 60q-20 25 -48.5 37t-61.5 12q-41 0 -83 -13.5t-76 -29.5q-39 -19 -78 -43q-10 -7 -20.5 -9.5t-21.5 -2.5q-16 0 -32.5 7t-28 19.5t-17 29.5t-1.5 36l6.5 32t16 82.5t22 112t23.5 122.5q-22 7 -37.5 26.5t-17.5 44.5q-1 17 4.5 32t15.5 26t24.5 17.5t31.5 7.5h12
q9 28 35.5 43t55.5 9z" />
    <glyph glyph-name="six" unicode="6" horiz-adv-x="780" 
d="M483 1097q22 18 50 18q16 0 32 -7t28 -22q19 -24 19 -50q0 -17 -7.5 -32.5t-22.5 -27.5q-47 -38 -89.5 -79t-81.5 -84q-45 -52 -81.5 -104t-63.5 -106q39 31 87 52.5t106 21.5q76 0 136.5 -37t97.5 -98q29 -48 44 -103.5t15 -110.5q0 -83 -24 -155.5t-71.5 -127
t-116.5 -86t-160 -31.5q-84 0 -149 27.5t-110.5 77t-69 117.5t-23.5 150q0 168 70.5 322t195.5 296q44 49 90 92.5t99 86.5zM186 300q0 -99 46 -156.5t148 -57.5q57 0 97.5 18.5t66.5 51t38.5 76.5t12.5 96q0 34 -9 68t-26 63q-18 28 -43.5 44t-57.5 16q-42 0 -77.5 -24.5
t-62.5 -55.5q-32 -36 -58 -81q-12 -21 -32.5 -32t-42.5 -8v-18z" />
    <glyph glyph-name="seven" unicode="7" horiz-adv-x="810" 
d="M244 394q-32 1 -54.5 25t-21.5 56q0 16 7 30t18 25t25 16.5t31 5.5l135 -5q40 63 71 111t54 87t38 70t22 58q3 16 -25 22t-75 6q-34 0 -73.5 -2t-79 -6t-76.5 -9t-65.5 -8.5t-45.5 -6l-17 -2.5q-33 -1 -57 21t-26 55q-1 33 21 56.5t55 25.5l37.5 4.5t97 9.5t132 9
t143.5 4q56 0 107 -3t88 -13t56 -25t13 -39q-6 -28 -28 -77.5t-52.5 -108.5t-66 -123t-69.5 -121h21q32 -1 54.5 -25t21.5 -56q-1 -33 -24.5 -55.5t-56.5 -21.5l-111 4q-54 -86 -106 -165t-93 -139t-66 -97l-25 -37q-12 -17 -29 -25.5t-36 -8.5q-24 0 -44 14
q-17 13 -25.5 29t-8.5 35q0 25 13 46l20 28.5t52.5 77t75.5 112.5t89 135z" />
    <glyph glyph-name="eight" unicode="8" horiz-adv-x="795" 
d="M206 568q-10 9 -18.5 18.5t-17.5 19.5q-71 89 -61 204q6 53 24.5 105t61.5 95q42 42 108 68t166 26q49 0 93.5 -13.5t81.5 -39t65.5 -61.5t42.5 -82q14 -42 14 -89q0 -46 -14 -96q-17 -58 -55.5 -115t-103.5 -114q27 -24 50.5 -52.5t39 -60t23 -65.5t4.5 -72
q-5 -54 -25 -109t-64 -103q-43 -45 -112.5 -73.5t-173.5 -28.5q-51 0 -99 13t-86.5 39t-67 64.5t-41.5 87.5q-13 43 -13 85q0 25 4 50.5t11 51.5q18 64 58.5 128t104.5 119zM331 481q-7 -18 -22 -34q-47 -39 -74.5 -82t-39.5 -86q-9 -34 -9 -60q0 -21 5 -44q13 -47 53.5 -67
t90.5 -20q68 0 109.5 15t63.5 39q23 22 32 53.5t12 62.5q0 33 -16 62.5t-42 55t-61 48t-74 42.5q-8 4 -14.5 7.5t-13.5 7.5zM430 607q9 -5 17.5 -9.5t17.5 -9.5q8 11 17 19q51 42 79 82.5t41 78.5q7 24 7 50q0 24 -6 42q-14 42 -51 64t-83 22q-65 0 -103 -13t-60 -34
q-19 -21 -28.5 -47t-11.5 -56q-3 -27 4.5 -49.5t23.5 -42.5q39 -50 136 -97z" />
    <glyph glyph-name="nine" unicode="9" horiz-adv-x="785" 
d="M751 838q-2 -12 -12 -26q13 -19 10 -40l-6.5 -42.5t-22.5 -113.5t-44 -164t-72.5 -194t-107.5 -203.5t-147 -194.5q-23 -24 -58 -24q-30 0 -53 20q-25 24 -25 58q0 32 21 54q78 84 135.5 179t96.5 191q-25 -16 -54.5 -25.5t-61.5 -9.5q-72 0 -139 28t-113 86
q-33 40 -51.5 94t-18.5 122t17 131.5t48 117.5t74 95.5t94 66.5q43 21 92 32t96 11q33 0 66.5 -6.5t65.5 -18.5t60 -29t49 -37q30 -27 48.5 -60t18.5 -65q0 -9 -1.5 -16.5t-4.5 -16.5zM606 823q0 27 -14.5 47t-37.5 33t-51 20t-54 7q-29 0 -61 -7t-58 -21q-34 -16 -60.5 -44
t-45 -63.5t-28.5 -76.5t-10 -85q0 -40 9.5 -68.5t25.5 -48.5q22 -29 57 -42t72 -13q33 0 64 25.5t58 63.5t50 83t39.5 83.5t26 64l9.5 25.5q5 13 9 17z" />
    <glyph glyph-name="colon" unicode=":" horiz-adv-x="296" 
d="M149 193q18 0 34 -7t27.5 -19.5t18.5 -29.5t7 -36t-7 -35.5t-18.5 -29t-27.5 -19.5t-34 -7t-34.5 7t-28.5 19.5t-19 29t-7 35.5t7 36t19 29.5t28.5 19.5t34.5 7zM149 437q18 0 34 -7.5t27.5 -20t18.5 -29.5t7 -36t-7 -35.5t-18.5 -29t-27.5 -19.5t-34 -7q-37 0 -63 26.5
t-26 64.5q0 19 7 36t19 29.5t28.5 20t34.5 7.5z" />
    <glyph glyph-name="semicolon" unicode=";" horiz-adv-x="311" 
d="M160 399q-17 0 -32.5 7t-27 19t-18 28.5t-6.5 35.5q0 18 6.5 34t18 27.5t27 18.5t32.5 7q18 0 33.5 -7t27 -18.5t18.5 -27.5t7 -34q0 -38 -25.5 -64t-60.5 -26zM150 178q-33 -3 -53.5 9t-30 31t-8.5 42t12.5 42.5t32.5 32t51 10.5q27 -2 52.5 -17t37.5 -45t5 -76
t-46 -110q-8 -13 -10 -28.5t-5 -28.5t-11.5 -21.5t-27.5 -8.5q-23 0 -32.5 10t-10.5 26t4.5 36t13.5 38.5t15.5 34t10.5 23.5z" />
    <glyph glyph-name="semicolon" unicode="&#x37e;" horiz-adv-x="311" 
d="M160 399q-17 0 -32.5 7t-27 19t-18 28.5t-6.5 35.5q0 18 6.5 34t18 27.5t27 18.5t32.5 7q18 0 33.5 -7t27 -18.5t18.5 -27.5t7 -34q0 -38 -25.5 -64t-60.5 -26zM150 178q-33 -3 -53.5 9t-30 31t-8.5 42t12.5 42.5t32.5 32t51 10.5q27 -2 52.5 -17t37.5 -45t5 -76
t-46 -110q-8 -13 -10 -28.5t-5 -28.5t-11.5 -21.5t-27.5 -8.5q-23 0 -32.5 10t-10.5 26t4.5 36t13.5 38.5t15.5 34t10.5 23.5z" />
    <glyph glyph-name="less" unicode="&#x3c;" horiz-adv-x="942" 
d="M809 751q30 10 59.5 -4t40.5 -45q10 -30 -4 -59.5t-45 -40.5l-28.5 -10.5t-73.5 -27t-102.5 -37.5t-117 -44t-116.5 -45.5t-102 -41.5t-72 -32t-27 -17q0 -3 25.5 -13t67 -24t94.5 -30.5t108.5 -33t109 -32.5t95 -28t68 -19l26.5 -7q31 -9 47 -37t8 -60q-9 -32 -37 -48
t-59 -8l-32 9t-84.5 24.5t-119.5 37t-136.5 47t-136.5 53t-119 56t-84.5 57t-32.5 54.5q-1 26 32.5 56.5t88 64t124.5 68t143 66t143.5 59t125.5 48.5t89 32.5z" />
    <glyph glyph-name="equal" unicode="=" horiz-adv-x="667" 
d="M108 395q-33 -1 -56.5 22.5t-22.5 55.5q-1 33 22 56t56 24l452 2q32 2 55 -21.5t25 -56.5q0 -32 -23 -55t-55 -24zM108 178q-33 -1 -56.5 22t-22.5 56q-1 32 22 55t56 24l452 3q32 1 55 -22t25 -56q0 -32 -23 -55t-55 -25z" />
    <glyph glyph-name="greater" unicode="&#x3e;" horiz-adv-x="943" 
d="M133 16q-31 -11 -60 3.5t-39 45.5q-11 31 3 60.5t45 38.5l28.5 10.5t74.5 27t104.5 38t119.5 44.5t119 45t103.5 41t73.5 32t28 17q0 3 -26 13.5t-68.5 24.5t-96.5 30t-111 33t-111 33t-97 27.5t-69.5 19l-26.5 7.5q-31 9 -47.5 37.5t-7.5 59.5t36.5 47.5t59.5 7.5l32 -9
t84.5 -24t119.5 -36.5t136 -47t136.5 -53t119.5 -56t84 -57t34 -54.5q0 -25 -33.5 -56.5t-88 -64.5t-124.5 -66.5t-143 -66t-143.5 -60t-125.5 -48t-89 -32.5z" />
    <glyph glyph-name="question" unicode="?" horiz-adv-x="706" 
d="M194 745q14 -13 21.5 -29t7.5 -35q0 -25 -17 -48q-23 -29 -62 -29q-27 0 -49 16q-32 27 -49.5 71t-17.5 98q0 51 17.5 102.5t50.5 94.5q38 48 100 79t151 31q86 0 160 -34.5t117 -99.5q28 -44 41 -96.5t13 -109.5q0 -88 -27.5 -156t-73 -124.5t-104.5 -102.5t-123 -90
q16 -16 20 -38.5t-5 -45.5q-12 -30 -42 -42.5t-61 0.5q-52 22 -76 49t-24 60q0 12 3 24.5t8 25.5q16 37 52 67.5t84 63.5q47 33 85.5 64.5t66.5 67t43.5 79t15.5 98.5q0 36 -6 66.5t-22 53.5q-22 34 -61 48t-84 14q-47 0 -78.5 -14.5t-50.5 -36.5q-32 -43 -32 -98
q0 -39 8 -44zM219 -75q-32 3 -52.5 28.5t-16.5 57.5q3 33 28.5 53.5t58.5 16.5l45 -6q32 -3 52.5 -28.5t15.5 -57.5q-1 -16 -9 -29.5t-19.5 -23t-26.5 -14.5t-32 -2z" />
    <glyph glyph-name="at" unicode="@" horiz-adv-x="996" 
d="M680 201q-37 0 -60.5 22.5t-25.5 65.5q-37 -50 -75.5 -72.5t-92.5 -16.5q-53 4 -90.5 27.5t-59.5 59.5t-32.5 80.5t-10.5 92.5q0 63 24 120t65 98.5t99 66t126 24.5q56 0 86.5 -21.5t48.5 -58.5q3 12 4 12q4 11 12.5 16t19.5 5q17 0 33.5 -12t12.5 -31q0 -2 -10.5 -32
t-25 -74.5t-30 -94.5t-24.5 -93t-9.5 -72.5t13.5 -29.5t25.5 4.5t24.5 11.5q30 17 55 48.5t43 70t27 83t9 88.5q0 59 -16.5 105.5t-47.5 81.5q-23 24 -54 42.5t-66 30t-73 16.5t-73 5q-82 0 -154 -29.5t-125.5 -82t-85 -126t-33.5 -157.5q-1 -64 22 -133.5t65 -126.5
t100.5 -93t129.5 -36q46 0 98.5 9.5t101.5 25t88.5 35.5t61.5 41q12 12 29 11t28 -13q12 -14 11.5 -30.5t-13.5 -29.5q-26 -23 -72 -46.5t-103 -42.5t-117.5 -31t-113.5 -12q-87 0 -161.5 43t-127.5 112t-82 152t-28 166q1 102 40 189t104.5 151.5t152 100.5t184.5 36
q44 0 89.5 -7.5t89 -21.5t81 -37.5t66.5 -54.5q42 -45 65 -105t23 -138q0 -63 -15 -124t-44.5 -112.5t-70.5 -89.5t-90 -54q-24 -8 -46 -8zM641 556q-14 3 -24.5 15t-7.5 26q1 26 -1.5 44t-11 29t-26.5 14.5t-52 1.5q-46 -5 -83.5 -25t-64 -51.5t-40.5 -70t-14 -79.5
q0 -32 4.5 -62t17 -54.5t35 -40.5t58.5 -21q38 -5 69.5 20t58 66t47.5 92t35 96z" />
    <glyph glyph-name="A" unicode="A" horiz-adv-x="806" 
d="M183 -79q-12 -32 -41 -46t-60 -3q-31 10 -45 39t-5 60l12 34.5t33 92t49.5 133.5t61.5 161q-28 7 -45.5 30t-15.5 52q3 33 28 54t57 19l38 -3q43 103 88 199.5t88.5 172.5t82.5 122.5t71 46.5q24 0 42.5 -24t33 -64.5t25 -96t18.5 -119.5t13.5 -134.5t7.5 -140.5
q27 -8 43 -31t14 -53q-2 -24 -16 -42.5t-37 -25.5q1 -38 1 -72v-68q0 -84 -1 -137t-1 -54q-1 -33 -24.5 -55.5t-56.5 -21.5q-32 1 -55 24.5t-22 56.5l0.5 27t2.5 72.5t3.5 105t2.5 127.5l-230 19q-32 -88 -61 -170.5t-52 -145.5t-35.5 -102zM554 881q-9 0 -23 -25t-33 -70.5
t-43.5 -109.5t-53.5 -143l178 -15q0 14 0.5 27.5t0.5 25.5q0 69 -3.5 126t-7.5 98t-8 63.5t-7 22.5z" />
    <glyph glyph-name="B" unicode="B" horiz-adv-x="845" 
d="M159 868q-31 -6 -58 10t-36 48q-8 32 8.5 59.5t48.5 36.5q36 9 77 18.5t85 16.5t89 12t89 5q23 0 43.5 -2t40.5 -4q57 -7 104 -24.5t82 -48.5t54.5 -76t19.5 -108q0 -16 -1.5 -33.5t-3.5 -36.5q-10 -63 -32 -109t-54 -79q45 -32 73 -80.5t28 -124.5q0 -16 -1.5 -31.5
t-3.5 -32.5q-18 -110 -80.5 -184t-164.5 -115q-57 -22 -121.5 -33.5t-134.5 -11.5q-32 0 -63.5 2.5t-63.5 6.5q-51 7 -94 19q-32 7 -49 34t-10 60q6 22 20 36.5t34 19.5zM239 101q37 -3 73 -3q110 0 195 34q55 23 93.5 60.5t50.5 92.5q7 24 7 45q0 53 -35 83.5t-87 39.5
q-36 -9 -70.5 -12.5t-65.5 -3.5q-47 0 -80.5 4.5t-44.5 6.5q-9 -86 -15 -144.5t-10.5 -96.5t-6.5 -59.5t-3 -31.5t-1 -13v-2zM290 607q23 3 62.5 7.5t89.5 4.5q19 0 39.5 -1t42.5 -3q44 17 77.5 52t44.5 99q5 36 -2 62t-23.5 43.5t-41 27.5t-53.5 13q-27 4 -57 4
q-37 0 -74.5 -4t-74.5 -10z" />
    <glyph glyph-name="C" unicode="C" horiz-adv-x="920" 
d="M842 702q-12 -19 -30 -29t-38 -10q-23 0 -41 12q-19 11 -28.5 29.5t-9.5 39.5t11 40q12 19 19.5 37t7.5 34q0 26 -28 43q-46 29 -141 27q-39 0 -73 -7t-70 -24q-83 -38 -144 -123.5t-81 -222.5q-6 -36 -8.5 -70t-2.5 -65q0 -66 11 -117.5t33 -90.5q53 -97 164 -114
q23 -3 48 -3q64 0 138.5 22t156.5 65q18 10 38 10q21 0 39.5 -11t30.5 -30q9 -18 9 -37q0 -21 -11 -40t-31 -30q-100 -53 -193.5 -80t-178.5 -27q-18 0 -35.5 1.5t-33.5 4.5q-92 13 -164 62t-116 133q-29 56 -45.5 126.5t-16.5 157.5q0 35 3.5 74.5t9.5 81.5q13 90 42 164
t70 132t92 100.5t110 69.5q47 22 100 34t105 11q71 3 128 -10t100 -39q47 -27 74 -72t29 -99q2 -75 -49 -160z" />
    <glyph glyph-name="D" unicode="D" horiz-adv-x="976" 
d="M210 861q-16 -8 -35 -8q-22 0 -41 11.5t-29 33.5q-4 9 -6 16.5t-2 17.5q0 22 11.5 41t33.5 30q81 38 159.5 56.5t152.5 18.5q31 0 61 -3q100 -9 180 -51t136.5 -109.5t86 -153.5t29.5 -182q0 -30 -3 -60q-12 -116 -38.5 -204t-64 -153t-86.5 -109.5t-108 -71.5
q-58 -26 -121.5 -37.5t-134.5 -11.5q-69 0 -143.5 8.5t-152.5 20.5q-33 7 -52 32.5t-14 58.5q6 33 32 52t58 13q9 -2 13 -2l84 749zM288 95q26 -3 51.5 -4t50.5 -1q55 0 103 7.5t88 26.5t73.5 51t60 82t44.5 119t29 160q2 12 2 24v25q0 65 -20 123.5t-57 103t-91 73.5
t-123 34q-10 1 -20 1.5t-22 0.5q-20 0 -40 -1.5t-43 -5.5q6 -14 3 -31z" />
    <glyph glyph-name="E" unicode="E" horiz-adv-x="932" 
d="M146 882q-32 -3 -55.5 20t-26.5 56q-2 32 20.5 55.5t55.5 25.5l71 4l4 16q8 33 35.5 49t60.5 8q23 -7 38.5 -24.5t19.5 -40.5l450 24q32 2 57 -20.5t26 -55.5q3 -33 -19.5 -56.5t-55.5 -25.5l-493 -26q-12 -53 -28 -118.5t-31 -137.5l346 21q33 2 58 -20t26 -55
q1 -17 -4.5 -31.5t-15.5 -25.5t-24 -18t-30 -8l-391 -23q-19 -95 -32 -178t-13 -130q0 -23 3 -35q7 -16 37.5 -24t77.5 -10q41 -1 87.5 3.5t95 14t97 23.5t92.5 32q30 13 60 0.5t43 -43.5q12 -29 -0.5 -59.5t-42.5 -42.5q-51 -22 -108 -38.5t-114.5 -28t-113 -16.5
t-103.5 -3q-92 5 -159.5 37t-93.5 95q-1 3 -2 6.5t-3 6.5v2q-3 11 -4 26t-1 34q0 58 11 143.5t30 182.5q-23 8 -38 26t-17 44q-2 33 20.5 57t55.5 26h9q14 71 29 136t28 121z" />
    <glyph glyph-name="F" unicode="F" horiz-adv-x="906" 
d="M125 881q-33 -2 -56.5 21t-24.5 56q-1 32 21.5 55.5t53.5 24.5l33 1l1 14q4 33 29 53t58 16q31 -3 50.5 -25t19.5 -51l485 17q16 1 30.5 -4.5t26 -16t18 -24.5t6.5 -30q1 -17 -4.5 -31.5t-16 -25.5t-24.5 -17.5t-30 -7.5l-510 -19l-29 -233l297 10q32 1 56 -21.5
t25 -54.5q1 -33 -21.5 -56.5t-55.5 -24.5l-320 -11l-57 -477q-4 -33 -29.5 -52.5t-58.5 -16.5q-33 5 -52.5 30t-16.5 58l57 459q-23 9 -37 27.5t-15 43.5q-2 31 18.5 54.5t50.5 26.5l29 232h-7z" />
    <glyph glyph-name="G" unicode="G" horiz-adv-x="1153" 
d="M601 364q-33 1 -56 25t-21 56t25.5 54.5t56.5 21.5q77 -3 144 -3q65 0 117.5 2t91.5 5q45 4 79 6q33 2 58.5 -18.5t27.5 -52.5q3 -33 -17 -58t-53 -28q-1 0 -41 -3.5t-107 -6.5q-6 -31 -14.5 -75t-18.5 -97t-21.5 -114.5t-23.5 -127.5q-6 -33 -32.5 -50.5t-59.5 -12.5
q-25 5 -43 24t-20 45q-45 -25 -93.5 -38t-103.5 -13q-141 -2 -236 39.5t-150 133.5q-61 105 -61 271q0 53 6 110.5t17 124.5q15 81 37.5 145t53 115t69.5 92.5t86 77.5q40 29 82 48t81.5 30.5t75.5 16t66 4.5q59 0 120 -10t113 -42q52 -30 83.5 -81.5t31.5 -131.5
q0 -24 -4 -50q-4 -33 -29.5 -53.5t-57.5 -15.5q-33 4 -53 29.5t-16 58.5q5 46 -5.5 72t-30.5 38q-30 17 -70.5 22.5t-81.5 5.5q-42 0 -100 -14t-115 -55q-34 -27 -62 -57.5t-51 -69.5t-40 -89t-28 -113q-11 -61 -16 -113.5t-5 -97.5q0 -122 40 -187q59 -99 247 -96
q39 0 70 8.5t62 27.5q34 20 57 48t38 57.5t22.5 57t8.5 47.5q0 9 2.5 17.5t7.5 17.5l4 16q-68 0 -144 4z" />
    <glyph glyph-name="H" unicode="H" horiz-adv-x="875" 
d="M689 1035q4 33 29.5 53.5t57.5 17.5q33 -3 53 -28.5t17 -58.5l-46 -437q29 -22 31 -60q0 -24 -12.5 -43.5t-31.5 -30.5l-49 -464q-4 -32 -29 -52.5t-58 -17.5t-53 28.5t-17 57.5l45 437l-394 -12l-46 -445q-3 -33 -28.5 -53.5t-58.5 -16.5q-32 2 -52.5 27.5t-17.5 58.5
l46 434q-18 11 -29 28t-12 40q-2 27 14 48.5t42 29.5l47 450q4 33 29 53t58 17t53.5 -28.5t16.5 -58.5l-45 -425l394 12z" />
    <glyph glyph-name="I" unicode="I" horiz-adv-x="761" 
d="M111 -54q-33 -1 -57 21.5t-25 55.5q-2 32 20.5 55.5t55.5 24.5l142 5l96 791l-136 -1q-33 -1 -56.5 22t-23.5 56q0 32 23 55t56 23l193 3q21 8 44 7q14 -2 23 -6l188 2q33 0 56 -22.5t23 -55.5t-22.5 -56.5t-54.5 -23.5l-154 -2l-97 -786l119 4q17 1 31.5 -4.5t25 -16
t17.5 -25t7 -29.5q2 -33 -20.5 -57.5t-54.5 -25.5l-165 -5q-25 -22 -60 -18q-22 3 -38 15z" />
    <glyph glyph-name="J" unicode="J" horiz-adv-x="920" 
d="M448 905q-32 0 -55 23t-23 55q0 33 23 55.5t55 22.5h239q11 8 24 12.5t29 3.5q22 -1 42 -16h31q33 0 56 -22.5t23 -55.5q0 -32 -23 -55t-56 -23h-7q-3 -45 -8 -108.5t-11.5 -134.5t-13 -145t-14.5 -142.5t-16 -126t-15 -93.5q-16 -71 -67.5 -128t-123.5 -92
q-58 -31 -128 -41q-16 -2 -30.5 -4t-30.5 -2q-36 0 -77 10q-72 14 -133.5 58t-100.5 125q-8 16 -8 34q0 22 12 41t32 30q16 8 35 8q23 0 42 -11.5t29 -32.5q22 -43 54 -67.5t69 -31.5q19 -5 44 -5q19 0 39 4q43 6 84 25q40 21 68.5 49.5t35.5 61.5q8 33 15.5 87t14 118
t13.5 135t13 139.5t11.5 131t8.5 108.5h-201z" />
    <glyph glyph-name="K" unicode="K" horiz-adv-x="899" 
d="M153 993q8 32 36 49t60 8q31 -9 48 -36.5t8 -59.5l-6 -26.5t-16 -70.5t-23 -102t-26 -122t-26 -130.5t-23 -127.5t-16 -111.5t-6 -84.5q0 -23 3.5 -37t11.5 -14q18 0 51 38.5t74.5 100.5t88 142t93 163.5t89 163.5t74.5 142.5t52 100.5t20 39q10 20 29 32t42 12
q18 0 33 -8q22 -10 34 -29t12 -42q0 -18 -8 -34q0 -1 -21 -42.5t-56.5 -109.5t-83 -155.5t-100.5 -179.5q0 -2 1 -2l176 -395q7 -17 7 -33q0 -22 -12 -41.5t-34 -30.5q-15 -6 -32 -6q-22 0 -41.5 11.5t-30.5 34.5l-135 300q-47 -72 -95 -137t-93 -114t-86.5 -77t-75.5 -28
t-57.5 20t-37.5 56t-20.5 85.5t-6.5 106.5q0 77 9 165t23 175t30 166.5t30 140t23.5 97.5z" />
    <glyph glyph-name="L" unicode="L" horiz-adv-x="764" 
d="M151 1006q9 31 36.5 48t59.5 8q32 -8 48.5 -35.5t8.5 -59.5l-5 -26t-12.5 -70t-17.5 -102t-20.5 -123.5t-21 -133t-17.5 -131t-12 -118.5t-5 -93q0 -31 3 -49.5t12 -20.5q33 -5 67.5 -8t68.5 -3q57 0 110.5 5.5t94.5 13t66 13.5l25 6q32 7 59.5 -10.5t33.5 -48.5
q7 -33 -10.5 -60t-48.5 -35l-33.5 -7t-87 -14.5t-122.5 -14.5t-141 -7q-42 0 -84 3t-81 11h-1q-27 4 -45 26t-29.5 56.5t-16.5 80t-5 98.5q0 79 9 168.5t22.5 178.5t30 170.5t30 145t22.5 101z" />
    <glyph glyph-name="M" unicode="M" horiz-adv-x="1063" 
d="M187 998q-3 33 16.5 58.5t52.5 29.5q17 2 32 -2.5t27 -14t20 -23t9 -29.5q3 -13 4.5 -23.5t-0.5 -20.5q5 -37 14 -97t21 -130t27 -140.5t32 -127t34.5 -92t36.5 -33.5h1q12 0 35 30t51.5 78t60.5 109.5t63.5 125.5t60 125.5t50.5 110t35 78l13 29.5q9 21 27 30t38 9
q17 0 33 -5t28.5 -15t19.5 -24.5t5 -31.5l-83 -1001q-3 -32 -28 -53.5t-58 -18.5q-17 1 -30.5 8.5t-23 19.5t-14.5 26.5t-4 30.5l49 583q-40 -73 -82.5 -144.5t-85 -128t-81.5 -92t-72 -37.5q-41 -2 -77 26.5t-66.5 78.5t-56 115.5t-45.5 136.5l-90 -524q-6 -32 -32.5 -51
t-58.5 -13q-33 6 -51.5 32.5t-13.5 58.5l159 924q-2 11 -2 13v6z" />
    <glyph glyph-name="N" unicode="N" horiz-adv-x="906" 
d="M230 1051q32 -3 52.5 -28.5t16.5 -58.5l-8 -52q14 -48 38 -123t52.5 -159.5t59.5 -169.5t60.5 -153t54 -111t40.5 -43q12 0 24.5 37t23 96t21 135t18 155.5t14.5 155t11.5 136t7.5 97.5l3 37q1 32 25 54.5t57 20.5t54.5 -26.5t20.5 -57.5l-2.5 -45.5t-8.5 -119t-16 -168
t-24.5 -192.5t-33.5 -192t-43.5 -168t-55.5 -119t-68 -45q-45 0 -93.5 50t-97.5 133t-96.5 190.5t-88.5 222.5l-62 -527q-4 -33 -29.5 -53t-58.5 -16t-53 29.5t-16 57.5l103 870q-2 6 -4 12.5t-4 16.5q-6 22 1.5 43t24.5 35q11 23 32.5 34.5t47.5 8.5z" />
    <glyph glyph-name="O" unicode="O" horiz-adv-x="1027" 
d="M153 824q20 31 57 37q27 59 61.5 102t81 71t105.5 41.5t135 13.5q10 0 17.5 -0.5t17.5 -0.5q104 -6 182.5 -55.5t124.5 -134.5q36 -67 51.5 -146.5t11.5 -167.5q-4 -68 -16 -138.5t-34 -137.5t-53 -127.5t-73 -107.5q-68 -76 -167.5 -119t-238.5 -39q-60 1 -112.5 20
t-96.5 51t-77.5 76.5t-56.5 99.5q-25 57 -35.5 122t-8.5 135q2 101 33.5 205.5t90.5 199.5zM254 680q-32 -65 -48.5 -132.5t-18.5 -132.5q-2 -55 6 -103.5t25 -89.5q27 -67 77.5 -107t124.5 -42q101 -3 170 25t114 79q30 34 55 83t42.5 104t27.5 113t11 112q3 68 -7.5 127.5
t-36.5 106.5q-25 49 -70.5 78.5t-104.5 29.5q-63 0 -111.5 -7.5t-83 -28.5t-55 -56.5t-28.5 -91.5q-5 -33 -31 -52.5t-58 -14.5z" />
    <glyph glyph-name="P" unicode="P" horiz-adv-x="892" 
d="M117 907q-32 -4 -57.5 16.5t-30.5 53.5q-3 32 17.5 57.5t52.5 28.5q71 9 142 14t140 5q64 0 122.5 -5.5t110.5 -18.5q56 -15 101.5 -38t78.5 -58t51 -81t18 -106q0 -42 -8 -85q-16 -84 -47 -145.5t-71.5 -103.5t-87 -67.5t-94.5 -39.5t-93 -18.5t-82 -4.5q-23 0 -42 1
t-32 2q-6 2 -13 2t-13 3l-35 -314q-4 -32 -29 -52.5t-57 -15.5q-33 3 -53.5 28.5t-16.5 58.5l98 882q0 2 0.5 4t0.5 5q-18 -3 -35.5 -4.5t-35.5 -3.5zM298 473l20 -1q9 -1 23 -1.5t31 -0.5q39 0 89.5 8t98.5 33.5t87 74.5t54 133q2 11 3 21t1 20q0 61 -36 95.5t-95 50.5
q-42 11 -92 15t-104 4h-40q8 -18 6 -37z" />
    <glyph glyph-name="Q" unicode="Q" horiz-adv-x="1063" 
d="M125 757q8 17 22 28t31 16q9 56 32.5 103.5t65.5 86.5q51 47 133.5 75.5t179.5 28.5h18q10 0 21 -1q50 0 96.5 -14.5t86 -39.5t71.5 -60t54 -75q33 -61 48 -132.5t15 -151.5q0 -8 -0.5 -15.5t-0.5 -16.5q-1 -56 -11 -115.5t-26.5 -117t-38.5 -112t-49 -98.5l123 -73
q19 -11 28.5 -29t9.5 -39q0 -22 -11 -40q-12 -19 -29.5 -28.5t-38.5 -9.5q-22 0 -40 11l-148 89q-65 -54 -151 -82t-200 -24q-113 5 -201.5 57.5t-136.5 152.5q-26 54 -38.5 117.5t-10.5 134.5q2 87 26.5 181.5t69.5 192.5zM506 185q-19 11 -28.5 29t-9.5 38q0 23 11 41
q11 19 29 28t37 9q10 0 21.5 -3t20.5 -8l151 -91q22 34 40 78.5t31.5 93t21.5 98.5t9 98q3 67 -7.5 127t-34.5 106q-26 47 -72 77.5t-105 30.5q-89 0 -148.5 -17t-89.5 -44q-26 -26 -39 -61.5t-15 -79.5v-23q0 -18 -7 -34t-19 -26.5t-27.5 -16t-33.5 -3.5q-52 -136 -55 -254
q-3 -106 31 -179q30 -60 82.5 -88.5t119.5 -30.5q61 -2 109.5 8t87.5 29z" />
    <glyph glyph-name="R" unicode="R" horiz-adv-x="930" 
d="M196 889v1q-19 -2 -37.5 -5.5t-38.5 -7.5q-32 -5 -58.5 13t-32.5 51q-5 32 13.5 58.5t51.5 32.5q99 18 191.5 28.5t177.5 10.5q107 0 189 -20q58 -14 103.5 -38t77.5 -59t49.5 -81.5t17.5 -106.5q0 -18 -1 -36.5t-5 -38.5q-18 -105 -77 -182.5t-147 -116.5
q-18 -8 -35.5 -14t-36.5 -11q56 -78 113.5 -158.5t131.5 -155.5q22 -23 22 -55t-23 -55t-55 -23t-56 24q-48 49 -90 101.5t-80.5 105t-75.5 104t-77 100.5q-30 1 -58 7.5t-54 22.5l-41 -366q-5 -33 -30.5 -53t-57.5 -17q-32 5 -52.5 30t-16.5 58zM313 533q31 19 63 19
q25 0 49 -11t50 -32q34 0 67.5 6t63.5 21q54 24 87.5 69t45.5 109q4 20 4 38q0 63 -34.5 97t-93.5 49q-68 17 -156 17q-27 0 -54.5 -2t-56.5 -4q7 -16 5 -37z" />
    <glyph glyph-name="S" unicode="S" horiz-adv-x="923" 
d="M876 744q-12 -31 -42 -44t-60 0q-30 12 -42.5 42t-1.5 59q8 19 8 38q0 26 -16 43.5t-39.5 28t-52 15.5t-56.5 5q-64 1 -115 -5.5t-90 -26.5t-65.5 -57.5t-40.5 -100.5q-6 -30 11 -53t50 -40.5t76.5 -32t88.5 -28.5q65 -21 127.5 -43t111.5 -53t79 -76t30 -112
q0 -38 -13 -88q-21 -85 -64 -142t-101 -91t-127 -47.5t-141 -9.5q-56 2 -110 20.5t-101.5 49t-85 69.5t-57.5 83q-8 16 -8 35q0 22 12 41t33 29q17 7 33 7q23 0 42.5 -11t29.5 -33q12 -27 35.5 -50t52.5 -40.5t62 -28.5t68 -14q8 -1 17 -1h16q42 0 80 8t70 28t55.5 53.5
t37.5 84.5q10 38 -7 65.5t-50.5 48.5t-79 36.5t-93.5 30.5q-65 20 -125.5 41.5t-108.5 52t-77 73.5t-29 107q0 29 8 63q19 92 60.5 153.5t102 97.5t138 50.5t166.5 12.5q84 -1 159.5 -29t119.5 -95q19 -29 28 -61t9 -65q0 -49 -18 -93z" />
    <glyph glyph-name="T" unicode="T" horiz-adv-x="964" 
d="M108 865q-33 0 -56 23t-24 56q0 33 23 56t56 24l749 4q33 0 56 -23t23 -56q1 -32 -22 -55t-56 -23l-316 -3l-94 -872q-3 -33 -28.5 -53.5t-58.5 -16.5q-32 3 -52.5 28t-17.5 57l94 856z" />
    <glyph glyph-name="U" unicode="U" horiz-adv-x="967" 
d="M159 1016q10 32 39 47t60 5t46 -39t5 -60l-9.5 -33t-23.5 -87.5t-30 -125t-30 -145.5t-23 -149.5t-9 -139.5q0 -40 4.5 -74.5t14.5 -59t27 -39.5t42 -15q78 -1 141.5 25t114 71.5t87.5 106.5t63.5 129t43 139.5t24.5 138.5l36 292q3 27 25 39.5t49 12.5q16 0 31 -3.5
t27 -12t18.5 -21t5.5 -28.5l-118 -967q-4 -33 -29.5 -53.5t-58.5 -15.5q-32 4 -52.5 29.5t-16.5 58.5l14 110q-37 -46 -82.5 -85t-98 -66.5t-114.5 -42.5t-134 -14q-63 1 -105 29.5t-67 77t-36 114t-11 138.5q0 78 9.5 160.5t23.5 162t31.5 150t32 124t24 85z" />
    <glyph glyph-name="V" unicode="V" horiz-adv-x="850" 
d="M28 973q0 33 22.5 56.5t55.5 23.5q33 1 56.5 -22t23.5 -55l1.5 -38t5.5 -98.5t9.5 -138t12.5 -158t15 -158.5t17.5 -138t19.5 -97t21 -37q24 0 53.5 40t60 105t62.5 148.5t61 170.5t55 170.5t45 149t30.5 106l11.5 40.5q8 33 35.5 49t59.5 9q32 -8 49 -36t9 -60
q0 -1 -12.5 -48t-35 -123.5t-54 -174.5t-70.5 -200t-84.5 -200t-94.5 -174t-102 -123t-107 -47q-41 0 -72 46t-55 120t-41.5 169t-28.5 194t-18.5 193.5t-11 169.5t-4.5 120.5z" />
    <glyph glyph-name="W" unicode="W" horiz-adv-x="1237" 
d="M30 976q0 32 23 55t56 23t56 -23t23 -55v-140t1 -172t3.5 -178t6.5 -158.5t9.5 -114.5t13.5 -45q15 0 41 38t58.5 99.5t67.5 137t65 149.5q8 20 15 38.5t13 34.5q0 10 -0.5 18t-0.5 18q0 12 0.5 21.5t1.5 18.5q5 53 28 81.5t66 28.5q72 0 85 -72q2 -10 1.5 -26.5t-3 -34
t-7.5 -37t-11 -35.5q2 -31 5.5 -66.5t9.5 -69.5q8 -55 20 -116t25 -110.5t24.5 -82t18.5 -32.5q10 0 20 24t26 59q29 61 58.5 137t58.5 156.5t54 161t44 148t31 120.5t13 79q2 33 27 54.5t57 18.5q33 -2 54.5 -26t18.5 -57q-2 -33 -17 -103.5t-40 -162t-58 -195
t-71.5 -202.5t-79.5 -185.5t-82 -142.5q-27 -37 -56.5 -57.5t-62.5 -20.5q-35 0 -67.5 33.5t-60 88t-50 125.5t-38.5 145q-39 -77 -84 -150.5t-89 -131t-84 -92.5t-73 -33q-37 3 -64 35t-45 86t-29.5 125t-17.5 151.5t-8 165.5t-2 166q0 82 1 155.5t1 131.5z" />
    <glyph glyph-name="X" unicode="X" horiz-adv-x="915" 
d="M750 1074q24 24 57 24q32 0 55 -21q12 -12 18.5 -26.5t6.5 -30.5q0 -14 -5.5 -28t-16.5 -26q-25 -25 -61 -72t-78.5 -108t-91 -132.5t-98.5 -145.5q50 -91 96 -176t81.5 -150.5t57.5 -105l22 -39.5q9 -17 9 -37q0 -21 -11 -39.5t-30 -29.5q-17 -10 -38 -10t-40 11.5
t-29 30.5l-18 32t-47 86.5t-68.5 126t-82.5 151.5q-54 -82 -102 -156.5t-84 -130.5t-57.5 -90l-21.5 -34q-11 -18 -28.5 -27.5t-36.5 -9.5q-21 0 -43 13q-18 12 -27 30t-9 37q0 23 12 40l25.5 41.5t69 108.5t99.5 154t118 181q-39 71 -75.5 139t-68.5 128.5t-57 108
t-40 78.5q-10 18 -10 36q0 21 11.5 39.5t31.5 30.5q16 7 35 7q23 0 42 -11t29 -31q14 -27 35 -67t47 -89t56.5 -105t62.5 -116q45 68 89 131.5t82.5 116.5t71 95t55.5 67z" />
    <glyph glyph-name="Y" unicode="Y" horiz-adv-x="874" 
d="M137 1078q13 15 29 22t32 7q29 0 50 -18q14 -12 21.5 -27.5t7.5 -33.5q0 -28 -18 -49q-16 -20 -29.5 -48.5t-23 -62t-15 -71.5t-5.5 -76q0 -42 8 -82.5t26.5 -72t50 -50.5t79.5 -19q94 6 158 47t103.5 104.5t57.5 143t18 162.5v24t-1 25q-2 32 18.5 57t53.5 27
t58.5 -18.5t27.5 -53.5q1 -12 1 -25v-24q0 -104 -23 -206t-73.5 -187t-128 -145.5t-187.5 -82.5l-59 -364q-5 -33 -31.5 -52t-58.5 -14q-33 6 -52 32t-14 58l57 342q-65 12 -112.5 50t-77 89.5t-43.5 112.5t-14 122q0 51 8 102t22.5 97.5t35 87.5t43.5 70z" />
    <glyph glyph-name="Z" unicode="Z" horiz-adv-x="889" 
d="M178 866q-33 0 -56.5 22.5t-23.5 55.5q-1 33 22 56.5t54 24.5l608 9q17 0 31.5 -7t25 -18t16.5 -25.5t6 -30.5q0 -30 -21 -52l-28 -30.5t-73.5 -80.5t-103.5 -115.5t-119 -135.5t-119 -140.5t-103.5 -131t-73 -105.5t-27.5 -65q0 -6 11.5 -9.5t31 -6.5t43.5 -4.5t49 -1.5
h29q15 0 27 1q47 3 92.5 8t85.5 13.5t69 19t43 23.5q24 22 54 22q32 0 57 -25q22 -24 22 -53q0 -33 -24 -58q-24 -23 -66.5 -41.5t-95.5 -32.5t-112.5 -22.5t-117.5 -10.5q-13 -2 -29 -2h-31q-48 0 -104 6t-102 24t-74 50t-22 87q5 39 36 97.5t78 128.5t106.5 146.5
t121 150.5t121.5 143t109 123z" />
    <glyph glyph-name="bracketleft" unicode="[" horiz-adv-x="505" 
d="M398 1169q32 0 55 -23t23 -56q0 -32 -23 -55.5t-55 -23.5h-142q-16 -154 -24.5 -307t-16.5 -310q-5 -99 -10.5 -196.5t-11.5 -194.5l149 1q32 1 55 -22t23 -55q0 -33 -22.5 -56t-54.5 -24l-234 -3q-17 0 -31.5 7.5t-25.5 19.5t-17.5 27t-5.5 31q9 123 16 239.5t12 233.5
q10 171 20 343t29 353q1 14 8.5 26t18.5 22.5t24.5 16.5t27.5 6h213z" />
    <glyph glyph-name="backslash" unicode="\" horiz-adv-x="914" 
d="M51 966q-11 12 -16.5 26t-5.5 28q0 16 6.5 30.5t18.5 26.5q22 21 54 21q34 0 58 -24q14 -8 48 -51.5t81 -112t102.5 -155.5t114 -178t115.5 -181t106 -164.5t86.5 -127.5t55.5 -73q12 -17 12 -40q0 -19 -9.5 -37t-27.5 -30q-21 -13 -43 -13q-18 0 -35.5 9.5t-28.5 27.5z
" />
    <glyph glyph-name="bracketright" unicode="]" horiz-adv-x="505" 
d="M107 -156q-33 0 -56 23.5t-23 56.5q0 32 23 55t56 23h142q16 155 24.5 308t15.5 308q6 100 11 197t11 194l-148 -1q-32 -1 -55 22t-23 56t22.5 56.5t54.5 23.5l235 2q16 0 31 -7t25.5 -18.5t16.5 -27.5t5 -32q-9 -122 -15.5 -238.5t-12.5 -232.5q-9 -173 -19 -344.5
t-29 -353.5q-1 -13 -8.5 -25.5t-19 -22t-24.5 -16t-26 -6.5h-214z" />
    <glyph glyph-name="asciicircum" unicode="^" horiz-adv-x="549" 
d="M155 720q-23 -16 -48 -16q-38 0 -63 31q-8 11 -11.5 22.5t-3.5 24.5q0 18 7.5 34t23.5 29q52 39 86 65t56 42q25 19 39 30q18 15 47 15q16 0 31 -5t26 -15l13.5 -14t35 -34t47 -44t52.5 -48q28 -25 28 -59q0 -29 -20 -53q-24 -27 -58 -27q-29 0 -52 20q-30 26 -57.5 51.5
t-49.5 47.5q-23 -16 -54.5 -40.5t-74.5 -56.5z" />
    <glyph glyph-name="underscore" unicode="_" horiz-adv-x="839" 
d="M731 0q34 0 57 -23t22 -56q1 -33 -22 -56t-56 -23l-625 2q-33 0 -56 23.5t-23 56.5q0 32 23 55t56 23z" />
    <glyph glyph-name="grave" unicode="`" horiz-adv-x="470" 
d="M61 891q-16 11 -24.5 28t-8.5 36q0 26 15 45q12 16 28.5 24.5t35.5 8.5q12 0 24 -3.5t22 -11.5q50 -35 92 -64q18 -12 37 -23.5t34.5 -20.5t28 -14.5t17.5 -5.5q33 0 56.5 -23t23.5 -56t-23.5 -56t-56.5 -23q-20 0 -51 12t-64.5 29.5t-67 37.5t-59.5 38t-42.5 30z" />
    <glyph glyph-name="a" unicode="a" horiz-adv-x="787" 
d="M595 714q6 -4 10.5 -8t10.5 -10q20 21 56 21q16 0 32 -5.5t29 -14.5t19.5 -22t4.5 -29v-4q0 -1 -1 -3l-78 -605q-4 -33 -29.5 -53t-58.5 -15q-31 4 -51.5 29.5t-16.5 58.5l2 7q-43 -51 -95.5 -82.5t-115.5 -33.5q-61 0 -114.5 20t-96.5 73q-30 40 -50 94.5t-23 128.5
q-1 26 0 55t5 61h1q7 61 28 115.5t52.5 99.5t72.5 80t86 58q35 19 75 28.5t79 9.5q54 -3 94.5 -17.5t72.5 -36.5zM561 490q-21 10 -33.5 30.5t-10.5 45.5q0 11 -16 22q-13 10 -33.5 16t-39.5 6q-23 0 -43 -6t-41 -15q-58 -29 -101.5 -88t-52.5 -141q-4 -50 -3 -92
q4 -90 39 -131q15 -21 36.5 -28t43.5 -7q48 3 87 40t71 94t56 124.5t41 129.5z" />
    <glyph glyph-name="b" unicode="b" horiz-adv-x="746" 
d="M128 988q4 32 29 52.5t57 18.5q33 -4 53.5 -29t17.5 -58l-29 -274q32 24 71 37t87 13q76 0 133 -27.5t94.5 -75t57 -109.5t19.5 -132q0 -85 -24.5 -158.5t-66 -130.5t-98 -95t-120.5 -54q-48 -12 -91 -12q-35 0 -69 8t-64 24q-6 4 -11.5 7.5t-11.5 7.5q-21 -15 -53 -15
q-30 0 -55.5 16t-24.5 48l0.5 19.5t3 53t7.5 77.5t14 95zM205 221q26 -10 40 -35t9 -54q0 -2 6 -8q12 -6 26 -8.5t29 -2.5t29.5 2t27.5 4q42 11 76 36t59 63t39 85t14 101q0 38 -7.5 71.5t-24 59t-45 40.5t-69.5 15q-43 0 -76 -24.5t-57 -64t-40.5 -90.5t-26.5 -104z" />
    <glyph glyph-name="c" unicode="c" horiz-adv-x="739" 
d="M705 465q-5 -33 -31 -51.5t-59 -12.5q-33 5 -51.5 31.5t-12.5 58.5q2 24 -1 47t-16 39q-16 19 -44.5 27t-58.5 8q-27 0 -51 -5.5t-48 -18.5q-49 -25 -85.5 -80t-52.5 -147l-1 -1q-4 -15 -5 -31.5t-1 -33.5q0 -38 7.5 -74t21.5 -63q17 -31 43 -49t59 -20h1q23 -2 40 -0.5
t38 7.5q46 12 79.5 36.5t48.5 50.5q11 19 29.5 29t38.5 10q22 0 40 -10q19 -11 29.5 -30t10.5 -39q0 -19 -11 -38q-13 -25 -35.5 -49.5t-52 -45.5t-64.5 -38.5t-74 -27.5q-30 -7 -64.5 -11.5t-64.5 -1.5h-1q-75 6 -133 46t-94 104q-26 47 -38 100t-12 109q0 47 9 99
q24 132 82.5 215t138.5 125q81 40 172 40q65 0 125 -23.5t97 -66.5q57 -69 57 -161q0 -12 -1.5 -25.5t-3.5 -27.5z" />
    <glyph glyph-name="d" unicode="d" horiz-adv-x="805" 
d="M397 768q60 0 106 -17t82 -47l34 304q2 28 25 41t50 13q16 0 31 -4.5t27 -13t18.5 -20t5.5 -27.5l-1.5 -32.5t-7 -87t-14 -126.5t-22.5 -152l-64 -579q-4 -33 -29 -53t-58 -15q-29 2 -48.5 23.5t-21.5 50.5q-36 -36 -77 -56.5t-90 -19.5h-1q-70 -1 -132.5 26t-106.5 78
q-35 43 -55 104t-20 129q0 16 1 31t3 31q10 81 41.5 156.5t79.5 133.5t110.5 93.5t133.5 35.5zM343 108q39 0 71 29.5t58.5 80t47 117t34.5 138.5q-28 18 -37 51q-3 11 -6.5 21t-10.5 19q-13 22 -38.5 34t-64.5 12q-41 0 -76 -25t-62.5 -65.5t-45.5 -91t-24 -98.5
q-3 -20 -3 -42q0 -39 9.5 -74.5t28.5 -57.5q20 -25 51.5 -36.5t67.5 -11.5z" />
    <glyph glyph-name="e" unicode="e" horiz-adv-x="762" 
d="M186 277q2 -29 9.5 -61.5t23 -60t39.5 -44.5t57 -17q52 0 90 12t62 26.5t36 27l12 12.5q23 30 62 30q28 0 49 -17q30 -24 30 -62q0 -26 -17 -49l-20.5 -22t-60.5 -47.5t-100.5 -47t-142.5 -21.5q-73 0 -127 32.5t-89.5 84.5t-53 116.5t-17.5 129.5q0 54 11 113.5
t36 116.5t66 107t101 85q40 24 86.5 35.5t95.5 11.5q78 0 146.5 -29t108.5 -82q29 -39 42 -83.5t13 -92.5q0 -16 -1.5 -30.5t-3.5 -30.5q-10 -46 -48 -75.5t-91 -46t-116 -23t-125 -6.5h-34q-15 0 -31 2zM210 433q22 -2 42 -3t37 -2q13 -1 30 -1h38q34 0 72.5 1t70.5 4
t52.5 7t20.5 10q5 30 0.5 61t-20.5 53q-19 25 -55.5 36t-73.5 11q-29 0 -54.5 -5.5t-48.5 -18.5q-43 -26 -69 -68t-42 -85z" />
    <glyph glyph-name="f" unicode="f" horiz-adv-x="635" 
d="M107 540q-33 0 -56 23t-23 55q0 33 23 56t56 23h44q15 81 35 150t48.5 119.5t67 80t89.5 30.5q69 0 131.5 -22t101.5 -70q22 -29 30.5 -58.5t8.5 -61.5q0 -29 -6 -60q-9 -31 -37 -48t-60 -8q-31 9 -47.5 36.5t-7.5 60.5q2 10 1.5 21.5t-7.5 21.5q-17 19 -45.5 24.5
t-58.5 5.5q-30 -1 -51.5 -62t-37.5 -160h137q32 0 55 -23t23 -56q0 -32 -23 -55t-55 -23h-157q-8 -69 -13.5 -132.5t-10.5 -126.5t-10 -128t-12 -138q-3 -33 -28 -53t-57 -18q-33 3 -54 28t-17 57q4 51 9 117t10.5 135t12 136.5t12.5 122.5h-21z" />
    <glyph glyph-name="g" unicode="g" horiz-adv-x="766" 
d="M580 711q9 -6 18 -13t17 -14q17 6 37 6q17 0 33 -4.5t28 -13.5t19 -21t4 -30q-8 -72 -13 -146t-10 -147q-7 -99 -15 -192t-23.5 -173.5t-43 -147.5t-74.5 -114.5t-115.5 -74t-166.5 -26.5q-74 0 -122 13.5t-75.5 34.5t-38 47.5t-10.5 53.5q0 22 5.5 43.5t11.5 38.5
q8 20 17 36q11 19 30 29t39 10q21 0 39 -11q19 -11 29.5 -29.5t10.5 -38.5q0 -22 -12 -40q-3 -8 3 -15q5 -5 21.5 -9.5t51.5 -4.5q59 0 101 19.5t71 55.5t48 87t30 111q-39 -42 -86.5 -68.5t-105.5 -26.5q-71 0 -123.5 30t-88 78t-53 110t-17.5 126q0 87 24 172.5t68 154
t106 110.5t139 42q47 0 97.5 -10t94.5 -38zM551 464q-20 11 -31 32t-8 45q3 11 -2 21t-14 16q-21 13 -51.5 18.5t-56.5 5.5q-41 0 -73.5 -32t-56.5 -79t-37 -103.5t-13 -107.5q0 -32 6.5 -65t20.5 -60.5t38.5 -44t59.5 -16.5q44 0 78.5 35t61 90t45.5 120t33 125z" />
    <glyph glyph-name="h" unicode="h" horiz-adv-x="662" 
d="M124 1008q3 33 28 53t58 18q32 -3 53 -28t17 -58l-30 -313q38 34 85 54t104 20q60 0 97 -36.5t59 -95t30 -132t8 -147.5q0 -66 -4.5 -127t-9.5 -108.5t-9.5 -76.5l-4.5 -29q-6 -32 -32 -51.5t-58 -13.5q-33 6 -52 32.5t-14 58.5l3.5 18.5t8 49t9.5 71t10 85t7.5 91
t2.5 87.5q0 35 -2 65.5t-8.5 52.5t-16 35t-24.5 13q-39 0 -70 -19.5t-56.5 -52.5t-44 -76.5t-32 -89.5t-22.5 -93.5t-13 -89.5l-14 -144q-2 -27 -25 -39.5t-50 -12.5q-32 0 -58 16t-25 48q0 1 2.5 38t11.5 97z" />
    <glyph glyph-name="i" unicode="i" horiz-adv-x="314" 
d="M99 657q3 32 28.5 53t58.5 17q32 -4 52.5 -29t17.5 -58l-70 -621q-3 -33 -28.5 -53t-58.5 -17q-32 4 -52.5 29t-17.5 58zM128 959q5 32 30.5 52.5t57.5 15.5q16 -2 29.5 -10t23 -19.5t14 -26.5t2.5 -32l-6 -39q-3 -33 -29 -52.5t-59 -16.5q-32 5 -52 30.5t-16 57.5z" />
    <glyph glyph-name="j" unicode="j" horiz-adv-x="569" 
d="M-113 -101q0 16 7.5 31t19.5 25.5t27 17t32 4.5q32 -2 52 -26.5t20 -57.5q0 -37 6.5 -62.5t18.5 -41.5q15 -19 39 -21q38 0 63.5 12t42.5 35q43 61 60 203q3 37 9.5 98t13.5 130t14.5 139.5t13 127.5t9.5 93l4 36q3 33 28.5 54t57.5 17q32 -3 52.5 -28t18.5 -57l-4 -38.5
t-10.5 -98t-13.5 -131.5t-14.5 -141t-14 -128t-9.5 -90v-1q-10 -90 -31 -159t-56 -117q-81 -114 -227 -114q-60 4 -101.5 25t-70.5 61q-27 35 -42 86.5t-15 116.5zM383 955q5 33 30 52.5t58 16.5q32 -5 52.5 -30t16.5 -58l-5 -39q-4 -33 -30 -53.5t-59 -15.5q-31 3 -51.5 29
t-16.5 59z" />
    <glyph glyph-name="k" unicode="k" horiz-adv-x="661" 
d="M136 1017q6 33 33 51t60 12q32 -5 50.5 -32.5t10.5 -59.5q0 5 -8.5 -37.5t-22.5 -115.5t-29 -163.5t-28.5 -179.5t-22.5 -165t-9 -120q0 -27 4.5 -38t13.5 0q47 52 95 119.5t88 134t69 123.5t39 87t38.5 45.5t60.5 5.5q31 -10 46 -39t5 -60q-8 -21 -23.5 -52.5t-38 -69.5
t-50 -81.5t-57.5 -87.5l146 -241q6 -9 8.5 -20.5t2.5 -21.5q0 -19 -9 -37t-28 -29q-18 -12 -40 -12q-21 0 -39 10t-29 29l-113 184q-28 -33 -59.5 -73t-66 -75t-71.5 -58t-76 -21q-32 2 -44.5 57.5t-12.5 143.5q0 78 8 174t20 194.5t26 192t25.5 165.5t19.5 116.5z" />
    <glyph glyph-name="l" unicode="l" horiz-adv-x="333" 
d="M147 982q5 33 30.5 53t57.5 16q33 -3 53.5 -29t15.5 -59l-118 -950q-3 -33 -29 -53.5t-59 -15.5q-33 4 -53 29.5t-16 57.5z" />
    <glyph glyph-name="m" unicode="m" horiz-adv-x="1065" 
d="M98 667q3 33 28.5 53t58.5 16q32 -3 52.5 -28t17.5 -58l-4 -24q36 47 79 74.5t92 27.5q41 0 72.5 -16.5t54 -44.5t38 -66.5t25.5 -82.5q22 44 48 82.5t55.5 66.5t62 44.5t68.5 16.5q57 0 94.5 -34.5t58.5 -89.5t29.5 -124t8.5 -140q0 -63 -4.5 -122.5t-10.5 -106
t-10.5 -74.5l-4.5 -28q-5 -33 -32 -51.5t-59 -12.5q-33 5 -51 31.5t-12 59.5l3 18t7 47.5t9.5 68t10.5 81.5t7.5 87t2.5 83q0 32 -2 59t-8 47t-14.5 31.5t-22.5 11.5q-33 0 -63.5 -41.5t-56.5 -105t-48 -136.5t-37.5 -136t-24 -105.5l-8.5 -42.5q-4 -24 -24 -35t-44 -11
q-18 0 -34 5.5t-29 14.5t-20 23t-4 30q1 11 6 46t10.5 84.5t10.5 106.5t5 111q0 40 -3 74.5t-10.5 61t-19 41.5t-30.5 15q-25 0 -49.5 -24.5t-46.5 -64t-40.5 -91t-34.5 -105t-28 -104.5t-20.5 -91t-13 -65l-4.5 -25q-5 -26 -25 -38t-46 -12q-17 0 -33 4.5t-28 14.5
t-19 22.5t-5 29.5z" />
    <glyph glyph-name="n" unicode="n" horiz-adv-x="759" 
d="M102 672q5 32 30.5 52.5t57.5 16.5q33 -3 53 -28.5t16 -58.5l-14 -119q30 44 61.5 81t65.5 65.5t71.5 44t77.5 15.5q64 0 103.5 -31.5t63.5 -82.5t33 -117t9 -135q0 -70 -6.5 -137t-14.5 -120t-15 -85.5l-7 -32.5q-8 -32 -35 -49.5t-60 -10.5q-31 8 -48.5 35t-10.5 60
l4 18t10 48t12.5 69.5t12.5 82.5t10 87.5t4 85.5q0 34 -3.5 62.5t-11 49.5t-19.5 33.5t-31 12.5q-32 0 -64 -25.5t-62.5 -67t-57.5 -93.5t-51 -107.5t-42 -108t-32 -94t-21 -66.5l-7 -25q-7 -24 -27 -34.5t-42 -10.5q-17 0 -32.5 4.5t-28.5 14.5t-20 24t-5 31z" />
    <glyph glyph-name="o" unicode="o" horiz-adv-x="746" 
d="M118 549q19 14 39 17q9 29 27 60t48.5 57.5t77.5 44t115 17.5q84 0 147.5 -41t97.5 -108q26 -49 37 -104.5t11 -110.5q0 -69 -15 -135t-43.5 -122t-71 -99.5t-98.5 -67.5q-36 -15 -77.5 -22.5t-82.5 -7.5q-79 0 -141 33t-101 87q-31 44 -45.5 96t-14.5 104q0 62 11.5 115
t26.5 92.5t30 64.5t22 30zM210 410q-2 -4 -5 -20.5t-7.5 -39.5t-8 -50t-3.5 -53q0 -30 7.5 -58t22.5 -50q18 -26 48 -40t66 -14q27 0 50.5 3.5t47.5 12.5q34 11 59 40.5t41 69t24 84.5t8 86q0 38 -7 75.5t-22 67.5q-31 63 -106 63q-48 0 -72 -15t-37 -35q-13 -21 -15 -49
q0 -33 -23.5 -56t-56.5 -22h-11z" />
    <glyph glyph-name="p" unicode="p" horiz-adv-x="805" 
d="M143 628q2 15 10 28.5t20 23t26.5 14t31.5 2.5q41 -6 60 -42q37 43 79.5 67.5t92.5 24.5q88 0 152 -44.5t104 -115.5q30 -55 44 -116.5t14 -118.5q0 -49 -10 -97t-27 -94q-18 -45 -45.5 -86.5t-65 -72.5t-85 -49.5t-106.5 -18.5q-76 0 -125.5 30.5t-79.5 70.5l-46 -394
v-7q-3 -27 -25 -39.5t-49 -12.5q-32 0 -58.5 16.5t-25.5 48.5l2.5 33t7.5 88t14.5 128.5t22.5 154.5zM463 588q-33 0 -61 -25.5t-51.5 -69t-43.5 -101.5t-35 -124q19 -7 33.5 -22.5t17.5 -38.5q7 -32 22 -57q12 -23 34.5 -41t58.5 -18q59 0 97 38t58 88q13 33 19.5 67
t6.5 67q0 40 -9 81t-29 77t-49.5 57.5t-68.5 21.5z" />
    <glyph glyph-name="q" unicode="q" horiz-adv-x="727" 
d="M416 -471q-17 -1 -31.5 4.5t-26 15.5t-18.5 24t-7 30q-1 33 21 57.5t54 26.5l33 2l32 313q-29 -29 -62 -46t-72 -18q-81 0 -144.5 33t-104.5 97q-29 47 -44 103.5t-17 114.5q-3 65 14.5 127t48.5 117t73.5 99t91.5 72q32 18 65.5 30.5t69.5 9.5q64 -3 101 -20t65 -41
q10 9 24 13.5t30 4.5q17 0 32.5 -4.5t28 -13t20 -21t4.5 -29.5l-96 -933h4q32 1 56.5 -21t26.5 -54q1 -33 -20.5 -57.5t-54.5 -25.5zM508 454q-14 12 -21.5 29.5t-5.5 37.5q-7 25 -29.5 42.5t-51.5 20.5q-19 0 -35.5 -6t-29.5 -14q-32 -20 -60 -49t-48.5 -64.5t-31 -77
t-8.5 -84.5q1 -38 9.5 -73.5t26.5 -62.5q19 -29 48 -43t64 -14q32 1 58.5 34.5t48 86t38.5 115.5t28 122z" />
    <glyph glyph-name="r" unicode="r" horiz-adv-x="676" 
d="M79 653q2 33 27.5 54t57.5 18q33 -2 54 -26t19 -57l-3 -28q39 48 84.5 77.5t100.5 29.5q73 0 118 -18t69.5 -46t33 -60.5t8.5 -61.5q0 -16 -1 -29t-4 -23q-2 -12 -6 -21q-8 -32 -37 -47t-60 -6q-32 9 -47.5 37.5t-5.5 60.5l1.5 9t-3.5 19.5t-19 19t-47 8.5
q-37 0 -68 -36.5t-56.5 -92.5t-44.5 -123.5t-32 -129.5t-21 -109.5t-11 -66.5q-4 -25 -25.5 -37.5t-47.5 -12.5q-33 0 -59.5 17.5t-24.5 50.5z" />
    <glyph glyph-name="s" unicode="s" horiz-adv-x="693" 
d="M653 481q-12 -32 -41.5 -44.5t-59.5 -0.5q-31 11 -43.5 41t-1.5 59q-7 9 -19.5 16.5t-26.5 13t-28 9t-25 3.5q-24 0 -54.5 -4.5t-58 -15.5t-47.5 -27.5t-24 -41.5q-1 -15 11 -25.5t30.5 -19t42 -14.5t45.5 -10t39.5 -6.5t25.5 -4.5q43 -10 87 -29.5t78.5 -49t55 -68.5
t14.5 -88q-3 -29 -14 -55.5t-29 -49.5q-20 -27 -48.5 -50t-63 -40.5t-74 -26.5t-80.5 -9q-57 0 -109 20.5t-92.5 46t-65 47l-24.5 21.5q-12 11 -18.5 25.5t-6.5 30.5q0 29 23 54q11 13 25.5 19t30.5 6q15 0 29 -5t25 -17l16.5 -14.5t43 -32t58.5 -31.5t65 -14q50 0 90.5 22
t58.5 58q7 14 -3.5 26t-29 22.5t-41 17.5t-41.5 12q-23 5 -48.5 10.5t-51.5 11.5t-51.5 14.5t-51.5 21.5q-52 30 -83.5 76.5t-22.5 117.5q7 60 41 102.5t82 70.5t105 40.5t111 12.5q51 0 106.5 -22t94.5 -57q26 -24 40.5 -54t14.5 -66q0 -28 -11 -55z" />
    <glyph glyph-name="t" unicode="t" horiz-adv-x="674" 
d="M109 558q-33 0 -56.5 22.5t-24.5 54.5q0 33 22.5 56t55.5 24l64 2q7 34 14 75.5t19 104.5q5 33 31 51t59 13q33 -6 51 -32.5t13 -58.5q-3 -24 -10 -64t-16 -86l233 5q17 0 31 -5.5t25.5 -16t17.5 -25t6 -29.5q0 -17 -5.5 -31t-16 -25.5t-24.5 -18t-30 -6.5l-266 -7
q-11 -25 -22 -78t-20 -115.5t-15 -124t-6 -103.5q0 -26 2.5 -40.5t8.5 -14.5q48 0 77 15t46 34q20 22 28 50q9 31 36.5 48t59.5 8q33 -9 49 -37t7 -59l-5 -16t-18 -40.5t-35 -52.5t-56 -52.5t-80.5 -40t-108.5 -15.5q-84 0 -119.5 62.5t-35.5 174.5q0 76 13.5 176.5
t33.5 217.5h-33z" />
    <glyph glyph-name="u" unicode="u" horiz-adv-x="689" 
d="M102 670q10 32 38 47t61 6q30 -9 45.5 -37.5t7.5 -60.5l-7 -22.5t-16.5 -59.5t-21 -84.5t-21.5 -97t-16 -97t-6 -84.5q0 -38 8.5 -61t28.5 -23q28 0 56 24.5t54.5 65.5t51.5 92.5t46 105.5t39 106t30 92.5t19 65.5l7 25q6 23 25.5 34t42.5 11q17 0 33 -5.5t29 -15
t19.5 -23t4.5 -30.5l-69 -635q-3 -33 -28.5 -53t-57.5 -17q-33 4 -53.5 28.5t-16.5 57.5l10 98q-25 -39 -53 -73t-58.5 -59t-63 -39t-67.5 -14q-51 0 -84 22.5t-53.5 61t-28.5 89.5t-8 107q0 53 5.5 106t13.5 103t17 94t17.5 77.5t14 52.5z" />
    <glyph glyph-name="v" unicode="v" horiz-adv-x="641" 
d="M35 630q2 32 27.5 53.5t56.5 19.5q33 -2 54.5 -27t19.5 -58l-1.5 -29.5t-3 -75t-2.5 -100.5t-1 -107q0 -33 0.5 -63t2 -53t4.5 -36t7 -13q12 0 28 24t36.5 63.5t43 90.5t44 103.5t41 103.5t35 90.5t24.5 64l9 24.5q11 30 40.5 44.5t59.5 2.5t44 -40.5t3 -60.5l-11 -30.5
t-31.5 -80.5t-47.5 -114t-58.5 -129.5t-66.5 -129.5t-71 -113.5t-71 -79.5t-66 -30q-33 0 -57.5 23t-41.5 62.5t-28 90t-17 107t-8.5 113.5t-2.5 107q0 40 1 72.5t1.5 57.5t2 39z" />
    <glyph glyph-name="w" unicode="w" horiz-adv-x="960" 
d="M29 637q0 33 23.5 56.5t56.5 21.5q33 0 55.5 -23t22.5 -56l1.5 -37t4 -92t6 -119.5t7.5 -119t7 -91t6 -36.5q10 0 23 18.5t28 50t33 72t36 85.5q-2 11 -2 23v23q0 15 0.5 28.5t1.5 26.5q7 56 31.5 88t72.5 32q50 0 70 -31t20 -72q0 -16 -1.5 -31.5t-6.5 -31.5
q-6 -18 -12 -37t-14 -40q1 -22 8 -59t15 -71.5t14 -57.5t6 -16q5 0 18.5 25t31 66.5t38 94.5t41 108t40 108t34 94.5t23.5 67l9 25.5q11 31 40 46t60 4q31 -9 45.5 -38.5t4.5 -60.5l-11 -32t-30 -84t-44.5 -118t-55.5 -135.5t-62.5 -136t-65 -118.5t-64 -83t-58.5 -31
q-23 0 -44.5 14t-41 38t-35.5 57t-29 71q-25 -37 -50 -70.5t-50.5 -57.5t-49 -38t-45.5 -14q-32 0 -56 29.5t-42 78t-29.5 111t-18.5 128t-10.5 127.5t-4.5 111t-1 79v30z" />
    <glyph glyph-name="x" unicode="x" horiz-adv-x="659" 
d="M180 -16q-13 -29 -43.5 -41t-60.5 1t-41.5 43.5t0.5 59.5q9 21 28 51t45.5 67t58 78.5t65.5 84.5q-27 44 -52 86.5t-47 82t-39.5 74t-25.5 60.5q-12 30 2.5 59.5t45.5 40.5q30 12 59.5 -3t40.5 -45q14 -39 46 -97.5t72 -125.5q28 36 53.5 68t43.5 58t30 43.5t13 22.5
q6 33 33 51t59 11q33 -6 51 -33t12 -60q-4 -18 -22.5 -49.5t-46 -71t-63 -85.5t-72.5 -96q34 -52 65 -98.5t55.5 -82t40 -56.5l15.5 -21q14 -19 14 -45q0 -19 -8.5 -36t-24.5 -28q-20 -14 -45 -14q-19 0 -35.5 8.5t-29.5 24.5l-12.5 16.5t-33 46t-46.5 69.5t-57 85
q-25 -33 -49 -64.5t-43 -57.5t-32 -47t-19 -35z" />
    <glyph glyph-name="y" unicode="y" horiz-adv-x="725" 
d="M69 676q0 32 23 55.5t55 23.5q33 0 56.5 -23.5t23.5 -55.5q0 -42 2 -89t7.5 -95t15 -95t24.5 -87q12 -36 19 -62.5t11 -20.5q17 24 36 56t39.5 67t40.5 72t38 71q13 33 24.5 59.5t20.5 49.5q14 35 26.5 63t27 46t32 25t42.5 0q79 -16 60 -101q-6 -26 -28 -75.5
t-55 -112.5q-31 -75 -75 -175.5t-99 -215t-120.5 -240.5t-140.5 -254q-11 -19 -29 -29t-38 -10q-21 0 -39 11q-19 11 -29.5 29t-10.5 38q0 21 11 40q28 48 56.5 100t55.5 104.5t53 102.5t49 96q-20 -3 -38.5 15.5t-35.5 51t-31.5 75.5t-24.5 87q-11 46 -21.5 97t-18.5 103.5
t-11.5 104t-3.5 98.5z" />
    <glyph glyph-name="z" unicode="z" horiz-adv-x="696" 
d="M146 564q-32 -1 -55 22t-24 56q0 33 23 56t55 24l444 5q35 1 56.5 -24.5t21.5 -56.5q0 -14 -4.5 -27.5t-15.5 -25.5l-30.5 -31.5t-75.5 -81.5t-98.5 -109.5t-100.5 -114.5t-80 -98.5t-39 -60.5q0 -2 20 -1t52.5 3.5t69 7t68.5 7.5t53.5 6l21.5 3q33 8 60 -9.5t34 -49.5
q7 -33 -10.5 -60t-48.5 -34l-25.5 -5.5t-66 -12t-91 -11.5t-101.5 -5q-45 0 -86 5.5t-73 19t-51.5 37t-19.5 59.5q0 21 7 45v1q5 17 24.5 48t49.5 69t67 82.5t76.5 90.5t79.5 91t75 82z" />
    <glyph glyph-name="braceleft" unicode="{" horiz-adv-x="441" 
d="M322 1176q33 4 58 -15t31 -52q5 -32 -15 -58t-52 -32l-3 -16.5t-7 -44t-9 -64.5t-12 -76q-7 -46 -15.5 -93t-19 -91t-25.5 -82t-37 -69q19 -38 25.5 -87t6.5 -103q0 -32 -1.5 -64t-3.5 -65q-2 -32 -8.5 -62.5t-13 -53t-9 -36.5t3.5 -14q33 -4 53.5 -29t17.5 -58t-28 -53
t-57 -17q-38 3 -61.5 21.5t-37 46t-18 64.5t-4.5 79q0 29 1.5 59t3.5 61q2 40 3.5 78.5t1.5 71.5q0 39 -3.5 66t-13.5 31q-22 9 -33.5 29t-11.5 42q0 25 13.5 47t39.5 29q13 4 23.5 29.5t19.5 65t17.5 87t16.5 95.5q10 62 20.5 119t28.5 102.5t45 75t69 36.5z" />
    <glyph glyph-name="bar" unicode="|" horiz-adv-x="274" 
d="M87 1125q0 17 6.5 31t18 24.5t26 16t31.5 4.5q16 0 30 -7t24 -18t15.5 -26t5.5 -31l-57 -1316q0 -17 -7 -31t-18 -24t-25.5 -16t-31.5 -5q-16 1 -30 8t-24 17.5t-16 25.5t-6 32z" />
    <glyph glyph-name="braceright" unicode="}" horiz-adv-x="441" 
d="M118 -161q-32 -6 -58 14t-31 52q-4 33 15.5 58.5t52.5 30.5l2.5 17t7 45t9 64.5t10.5 75.5q8 46 16.5 92.5t19 91t26 82.5t36.5 69q-19 38 -25 87t-6 103q0 31 1 63.5t3 64.5q2 33 9 63.5t13.5 53t9 36.5t-4.5 15q-33 3 -53.5 28t-17.5 58q4 32 28.5 52.5t57.5 17.5
q37 -4 60.5 -21.5t37 -45t18 -64.5t4.5 -80q0 -29 -1 -59t-3 -61q-2 -40 -4 -79t-2 -72q0 -39 4 -65.5t13 -30.5q23 -9 34 -29t11 -42q0 -25 -13.5 -47t-39.5 -30q-12 -3 -23 -29t-20 -65t-17.5 -87t-15.5 -95q-10 -62 -21 -119.5t-28.5 -102.5t-44.5 -75t-70 -35z" />
    <glyph glyph-name="asciitilde" unicode="~" horiz-adv-x="593" 
d="M185 793q-7 -33 -34 -50.5t-60 -10.5q-33 6 -50 33t-11 59q13 46 37 82q20 30 56 55t93 25q34 0 58 -8t39.5 -20.5t25 -29.5t17.5 -34q13 7 25.5 17t24.5 20t19 17l7 7q23 21 54 21q34 0 58 -25q11 -12 16 -26t5 -28q0 -16 -6 -31t-18 -26q-33 -30 -69 -55
q-30 -21 -66.5 -38t-71.5 -17q-29 0 -48 7.5t-32 19.5t-20.5 28.5t-16.5 33.5q-2 3 -0.5 6t-0.5 3q-9 0 -15 -5t-10 -12q-4 -8 -6 -18z" />
    <glyph glyph-name="copyright" unicode="&#xa9;" horiz-adv-x="995" 
d="M140 750q8 12 21 15t27 -4q0 -1 1 -1q9 37 26.5 71.5t52.5 62.5q41 32 103.5 51.5t160.5 19.5q7 0 15.5 -0.5t15.5 -0.5q8 0 15.5 -0.5t16.5 -1.5q93 -9 159.5 -51.5t109.5 -106.5q43 -65 62 -143.5t17 -163.5q0 -11 -1 -22t-2 -24q-10 -95 -37.5 -176.5t-83.5 -142.5
q-58 -62 -147 -96t-222 -30q-58 2 -108 17.5t-92 40.5q-50 31 -86.5 74.5t-62.5 95.5q-51 107 -48 230q2 73 23 146t64 140zM187 694q-32 -55 -47.5 -114t-17.5 -117q-2 -109 41 -199q42 -91 123 -143q35 -21 76 -33t90 -14q115 -3 191.5 25t124.5 79q49 53 72.5 124.5
t31.5 155.5q2 11 2 20v21q2 75 -14 144t-52 122t-90 87.5t-131 42.5q-5 1 -12 1h-14t-16.5 0.5t-16.5 0.5q-82 0 -134 -15t-83 -41q-31 -25 -44.5 -60.5t-16.5 -72.5q0 -14 -10.5 -24t-24.5 -9q-19 3 -28 19zM552 702q-26 0 -54 -5q-10 -2 -20 -5.5t-20 -7.5
q-49 -21 -85.5 -66.5t-48.5 -117.5q-3 -20 -5 -37t-2 -34q0 -56 19 -96q8 -16 18 -28.5t24 -20.5q25 -20 64 -27q19 -3 39 -3q40 0 85 12t95 36q13 5 26 0.5t19 -17.5q6 -12 1.5 -25.5t-17.5 -19.5q-56 -27 -109 -40.5t-100 -13.5q-14 0 -26 1t-24 3q-55 9 -93 37
q-40 28 -64 78q-11 25 -18 56.5t-7 68.5q0 19 2 39t6 43q15 90 62.5 148.5t112.5 86.5q27 11 53 17q30 7 65 7q45 2 80 -6.5t59 -25.5q21 -15 30 -32q12 -20 12 -45q2 -39 -27 -81q-7 -11 -21 -13.5t-27 5.5q-12 8 -14.5 22t6.5 25q15 24 15 41q0 7 -3 11t-11 12
q-31 19 -97 18z" />
    <glyph glyph-name="onequarter" unicode="&#xbc;" horiz-adv-x="1122" 
d="M98 534q-20 0 -34 14.5t-14 34.5t14 34t34 14h58l59 440l-66 -43q-12 -8 -27 -8q-12 0 -22 5.5t-18 15.5q-8 12 -8 27q0 12 5.5 22.5t15.5 17.5l156 104q5 4 11.5 5.5t12.5 1.5q12 0 21 -4t16 -11.5t11 -17.5t2 -21l-72 -534h52q20 0 34 -14t14 -34t-14 -34.5t-34 -14.5
h-207zM931 253q2 20 17.5 32.5t35.5 11.5q20 -2 32.5 -17t11.5 -35l-15 -148h4h1q20 2 35.5 -11t16.5 -33q2 -20 -11 -35.5t-33 -17.5q-1 0 -21 -2l-17 -187q-2 -20 -17.5 -32.5t-35.5 -11.5q-20 2 -32.5 17.5t-10.5 35.5l16 174h-34q-44 0 -89.5 2.5t-82 10.5t-58.5 21.5
t-19 36.5q1 11 14 33.5t32 52t43 63t48 68t47.5 66t42 56t29.5 39l11 14.5q8 10 18 14.5t21 4.5q16 0 29 -9q20 -16 20 -39q0 -17 -11 -29l-9.5 -12t-25.5 -32.5t-36.5 -46.5t-41.5 -54t-41.5 -55t-37 -50t-27 -39t-11.5 -22q-1 -2 8 -5t25 -5.5t36.5 -4t44.5 -1.5
q16 0 31 1l30 2zM383 138q-6 -11 -17 -17t-23 -6q-13 0 -25 8q-12 7 -17.5 18.5t-5.5 22.5q0 14 7 25q12 12 34.5 44.5t53 78.5t65.5 101.5t71 111.5t70.5 109.5t63 95.5t49 69t30.5 32q14 15 35 15q19 0 33 -13q8 -8 12 -17t4 -18t-3.5 -17.5t-10.5 -16.5z" />
    <glyph glyph-name="onehalf" unicode="&#xbd;" horiz-adv-x="1212" 
d="M98 534q-20 0 -34 14.5t-14 34.5t14 34t34 14h58l59 440l-66 -43q-12 -8 -27 -8q-12 0 -22 5.5t-18 15.5q-8 12 -8 27q0 12 5.5 22.5t15.5 17.5l156 104q5 4 11.5 5.5t12.5 1.5q12 0 21 -4t16 -11.5t11 -17.5t2 -21l-72 -534h52q20 0 34 -14t14 -34t-14 -34.5t-34 -14.5
h-207zM383 138q-6 -11 -17 -17t-23 -6q-13 0 -25 8q-12 7 -17.5 18.5t-5.5 22.5q0 14 7 25q12 12 34.5 44.5t53 78.5t65.5 101.5t71 111.5t70.5 109.5t63 95.5t49 69t30.5 32q14 15 35 15q19 0 33 -13q8 -8 12 -17t4 -18t-3.5 -17.5t-10.5 -16.5zM833 442q1 -20 -12.5 -36
t-33.5 -16q-21 -1 -35.5 13t-14.5 34q1 51 18.5 85.5t51.5 56.5q58 41 156 45q61 0 98 -16.5t60 -45.5q20 -24 30.5 -54.5t10.5 -64.5q0 -39 -13.5 -74.5t-38.5 -72.5q-17 -25 -39.5 -50t-46.5 -49.5t-50.5 -47.5t-50.5 -43q-20 -18 -37.5 -33.5t-32.5 -29.5q35 3 67 3
q38 0 71 -2t57 -4q29 -3 53 -5q20 -3 32 -19t10 -35q-2 -21 -18 -33t-36 -9l-13.5 1t-35.5 3.5t-52.5 4t-64.5 1.5q-40 0 -82.5 -2.5t-83.5 -10.5q-13 -2 -25 3t-19.5 14t-10.5 21.5t1 25.5q9 24 24 45.5t35 43t45 43.5t53 47q20 17 43 38t47 43.5t45 45.5t35 44
q18 25 26.5 47t8.5 46q0 34 -19 57q-10 13 -27 19.5t-52 6.5q-69 -1 -105 -27q-14 -9 -21.5 -24.5t-7.5 -32.5z" />
    <glyph glyph-name="threequarters" unicode="&#xbe;" horiz-adv-x="1071" 
d="M332 138q-6 -11 -17 -17t-23 -6q-13 0 -25 8q-12 7 -17.5 18.5t-5.5 22.5q0 14 7 25q12 12 34.5 44.5t53 78.5t65.5 101.5t71 111.5t70.5 109.5t63 95.5t49 69t30.5 32q14 15 35 15q19 0 33 -13q8 -8 12 -17t4 -18t-3.5 -17.5t-10.5 -16.5zM170 1141q-7 -12 -18 -18
t-23 -6q-13 0 -25 6q-12 7 -18 18t-6 24q0 14 7 25q16 24 43 44q23 16 60.5 30.5t93.5 16.5q50 1 94 -17.5t70 -53.5q19 -25 29 -55t10 -62q0 -13 -2 -28q-4 -35 -24.5 -68t-47.5 -58q35 -27 57 -64t22 -81q-1 -24 -6 -48t-15 -45q-24 -54 -75 -86.5t-124 -34.5
q-25 -1 -46.5 4t-41.5 13.5t-37 19.5t-31 22q-32 27 -58 62q-8 13 -8 28q0 12 5 21.5t16 17.5q13 8 27 8q12 0 22 -5t18 -15q16 -23 37 -41q18 -15 42 -27t53 -11q42 1 70.5 18t42.5 46q6 14 9 27t3 29q0 15 -6.5 27.5t-18 24t-25 20t-27.5 15.5q-17 -5 -38 -5h-10t-10 1
q-27 2 -56 19q-12 7 -17.5 18t-5.5 23q0 16 9 29.5t27 18.5q11 3 21.5 4t21.5 1q29 0 56 -7q12 6 24 16.5t22.5 22.5t18 25.5t9.5 26.5q3 19 -2 39t-17 36q-13 17 -35.5 25t-46.5 6q-36 -1 -58.5 -8t-36.5 -14q-16 -9 -24 -20zM880 253q2 20 17.5 32.5t35.5 11.5
q20 -2 32.5 -17t11.5 -35l-15 -148h4h1q20 2 35.5 -11t16.5 -33q2 -20 -11 -35.5t-33 -17.5q-1 0 -21 -2l-17 -187q-2 -20 -17.5 -32.5t-35.5 -11.5q-20 2 -32.5 17.5t-10.5 35.5l16 174h-34q-44 0 -89.5 2.5t-82 10.5t-58.5 21.5t-19 36.5q1 11 14 33.5t32 52t43 63t48 68
t47.5 66t42 56t29.5 39l11 14.5q8 10 18 14.5t21 4.5q16 0 29 -9q20 -16 20 -39q0 -17 -11 -29l-9.5 -12t-25.5 -32.5t-36.5 -46.5t-41.5 -54t-41.5 -55t-37 -50t-27 -39t-11.5 -22q-1 -2 8 -5t25 -5.5t36.5 -4t44.5 -1.5q16 0 31 1l30 2z" />
    <glyph glyph-name="Acomma" unicode="&#x60c;" horiz-adv-x="324" 
d="M167 184q34 2 56 -10.5t32 -32.5t8.5 -43.5t-13.5 -44t-34 -33t-54 -10.5q-27 1 -53.5 16.5t-39.5 47t-5.5 79.5t48.5 115q7 13 9.5 29t6 30t12.5 23t29 9q24 0 34 -11t11 -27.5t-5 -37t-14.5 -40t-16.5 -35.5t-11 -24z" />
    <glyph glyph-name="Asemicolon" unicode="&#x61b;" horiz-adv-x="324" 
d="M157 193q18 0 34 -7t28 -19.5t19 -29.5t7 -36t-7 -35.5t-19 -29t-28 -19.5t-34 -7t-34.5 7t-28.5 19.5t-19 29t-7 35.5t7 36t19 29.5t28.5 19.5t34.5 7zM168 425q34 2 55.5 -10.5t31.5 -32.5t8.5 -43.5t-13 -43.5t-34 -33t-53.5 -11q-28 1 -54.5 16.5t-39 47t-5 79.5
t47.5 115q8 13 10 29t6 30t12.5 23t28.5 9q24 0 34 -10.5t11 -27.5t-5 -37.5t-14 -40t-16 -35.5t-11 -24z" />
    <glyph glyph-name="Aquestion" unicode="&#x61f;" horiz-adv-x="814" 
d="M461 301q-16 35 -53.5 66.5t-83.5 63.5t-93 68t-82.5 80.5t-52.5 99.5t-2 127q12 55 47 89.5t84.5 54t108 26t117 6t113 -6t94.5 -9.5q18 -4 32 -14t23 -24t12.5 -31t0.5 -33q-8 -35 -37.5 -55t-64.5 -12q-12 2 -46.5 6.5t-79 7t-92 1t-85.5 -11.5t-60.5 -31t-15.5 -57
q3 -22 29 -52.5t64 -66.5t83 -74.5t86 -76.5t73 -73t44 -63.5t-1.5 -48.5t-62.5 -27q-36 -5 -65 15t-34 56zM638 2q-19 -17 -46.5 -17t-45.5 15q-23 22 -38 51.5t-16 56.5t15.5 47.5t55.5 24.5q28 3 47.5 -6t31 -25t16 -37t3.5 -41.5t-7 -39t-16 -29.5z" />
    <glyph glyph-name="kashida" unicode="&#x640;" horiz-adv-x="91" 
d="M91 144q29 0 49.5 -21t20.5 -51t-20.5 -51t-49.5 -21h-91q-29 0 -49.5 21t-20.5 51t20.5 51t49.5 21h91z" />
    <glyph glyph-name="alefmaq" unicode="&#x649;" horiz-adv-x="1155" 
d="M593 106q53 -12 104.5 -29t92.5 -44.5t66.5 -69.5t26.5 -104q1 -52 -14 -92.5t-42.5 -70t-66 -48.5t-83.5 -26q-53 -10 -113.5 -4.5t-121 26t-119.5 55.5t-108.5 85t-88 114t-58.5 143q-5 18 -7.5 39t0.5 40t13.5 34.5t30.5 23.5q14 5 30 3.5t30 -9t24 -19.5t12 -28
q8 -91 48.5 -158t96.5 -112t120.5 -67.5t122.5 -23.5t101 19.5t57 61.5q9 27 -2 43t-35.5 26t-59.5 18t-74.5 18t-80.5 26t-77 42.5t-64.5 67t-43.5 99.5q-21 86 1 162t74.5 137t128 104.5t160 65.5t172.5 20.5t164 -30.5q33 -10 52 -27.5t27 -38t5 -40.5t-14 -35
q-35 -45 -63 -57t-55 -4q-131 34 -225.5 39.5t-158 -8.5t-99 -44.5t-48 -68t-4.5 -78.5t31 -77t58 -63t77 -36z" />
    <glyph glyph-name="alefmaq" unicode="&#xffef;" horiz-adv-x="1155" 
d="M593 106q53 -12 104.5 -29t92.5 -44.5t66.5 -69.5t26.5 -104q1 -52 -14 -92.5t-42.5 -70t-66 -48.5t-83.5 -26q-53 -10 -113.5 -4.5t-121 26t-119.5 55.5t-108.5 85t-88 114t-58.5 143q-5 18 -7.5 39t0.5 40t13.5 34.5t30.5 23.5q14 5 30 3.5t30 -9t24 -19.5t12 -28
q8 -91 48.5 -158t96.5 -112t120.5 -67.5t122.5 -23.5t101 19.5t57 61.5q9 27 -2 43t-35.5 26t-59.5 18t-74.5 18t-80.5 26t-77 42.5t-64.5 67t-43.5 99.5q-21 86 1 162t74.5 137t128 104.5t160 65.5t172.5 20.5t164 -30.5q33 -10 52 -27.5t27 -38t5 -40.5t-14 -35
q-35 -45 -63 -57t-55 -4q-131 34 -225.5 39.5t-158 -8.5t-99 -44.5t-48 -68t-4.5 -78.5t31 -77t58 -63t77 -36z" />
    <glyph glyph-name="dammatanA" unicode="&#x64c;" 
d="M-107 133q-38 35 -48.5 75t-0.5 78t38.5 71t67.5 55.5t86.5 31.5t96.5 -3q10 -5 13.5 -16.5t-4.5 -21.5q-7 -10 -17 -11.5t-20 5.5q-15 9 -42.5 6t-57.5 -14.5t-57.5 -31t-43.5 -44.5t-15.5 -54.5t26.5 -60.5q17 -19 24 -35t-4 -30q-8 -7 -20 -8t-22 8zM18 118
q-23 14 -38 36.5t-15 56.5q-1 38 17.5 69t46.5 47t59.5 11.5t56.5 -37.5q28 -37 33.5 -69.5t-5.5 -60t-35.5 -50t-56.5 -39t-67.5 -28t-68.5 -16.5q-30 -5 -49.5 -4.5t-31.5 3.5t-18.5 8.5t-9.5 10.5q-14 22 -2 31.5t40 13t66.5 6t77.5 11.5zM95 182q19 18 17.5 36.5
t-14.5 29.5t-31.5 10t-34.5 -22q-7 -16 -3.5 -31.5t14 -25.5t24.5 -10.5t28 13.5z" />
    <glyph glyph-name="Azero" unicode="&#x660;" horiz-adv-x="360" 
d="M240 31q-20 -20 -47.5 -21.5t-46.5 17.5q-24 25 -41 59t-18.5 65.5t16 54.5t60.5 28q30 3 50.5 -7t33 -28.5t17.5 -42.5t3.5 -47.5t-8.5 -44.5t-19 -33z" />
    <glyph glyph-name="Aone" unicode="&#x661;" horiz-adv-x="606" 
d="M204 754q26 -31 55 -80t59 -108t59.5 -123t57 -125t51.5 -114t42 -89q9 -18 6.5 -37.5t-13.5 -35.5t-27.5 -25.5t-34.5 -7t-36 19.5t-30 53q-13 37 -35.5 88.5t-51 110t-60 119t-61.5 116t-57 100.5t-45 72q-19 27 -12.5 53t26.5 40t49.5 10t57.5 -37z" />
    <glyph glyph-name="Atwo" unicode="&#x662;" horiz-adv-x="668" 
d="M376 68q-14 42 -49.5 92t-78 104t-84 110.5t-67.5 112t-28 107.5t34 97q39 48 93 69.5t113.5 26.5t120 -0.5t113.5 -12.5q29 -6 44.5 -29.5t8.5 -52.5q-7 -28 -30 -43.5t-50 -10.5q-9 1 -36.5 5t-63.5 6t-74 1t-69 -9t-49.5 -25t-13.5 -47q3 -17 24 -49t51 -72.5
t65.5 -87t67.5 -93t56.5 -90t33.5 -78.5t-2 -58t-51 -29q-29 -5 -52.5 11t-26.5 45z" />
    <glyph glyph-name="Athree" unicode="&#x663;" horiz-adv-x="815" 
d="M745 716q-3 -86 -22 -143.5t-47 -90t-61 -41t-64 3.5t-56.5 43t-38.5 78q-5 -9 -16.5 -30t-24 -43t-25 -39t-19.5 -20q45 -84 86 -166.5t74 -158.5q13 -29 0.5 -56t-41.5 -38q-27 -11 -54.5 1t-38.5 41q-13 27 -30.5 68t-39.5 90.5t-47.5 103.5t-53.5 107.5t-59 103
t-64 88.5l-16.5 22t-12 20.5t-3.5 23t10 29.5q15 31 34 39.5t40 1t42.5 -26t42.5 -42t40.5 -47.5t35.5 -41q14 19 30.5 48t32 57t29 48.5t21.5 22.5q30 5 51 -12t35.5 -44t25.5 -58t22 -53q23 -1 28.5 26t6.5 84q0 31 21.5 52t52.5 21q30 0 51.5 -21t21.5 -52z" />
    <glyph glyph-name="Afour" unicode="&#x664;" horiz-adv-x="648" 
d="M391 726q-14 -13 -39 -38.5t-52.5 -54.5t-53 -59t-38.5 -52q43 -8 90 -11t88.5 -7t72 -13.5t40.5 -30.5t-6 -57.5t-67 -94.5q-8 -8 -22 -24.5t-28 -35.5t-24.5 -38t-10.5 -32q11 -10 34 -14.5t51 -9t56.5 -10.5t51 -19t34.5 -35t7 -57q-5 -26 -25.5 -41.5t-47.5 -10.5
q-68 18 -126.5 32.5t-100.5 33t-64.5 43.5t-20 63t34 93t97.5 133q-45 5 -88 10t-68 10q-49 10 -71 31t-24.5 49.5t10.5 61.5t35.5 67t50 66.5t53.5 60.5t46.5 48.5t29.5 30.5q19 18 45 19t45 -16q21 -19 22 -45.5t-17 -45.5z" />
    <glyph glyph-name="Afive" unicode="&#x665;" horiz-adv-x="718" 
d="M190 393q-4 -68 14.5 -113t49.5 -70t70.5 -31.5t76.5 3t67 32.5t43.5 57t5 77t-48.5 93q-48 60 -96 90.5t-86.5 26.5t-64.5 -44t-31 -121zM136 626q13 60 48 83t79 20.5t92 -25.5t88 -54q89 -71 136.5 -145t61.5 -144t0 -132t-48.5 -109t-84 -76t-106.5 -32
q-84 -6 -145.5 23.5t-102 81t-61.5 119t-22.5 138t15 137t50.5 115.5z" />
    <glyph glyph-name="Asix" unicode="&#x666;" horiz-adv-x="862" 
d="M209 724q4 -25 25.5 -37.5t52 -16.5t66.5 0t69 13.5t60 23.5t40 29q21 24 46 33.5t46 5.5t33 -21.5t8 -46.5q-7 -44 -18 -97t-11.5 -114t16 -129t65.5 -141q4 -8 20.5 -29.5t52.5 -72.5q17 -24 11.5 -52.5t-29.5 -45.5q-32 -21 -60 -14.5t-52.5 33t-45 68.5t-37 92
t-29 104t-20.5 104t-11 92t-1 68q-67 -22 -139 -30.5t-134 5t-106.5 52.5t-56.5 112q-2 29 16 51.5t47 25.5q29 2 51.5 -17t24.5 -48z" />
    <glyph glyph-name="Aseven" unicode="&#x667;" horiz-adv-x="790" 
d="M415 292q11 41 24.5 91t28 101.5t30 101.5t31.5 91t32.5 69t32.5 36q20 11 40.5 10t37.5 -10t29.5 -24t16.5 -33t-2 -36.5t-25 -34.5q-18 -15 -35.5 -46t-33.5 -73.5t-32 -92.5t-31 -102t-29.5 -102.5t-27.5 -93.5q-22 -69 -40 -102t-36 -32.5t-38 35t-47 101.5
q-21 54 -45.5 121t-54 134t-65 128.5t-79.5 105.5q-12 10 -18.5 23.5t-8 28t2.5 28.5t14 26q27 32 54.5 32.5t54 -21t51.5 -61t47.5 -86.5t42 -97t35 -94t27 -77t16.5 -45z" />
    <glyph glyph-name="Aeight" unicode="&#x668;" horiz-adv-x="792" 
d="M377 511q-12 -41 -25.5 -90.5t-28.5 -101.5t-30.5 -102t-32 -91t-32.5 -69.5t-32 -37.5q-29 -16 -59 -6.5t-48 32t-18.5 51.5t29.5 53q18 14 35 45.5t33.5 74t32 92.5t30.5 101.5t29.5 101.5t28.5 93q22 69 40 102.5t35.5 33t37.5 -35t46 -101.5q22 -54 47 -120.5
t54.5 -133.5t64.5 -128t79 -105q25 -21 28 -52t-18 -54q-27 -33 -54 -33.5t-53.5 21t-51.5 60.5t-48 86t-42.5 97.5t-35 94.5t-26 77t-15.5 45z" />
    <glyph glyph-name="Anine" unicode="&#x669;" horiz-adv-x="838" 
d="M502 364q-26 -47 -63.5 -73t-80 -32.5t-86 4t-81.5 36t-67.5 65.5t-43.5 91q-15 55 -5 106t38 94t69.5 75t88.5 48.5t96 15.5t91.5 -24.5t75 -71.5t47.5 -125q7 -37 18.5 -96t31.5 -124t51.5 -129.5t78.5 -112.5q10 -18 8.5 -38.5t-17.5 -36.5q-17 -23 -45 -26t-51 16
q-29 19 -51 49t-38.5 65t-27.5 71t-18.5 67t-12 54t-6.5 32zM470 479q-2 4 -4.5 13.5t-5.5 21t-6.5 21.5t-5.5 14q-23 55 -53 79.5t-60.5 26.5t-58.5 -13.5t-47.5 -41.5t-26.5 -58.5t5 -62.5q15 -41 47 -56.5t70 -12.5t77 21.5t69 47.5z" />
    <glyph glyph-name="Adecimal" unicode="&#x66b;" horiz-adv-x="334" 
d="M146 25q-33 7 -50 25t-21 40.5t4 44.5t25 38.5t42 22.5t54 -5q26 -9 47.5 -31t24.5 -56t-18 -78t-79 -97q-11 -11 -18 -25.5t-14.5 -26.5t-18.5 -18.5t-30 -0.5q-23 7 -29.5 20.5t-2.5 29.5t15.5 34t25 34.5t26 29.5t17.5 19z" />
    <glyph glyph-name="Athousandsep" unicode="&#x66c;" horiz-adv-x="334" 
d="M146 25q-33 7 -50 25t-21 40.5t4 44.5t25 38.5t42 22.5t54 -5q26 -9 47.5 -31t24.5 -56t-18 -78t-79 -97q-11 -11 -18 -25.5t-14.5 -26.5t-18.5 -18.5t-30 -0.5q-23 7 -29.5 20.5t-2.5 29.5t15.5 34t25 34.5t26 29.5t17.5 19z" />
    <glyph glyph-name="Afullstop" unicode="&#x6d4;" horiz-adv-x="296" 
d="M148 193q18 0 34 -7t28 -19.5t19 -29.5t7 -36t-7 -35.5t-19 -29t-28 -19.5t-34 -7t-34 7t-28 19.5t-19 29t-7 35.5t7 36t19 29.5t28 19.5t34 7z" />
    <glyph glyph-name="quotedblleft" unicode="&#x201c;" horiz-adv-x="542" 
d="M445 810q27 -31 17 -71q-9 -32 -36.5 -48t-60.5 -7q-30 7 -53 26q-23 20 -31 44.5t-6 54.5q5 37 27 70q16 27 40 51t47 41q21 16 46 16q39 0 63 -34q16 -21 16 -46q0 -19 -8.5 -35.5t-24.5 -27.5q-9 -7 -18 -16zM197 819q15 -13 22 -30.5t4 -38.5q-5 -31 -31 -51t-59 -15
q-32 4 -55 20q-26 17 -37 40.5t-13 53.5q1 18 5.5 36.5t13.5 36.5q13 27 33.5 54.5t41.5 46.5q20 18 44 21q19 3 36 -4t30 -22q19 -19 22 -44q2 -18 -4 -35.5t-21 -30.5q-10 -8 -17 -18t-15 -20z" />
    <glyph glyph-name="quotedblright" unicode="&#x201d;" horiz-adv-x="542" 
d="M97 860q-27 30 -17 71q9 31 36.5 47t60.5 8q29 -8 53 -26q22 -21 30.5 -45.5t6.5 -53.5q-6 -38 -27 -71q-16 -26 -40.5 -50.5t-46.5 -41.5q-21 -15 -46 -15q-39 0 -63 34q-16 21 -16 45q0 20 8.5 36.5t24.5 27.5q9 6 18 15t18 19zM345 850q-15 13 -22 31t-4 38
q2 16 10.5 29t20 22t27 13.5t32.5 2.5q32 -5 55 -21q26 -17 37 -40.5t13 -52.5q-1 -18 -6 -36.5t-14 -36.5q-12 -27 -32.5 -54.5t-41.5 -47.5q-20 -18 -44 -21q-19 -2 -36.5 4.5t-29.5 21.5q-20 19 -22 44q-2 19 4 36.5t21 29.5q9 8 16.5 18t15.5 20z" />
    <glyph glyph-name="NULL" 
 />
    <glyph glyph-name="percent" horiz-adv-x="825" 
d="M109 168q16 46 50.5 107t78 128t93 137t96.5 135.5t88 122.5t67 98q14 21 36.5 30t46 7t43 -14t28 -32.5t1.5 -49t-38 -63.5t-71 -90t-84 -120t-88.5 -134.5t-84 -134.5t-71 -120.5t-48.5 -91.5q-11 -25 -29.5 -37t-38 -13t-38.5 7.5t-31 26t-15 43.5t9 58zM150 900
q37 19 68 12t53 -29.5t34 -55.5t11 -67t-17 -63t-50 -43q-38 -17 -69 -9.5t-52.5 29.5t-32.5 53.5t-9.5 64.5t17 62t47.5 46zM253 780q3 25 -13 38.5t-36.5 14.5t-38.5 -11t-19 -39q-1 -24 14 -39.5t34.5 -18t37 10t21.5 44.5zM536 325q37 19 68 12t53 -30t34 -56.5
t11 -67.5t-17 -63t-49 -43q-38 -17 -69 -9.5t-52.5 29.5t-33 54.5t-10 65.5t17 62.5t47.5 45.5zM640 203q3 25 -13 38.5t-36.5 15t-39 -10.5t-19.5 -39q-1 -24 14 -39.5t34.5 -18.5t37.5 9.5t22 44.5z" />
    <glyph glyph-name="shaddaA.fathatanA" 
d="M144 253q30 -25 43 -52t13.5 -52.5t-10 -46.5t-27.5 -32t-39 -10t-44 19q-17 -33 -49.5 -46t-65.5 -3.5t-58.5 42t-27.5 88.5q0 15 9.5 25t21 12.5t21 -6t9.5 -31.5q1 -8 5 -19.5t11 -21t16.5 -15.5t21.5 -3q13 3 16.5 11t1.5 18.5t-7 22t-9 21.5q-7 26 -0.5 42t17.5 18
q17 3 26 -5t14 -22t8.5 -30.5t9.5 -28.5t16 -17.5t29 2.5q9 4 14.5 9.5t5.5 13.5t-8 18.5t-26 24.5q-13 9 -16 21t6 26q9 13 24 14.5t28 -7.5zM137 354q-63 -62 -139.5 -93.5t-165.5 -14.5q-18 4 -24 17t-3 26t14.5 21t29.5 4q34 -6 66.5 -1.5t63 17t58 31.5t51.5 42
q12 13 25.5 12t23 -10t11 -23.5t-10.5 -27.5zM88 467q-63 -61 -140 -92.5t-165 -13.5q-18 4 -24 16.5t-3 25.5t14.5 22t29.5 5q34 -8 66.5 -4t63 16.5t57.5 32t51 43.5q12 12 26.5 10.5t24 -10.5t11 -23.5t-11.5 -27.5z" />
    <glyph glyph-name="shaddaA.dammatanA" 
d="M126 253q30 -25 43.5 -52t14 -52.5t-9.5 -46.5t-27.5 -32t-39.5 -10t-45 19q-17 -33 -50 -46t-66 -3.5t-58 42t-27 88.5q0 15 9.5 25t21 12.5t21 -6t9.5 -31.5q1 -8 4.5 -19.5t10.5 -21t16.5 -15.5t22.5 -3q12 3 15 11t1 18.5t-6.5 22t-7.5 21.5q-7 26 -1.5 42t19.5 18
q16 3 25 -5t14 -22t8.5 -30.5t10 -28.5t17 -17.5t29.5 2.5q8 4 13.5 9.5t5 13.5t-8.5 18.5t-26 24.5q-13 9 -17 21t5 26q9 13 25 14.5t29 -7.5zM-122 329q-31 28 -40 60.5t-1.5 63t30 57t54 45t69.5 25t77 -2.5q9 -5 11 -13t-4 -16q-5 -7 -13 -9.5t-15 2.5q-13 7 -35 5
t-46 -11.5t-46 -25t-35 -35.5t-12.5 -43t21.5 -48q13 -14 18.5 -28t-3.5 -24q-6 -7 -15 -7t-15 5zM-24 322q-18 11 -31 29t-13 50q0 31 15.5 56.5t38 38t49 8.5t47.5 -32q35 -46 29 -83.5t-35 -65.5t-73 -46t-86 -24q-26 -3 -42.5 -2.5t-27 3.5t-15.5 7t-8 9q-12 18 -1.5 26
t34.5 11t56 5t63 10zM41 373q16 15 14.5 31t-12 25t-26 8t-28.5 -19q-7 -12 -4 -24.5t11 -21t20.5 -9.5t24.5 10z" />
    <glyph glyph-name="shaddaA.kasratanB" 
d="M27 539q30 -25 43.5 -52t14 -52.5t-10 -46t-27.5 -32t-38.5 -10.5t-44.5 19q-18 -33 -51 -45.5t-66 -3t-58 41.5t-27 88q0 15 9.5 25t21 12.5t21 -6t9.5 -31.5q1 -8 5 -19.5t10.5 -21t16 -15.5t22.5 -3q12 3 15 11t1.5 18.5t-6 22t-7.5 21.5q-8 26 -2 42t19 18
q17 4 25.5 -4.5t14 -22.5t9 -30t9 -28.5t16 -18t29.5 2.5q9 4 14.5 9.5t5.5 13.5t-8 18.5t-27 24.5q-12 9 -16.5 21t4.5 26q9 13 25.5 14.5t28.5 -7.5zM-165 202q31 31 66.5 55t73.5 38.5t79.5 18t85.5 -5.5q18 -4 24 -16.5t3 -25t-14.5 -21.5t-29.5 -6q-69 15 -129.5 -12.5
t-108.5 -75.5q-12 -12 -26 -10t-23.5 11.5t-11 23.5t10.5 26zM-115 87q31 31 66 55t73.5 39t79.5 19t85 -5q18 -5 24 -17.5t3 -25.5t-14.5 -21.5t-28.5 -3.5q-35 6 -67.5 1.5t-63 -17t-57.5 -31.5t-51 -42q-12 -13 -25.5 -11.5t-23 11t-11.5 23.5t11 26z" />
    <glyph glyph-name="shaddaA.fathaA" 
d="M120 253q30 -25 43 -52t13.5 -52.5t-10 -46.5t-27.5 -32t-39 -10t-44 19q-17 -33 -49.5 -46t-65.5 -3.5t-58.5 42t-27.5 88.5q0 15 9.5 25t21 12.5t21 -6t9.5 -31.5q1 -8 5 -19.5t11 -21t16.5 -15.5t21.5 -3q13 3 16.5 11t1.5 18.5t-7 22t-9 21.5q-7 26 -0.5 42t17.5 18
q17 3 26 -5t14 -22t8.5 -30.5t9.5 -28.5t16 -17.5t29 2.5q9 4 14.5 9.5t5.5 13.5t-8 18.5t-26 24.5q-13 9 -16 21t6 26q9 13 24 14.5t28 -7.5zM113 354q-63 -62 -139.5 -93.5t-165.5 -14.5q-18 4 -24 17t-3 26t14.5 21t29.5 4q34 -6 66.5 -1.5t63 17t58 31.5t51.5 42
q12 13 25.5 12t23 -10t11 -23.5t-10.5 -27.5z" />
    <glyph glyph-name="shaddaA.dammaA" 
d="M107 253q30 -25 43.5 -52t14 -52.5t-10 -46.5t-27.5 -32t-39 -10t-45 19q-12 -22 -31 -35t-41 -16.5t-44.5 2.5t-41 22.5t-30.5 43.5t-13 64q0 15 9.5 25t21 12.5t21 -6t9.5 -31.5q1 -8 4.5 -19.5t10.5 -21t16.5 -15.5t22.5 -3q12 3 15 11t1 18.5t-6.5 22t-7.5 21.5
q-7 26 -1.5 42t19.5 18q16 3 25 -5t14 -22t8.5 -30.5t9.5 -28.5t16.5 -17.5t29.5 2.5q8 4 13.5 9.5t5.5 13.5t-8 18.5t-26 24.5q-13 9 -17 21t5 26q9 13 25 14.5t29 -7.5zM-43 322q-18 11 -31.5 29t-13.5 50q0 31 15.5 56.5t38.5 38t49 8.5t47 -32q35 -46 29.5 -83.5
t-35 -65.5t-73.5 -46t-85 -24q-26 -3 -42.5 -2.5t-27 3.5t-16 7t-8.5 9q-12 18 -1 26t35 11t56 5t63 10zM22 373q16 15 14.5 31t-12 25t-26 8t-28.5 -19q-7 -12 -4 -24.5t11 -21t20.5 -9.5t24.5 10z" />
    <glyph glyph-name="shaddaA.kasraB" 
d="M52 426q30 -25 43.5 -52t14 -52.5t-10 -46t-27.5 -32t-38.5 -10.5t-44.5 19q-18 -33 -51 -45.5t-66 -3t-58 41.5t-27 88q0 15 9.5 25t21 12.5t21 -6t9.5 -31.5q1 -8 5 -19.5t10.5 -21t16 -15.5t22.5 -3q12 3 15 11t1.5 18.5t-6 22t-7.5 21.5q-8 26 -2 42t19 18
q17 4 25.5 -4.5t14 -22.5t9 -30t9 -28.5t16 -18t29.5 2.5q9 4 14.5 9.5t5.5 13.5t-8 18.5t-27 24.5q-12 9 -16.5 21t4.5 26q9 13 25.5 14.5t28.5 -7.5zM-140 89q31 31 66.5 55t73.5 38.5t79.5 18t85.5 -5.5q18 -4 24 -16.5t3 -25t-14.5 -21.5t-29.5 -6q-69 15 -129.5 -12.5
t-108.5 -75.5q-12 -12 -26 -10t-23.5 11.5t-11 23.5t10.5 26z" />
    <glyph glyph-name="shaddaA.sukunA" 
d="M-113 467q26 13 48.5 8t38.5 -21t24.5 -40t7.5 -48t-12.5 -45t-35.5 -31q-27 -12 -49 -6.5t-37.5 21.5t-23.5 38.5t-7 46.5t12 44.5t34 32.5zM-38 380q1 18 -10.5 27.5t-26 10.5t-27 -7.5t-13.5 -27.5q-1 -17 9.5 -28.5t24.5 -13.5t27 7t16 32zM84 253q30 -25 43 -52
t13.5 -52.5t-10 -46.5t-27.5 -32t-39 -10t-44 19q-17 -33 -49.5 -46t-65.5 -3.5t-58.5 42t-27.5 88.5q0 15 9.5 25t21 12.5t21 -6t9.5 -31.5q1 -8 4.5 -19.5t10 -21t16.5 -15.5t23 -3t16.5 11t1.5 18.5t-7 22t-9 21.5q-7 26 -0.5 42t17.5 18q17 3 26 -5t14 -22t8.5 -30.5
t9.5 -28.5t16 -17.5t29 2.5q9 4 14.5 9.5t5.5 13.5t-8 18.5t-26 24.5q-13 9 -16 21t6 26q9 13 24 14.5t28 -7.5z" />
    <glyph glyph-name=".notdef.001" horiz-adv-x="1736" 
 />
    </font>
</defs>
</svg>
