<svg xmlns="http://www.w3.org/2000/svg" width="32" height="32" viewBox="0 0 32 32"><defs><style>.a{fill:#3f3f3f;}</style></defs><path class="a" d="M25.438,0H6.562A6.57,6.57,0,0,0,0,6.562V25.438A6.57,6.57,0,0,0,6.562,32H25.438A6.57,6.57,0,0,0,32,25.438V6.562A6.57,6.57,0,0,0,25.438,0ZM9.853,24.657a1.563,1.563,0,0,1-2.706-1.562l.307-.532h3.608ZM6.906,21.313a1.562,1.562,0,1,1,0-3.125H9.98l4.216-7.3L13.053,8.906a1.564,1.564,0,0,1,.572-2.134h0a1.564,1.564,0,0,1,2.134.572L16,7.76l.24-.417a1.562,1.562,0,1,1,2.706,1.563l-5.358,9.281h3.38l1.8,3.125Zm18.188,0H23.824l1.029,1.782a1.562,1.562,0,1,1-2.706,1.562l-5.425-9.4,1.8-3.125,3.494,6.052h3.074a1.563,1.563,0,0,1,0,3.125Z"/></svg>