<svg xmlns="http://www.w3.org/2000/svg" width="81" height="78.75" viewBox="0 0 81 78.75"><defs><style>.a{fill:#f38120;}.b{fill:#bdc3d8;}.c{fill:#fff;}.d{fill:#21365f;}</style></defs><g transform="translate(-610.03 -332.71)"><circle class="a" cx="14" cy="14" r="14" transform="translate(610.03 366.27)"/><circle class="a" cx="12" cy="12" r="12" transform="translate(653.03 387.46)"/><circle class="a" cx="20" cy="20" r="20" transform="translate(651.03 332.71)"/><rect class="b" width="26" height="6" transform="translate(639.28 397.7)"/><path class="c" d="M660.28,397.71h-21v4h17A4,4,0,0,0,660.28,397.71Z"/><path class="d" d="M665.28,404.46h-26a.75.75,0,0,1-.75-.75v-6a.75.75,0,0,1,.75-.75h26a.75.75,0,0,1,.75.75v6a.75.75,0,0,1-.75.75ZM640,403h24.5v-4.5H640Z"/><path class="b" d="M620.28,391.7h64v3a3,3,0,0,1-3,3h-58a3,3,0,0,1-3-3Z"/><path class="c" d="M675.28,395.71h-55v-4h59A4,4,0,0,1,675.28,395.71Z"/><path class="d" d="M681.28,398.46h-58a3.75,3.75,0,0,1-3.75-3.75v-3a.75.75,0,0,1,.75-.75h64a.75.75,0,0,1,.75.75v3a3.75,3.75,0,0,1-3.75,3.75Zm-60.25-6v2.25a2.25,2.25,0,0,0,2.25,2.25h58a2.25,2.25,0,0,0,2.25-2.25v-2.25Z"/><path class="d" d="M672.28,404.46h-40a.75.75,0,1,1,0-1.5h40a.75.75,0,0,1,0,1.5Z"/><circle class="d" cx="0.75" cy="0.75" r="0.75" transform="translate(651.53 393.95)"/><path class="b" d="M623.28,351.71h58a3,3,0,0,1,3,3v37h-64v-37A3,3,0,0,1,623.28,351.71Z"/><path class="c" d="M623.28,351.71h57v29a4,4,0,0,1-4,4h-56v-30A3,3,0,0,1,623.28,351.71Z"/><path class="d" d="M684.28,392.46h-64a.75.75,0,0,1-.75-.75v-37a3.75,3.75,0,0,1,3.75-3.75h58a3.75,3.75,0,0,1,3.75,3.75v37a.75.75,0,0,1-.75.75ZM621,391h62.5V354.71a2.25,2.25,0,0,0-2.25-2.25h-58a2.25,2.25,0,0,0-2.25,2.25Z"/><rect class="b" width="46" height="44" transform="translate(629.28 347.7)"/><path class="c" d="M629.28,347.7h42v23a18,18,0,0,1-18,18h-24Z"/><path class="d" d="M675.28,392.46h-46a.75.75,0,0,1-.75-.75v-44a.75.75,0,0,1,.75-.75h46a.75.75,0,0,1,.75.75v44a.75.75,0,0,1-.75.75ZM630,391h44.5V348.5H630Z"/><path class="b" d="M631.28,339.7h42a2,2,0,0,1,2,2v6h-46v-6A2,2,0,0,1,631.28,339.7Z"/><path class="c" d="M631.28,339.7h41v4a2,2,0,0,1-2,2h-41v-4A2,2,0,0,1,631.28,339.7Z"/><path class="d" d="M675.28,348.46h-46a.75.75,0,0,1-.75-.75v-6a2.75,2.75,0,0,1,2.75-2.75h42a2.75,2.75,0,0,1,2.75,2.75v6a.75.75,0,0,1-.75.75ZM630,347h44.5v-5.25a1.25,1.25,0,0,0-1.25-1.25h-42a1.25,1.25,0,0,0-1.25,1.25Z"/><path class="d" d="M670.28,344.46a.75.75,0,0,1-.53-.22.79.79,0,0,1-.22-.53.75.75,0,0,1,.22-.53.77.77,0,0,1,1.06,0,.76.76,0,0,1,0,1.07A.77.77,0,0,1,670.28,344.46Z"/><path class="d" d="M664.53,343.71a.74.74,0,0,1,.75-.75h0a.75.75,0,0,1,.75.75h0a.76.76,0,0,1-.75.75h0A.75.75,0,0,1,664.53,343.71Z"/><path class="d" d="M660.28,344.46a.75.75,0,0,1-.53-.22.79.79,0,0,1-.22-.53.75.75,0,0,1,.22-.53.753.753,0,1,1,1.06,1.07A.77.77,0,0,1,660.28,344.46Z"/><path class="d" d="M624.28,376.45a.75.75,0,0,1-.75-.75V365a.75.75,0,0,1,1.5,0v10.7A.75.75,0,0,1,624.28,376.45Z"/><path class="d" d="M624.28,361.75a.75.75,0,0,1-.75-.75v-2.3a.75.75,0,1,1,1.5,0V361A.75.75,0,0,1,624.28,361.75Z"/><circle class="c" cx="16" cy="16" r="16" transform="translate(636.28 353.7)"/><path class="b" d="M664.49,359.38A16,16,0,0,1,638.06,377a16,16,0,1,0,26.43-17.64Z"/><path class="d" d="M652.28,386.46A16.75,16.75,0,1,1,669,369.71a16.75,16.75,0,0,1-16.72,16.75Zm0-32a15.25,15.25,0,1,0,15.25,15.25,15.25,15.25,0,0,0-15.25-15.25Z"/><path class="b" d="M664.28,373.7l14,4.81-6.37,2.83-2.83,6.36Z"/><path class="c" d="M664.28,373.7l7.63,7.64-2.83,6.36Z"/><path class="d" d="M669.08,388.46h0a.75.75,0,0,1-.68-.51l-4.8-14a.75.75,0,0,1,1-1l14,4.8a.75.75,0,0,1,.06,1.39l-6.1,2.71-2.71,6.1a.75.75,0,0,1-.77.51Zm-3.6-13.54,3.69,10.75,2.06-4.62a.75.75,0,0,1,.38-.38l4.62-2.06Z"/><path class="b" d="M644.78,365h15a1,1,0,0,1,1,1v8a4,4,0,0,1-4,4h-9a4,4,0,0,1-4-4v-8A1,1,0,0,1,644.78,365Z"/><path class="c" d="M644.78,365h14v7a2,2,0,0,1-2,2h-13v-8A1,1,0,0,1,644.78,365Z"/><path class="d" d="M656.78,378.77h-9A4.76,4.76,0,0,1,643,374v-8a1.75,1.75,0,0,1,1.75-1.75h15A1.75,1.75,0,0,1,661.5,366v8A4.76,4.76,0,0,1,656.78,378.77Zm-12-13a.25.25,0,0,0-.25.25v8a3.25,3.25,0,0,0,3.25,3.25h9A3.25,3.25,0,0,0,660,374v-8a.25.25,0,0,0-.25-.25Z"/><path class="d" d="M656.28,367.93a.75.75,0,0,1-.75-.75v-3.33a3.25,3.25,0,0,0-6.5,0v3.33a.75.75,0,0,1-1.5,0v-3.33a4.75,4.75,0,0,1,9.5,0v3.33A.75.75,0,0,1,656.28,367.93Z"/></g></svg>