<svg xmlns="http://www.w3.org/2000/svg" width="77.261" height="81.73" viewBox="0 0 77.261 81.73"><defs><style>.a{fill:#f38120;}.b{fill:#bdc3d8;}.c{fill:#fff;}.d{fill:#21365f;}</style></defs><g transform="translate(-373.31 -207.52)"><circle class="a" cx="14" cy="14" r="14" transform="translate(394.56 261.25)"/><circle class="a" cx="12" cy="12" r="12" transform="translate(426.57 231.95)"/><circle class="a" cx="20" cy="20" r="20" transform="translate(373.31 207.52)"/><rect class="b" width="58" height="34" rx="1" transform="translate(442.57 217.65) rotate(90)"/><path class="c" d="M408.56,272.65v-53h30a2,2,0,0,1,2,2v50a2,2,0,0,0-2,2h-29A1,1,0,0,1,408.56,272.65Z"/><path class="d" d="M441.56,276.4h-32a1.75,1.75,0,0,1-1.75-1.75v-56a1.75,1.75,0,0,1,1.75-1.75h32a1.75,1.75,0,0,1,1.75,1.75v56A1.75,1.75,0,0,1,441.56,276.4Zm-32-58a.25.25,0,0,0-.25.25v56a.25.25,0,0,0,.25.25h32a.25.25,0,0,0,.25-.25v-56a.25.25,0,0,0-.25-.25Z"/><path class="c" d="M408.56,266.65v-40a9,9,0,0,0,9-9h16a9,9,0,0,0,9,9v40a9,9,0,0,0-9,9h-16a9,9,0,0,0-9-9Z"/><path class="b" d="M438.56,225.71v37.58a13,13,0,0,0-8.37,8.37H416.62a9,9,0,0,1,.95,4h16a9,9,0,0,1,9-9v-40a9,9,0,0,1-4.01-.95Z"/><path class="d" d="M433.56,276.4h-16a.75.75,0,0,1-.75-.75,8.26,8.26,0,0,0-8.25-8.25.75.75,0,0,1-.75-.75v-40a.75.75,0,0,1,.75-.75,8.26,8.26,0,0,0,8.25-8.25.75.75,0,0,1,.75-.75h16a.75.75,0,0,1,.75.75,8.26,8.26,0,0,0,8.25,8.25.75.75,0,0,1,.75.75v40a.75.75,0,0,1-.75.75,8.26,8.26,0,0,0-8.25,8.25.75.75,0,0,1-.75.75Zm-15.28-1.5h14.56a9.77,9.77,0,0,1,9-9V227.38a9.77,9.77,0,0,1-9-9H418.29a9.77,9.77,0,0,1-9,9v38.56a9.77,9.77,0,0,1,9,8.96Z"/><circle class="c" cx="3.5" cy="3.5" r="3.5" transform="translate(422.06 262.16)"/><path class="b" d="M427.66,262.87a3.48,3.48,0,0,1-5.6,2.77h0a3.5,3.5,0,1,0,5.6-2.77Z"/><path class="d" d="M425.56,269.91a4.25,4.25,0,1,1,4.25-4.25A4.25,4.25,0,0,1,425.56,269.91Zm0-7a2.75,2.75,0,1,0,2.75,2.75,2.75,2.75,0,0,0-2.75-2.75Z"/><circle class="c" cx="3.5" cy="3.5" r="3.5" transform="translate(422.06 224.15)"/><path class="b" d="M427.66,224.87a3.48,3.48,0,0,1-5.6,2.77h0a3.5,3.5,0,1,0,5.6-2.77Z"/><path class="d" d="M425.56,231.9a4.25,4.25,0,1,1,4.25-4.25A4.25,4.25,0,0,1,425.56,231.9Zm0-7a2.75,2.75,0,1,0,2.75,2.75,2.75,2.75,0,0,0-2.75-2.75Z"/><circle class="c" cx="10" cy="10" r="10" transform="translate(415.56 236.65)"/><path class="b" d="M433,240a9.8,9.8,0,0,1-.23,4.79,9.982,9.982,0,0,1-17.03,3.8A10,10,0,1,0,433,240Z"/><path class="d" d="M425.56,257.4a10.75,10.75,0,1,1,10.75-10.75,10.75,10.75,0,0,1-10.75,10.75Zm0-20a9.25,9.25,0,1,0,9.25,9.25,9.25,9.25,0,0,0-9.25-9.25Z"/><path class="d" d="M423,250.2a3.43,3.43,0,0,1-3.29-3.54,3.53,3.53,0,0,1,2.09-3.3.75.75,0,1,1,.58,1.38,2.06,2.06,0,0,0-1.17,1.92,1.93,1.93,0,0,0,1.79,2c1.19,0,1.79-.69,1.79-2.05,0-2.61,1.7-3.54,3.29-3.54a3.43,3.43,0,0,1,3.29,3.54,3.53,3.53,0,0,1-2.09,3.3.75.75,0,0,1-.58-1.38,2.06,2.06,0,0,0,1.17-1.92,1.93,1.93,0,0,0-1.79-2c-1.19,0-1.79.69-1.79,2C426.31,249.27,424.61,250.2,423,250.2Z"/><path class="d" d="M432,247.4h-1.4a.75.75,0,0,1,0-1.5H432a.75.75,0,0,1,0,1.5Z"/><path class="d" d="M420.49,247.4h-1.4a.75.75,0,0,1,0-1.5h1.4a.75.75,0,0,1,0,1.5Z"/><rect class="b" width="48" height="32" rx="2" transform="translate(378.56 281.65) rotate(-90)"/><path class="c" d="M370.56,241.65h43a1,1,0,0,1,1,1v27h-43a1,1,0,0,1-1-1Z" transform="translate(136.91 648.21) rotate(-90)"/><path class="d" d="M408.56,282.4h-28a2.75,2.75,0,0,1-2.75-2.75v-44a2.75,2.75,0,0,1,2.75-2.75h28a2.75,2.75,0,0,1,2.75,2.75v44A2.75,2.75,0,0,1,408.56,282.4Zm-28-48a1.25,1.25,0,0,0-1.25,1.25v44a1.25,1.25,0,0,0,1.25,1.25h28a1.25,1.25,0,0,0,1.25-1.25v-44a1.25,1.25,0,0,0-1.25-1.25Z"/><rect class="b" width="9" height="6" rx="1" transform="translate(385.04 275.26) rotate(-90)"/><path class="c" d="M383.54,267.76h6a1,1,0,0,1,1,1v3h-6a1,1,0,0,1-1-1Z" transform="translate(117.29 656.8) rotate(-90)"/><path class="d" d="M390,276h-4a1.75,1.75,0,0,1-1.75-1.75v-7A1.75,1.75,0,0,1,386,265.5h4a1.75,1.75,0,0,1,1.75,1.75v7A1.75,1.75,0,0,1,390,276Zm-4-9a.25.25,0,0,0-.25.25v7a.25.25,0,0,0,.25.25h4a.25.25,0,0,0,.25-.25v-7A.25.25,0,0,0,390,267Z"/><path class="d" d="M402.86,262.45a.75.75,0,0,1-.75-.75V248.17a.75.75,0,0,1,1.5,0V261.7A.75.75,0,0,1,402.86,262.45Z"/><path class="d" d="M402.86,276.18a.75.75,0,0,1-.75-.75v-9a.75.75,0,1,1,1.5,0v9A.75.75,0,0,1,402.86,276.18Z"/><path class="d" d="M396.93,276a.75.75,0,0,1-.75-.75v-5.08a.75.75,0,0,1,1.5,0v5.08A.75.75,0,0,1,396.93,276Z"/><path class="d" d="M396.93,265.85a.75.75,0,0,1-.75-.75V260a.75.75,0,0,1,1.5,0v5.08a.75.75,0,0,1-.75.77Z"/><path class="d" d="M396.93,255.69a.75.75,0,0,1-.75-.75v-5.08a.75.75,0,0,1,1.5,0v5.08A.75.75,0,0,1,396.93,255.69Z"/><path class="d" d="M396.93,245.53a.75.75,0,0,1-.75-.75V239.7a.75.75,0,0,1,1.5,0v5.08a.75.75,0,0,1-.75.75Z"/><circle class="c" cx="3" cy="3" r="3" transform="translate(385.04 244.7)"/><path class="b" d="M390,245.46v.24a3,3,0,0,1-5,2.24,3,3,0,1,0,5-2.48Z"/><path class="d" d="M388,251.45a3.75,3.75,0,1,1,3.75-3.75,3.75,3.75,0,0,1-3.75,3.75Zm0-6a2.25,2.25,0,1,0,2.25,2.25A2.25,2.25,0,0,0,388,245.45Z"/><circle class="c" cx="3" cy="3" r="3" transform="translate(385.04 239.7)"/><path class="b" d="M390,240.46v.24a3,3,0,0,1-5,2.24,3,3,0,1,0,5-2.48Z"/><path class="d" d="M388,246.45a3.75,3.75,0,1,1,3.75-3.75,3.75,3.75,0,0,1-3.75,3.75Zm0-6a2.25,2.25,0,1,0,2.25,2.25,2.25,2.25,0,0,0-2.25-2.25Z"/><path class="d" d="M403.56,220.4h-4a.75.75,0,0,1,0-1.5h4a.75.75,0,0,1,0,1.5Z"/><path class="d" d="M401.56,222.4a.75.75,0,0,1-.75-.75v-4a.75.75,0,0,1,1.5,0v4A.75.75,0,0,1,401.56,222.4Z"/><path class="d" d="M395.56,228.4h-4a.75.75,0,0,1,0-1.5h4a.75.75,0,0,1,0,1.5Z"/><path class="d" d="M393.56,230.4a.75.75,0,0,1-.75-.75v-4a.75.75,0,0,1,1.5,0v4a.75.75,0,0,1-.75.75Z"/><path class="d" d="M383.56,224.4h-4a.75.75,0,1,1,0-1.5h4a.75.75,0,0,1,0,1.5Z"/><path class="d" d="M381.56,226.4a.75.75,0,0,1-.75-.75v-4a.75.75,0,0,1,1.5,0v4A.75.75,0,0,1,381.56,226.4Z"/></g></svg>