<svg xmlns="http://www.w3.org/2000/svg" width="78.24" height="76.47" viewBox="0 0 78.24 76.47"><defs><style>.a,.b,.c{fill:#0d4673;}.a{opacity:0.43;}.b{opacity:0.75;}.c{opacity:0.76;}.d{fill:#bdc3d8;}.e{fill:#fff;}.f{fill:#21365f;}</style></defs><g transform="translate(-731.87 -94.07)"><circle class="a" cx="14" cy="14" r="14" transform="translate(731.87 126.51)"/><circle class="b" cx="12" cy="12" r="12" transform="translate(778.11 94.07)"/><circle class="c" cx="20" cy="20" r="20" transform="translate(770.11 130.54)"/><rect class="d" width="26" height="6" transform="translate(759.12 157.54)"/><path class="e" d="M780.11,157.54h-21v4h17A4,4,0,0,0,780.11,157.54Z"/><path class="f" d="M785.12,164.29h-26a.75.75,0,0,1-.75-.75v-6a.75.75,0,0,1,.75-.75h26a.75.75,0,0,1,.75.75v6A.75.75,0,0,1,785.12,164.29Zm-25.25-1.5h24.5v-4.5h-24.5Z"/><path class="d" d="M743.12,111.54h58a3,3,0,0,1,3,3v37h-64v-37A3,3,0,0,1,743.12,111.54Z"/><path class="e" d="M743.12,111.54h56v31a5,5,0,0,1-5,5h-54v-33A3,3,0,0,1,743.12,111.54Z"/><path class="f" d="M804.12,152.29h-64a.75.75,0,0,1-.75-.75v-37a3.75,3.75,0,0,1,3.75-3.75h58a3.75,3.75,0,0,1,3.75,3.75v37A.75.75,0,0,1,804.12,152.29Zm-63.25-1.5h62.5V114.54a2.25,2.25,0,0,0-2.25-2.25h-58a2.25,2.25,0,0,0-2.25,2.25Z"/><path class="d" d="M740.12,151.54h64v3a3,3,0,0,1-3,3h-58a3,3,0,0,1-3-3Z"/><path class="e" d="M794.12,155.54h-54v-4h58A4,4,0,0,1,794.12,155.54Z"/><path class="f" d="M801.12,158.29h-58a3.75,3.75,0,0,1-3.75-3.75v-3a.75.75,0,0,1,.75-.75h64a.75.75,0,0,1,.75.75v3A3.75,3.75,0,0,1,801.12,158.29Zm-60.25-6v2.25a2.25,2.25,0,0,0,2.25,2.25h58a2.25,2.25,0,0,0,2.25-2.25v-2.25Z"/><path class="f" d="M792.12,164.29h-40a.75.75,0,0,1,0-1.5h40a.75.75,0,0,1,0,1.5Z"/><circle class="f" cx="0.75" cy="0.75" r="0.75" transform="translate(771.37 153.79)"/><path class="d" d="M751.12,99.54h42a2,2,0,0,1,2,2v6h-46v-6A2,2,0,0,1,751.12,99.54Z"/><path class="e" d="M751.12,99.54h38v2a4,4,0,0,1-4,4h-36v-4A2,2,0,0,1,751.12,99.54Z"/><path class="d" d="M795.12,107.54h-46v34a2,2,0,0,0,2,2h6v8l16-8h20a2,2,0,0,0,2-2Z"/><path class="e" d="M787.11,107.54h-38v32h31a7,7,0,0,0,7-7Z"/><path class="f" d="M757.11,152.29a.75.75,0,0,1-.75-.75v-7.25h-5.25a2.75,2.75,0,0,1-2.75-2.75v-34a.75.75,0,0,1,.75-.75h46a.75.75,0,0,1,.75.75v34a2.75,2.75,0,0,1-2.75,2.75H773.29l-15.84,7.92a.75.75,0,0,1-.34.08Zm-7.25-44v33.25a1.25,1.25,0,0,0,1.25,1.25h6a.75.75,0,0,1,.75.75v6.79l14.92-7.46a.759.759,0,0,1,.33-.08h20a1.25,1.25,0,0,0,1.25-1.25V108.29Z"/><path class="f" d="M795.12,108.29h-46a.75.75,0,0,1-.75-.75v-6a2.75,2.75,0,0,1,2.75-2.75h42a2.75,2.75,0,0,1,2.75,2.75v6a.75.75,0,0,1-.75.75Zm-45.25-1.5h44.5v-5.25a1.25,1.25,0,0,0-1.25-1.25h-42a1.25,1.25,0,0,0-1.25,1.25Z"/><path class="f" d="M781.11,104.29a.77.77,0,0,1-.53-.22.75.75,0,1,1,.53.22Z"/><path class="f" d="M784.86,103.54a.76.76,0,0,1,.75-.75h0a.75.75,0,0,1,.75.75h0a.74.74,0,0,1-.75.75h0a.75.75,0,0,1-.75-.75Z"/><path class="f" d="M790.11,104.29a.75.75,0,1,1,.53-1.28.79.79,0,0,1,.22.53.75.75,0,0,1-.75.75Z"/><path class="f" d="M744.12,139.29a.75.75,0,0,1-.75-.75v-11.7a.75.75,0,0,1,1.5,0v11.7a.75.75,0,0,1-.75.75Z"/><path class="f" d="M744.12,123.59a.75.75,0,0,1-.75-.75v-2.3a.75.75,0,0,1,1.5,0v2.3A.75.75,0,0,1,744.12,123.59Z"/><path class="f" d="M754.12,127.29a.75.75,0,0,1-.75-.75v-7.7a.75.75,0,1,1,1.5,0v7.7A.75.75,0,0,1,754.12,127.29Z"/><path class="f" d="M754.12,115.59a.75.75,0,0,1-.75-.75v-2.3a.75.75,0,0,1,1.5,0v2.3A.75.75,0,0,1,754.12,115.59Z"/><path class="f" d="M762.68,136.29a.75.75,0,0,1-.53-1.28l20-20a.75.75,0,1,1,1.06,1.06l-20,20a.75.75,0,0,1-.53.22Z"/><circle class="e" cx="3.75" cy="3.75" r="3.75" transform="translate(775.18 128.04)"/><path class="d" d="M780.39,128.33a3.75,3.75,0,0,1-4.91,4.91,3.75,3.75,0,1,0,4.91-4.91Z"/><path class="f" d="M778.93,136.29a4.5,4.5,0,1,1,4.5-4.5A4.5,4.5,0,0,1,778.93,136.29Zm0-7.5a3,3,0,1,0,3,3,3,3,0,0,0-3-3Z"/><circle class="e" cx="3.75" cy="3.75" r="3.75" transform="translate(762.68 115.54)"/><path class="d" d="M767.89,115.83a3.75,3.75,0,0,1-4.91,4.91,3.75,3.75,0,1,0,4.91-4.91Z"/><path class="f" d="M766.43,123.79a4.5,4.5,0,1,1,4.5-4.5,4.5,4.5,0,0,1-4.5,4.5Zm0-7.5a3,3,0,1,0,3,3,3,3,0,0,0-3-3Z"/></g></svg>