<svg xmlns="http://www.w3.org/2000/svg" width="739.526" height="364.868" viewBox="0 0 739.526 364.868"><defs><style>.a{opacity:0.37;}.b{fill:#f38120;}</style></defs><g class="a" transform="translate(-1435.62 -4762.61) rotate(-14)"><g transform="translate(-14.515 58.218)"><path class="b" d="M2.65,0A2.65,2.65,0,0,0,0,2.65V8.532a2.65,2.65,0,0,0,5.061,0V2.65A2.65,2.65,0,0,0,2.65,0Z" transform="translate(481.17 5334.096) rotate(-34)"/><path class="b" d="M7.746,0H1.864a2.65,2.65,0,0,0,0,5.061H7.746A2.65,2.65,0,0,0,7.746,0Z" transform="translate(468.222 5335.862) rotate(-34)"/><path class="b" d="M2.65,0A2.65,2.65,0,0,0,0,2.65V8.532a2.65,2.65,0,0,0,5.061,0V2.65A2.65,2.65,0,0,0,2.65,0Z" transform="translate(471.123 5319.2) rotate(-34)"/><path class="b" d="M7.746.119H1.864a2.65,2.65,0,0,0,0,5.061H7.746a2.65,2.65,0,1,0,0-5.061Z" transform="translate(483.779 5324.712) rotate(-34)"/></g><path class="b" d="M25.358,0S28.8,24.669,0,24.086c0,0,24.748.265,24.112,23.4,0,0,2.226-18.2,24.934-22.284C49.046,25.225,29.862,29.624,25.358,0Z" transform="translate(474.87 5064.373) rotate(-34)"/><path class="b" d="M25.358,0S28.8,24.669,0,24.086c0,0,24.748.265,24.112,23.4,0,0,2.226-18.2,24.934-22.284C49.046,25.2,29.836,29.6,25.358,0Z" transform="translate(180.466 5210.421) rotate(-34)"/><path class="b" d="M69.45,45.831H13.25a13.038,13.038,0,1,1-.424-26.073,20.191,20.191,0,0,1,37.1-10.6,14.626,14.626,0,0,1,16.243,10.6H69.45a13.037,13.037,0,0,1,0,26.073ZM13.25,23.6a9.194,9.194,0,1,0,0,18.362h56.2a9.194,9.194,0,1,0,0-18.362H62.959l-.265-1.616a10.784,10.784,0,0,0-13.248-8.876l-1.431.344L47.3,12.18a16.322,16.322,0,0,0-30.578,7.949c0,.477,0,.954,0,1.4l.186,2.093Z" transform="translate(809.975 5392.062) rotate(11)"/></g></svg>