<svg xmlns="http://www.w3.org/2000/svg" width="45.166" height="42" viewBox="0 0 45.166 42"><defs><style>.a,.b{fill:#f38120;}.a{opacity:0;}</style></defs><g transform="translate(0)"><g transform="translate(0)"><rect class="a" width="42" height="42" transform="translate(45.166) rotate(90)"/><path class="b" d="M5.771,15.626h31L30.344,7.905a1.773,1.773,0,1,1,2.727-2.267l8.854,10.625a2.107,2.107,0,0,1,.159.266.224.224,0,0,0,.124.23,1.7,1.7,0,0,1,0,1.275.224.224,0,0,1-.124.23,2.108,2.108,0,0,1-.159.266L33.071,29.155a1.773,1.773,0,1,1-2.727-2.267l6.428-7.721h-31a1.771,1.771,0,0,1,0-3.542Z" transform="translate(-4 3.603)"/></g></g></svg>