<svg xmlns="http://www.w3.org/2000/svg" width="22.352" height="21.42" viewBox="0 0 22.352 21.42"><defs><style>.a{fill:#f9f9f9;}</style></defs><g transform="translate(0)"><path class="a" d="M8.75,17.612v4.319a.7.7,0,0,0,1.261.414l2.527-3.438Z" transform="translate(-0.601 -1.21)"/><path class="a" d="M22.058.129a.7.7,0,0,0-.728-.05L.375,11.022a.7.7,0,0,0,.1,1.281L6.3,14.294,18.7,3.686,9.1,15.252l9.763,3.337a.715.715,0,0,0,.225.037.7.7,0,0,0,.691-.6L22.344.8a.7.7,0,0,0-.286-.672Z" transform="translate(0 0)"/></g></svg>