<svg xmlns="http://www.w3.org/2000/svg" width="24" height="24" viewBox="0 0 24 24"><defs><style>.a,.b{fill:#f38120;}.a{opacity:0;}</style></defs><rect class="a" width="24" height="24"/><path class="b" d="M21.75,15.91a1,1,0,0,0-.72-.65l-6-1.37a1,1,0,0,0-.92.26c-.14.13-.15.14-.8,1.38a9.91,9.91,0,0,1-4.87-4.89C9.71,10,9.72,10,9.85,9.85a1,1,0,0,0,.26-.92L8.74,3a1,1,0,0,0-.65-.72,3.79,3.79,0,0,0-.72-.18A3.94,3.94,0,0,0,6.6,2,4.6,4.6,0,0,0,2,6.6,15.42,15.42,0,0,0,17.4,22,4.6,4.6,0,0,0,22,17.4a4.77,4.77,0,0,0-.06-.76A4.34,4.34,0,0,0,21.75,15.91Z"/></svg>