<svg xmlns="http://www.w3.org/2000/svg" width="1279.9" height="1242.708" viewBox="0 0 1279.9 1242.708"><defs><style>.a{fill:#0d4673;opacity:0.03;}</style></defs><path class="a" d="M733.242,660.016c67.566-57.245,118.966-115.159,174.511-187.468,55.545-72.477,115.235-159.181,94.51-228.979C981.537,173.6,880.188,120.543,782.569,79.7c-97.618-40.674-191.3-69.3-292.441-77.331C388.987-5.831,280.591,6.555,195.2,50.409,109.6,94.431,47.219,170.088,18.617,252.1-9.777,334.122-4.6,422.333,26.7,505.02,57.789,587.706,114.992,664.87,197.688,718.1c82.9,53.395,191.3,82.854,287.466,69.3C581.529,774,665.469,717.26,733.242,660.016Z" transform="matrix(0.788, -0.616, 0.616, 0.788, 0, 619.646)"/></svg>