<svg xmlns="http://www.w3.org/2000/svg" width="22" height="22" viewBox="0 0 22 22"><defs><style>.a{opacity:0.75;}.b,.c{fill:#0d4673;}.b{opacity:0;}</style></defs><g class="a"><rect class="b" width="22" height="22"/><g transform="translate(0.834 4.396)"><path class="c" d="M10.166,12.885A67.591,67.591,0,0,1,2.217,12.5,2.472,2.472,0,0,1,.426,10.9,21.726,21.726,0,0,1,0,6.459a21.866,21.866,0,0,1,.425-4.41A2.452,2.452,0,0,1,2.217.384,67.591,67.591,0,0,1,10.166,0a73.693,73.693,0,0,1,7.948.352,2.446,2.446,0,0,1,1.794,1.666,22.121,22.121,0,0,1,.425,4.442,22.109,22.109,0,0,1-.425,4.376A2.453,2.453,0,0,1,18.115,12.5,67.582,67.582,0,0,1,10.166,12.885ZM8.088,3.735h0V9.184L13.4,6.459,8.088,3.735Z" transform="translate(0)"/></g></g></svg>