<?xml version="1.0" encoding="utf-8"?>
<!-- Generator: Adobe Illustrator 25.0.0, SVG Export Plug-In . SVG Version: 6.00 Build 0)  -->
<svg version="1.1" id="Layer_1" xmlns="http://www.w3.org/2000/svg" xmlns:xlink="http://www.w3.org/1999/xlink" x="0px" y="0px"
	 viewBox="0 0 500 500" style="enable-background:new 0 0 500 500;" xml:space="preserve">
<style type="text/css">
	.st0{fill:#F38120;}
	.st1{fill:#FFFFFF;}
	.st2{fill:#21365F;}
</style>
<g>
	<path class="st0" d="M110.99,102.85l-27.76-0.32c-3.74-0.18-6.85,2.96-6.9,6.71s2.98,6.83,6.73,6.9l27.76,0.32h0.08
		c3.72,0,6.75-3,6.79-6.71C117.75,105.99,114.75,102.91,110.99,102.85"/>
	<path class="st1" d="M404.83,204.59c-5.31,2.61-11.28,4.1-17.63,4.1c-16.58,0-30.71-10-36.72-24.41
		c-6.01,14.41-20.14,24.41-36.72,24.41c-16.58,0-30.71-10-36.72-24.41c-6.01,14.42-20.14,24.41-36.72,24.41
		c-16.58,0-30.71-10-36.72-24.41c-6.01,14.42-20.14,24.41-36.72,24.41c-6.5,0-12.62-1.56-18.03-4.29v160.53
		c0,4.4,3.57,7.97,7.97,7.97h21.33c1.5-12.32,12.03-21.9,24.78-21.9c12.75,0,23.28,9.58,24.78,21.9h98.64
		c1.5-12.32,12.04-21.9,24.79-21.9s23.28,9.58,24.79,21.9h20.92c4.4,0,7.97-3.57,7.97-7.97V204.59z M221.38,246.04
		c-3.2,3.24-3.27,9.18-3.27,9.24c0.04,3.1-2.45,5.65-5.55,5.68h-0.07c-3.07,0-5.58-2.47-5.62-5.55c-0.01-1.08,0.06-10.73,6.52-17.27
		c3.58-3.63,8.48-5.54,14.15-5.54c5.7,0,10.6,1.92,14.17,5.56c6.38,6.51,6.38,16.08,6.36,17.16c-0.06,3.1-2.66,5.61-5.73,5.5
		c-3.1-0.06-5.57-2.62-5.51-5.73c0.01-1.6-0.54-6.43-3.18-9.1c-1.45-1.46-3.45-2.16-6.12-2.16
		C224.87,243.84,222.85,244.56,221.38,246.04 M321.84,294.35c-3.3,11.54-16.98,33.37-45.18,33.37c-28.22,0-41.67-21.71-44.84-33.19
		c-0.83-2.99,0.93-6.08,3.92-6.91c2.99-0.83,6.08,0.93,6.91,3.92c0.28,1,7.41,24.94,34,24.94c26.86,0,34.3-24.97,34.38-25.22
		c0.85-2.99,3.96-4.71,6.95-3.86C320.97,288.25,322.7,291.36,321.84,294.35 M346.81,255.32c-0.06,3.1-2.66,5.61-5.73,5.5
		c-3.1-0.06-5.57-2.62-5.51-5.73c0.01-1.6-0.53-6.43-3.18-9.1c-1.45-1.46-3.45-2.16-6.12-2.16c-2.68,0-4.69,0.72-6.16,2.21
		c-3.2,3.24-3.27,9.18-3.27,9.24c0.04,3.1-2.45,5.65-5.55,5.68h-0.07c-3.07,0-5.58-2.47-5.62-5.55c-0.01-1.08,0.06-10.73,6.52-17.27
		c3.58-3.63,8.48-5.54,14.15-5.54c5.7,0,10.6,1.92,14.17,5.56C346.83,244.68,346.83,254.25,346.81,255.32"/>
	<path class="st0" d="M352.95,167h66.77l-9.14-29.07c0-0.02-0.01-0.04-0.01-0.05c-4.76-16.15-12.37-24-23.25-24h-46.54L352.95,167z"
		/>
	<path class="st0" d="M134.32,167h66.82l12.17-53.12h-46.95c-10.88,0-18.48,7.85-23.24,24L134.32,167z"/>
	<polygon class="st0" points="279.93,167 346.62,167 334.45,113.87 279.93,113.87 	"/>
	<polygon class="st0" points="207.48,167 273.75,167 273.75,113.87 219.65,113.87 	"/>
	<path class="st0" d="M166.88,202.51c17.16,0,31.25-12.65,33.38-29.34h-66.75C135.64,189.86,149.73,202.51,166.88,202.51"/>
	<path class="st0" d="M240.33,202.51c17.15,0,31.25-12.65,33.38-29.34h-66.75C209.08,189.86,223.17,202.51,240.33,202.51"/>
	<path class="st0" d="M313.77,202.51c17.15,0,31.25-12.65,33.38-29.34h-66.75C282.52,189.86,296.61,202.51,313.77,202.51"/>
	<path class="st0" d="M420.58,173.17h-66.75c2.12,16.69,16.21,29.34,33.37,29.34C404.36,202.51,418.46,189.86,420.58,173.17"/>
	<path class="st2" d="M427.02,170.19c0-0.06-0.01-0.12-0.01-0.18c0-0.09-0.01-0.17-0.02-0.26c-0.02-0.14-0.04-0.28-0.08-0.42
		c-0.01-0.06-0.01-0.11-0.03-0.17l-10.39-33.06c-5.56-18.85-15.38-28.4-29.16-28.4h-50.48h-0.01H166.36
		c-12.38,0-21.55,7.73-27.32,22.94l-4.24-21.42c-0.31-1.55-1.66-2.68-3.24-2.7l-11.08-0.15c-1.36-3.94-5.03-6.81-9.44-6.87
		L83.4,99.17c-2.67-0.12-5.21,0.82-7.18,2.69c-2.03,1.89-3.2,4.56-3.24,7.34c-0.06,5.59,4.44,10.21,10.05,10.29l27.8,0.32h0.08
		c4.37,0,8.1-2.83,9.51-6.74l8.32,0.11l6.09,30.73l-7.63,25.27c-0.02,0.05-0.02,0.1-0.03,0.15c-0.03,0.14-0.06,0.28-0.07,0.42
		c-0.01,0.09-0.02,0.18-0.02,0.27c0,0.05-0.01,0.11-0.01,0.16c0.43,12.46,6.45,23.33,15.6,30.32v164.41
		c0,7.8,6.35,14.15,14.15,14.15h21.35c1.56,12.25,12.06,21.76,24.76,21.76c12.7,0,23.2-9.51,24.76-21.76h98.69
		c1.56,12.25,12.06,21.76,24.76,21.76c12.7,0,23.2-9.51,24.77-21.76h20.94c7.8,0,14.15-6.35,14.15-14.15V200.81
		C420.39,193.83,426.59,182.83,427.02,170.19 M110.92,116.46h-0.08l-27.76-0.32c-3.76-0.06-6.77-3.14-6.73-6.9
		c0.04-3.76,3.16-6.89,6.9-6.71l27.76,0.32c3.76,0.06,6.75,3.14,6.71,6.89C117.67,113.47,114.63,116.46,110.92,116.46
		 M396.86,372.89h-20.92c-1.5-12.32-12.04-21.9-24.79-21.9c-12.75,0-23.28,9.58-24.79,21.9h-98.64c-1.5-12.32-12.04-21.9-24.79-21.9
		c-12.75,0-23.28,9.58-24.78,21.9h-21.33c-4.4,0-7.97-3.57-7.97-7.97V204.39c5.41,2.74,11.53,4.29,18.03,4.29
		c16.58,0,30.71-10,36.72-24.41c6.01,14.42,20.14,24.41,36.72,24.41c16.58,0,30.71-10,36.72-24.41
		c6.01,14.42,20.14,24.41,36.72,24.41c16.58,0,30.71-10,36.72-24.41c6.01,14.41,20.13,24.41,36.72,24.41
		c6.34,0,12.31-1.49,17.63-4.1v160.34C404.83,369.32,401.27,372.89,396.86,372.89 M351.15,392.17c-9,0-16.29-7.28-16.29-16.25
		c0-8.97,7.29-16.25,16.29-16.25c9,0,16.29,7.28,16.29,16.25C367.45,384.88,360.15,392.17,351.15,392.17 M202.94,392.17
		c-9,0-16.29-7.28-16.29-16.25c0-8.97,7.29-16.25,16.29-16.25s16.29,7.28,16.29,16.25C219.23,384.88,211.94,392.17,202.94,392.17
		 M166.36,113.87h46.95L201.14,167h-66.82l8.79-29.12C147.88,121.72,155.48,113.87,166.36,113.87 M410.57,137.87
		c0,0.02,0.01,0.04,0.01,0.05l9.14,29.07h-66.77l-12.17-53.12h46.54C398.2,113.87,405.81,121.72,410.57,137.87 M273.75,113.87V167
		h-66.27l12.17-53.12H273.75z M334.45,113.87L346.62,167h-66.69v-53.12H334.45z M273.7,173.18c-2.13,16.69-16.22,29.34-33.38,29.34
		c-17.16,0-31.25-12.65-33.38-29.34H273.7z M347.15,173.18c-2.13,16.69-16.23,29.34-33.38,29.34c-17.16,0-31.25-12.65-33.37-29.34
		H347.15z M200.26,173.18c-2.13,16.69-16.22,29.34-33.38,29.34c-17.16,0-31.25-12.65-33.38-29.34H200.26z M387.21,202.51
		c-17.16,0-31.25-12.65-33.37-29.34h66.75C418.46,189.86,404.36,202.51,387.21,202.51"/>
	<path class="st1" d="M219.23,375.92c0-8.97-7.29-16.25-16.29-16.25s-16.29,7.28-16.29,16.25c0,8.97,7.29,16.25,16.29,16.25
		S219.23,384.88,219.23,375.92"/>
	<path class="st1" d="M367.45,375.92c0-8.97-7.3-16.25-16.29-16.25c-9,0-16.29,7.28-16.29,16.25c0,8.97,7.29,16.25,16.29,16.25
		C360.15,392.17,367.45,384.88,367.45,375.92"/>
	<path class="st2" d="M326.27,232.6c-5.67,0-10.57,1.92-14.15,5.54c-6.45,6.53-6.53,16.19-6.52,17.27c0.03,3.08,2.54,5.55,5.62,5.55
		h0.07c3.1-0.04,5.59-2.58,5.55-5.68c0-0.06,0.07-6,3.27-9.24c1.47-1.48,3.48-2.21,6.16-2.21c2.67,0,4.67,0.71,6.12,2.16
		c2.65,2.67,3.19,7.49,3.18,9.1c-0.06,3.1,2.41,5.67,5.51,5.73c3.07,0.11,5.67-2.41,5.73-5.51c0.02-1.07,0.02-10.64-6.36-17.15
		C336.87,234.53,331.97,232.6,326.27,232.6"/>
	<path class="st2" d="M236.84,255.1c-0.06,3.1,2.4,5.67,5.51,5.73c3.07,0.11,5.67-2.41,5.73-5.51c0.02-1.07,0.02-10.64-6.36-17.15
		c-3.57-3.64-8.47-5.57-14.17-5.57c-5.67,0-10.57,1.92-14.15,5.54c-6.46,6.53-6.53,16.19-6.52,17.27c0.04,3.08,2.54,5.55,5.62,5.55
		h0.07c3.1-0.04,5.59-2.58,5.55-5.68c0-0.06,0.07-6,3.27-9.23c1.47-1.49,3.48-2.21,6.16-2.21c2.67,0,4.67,0.71,6.12,2.16
		C236.3,248.67,236.85,253.5,236.84,255.1"/>
	<path class="st2" d="M317.98,287.4c-2.98-0.85-6.09,0.87-6.95,3.86c-0.07,0.25-7.52,25.22-34.38,25.22
		c-26.6,0-33.72-23.95-34-24.94c-0.83-2.99-3.92-4.75-6.91-3.92c-2.99,0.83-4.75,3.92-3.92,6.91c3.16,11.48,16.61,33.19,44.84,33.19
		c28.2,0,41.88-21.83,45.18-33.37C322.7,291.36,320.97,288.25,317.98,287.4"/>
</g>
</svg>
