<?xml version="1.0" encoding="utf-8"?>
<!-- Generator: Adobe Illustrator 25.0.0, SVG Export Plug-In . SVG Version: 6.00 Build 0)  -->
<svg version="1.1" id="Layer_1" xmlns="http://www.w3.org/2000/svg" xmlns:xlink="http://www.w3.org/1999/xlink" x="0px" y="0px"
	 viewBox="0 0 145 47" style="enable-background:new 0 0 145 47;" xml:space="preserve">
<style type="text/css">
	.st0{fill:#F38120;}
	.st1{fill:#21365F;}
	.st2{fill:#FFFFFF;}
</style>
<g id="Logo">
	<g>
		<path class="st0" d="M16.2,17.42c0-1.66-0.82-2.63-2.46-2.9l2.46-2.77h-2.49l-2.94,3.25v1.71c0.59-0.36,1.23-0.55,1.91-0.55
			c1.03,0,1.54,0.39,1.54,1.16c0,0.62-0.31,0.92-0.92,0.92H9.5l-1.06,1.98h5.06C15.3,20.22,16.2,19.29,16.2,17.42z"/>
		<path class="st0" d="M37.02,13.42c1.48,0,2.22-0.76,2.22-2.29c0-0.68-0.2-1.22-0.6-1.62c-0.4-0.4-0.94-0.6-1.62-0.6
			c-0.66,0-1.2,0.2-1.62,0.62c-0.42,0.41-0.63,0.95-0.63,1.61c0,0.68,0.21,1.24,0.62,1.66C35.78,13.21,36.33,13.42,37.02,13.42z"/>
		<path class="st0" d="M31.79,13.42c1.48,0,2.22-0.76,2.22-2.29c0-0.68-0.2-1.22-0.6-1.62c-0.4-0.4-0.94-0.6-1.62-0.6
			c-0.68,0-1.23,0.2-1.64,0.62c-0.41,0.41-0.61,0.95-0.61,1.61c0,0.71,0.2,1.26,0.61,1.67C30.56,13.22,31.1,13.42,31.79,13.42z"/>
		<path class="st0" d="M45.93,6.58c0.66,0,1.24-0.16,1.74-0.48c0.48,0.32,1.07,0.48,1.78,0.48c0.87,0,1.58-0.25,2.14-0.75
			c0.56-0.5,0.84-1.14,0.84-1.91V0.4L50,1.73v2.05c0,0.32-0.18,0.48-0.55,0.48c-0.36,0-0.55-0.15-0.55-0.44V0.74l-2.39,1.33v1.74
			c0,0.3-0.18,0.44-0.55,0.44c-0.39,0-0.58-0.16-0.58-0.48V1.12L43,2.45v1.47c0,0.77,0.27,1.41,0.82,1.91S45.07,6.58,45.93,6.58z"/>
		<path class="st1" d="M83.42,18.68v6.32c0,0.89-0.18,1.52-0.55,1.9c-0.36,0.38-0.98,0.56-1.85,0.56h-2.32
			c-0.87,0-1.49-0.19-1.86-0.56c-0.38-0.38-0.56-1.01-0.56-1.9v-7.69l-4.31,2.29v5.4c0,0.89-0.18,1.52-0.55,1.9
			c-0.36,0.38-0.98,0.56-1.85,0.56h-2.32c-0.87,0-1.48-0.19-1.85-0.56c-0.36-0.38-0.55-1.01-0.55-1.9v-6.77l-4.31,2.26v4.51
			c0,0.89-0.19,1.52-0.56,1.9c-0.38,0.38-1,0.56-1.86,0.56h-1.57h-2.05h-1.03c-0.87,0-1.48-0.19-1.85-0.56
			c-0.36-0.38-0.55-1.01-0.55-1.9v-8.58l-0.03,0.03v-6.9l-4.27,2.29v12.61c0,1.09-0.22,1.87-0.67,2.32
			c-0.44,0.46-1.19,0.68-2.24,0.68h-0.1h-2.05h-1.03c-0.87,0-1.48-0.19-1.85-0.56c-0.36-0.38-0.55-1.01-0.55-1.9v-8.58l-4.31,2.26
			v6.32c0,0.89-0.18,1.52-0.55,1.9c-0.36,0.38-0.98,0.56-1.85,0.56h-1.02h-2.05h-1.03c-0.87,0-1.49-0.19-1.86-0.56
			c-0.38-0.38-0.56-1.01-0.56-1.9V9.56l-4.27,2.26v13.16c0,0.89-0.18,1.53-0.55,1.91c-0.36,0.39-0.98,0.58-1.85,0.58H7.28
			c-0.87,0-1.49-0.19-1.86-0.56c-0.38-0.38-0.56-1.02-0.56-1.93V19.5l-4.27,2.26v3.49c0,1.8,0.49,3.27,1.47,4.41
			c1.09,1.3,2.61,1.95,4.55,1.95h12.2c1.69,0,3.08-0.44,4.17-1.33c1.07,0.89,2.45,1.33,4.14,1.33h1.44h2.05h1.44
			c1.66,0,3.04-0.44,4.14-1.33c1.09,0.89,2.47,1.33,4.14,1.33h1.44h2.05h0.34c1.82,0,3.36-0.5,4.61-1.5c1.12,1,2.56,1.5,4.34,1.5
			h1.44h2.05h2.02c1.69,0,3.06-0.5,4.14-1.5c1.07,1,2.45,1.5,4.14,1.5h3.38c1.62-0.02,2.92-0.52,3.9-1.5c1.07,1,2.45,1.5,4.14,1.5
			h3.38c1.75-0.05,3.17-0.58,4.24-1.61c1.23-1.16,1.85-2.76,1.85-4.78v-8.78L83.42,18.68z"/>
		<path class="st1" d="M4.03,41.37c-0.55-0.2-0.91-0.38-1.09-0.52c-0.17-0.14-0.26-0.34-0.26-0.58c0-0.55,0.38-0.82,1.14-0.82
			c0.58,0,1.23,0.15,1.96,0.47c0.35-0.48,0.6-0.84,0.77-1.08c-0.84-0.57-1.75-0.85-2.72-0.85c-0.85,0-1.53,0.2-2.05,0.6
			C1.24,39,0.97,39.56,0.97,40.27c0,1.17,0.82,2.02,2.46,2.55c1.02,0.34,1.52,0.74,1.52,1.22c0,0.74-0.47,1.1-1.41,1.1
			c-0.83,0-1.52-0.17-2.05-0.52l-0.8,1.08c1.09,0.67,2.12,1.01,3.08,1.01c0.81,0,1.5-0.19,2.05-0.57c0.67-0.47,1-1.13,1-2
			c0-0.61-0.22-1.14-0.65-1.57S5.02,41.75,4.03,41.37z"/>
		<path class="st1" d="M12.92,40.36c-0.54,0-1,0.07-1.39,0.21c-0.39,0.14-0.84,0.4-1.37,0.79c0.15,0.28,0.3,0.57,0.47,0.86
			c0.5-0.37,1.06-0.56,1.66-0.56c0.43,0,0.73,0.07,0.89,0.21c0.16,0.14,0.25,0.4,0.25,0.78v0.03h-0.29c-1.14,0-2.01,0.19-2.6,0.56
			c-0.58,0.36-0.87,0.87-0.87,1.52c0,1.3,0.69,1.95,2.07,1.95c0.62,0,1.24-0.24,1.84-0.73l0.14,0.57h1.39v-3.54
			C15.11,41.25,14.38,40.36,12.92,40.36z M13.37,44.62c-0.05,0.26-0.18,0.47-0.41,0.64c-0.23,0.17-0.49,0.25-0.8,0.25
			c-0.49,0-0.74-0.27-0.74-0.82c0-0.29,0.16-0.53,0.48-0.7c0.32-0.18,0.74-0.27,1.26-0.27h0.21V44.62z"/>
		<polygon class="st1" points="18.7,46.56 20.43,46.56 20.43,37.98 18.7,38.86 		"/>
		<polygon class="st1" points="24.01,46.56 25.74,46.56 25.74,37.98 24.01,38.86 		"/>
		<path class="st1" d="M32.15,40.36c-0.54,0-1,0.07-1.39,0.21c-0.39,0.14-0.84,0.4-1.37,0.79c0.15,0.28,0.3,0.57,0.47,0.86
			c0.5-0.37,1.06-0.56,1.66-0.56c0.43,0,0.73,0.07,0.89,0.21c0.17,0.14,0.25,0.4,0.25,0.78v0.03h-0.29c-1.15,0-2.01,0.19-2.6,0.56
			c-0.58,0.36-0.87,0.87-0.87,1.52c0,1.3,0.69,1.95,2.07,1.95c0.62,0,1.24-0.24,1.84-0.73l0.14,0.57h1.39v-3.54
			C34.35,41.25,33.62,40.36,32.15,40.36z M32.61,44.62c-0.05,0.26-0.18,0.47-0.41,0.64c-0.23,0.17-0.5,0.25-0.8,0.25
			c-0.49,0-0.74-0.27-0.74-0.82c0-0.29,0.16-0.53,0.48-0.7c0.32-0.18,0.74-0.27,1.26-0.27h0.21V44.62z"/>
		<path class="st1" d="M40.5,45.52c-0.3,0-0.45-0.22-0.45-0.67v-2.99h1.78v-1.34h-1.77v-1.97c-0.71,0.35-1.29,0.65-1.74,0.89v1.08
			h-0.88v1.34h0.87v3.15c0,1.17,0.55,1.76,1.65,1.76c0.79,0,1.51-0.25,2.16-0.75l-0.58-0.85C41.12,45.41,40.78,45.52,40.5,45.52z"/>
		<path class="st1" d="M48.61,40.52c-0.75,0.63-1.35,1.12-1.8,1.46v-4l-1.73,0.88v7.7h1.73v-2.87c0.39,0.64,0.98,1.6,1.74,2.87h1.95
			c-0.6-0.81-1.44-2.01-2.54-3.6l2.95-2.43H48.61z"/>
		<path class="st1" d="M54.98,44.69c-0.29,0-0.53,0.08-0.72,0.25c-0.19,0.17-0.29,0.39-0.31,0.66v0.03c0,0.3,0.09,0.54,0.28,0.73
			c0.19,0.18,0.44,0.27,0.75,0.27c0.3,0,0.54-0.09,0.73-0.27c0.18-0.18,0.27-0.41,0.27-0.69v-0.03c0-0.28-0.09-0.51-0.27-0.69
			C55.52,44.77,55.28,44.69,54.98,44.69z"/>
		<path class="st1" d="M62.94,45.52c-0.5,0-0.92-0.18-1.24-0.54c-0.33-0.36-0.49-0.82-0.49-1.38c0-0.6,0.17-1.1,0.49-1.48
			c0.33-0.39,0.75-0.58,1.26-0.58c0.55,0,1.06,0.2,1.52,0.6l0.52-0.9c-0.59-0.59-1.36-0.88-2.32-0.88c-0.87,0-1.61,0.27-2.21,0.81
			c-0.7,0.62-1.04,1.42-1.04,2.39c0,0.87,0.27,1.59,0.81,2.17c0.62,0.66,1.47,0.98,2.53,0.98c0.89,0,1.66-0.31,2.31-0.93l-0.59-0.92
			C64.06,45.31,63.55,45.52,62.94,45.52z"/>
		<path class="st1" d="M70.81,40.36c-0.9,0-1.62,0.27-2.18,0.82c-0.61,0.6-0.92,1.39-0.92,2.37c0,0.86,0.27,1.59,0.82,2.18
			c0.61,0.66,1.37,0.98,2.28,0.98c0.78,0,1.46-0.26,2.05-0.77c0.71-0.61,1.06-1.41,1.06-2.39c0-0.84-0.24-1.56-0.71-2.14
			C72.63,40.71,71.84,40.36,70.81,40.36z M70.81,45.47c-0.89,0-1.33-0.64-1.33-1.91c0-1.33,0.44-2,1.33-2s1.33,0.66,1.33,2
			C72.14,44.83,71.7,45.47,70.81,45.47z"/>
		<path class="st1" d="M85.26,40.36c-0.5,0-0.97,0.11-1.39,0.33s-0.74,0.51-0.94,0.86c-0.16-0.36-0.44-0.65-0.84-0.87
			c-0.41-0.22-0.88-0.33-1.41-0.33c-0.77,0-1.41,0.25-1.92,0.74h-0.07l-0.12-0.59h-1.47v6.04h1.73v-4.38
			c0.07-0.11,0.23-0.21,0.47-0.29c0.24-0.08,0.5-0.12,0.78-0.12c0.47,0,0.8,0.11,0.99,0.33c0.19,0.22,0.29,0.59,0.29,1.11v3.35h1.73
			v-4.1c0.38-0.46,0.87-0.69,1.47-0.69c0.42,0,0.72,0.12,0.9,0.37c0.18,0.24,0.27,0.66,0.27,1.26v3.17h1.74v-3.62
			C87.46,41.22,86.72,40.36,85.26,40.36z"/>
	</g>
	<g>
		<path class="st0" d="M95.74,0.79l-4.28-0.05c-0.58-0.03-1.06,0.46-1.06,1.03s0.46,1.05,1.04,1.06l4.28,0.05h0.01
			c0.57,0,1.04-0.46,1.05-1.03C96.78,1.28,96.32,0.8,95.74,0.79"/>
		<path class="st2" d="M141,16.46c-0.82,0.4-1.74,0.63-2.71,0.63c-2.55,0-4.73-1.54-5.66-3.76c-0.93,2.22-3.1,3.76-5.66,3.76
			c-2.55,0-4.73-1.54-5.66-3.76c-0.93,2.22-3.1,3.76-5.66,3.76c-2.55,0-4.73-1.54-5.66-3.76c-0.93,2.22-3.1,3.76-5.66,3.76
			c-1,0-1.94-0.24-2.78-0.66v24.72c0,0.68,0.55,1.23,1.23,1.23h3.29c0.23-1.9,1.85-3.37,3.82-3.37c1.96,0,3.59,1.48,3.82,3.37h15.19
			c0.23-1.9,1.85-3.37,3.82-3.37s3.59,1.48,3.82,3.37h3.22c0.68,0,1.23-0.55,1.23-1.23V16.46z M112.74,22.85
			c-0.49,0.5-0.5,1.41-0.5,1.42c0.01,0.48-0.38,0.87-0.86,0.88h-0.01c-0.47,0-0.86-0.38-0.87-0.86c0-0.17,0.01-1.65,1-2.66
			c0.55-0.56,1.31-0.85,2.18-0.85c0.88,0,1.63,0.3,2.18,0.86c0.98,1,0.98,2.48,0.98,2.64c-0.01,0.48-0.41,0.86-0.88,0.85
			c-0.48-0.01-0.86-0.4-0.85-0.88c0-0.25-0.08-0.99-0.49-1.4c-0.22-0.22-0.53-0.33-0.94-0.33
			C113.28,22.51,112.97,22.62,112.74,22.85 M128.22,30.29c-0.51,1.78-2.62,5.14-6.96,5.14c-4.35,0-6.42-3.34-6.91-5.11
			c-0.13-0.46,0.14-0.94,0.6-1.06c0.46-0.13,0.94,0.14,1.06,0.6c0.04,0.15,1.14,3.84,5.24,3.84c4.14,0,5.28-3.85,5.29-3.88
			c0.13-0.46,0.61-0.73,1.07-0.59C128.08,29.35,128.35,29.83,128.22,30.29 M132.06,24.28c-0.01,0.48-0.41,0.86-0.88,0.85
			c-0.48-0.01-0.86-0.4-0.85-0.88c0-0.25-0.08-0.99-0.49-1.4c-0.22-0.22-0.53-0.33-0.94-0.33c-0.41,0-0.72,0.11-0.95,0.34
			c-0.49,0.5-0.5,1.41-0.5,1.42c0.01,0.48-0.38,0.87-0.86,0.88h-0.01c-0.47,0-0.86-0.38-0.87-0.86c0-0.17,0.01-1.65,1-2.66
			c0.55-0.56,1.31-0.85,2.18-0.85c0.88,0,1.63,0.3,2.18,0.86C132.07,22.64,132.07,24.11,132.06,24.28"/>
		<path class="st0" d="M133.01,10.67h10.28l-1.41-4.48c0,0,0-0.01,0-0.01c-0.73-2.49-1.9-3.7-3.58-3.7h-7.17L133.01,10.67z"/>
		<path class="st0" d="M99.34,10.67h10.29l1.87-8.18h-7.23c-1.68,0-2.85,1.21-3.58,3.7L99.34,10.67z"/>
		<polygon class="st0" points="121.76,10.67 132.03,10.67 130.16,2.49 121.76,2.49 		"/>
		<polygon class="st0" points="110.6,10.67 120.81,10.67 120.81,2.49 112.48,2.49 		"/>
		<path class="st0" d="M104.35,16.14c2.64,0,4.81-1.95,5.14-4.52H99.21C99.54,14.19,101.71,16.14,104.35,16.14"/>
		<path class="st0" d="M115.66,16.14c2.64,0,4.81-1.95,5.14-4.52h-10.28C110.85,14.19,113.02,16.14,115.66,16.14"/>
		<path class="st0" d="M126.97,16.14c2.64,0,4.81-1.95,5.14-4.52h-10.28C122.16,14.19,124.33,16.14,126.97,16.14"/>
		<path class="st0" d="M143.42,11.62h-10.28c0.33,2.57,2.5,4.52,5.14,4.52C140.93,16.14,143.1,14.19,143.42,11.62"/>
		<path class="st1" d="M144.42,11.16c0-0.01,0-0.02,0-0.03c0-0.01,0-0.03,0-0.04c0-0.02-0.01-0.04-0.01-0.06c0-0.01,0-0.02,0-0.03
			l-1.6-5.09c-0.86-2.9-2.37-4.37-4.49-4.37h-7.77h0h-26.26c-1.91,0-3.32,1.19-4.21,3.53l-0.65-3.3c-0.05-0.24-0.26-0.41-0.5-0.42
			L97.2,1.33c-0.21-0.61-0.78-1.05-1.45-1.06l-4.26-0.05c-0.41-0.02-0.8,0.13-1.11,0.41c-0.31,0.29-0.49,0.7-0.5,1.13
			c-0.01,0.86,0.68,1.57,1.55,1.59l4.28,0.05h0.01c0.67,0,1.25-0.44,1.47-1.04l1.28,0.02l0.94,4.73l-1.17,3.89c0,0.01,0,0.02,0,0.02
			c-0.01,0.02-0.01,0.04-0.01,0.06c0,0.01,0,0.03,0,0.04c0,0.01,0,0.02,0,0.02c0.07,1.92,0.99,3.59,2.4,4.67v25.32
			c0,1.2,0.98,2.18,2.18,2.18h3.29c0.24,1.89,1.86,3.35,3.81,3.35c1.96,0,3.57-1.46,3.81-3.35h15.2c0.24,1.89,1.86,3.35,3.81,3.35
			s3.57-1.46,3.81-3.35h3.23c1.2,0,2.18-0.98,2.18-2.18V15.88C143.39,14.81,144.35,13.11,144.42,11.16 M95.73,2.89h-0.01l-4.28-0.05
			c-0.58-0.01-1.04-0.48-1.04-1.06c0.01-0.58,0.49-1.06,1.06-1.03l4.28,0.05c0.58,0.01,1.04,0.48,1.03,1.06
			C96.77,2.43,96.3,2.89,95.73,2.89 M139.77,42.38h-3.22c-0.23-1.9-1.85-3.37-3.82-3.37c-1.96,0-3.59,1.48-3.82,3.37h-15.19
			c-0.23-1.9-1.85-3.37-3.82-3.37c-1.96,0-3.59,1.48-3.82,3.37h-3.29c-0.68,0-1.23-0.55-1.23-1.23V16.43
			c0.83,0.42,1.78,0.66,2.78,0.66c2.55,0,4.73-1.54,5.66-3.76c0.93,2.22,3.1,3.76,5.66,3.76c2.55,0,4.73-1.54,5.66-3.76
			c0.93,2.22,3.1,3.76,5.66,3.76c2.55,0,4.73-1.54,5.66-3.76c0.93,2.22,3.1,3.76,5.66,3.76c0.98,0,1.9-0.23,2.71-0.63v24.7
			C141,41.83,140.45,42.38,139.77,42.38 M132.73,45.35c-1.39,0-2.51-1.12-2.51-2.5c0-1.38,1.12-2.5,2.51-2.5
			c1.39,0,2.51,1.12,2.51,2.5C135.24,44.23,134.12,45.35,132.73,45.35 M109.9,45.35c-1.39,0-2.51-1.12-2.51-2.5
			c0-1.38,1.12-2.5,2.51-2.5s2.51,1.12,2.51,2.5C112.41,44.23,111.29,45.35,109.9,45.35 M104.27,2.49h7.23l-1.87,8.18H99.34
			l1.35-4.49C101.42,3.7,102.59,2.49,104.27,2.49 M141.88,6.19C141.88,6.19,141.88,6.19,141.88,6.19l1.41,4.49h-10.28l-1.87-8.18
			h7.17C139.98,2.49,141.15,3.7,141.88,6.19 M120.81,2.49v8.18H110.6l1.87-8.18H120.81z M130.16,2.49l1.87,8.18h-10.27V2.49H130.16z
			 M120.8,11.62c-0.33,2.57-2.5,4.52-5.14,4.52c-2.64,0-4.81-1.95-5.14-4.52H120.8z M132.11,11.62c-0.33,2.57-2.5,4.52-5.14,4.52
			c-2.64,0-4.81-1.95-5.14-4.52H132.11z M109.49,11.62c-0.33,2.57-2.5,4.52-5.14,4.52c-2.64,0-4.81-1.95-5.14-4.52H109.49z
			 M138.28,16.14c-2.64,0-4.81-1.95-5.14-4.52h10.28C143.1,14.19,140.93,16.14,138.28,16.14"/>
		<path class="st2" d="M112.41,42.85c0-1.38-1.12-2.5-2.51-2.5c-1.39,0-2.51,1.12-2.51,2.5c0,1.38,1.12,2.5,2.51,2.5
			C111.29,45.35,112.41,44.23,112.41,42.85"/>
		<path class="st2" d="M135.24,42.85c0-1.38-1.12-2.5-2.51-2.5c-1.39,0-2.51,1.12-2.51,2.5c0,1.38,1.12,2.5,2.51,2.5
			C134.12,45.35,135.24,44.23,135.24,42.85"/>
		<path class="st1" d="M128.9,20.78c-0.87,0-1.63,0.3-2.18,0.85c-0.99,1.01-1.01,2.49-1,2.66c0.01,0.47,0.39,0.86,0.87,0.86h0.01
			c0.48-0.01,0.86-0.4,0.86-0.88c0-0.01,0.01-0.92,0.5-1.42c0.23-0.23,0.54-0.34,0.95-0.34c0.41,0,0.72,0.11,0.94,0.33
			c0.41,0.41,0.49,1.15,0.49,1.4c-0.01,0.48,0.37,0.87,0.85,0.88c0.47,0.02,0.87-0.37,0.88-0.85c0-0.17,0-1.64-0.98-2.64
			C130.53,21.07,129.78,20.78,128.9,20.78"/>
		<path class="st1" d="M115.13,24.24c-0.01,0.48,0.37,0.87,0.85,0.88c0.47,0.02,0.87-0.37,0.88-0.85c0-0.17,0-1.64-0.98-2.64
			c-0.55-0.56-1.3-0.86-2.18-0.86c-0.87,0-1.63,0.3-2.18,0.85c-0.99,1.01-1.01,2.49-1,2.66c0.01,0.47,0.39,0.86,0.87,0.86h0.01
			c0.48-0.01,0.86-0.4,0.86-0.88c0-0.01,0.01-0.92,0.5-1.42c0.23-0.23,0.54-0.34,0.95-0.34c0.41,0,0.72,0.11,0.94,0.33
			C115.04,23.25,115.13,23.99,115.13,24.24"/>
		<path class="st1" d="M127.62,29.22c-0.46-0.13-0.94,0.13-1.07,0.59c-0.01,0.04-1.16,3.88-5.29,3.88c-4.1,0-5.19-3.69-5.24-3.84
			c-0.13-0.46-0.6-0.73-1.06-0.6c-0.46,0.13-0.73,0.6-0.6,1.06c0.49,1.77,2.56,5.11,6.91,5.11c4.34,0,6.45-3.36,6.96-5.14
			C128.35,29.83,128.08,29.35,127.62,29.22"/>
	</g>
</g>
</svg>
